# MagicaVoxel @ Ephtracy

# group
o 

# material
mtllib 4.mtl
usemtl palette

# normals
vn -1 0 0
vn 1 0 0
vn 0 0 1
vn 0 0 -1
vn 0 -1 0
vn 0 1 0

# texcoords
vt 0.677734 0.5

# verts
v 0 0 0
v 0 0 -0.1
v 0 0.3 0.1
v 0 0.3 0
v 0 0.3 -0.1
v 0 0.3 -0.2
v 0 0.4 0.1
v 0 0.4 0
v 0 0.4 -0.1
v 0 0.4 -0.2
v 0.1 0 0
v 0.1 0 -0.1
v 0.1 0.3 0.1
v 0.1 0.3 0
v 0.1 0.3 -0.1
v 0.1 0.3 -0.2
v 0.1 0.4 0.1
v 0.1 0.4 0
v 0.1 0.4 -0.1
v 0.1 0.4 -0.2
v 0 0.3 0.1
v 0 0.4 0.1
v 0.1 0.3 0.1
v 0.1 0.4 0.1
v 0 0 0
v 0 0.3 0
v 0.1 0 0
v 0.1 0.3 0
v 0 0.3 -0.1
v 0 0.4 -0.1
v 0.1 0.3 -0.1
v 0.1 0.4 -0.1
v 0 0.3 0
v 0 0.4 0
v 0.1 0.3 0
v 0.1 0.4 0
v 0 0 -0.1
v 0 0.3 -0.1
v 0.1 0 -0.1
v 0.1 0.3 -0.1
v 0 0.3 -0.2
v 0 0.4 -0.2
v 0.1 0.3 -0.2
v 0.1 0.4 -0.2
v 0 0 0
v 0.1 0 0
v 0 0 -0.1
v 0.1 0 -0.1
v 0 0.3 0.1
v 0.1 0.3 0.1
v 0 0.3 0
v 0.1 0.3 0
v 0 0.3 -0.1
v 0.1 0.3 -0.1
v 0 0.3 -0.2
v 0.1 0.3 -0.2
v 0 0.3 0
v 0.1 0.3 0
v 0 0.3 -0.1
v 0.1 0.3 -0.1
v 0 0.4 0.1
v 0.1 0.4 0.1
v 0 0.4 0
v 0.1 0.4 0
v 0 0.4 -0.1
v 0.1 0.4 -0.1
v 0 0.4 -0.2
v 0.1 0.4 -0.2

# faces
f 4/1/1 2/1/1 1/1/1
f 5/1/1 2/1/1 4/1/1
f 7/1/1 4/1/1 3/1/1
f 8/1/1 4/1/1 7/1/1
f 9/1/1 6/1/1 5/1/1
f 10/1/1 6/1/1 9/1/1
f 11/1/2 12/1/2 14/1/2
f 14/1/2 12/1/2 15/1/2
f 13/1/2 14/1/2 17/1/2
f 17/1/2 14/1/2 18/1/2
f 15/1/2 16/1/2 19/1/2
f 19/1/2 16/1/2 20/1/2
f 23/1/3 22/1/3 21/1/3
f 24/1/3 22/1/3 23/1/3
f 27/1/3 26/1/3 25/1/3
f 28/1/3 26/1/3 27/1/3
f 31/1/3 30/1/3 29/1/3
f 32/1/3 30/1/3 31/1/3
f 33/1/4 34/1/4 35/1/4
f 35/1/4 34/1/4 36/1/4
f 37/1/4 38/1/4 39/1/4
f 39/1/4 38/1/4 40/1/4
f 41/1/4 42/1/4 43/1/4
f 43/1/4 42/1/4 44/1/4
f 47/1/5 46/1/5 45/1/5
f 48/1/5 46/1/5 47/1/5
f 51/1/5 50/1/5 49/1/5
f 52/1/5 50/1/5 51/1/5
f 55/1/5 54/1/5 53/1/5
f 56/1/5 54/1/5 55/1/5
f 57/1/6 58/1/6 59/1/6
f 59/1/6 58/1/6 60/1/6
f 61/1/6 62/1/6 63/1/6
f 63/1/6 62/1/6 64/1/6
f 65/1/6 66/1/6 67/1/6
f 67/1/6 66/1/6 68/1/6
