# MagicaVoxel @ Ephtracy

# group
o 

# material
mtllib BobTorso.mtl
usemtl palette

# normals
vn -1 0 0
vn 1 0 0
vn 0 0 1
vn 0 0 -1
vn 0 -1 0
vn 0 1 0

# texcoords
vt 0.326172 0.5
vt 0.833984 0.5
vt 0.837891 0.5
vt 0.958984 0.5
vt 0.978516 0.5
vt 0.994141 0.5

# verts
v -0.6 0.4 0.1
v -0.6 0.4 -0.1
v -0.6 0.5 0.1
v -0.6 0.5 -0.1
v -0.6 0.6 0.1
v -0.6 0.6 -0.1
v -0.4 0 0.3
v -0.4 0 -0.3
v -0.4 0.1 0.3
v -0.4 0.1 -0.3
v -0.4 0.2 0.3
v -0.4 0.2 -0.3
v -0.4 0.3 0.3
v -0.4 0.3 -0.3
v -0.4 0.4 0.3
v -0.4 0.4 0.1
v -0.4 0.4 -0.1
v -0.4 0.4 -0.3
v -0.4 0.5 0.3
v -0.4 0.5 0.1
v -0.4 0.5 -0.1
v -0.4 0.5 -0.3
v -0.4 0.6 0.3
v -0.4 0.6 0.1
v -0.4 0.6 -0.1
v -0.4 0.6 -0.3
v -0.4 0.7 0.3
v -0.4 0.7 -0.3
v -0.3 0 0.4
v -0.3 0 0.3
v -0.3 0 -0.3
v -0.3 0 -0.4
v -0.3 0.1 0.4
v -0.3 0.1 0.3
v -0.3 0.1 -0.3
v -0.3 0.1 -0.4
v -0.3 0.2 0.4
v -0.3 0.2 0.3
v -0.3 0.2 -0.3
v -0.3 0.2 -0.4
v -0.3 0.3 0.4
v -0.3 0.3 0.3
v -0.3 0.3 -0.3
v -0.3 0.3 -0.4
v -0.3 0.4 0.4
v -0.3 0.4 0.3
v -0.3 0.4 -0.3
v -0.3 0.4 -0.4
v -0.3 0.5 0.4
v -0.3 0.5 0.3
v -0.3 0.5 -0.3
v -0.3 0.5 -0.4
v -0.3 0.6 0.4
v -0.3 0.6 0.3
v -0.3 0.6 -0.3
v -0.3 0.6 -0.4
v -0.3 0.7 0.4
v -0.3 0.7 0.3
v -0.3 0.7 -0.3
v -0.3 0.7 -0.4
v -0.2 0.7 0.2
v -0.2 0.7 -0.2
v -0.2 0.8 0.2
v -0.2 0.8 -0.2
v 0.2 0.7 0.2
v 0.2 0.7 -0.2
v 0.2 0.8 0.2
v 0.2 0.8 -0.2
v 0.3 0 0.4
v 0.3 0 0.3
v 0.3 0 -0.3
v 0.3 0 -0.4
v 0.3 0.1 0.4
v 0.3 0.1 0.3
v 0.3 0.1 -0.3
v 0.3 0.1 -0.4
v 0.3 0.2 0.4
v 0.3 0.2 0.3
v 0.3 0.2 -0.3
v 0.3 0.2 -0.4
v 0.3 0.3 0.4
v 0.3 0.3 0.3
v 0.3 0.3 -0.3
v 0.3 0.3 -0.4
v 0.3 0.4 0.4
v 0.3 0.4 0.3
v 0.3 0.4 -0.3
v 0.3 0.4 -0.4
v 0.3 0.5 0.4
v 0.3 0.5 0.3
v 0.3 0.5 -0.3
v 0.3 0.5 -0.4
v 0.3 0.6 0.4
v 0.3 0.6 0.3
v 0.3 0.6 -0.3
v 0.3 0.6 -0.4
v 0.3 0.7 0.4
v 0.3 0.7 0.3
v 0.3 0.7 -0.3
v 0.3 0.7 -0.4
v 0.4 0 0.3
v 0.4 0 -0.3
v 0.4 0.1 0.3
v 0.4 0.1 -0.3
v 0.4 0.2 0.3
v 0.4 0.2 -0.3
v 0.4 0.3 0.3
v 0.4 0.3 -0.3
v 0.4 0.4 0.3
v 0.4 0.4 0.1
v 0.4 0.4 -0.1
v 0.4 0.4 -0.3
v 0.4 0.5 0.3
v 0.4 0.5 0.1
v 0.4 0.5 -0.1
v 0.4 0.5 -0.3
v 0.4 0.6 0.3
v 0.4 0.6 0.1
v 0.4 0.6 -0.1
v 0.4 0.6 -0.3
v 0.4 0.7 0.3
v 0.4 0.7 -0.3
v 0.6 0.4 0.1
v 0.6 0.4 -0.1
v 0.6 0.5 0.1
v 0.6 0.5 -0.1
v 0.6 0.6 0.1
v 0.6 0.6 -0.1
v -0.3 0 0.4
v -0.3 0.1 0.4
v -0.3 0.2 0.4
v -0.3 0.3 0.4
v -0.3 0.4 0.4
v -0.3 0.5 0.4
v -0.3 0.6 0.4
v -0.3 0.7 0.4
v 0.3 0 0.4
v 0.3 0.1 0.4
v 0.3 0.2 0.4
v 0.3 0.3 0.4
v 0.3 0.4 0.4
v 0.3 0.5 0.4
v 0.3 0.6 0.4
v 0.3 0.7 0.4
v -0.4 0 0.3
v -0.4 0.1 0.3
v -0.4 0.2 0.3
v -0.4 0.3 0.3
v -0.4 0.4 0.3
v -0.4 0.5 0.3
v -0.4 0.6 0.3
v -0.4 0.7 0.3
v -0.3 0 0.3
v -0.3 0.1 0.3
v -0.3 0.2 0.3
v -0.3 0.3 0.3
v -0.3 0.4 0.3
v -0.3 0.5 0.3
v -0.3 0.6 0.3
v -0.3 0.7 0.3
v 0.3 0 0.3
v 0.3 0.1 0.3
v 0.3 0.2 0.3
v 0.3 0.3 0.3
v 0.3 0.4 0.3
v 0.3 0.5 0.3
v 0.3 0.6 0.3
v 0.3 0.7 0.3
v 0.4 0 0.3
v 0.4 0.1 0.3
v 0.4 0.2 0.3
v 0.4 0.3 0.3
v 0.4 0.4 0.3
v 0.4 0.5 0.3
v 0.4 0.6 0.3
v 0.4 0.7 0.3
v -0.2 0.7 0.2
v -0.2 0.8 0.2
v 0.2 0.7 0.2
v 0.2 0.8 0.2
v -0.6 0.4 0.1
v -0.6 0.5 0.1
v -0.6 0.6 0.1
v -0.4 0.4 0.1
v -0.4 0.5 0.1
v -0.4 0.6 0.1
v 0.4 0.4 0.1
v 0.4 0.5 0.1
v 0.4 0.6 0.1
v 0.6 0.4 0.1
v 0.6 0.5 0.1
v 0.6 0.6 0.1
v -0.6 0.4 -0.1
v -0.6 0.5 -0.1
v -0.6 0.6 -0.1
v -0.4 0.4 -0.1
v -0.4 0.5 -0.1
v -0.4 0.6 -0.1
v 0.4 0.4 -0.1
v 0.4 0.5 -0.1
v 0.4 0.6 -0.1
v 0.6 0.4 -0.1
v 0.6 0.5 -0.1
v 0.6 0.6 -0.1
v -0.2 0.7 -0.2
v -0.2 0.8 -0.2
v -0.1 0.7 -0.2
v 0.1 0.7 -0.2
v 0.2 0.7 -0.2
v 0.2 0.8 -0.2
v -0.4 0 -0.3
v -0.4 0.1 -0.3
v -0.4 0.2 -0.3
v -0.4 0.3 -0.3
v -0.4 0.4 -0.3
v -0.4 0.5 -0.3
v -0.4 0.6 -0.3
v -0.4 0.7 -0.3
v -0.3 0 -0.3
v -0.3 0.1 -0.3
v -0.3 0.2 -0.3
v -0.3 0.3 -0.3
v -0.3 0.4 -0.3
v -0.3 0.5 -0.3
v -0.3 0.6 -0.3
v -0.3 0.7 -0.3
v 0.3 0 -0.3
v 0.3 0.1 -0.3
v 0.3 0.2 -0.3
v 0.3 0.3 -0.3
v 0.3 0.4 -0.3
v 0.3 0.5 -0.3
v 0.3 0.6 -0.3
v 0.3 0.7 -0.3
v 0.4 0 -0.3
v 0.4 0.1 -0.3
v 0.4 0.2 -0.3
v 0.4 0.3 -0.3
v 0.4 0.4 -0.3
v 0.4 0.5 -0.3
v 0.4 0.6 -0.3
v 0.4 0.7 -0.3
v -0.3 0 -0.4
v -0.3 0.1 -0.4
v -0.3 0.2 -0.4
v -0.3 0.3 -0.4
v -0.3 0.4 -0.4
v -0.3 0.5 -0.4
v -0.3 0.6 -0.4
v -0.3 0.7 -0.4
v -0.1 0 -0.4
v -0.1 0.1 -0.4
v -0.1 0.2 -0.4
v -0.1 0.3 -0.4
v -0.1 0.4 -0.4
v -0.1 0.5 -0.4
v -0.1 0.6 -0.4
v -0.1 0.7 -0.4
v -5.96046e-008 0.1 -0.4
v -5.96046e-008 0.2 -0.4
v -5.96046e-008 0.3 -0.4
v -5.96046e-008 0.4 -0.4
v -5.96046e-008 0.5 -0.4
v -5.96046e-008 0.6 -0.4
v 0.1 0 -0.4
v 0.1 0.1 -0.4
v 0.1 0.2 -0.4
v 0.1 0.3 -0.4
v 0.1 0.4 -0.4
v 0.1 0.5 -0.4
v 0.1 0.6 -0.4
v 0.1 0.7 -0.4
v 0.3 0 -0.4
v 0.3 0.1 -0.4
v 0.3 0.2 -0.4
v 0.3 0.3 -0.4
v 0.3 0.4 -0.4
v 0.3 0.5 -0.4
v 0.3 0.6 -0.4
v 0.3 0.7 -0.4
v -0.3 0 0.4
v 0.3 0 0.4
v -0.4 0 0.3
v -0.3 0 0.3
v 0.3 0 0.3
v 0.4 0 0.3
v -0.4 0 -0.3
v -0.3 0 -0.3
v -0.1 0 -0.3
v 0.1 0 -0.3
v 0.3 0 -0.3
v 0.4 0 -0.3
v -0.3 0 -0.4
v -0.1 0 -0.4
v 0.1 0 -0.4
v 0.3 0 -0.4
v -0.6 0.4 0.1
v -0.4 0.4 0.1
v 0.4 0.4 0.1
v 0.6 0.4 0.1
v -0.6 0.4 -0.1
v -0.4 0.4 -0.1
v 0.4 0.4 -0.1
v 0.6 0.4 -0.1
v -0.6 0.6 0.1
v -0.4 0.6 0.1
v 0.4 0.6 0.1
v 0.6 0.6 0.1
v -0.6 0.6 -0.1
v -0.4 0.6 -0.1
v 0.4 0.6 -0.1
v 0.6 0.6 -0.1
v -0.3 0.7 0.4
v 0.3 0.7 0.4
v -0.4 0.7 0.3
v -0.3 0.7 0.3
v 0.3 0.7 0.3
v 0.4 0.7 0.3
v -0.2 0.7 0.2
v 0.2 0.7 0.2
v -0.2 0.7 -0.2
v -0.1 0.7 -0.2
v 0.1 0.7 -0.2
v 0.2 0.7 -0.2
v -0.4 0.7 -0.3
v -0.3 0.7 -0.3
v -0.1 0.7 -0.3
v 0.1 0.7 -0.3
v 0.3 0.7 -0.3
v 0.4 0.7 -0.3
v -0.3 0.7 -0.4
v -0.1 0.7 -0.4
v 0.1 0.7 -0.4
v 0.3 0.7 -0.4
v -0.2 0.8 0.2
v 0.2 0.8 0.2
v -0.2 0.8 -0.2
v 0.2 0.8 -0.2

# faces
f 3/3/1 2/3/1 1/3/1
f 4/3/1 2/3/1 3/3/1
f 5/2/1 4/2/1 3/2/1
f 6/2/1 4/2/1 5/2/1
f 9/3/1 8/3/1 7/3/1
f 10/3/1 8/3/1 9/3/1
f 11/2/1 10/2/1 9/2/1
f 12/2/1 10/2/1 11/2/1
f 13/3/1 12/3/1 11/3/1
f 14/3/1 12/3/1 13/3/1
f 15/2/1 14/2/1 13/2/1
f 16/2/1 14/2/1 15/2/1
f 17/2/1 14/2/1 16/2/1
f 18/2/1 14/2/1 17/2/1
f 19/3/1 16/3/1 15/3/1
f 20/3/1 16/3/1 19/3/1
f 21/3/1 18/3/1 17/3/1
f 22/3/1 18/3/1 21/3/1
f 23/2/1 20/2/1 19/2/1
f 24/2/1 20/2/1 23/2/1
f 25/2/1 22/2/1 21/2/1
f 26/2/1 22/2/1 25/2/1
f 27/3/1 24/3/1 23/3/1
f 27/3/1 25/3/1 24/3/1
f 27/3/1 26/3/1 25/3/1
f 28/3/1 26/3/1 27/3/1
f 33/3/1 30/3/1 29/3/1
f 34/3/1 30/3/1 33/3/1
f 35/3/1 32/3/1 31/3/1
f 36/3/1 32/3/1 35/3/1
f 37/2/1 34/2/1 33/2/1
f 38/2/1 34/2/1 37/2/1
f 39/2/1 36/2/1 35/2/1
f 40/2/1 36/2/1 39/2/1
f 41/3/1 38/3/1 37/3/1
f 42/3/1 38/3/1 41/3/1
f 43/3/1 40/3/1 39/3/1
f 44/3/1 40/3/1 43/3/1
f 45/2/1 42/2/1 41/2/1
f 46/2/1 42/2/1 45/2/1
f 47/2/1 44/2/1 43/2/1
f 48/2/1 44/2/1 47/2/1
f 49/3/1 46/3/1 45/3/1
f 50/3/1 46/3/1 49/3/1
f 51/3/1 48/3/1 47/3/1
f 52/3/1 48/3/1 51/3/1
f 53/2/1 50/2/1 49/2/1
f 54/2/1 50/2/1 53/2/1
f 55/2/1 52/2/1 51/2/1
f 56/2/1 52/2/1 55/2/1
f 57/3/1 54/3/1 53/3/1
f 58/3/1 54/3/1 57/3/1
f 59/3/1 56/3/1 55/3/1
f 60/3/1 56/3/1 59/3/1
f 63/1/1 62/1/1 61/1/1
f 64/1/1 62/1/1 63/1/1
f 65/1/2 66/1/2 67/1/2
f 67/1/2 66/1/2 68/1/2
f 69/3/2 70/3/2 73/3/2
f 73/3/2 70/3/2 74/3/2
f 71/3/2 72/3/2 75/3/2
f 75/3/2 72/3/2 76/3/2
f 73/2/2 74/2/2 77/2/2
f 77/2/2 74/2/2 78/2/2
f 75/2/2 76/2/2 79/2/2
f 79/2/2 76/2/2 80/2/2
f 77/3/2 78/3/2 81/3/2
f 81/3/2 78/3/2 82/3/2
f 79/3/2 80/3/2 83/3/2
f 83/3/2 80/3/2 84/3/2
f 81/2/2 82/2/2 85/2/2
f 85/2/2 82/2/2 86/2/2
f 83/2/2 84/2/2 87/2/2
f 87/2/2 84/2/2 88/2/2
f 85/3/2 86/3/2 89/3/2
f 89/3/2 86/3/2 90/3/2
f 87/3/2 88/3/2 91/3/2
f 91/3/2 88/3/2 92/3/2
f 89/2/2 90/2/2 93/2/2
f 93/2/2 90/2/2 94/2/2
f 91/2/2 92/2/2 95/2/2
f 95/2/2 92/2/2 96/2/2
f 93/3/2 94/3/2 97/3/2
f 97/3/2 94/3/2 98/3/2
f 95/3/2 96/3/2 99/3/2
f 99/3/2 96/3/2 100/3/2
f 101/3/2 102/3/2 103/3/2
f 103/3/2 102/3/2 104/3/2
f 103/2/2 104/2/2 105/2/2
f 105/2/2 104/2/2 106/2/2
f 105/3/2 106/3/2 107/3/2
f 107/3/2 106/3/2 108/3/2
f 107/2/2 108/2/2 109/2/2
f 109/2/2 108/2/2 110/2/2
f 110/2/2 108/2/2 111/2/2
f 111/2/2 108/2/2 112/2/2
f 109/3/2 110/3/2 113/3/2
f 113/3/2 110/3/2 114/3/2
f 111/3/2 112/3/2 115/3/2
f 115/3/2 112/3/2 116/3/2
f 113/2/2 114/2/2 117/2/2
f 117/2/2 114/2/2 118/2/2
f 115/2/2 116/2/2 119/2/2
f 119/2/2 116/2/2 120/2/2
f 117/3/2 118/3/2 121/3/2
f 118/3/2 119/3/2 121/3/2
f 119/3/2 120/3/2 121/3/2
f 121/3/2 120/3/2 122/3/2
f 123/3/2 124/3/2 125/3/2
f 125/3/2 124/3/2 126/3/2
f 125/2/2 126/2/2 127/2/2
f 127/2/2 126/2/2 128/2/2
f 137/3/3 130/3/3 129/3/3
f 138/2/3 131/2/3 130/2/3
f 138/3/3 130/3/3 137/3/3
f 139/3/3 132/3/3 131/3/3
f 139/2/3 131/2/3 138/2/3
f 140/2/3 133/2/3 132/2/3
f 140/3/3 132/3/3 139/3/3
f 141/3/3 134/3/3 133/3/3
f 141/2/3 133/2/3 140/2/3
f 142/2/3 135/2/3 134/2/3
f 142/3/3 134/3/3 141/3/3
f 143/3/3 136/3/3 135/3/3
f 143/2/3 135/2/3 142/2/3
f 144/3/3 136/3/3 143/3/3
f 153/3/3 146/3/3 145/3/3
f 154/2/3 147/2/3 146/2/3
f 154/3/3 146/3/3 153/3/3
f 155/3/3 148/3/3 147/3/3
f 155/2/3 147/2/3 154/2/3
f 156/2/3 149/2/3 148/2/3
f 156/3/3 148/3/3 155/3/3
f 157/3/3 150/3/3 149/3/3
f 157/2/3 149/2/3 156/2/3
f 158/2/3 151/2/3 150/2/3
f 158/3/3 150/3/3 157/3/3
f 159/3/3 152/3/3 151/3/3
f 159/2/3 151/2/3 158/2/3
f 160/3/3 152/3/3 159/3/3
f 169/3/3 162/3/3 161/3/3
f 170/2/3 163/2/3 162/2/3
f 170/3/3 162/3/3 169/3/3
f 171/3/3 164/3/3 163/3/3
f 171/2/3 163/2/3 170/2/3
f 172/2/3 165/2/3 164/2/3
f 172/3/3 164/3/3 171/3/3
f 173/3/3 166/3/3 165/3/3
f 173/2/3 165/2/3 172/2/3
f 174/2/3 167/2/3 166/2/3
f 174/3/3 166/3/3 173/3/3
f 175/3/3 168/3/3 167/3/3
f 175/2/3 167/2/3 174/2/3
f 176/3/3 168/3/3 175/3/3
f 179/1/3 178/1/3 177/1/3
f 180/1/3 178/1/3 179/1/3
f 184/3/3 182/3/3 181/3/3
f 185/2/3 183/2/3 182/2/3
f 185/3/3 182/3/3 184/3/3
f 186/2/3 183/2/3 185/2/3
f 190/3/3 188/3/3 187/3/3
f 191/2/3 189/2/3 188/2/3
f 191/3/3 188/3/3 190/3/3
f 192/2/3 189/2/3 191/2/3
f 193/3/4 194/3/4 196/3/4
f 194/2/4 195/2/4 197/2/4
f 196/3/4 194/3/4 197/3/4
f 197/2/4 195/2/4 198/2/4
f 199/3/4 200/3/4 202/3/4
f 200/2/4 201/2/4 203/2/4
f 202/3/4 200/3/4 203/3/4
f 203/2/4 201/2/4 204/2/4
f 205/1/4 206/1/4 207/1/4
f 207/1/4 206/1/4 208/1/4
f 208/1/4 206/1/4 209/1/4
f 209/1/4 206/1/4 210/1/4
f 211/3/4 212/3/4 219/3/4
f 212/2/4 213/2/4 220/2/4
f 219/3/4 212/3/4 220/3/4
f 213/3/4 214/3/4 221/3/4
f 220/2/4 213/2/4 221/2/4
f 214/2/4 215/2/4 222/2/4
f 221/3/4 214/3/4 222/3/4
f 215/3/4 216/3/4 223/3/4
f 222/2/4 215/2/4 223/2/4
f 216/2/4 217/2/4 224/2/4
f 223/3/4 216/3/4 224/3/4
f 217/3/4 218/3/4 225/3/4
f 224/2/4 217/2/4 225/2/4
f 225/3/4 218/3/4 226/3/4
f 227/3/4 228/3/4 235/3/4
f 228/2/4 229/2/4 236/2/4
f 235/3/4 228/3/4 236/3/4
f 229/3/4 230/3/4 237/3/4
f 236/2/4 229/2/4 237/2/4
f 230/2/4 231/2/4 238/2/4
f 237/3/4 230/3/4 238/3/4
f 231/3/4 232/3/4 239/3/4
f 238/2/4 231/2/4 239/2/4
f 232/2/4 233/2/4 240/2/4
f 239/3/4 232/3/4 240/3/4
f 233/3/4 234/3/4 241/3/4
f 240/2/4 233/2/4 241/2/4
f 241/3/4 234/3/4 242/3/4
f 243/3/4 244/3/4 251/3/4
f 244/2/4 245/2/4 252/2/4
f 251/3/4 244/3/4 252/3/4
f 245/3/4 246/3/4 253/3/4
f 252/2/4 245/2/4 253/2/4
f 246/2/4 247/2/4 254/2/4
f 253/3/4 246/3/4 254/3/4
f 247/3/4 248/3/4 255/3/4
f 254/2/4 247/2/4 255/2/4
f 248/2/4 249/2/4 256/2/4
f 255/3/4 248/3/4 256/3/4
f 249/3/4 250/3/4 257/3/4
f 256/2/4 249/2/4 257/2/4
f 257/3/4 250/3/4 258/3/4
f 255/4/4 256/4/4 259/4/4
f 251/4/4 252/4/4 259/4/4
f 257/4/4 258/4/4 259/4/4
f 256/4/4 257/4/4 259/4/4
f 254/4/4 255/4/4 259/4/4
f 253/4/4 254/4/4 259/4/4
f 252/4/4 253/4/4 259/4/4
f 259/4/4 258/4/4 260/4/4
f 260/4/4 258/4/4 261/4/4
f 261/4/4 258/4/4 262/4/4
f 262/4/4 258/4/4 263/4/4
f 263/4/4 258/4/4 264/4/4
f 251/4/4 259/4/4 265/4/4
f 259/5/4 260/5/4 266/5/4
f 265/4/4 259/4/4 266/4/4
f 260/4/4 261/4/4 267/4/4
f 266/5/4 260/5/4 267/5/4
f 261/5/4 262/5/4 268/5/4
f 267/4/4 261/4/4 268/4/4
f 262/4/4 263/4/4 269/4/4
f 268/5/4 262/5/4 269/5/4
f 263/5/4 264/5/4 270/5/4
f 269/4/4 263/4/4 270/4/4
f 264/4/4 258/4/4 271/4/4
f 270/5/4 264/5/4 271/5/4
f 271/4/4 258/4/4 272/4/4
f 265/3/4 266/3/4 273/3/4
f 266/2/4 267/2/4 274/2/4
f 273/3/4 266/3/4 274/3/4
f 267/3/4 268/3/4 275/3/4
f 274/2/4 267/2/4 275/2/4
f 268/2/4 269/2/4 276/2/4
f 275/3/4 268/3/4 276/3/4
f 269/3/4 270/3/4 277/3/4
f 276/2/4 269/2/4 277/2/4
f 270/2/4 271/2/4 278/2/4
f 277/3/4 270/3/4 278/3/4
f 271/3/4 272/3/4 279/3/4
f 278/2/4 271/2/4 279/2/4
f 279/3/4 272/3/4 280/3/4
f 284/3/5 282/3/5 281/3/5
f 285/3/5 282/3/5 284/3/5
f 287/3/5 284/3/5 283/3/5
f 287/3/5 286/3/5 285/3/5
f 287/3/5 285/3/5 284/3/5
f 288/3/5 286/3/5 287/3/5
f 289/3/5 286/3/5 288/3/5
f 290/3/5 286/3/5 289/3/5
f 291/3/5 286/3/5 290/3/5
f 292/3/5 286/3/5 291/3/5
f 293/3/5 289/3/5 288/3/5
f 294/4/5 290/4/5 289/4/5
f 294/3/5 289/3/5 293/3/5
f 295/3/5 291/3/5 290/3/5
f 295/4/5 290/4/5 294/4/5
f 296/3/5 291/3/5 295/3/5
f 301/3/5 298/3/5 297/3/5
f 302/3/5 298/3/5 301/3/5
f 303/3/5 300/3/5 299/3/5
f 304/3/5 300/3/5 303/3/5
f 305/2/6 306/2/6 309/2/6
f 309/2/6 306/2/6 310/2/6
f 307/2/6 308/2/6 311/2/6
f 311/2/6 308/2/6 312/2/6
f 313/3/6 314/3/6 316/3/6
f 316/3/6 314/3/6 317/3/6
f 315/3/6 316/3/6 319/3/6
f 317/3/6 318/3/6 319/3/6
f 316/3/6 317/3/6 319/3/6
f 319/3/6 318/3/6 320/3/6
f 315/3/6 319/3/6 321/3/6
f 320/3/6 318/3/6 324/3/6
f 315/3/6 321/3/6 325/3/6
f 321/3/6 322/3/6 325/3/6
f 325/3/6 322/3/6 326/3/6
f 322/1/6 323/1/6 327/1/6
f 326/3/6 322/3/6 327/3/6
f 323/3/6 324/3/6 328/3/6
f 327/1/6 323/1/6 328/1/6
f 324/3/6 318/3/6 329/3/6
f 328/3/6 324/3/6 329/3/6
f 329/3/6 318/3/6 330/3/6
f 326/3/6 327/3/6 331/3/6
f 327/4/6 328/4/6 332/4/6
f 331/3/6 327/3/6 332/3/6
f 328/3/6 329/3/6 333/3/6
f 332/4/6 328/4/6 333/4/6
f 333/3/6 329/3/6 334/3/6
f 335/1/6 336/1/6 337/1/6
f 337/1/6 336/1/6 338/1/6
