# MagicaVoxel @ Ephtracy

# group
o 

# material
mtllib torso3.mtl
usemtl palette

# normals
vn -1 0 0
vn 1 0 0
vn 0 0 1
vn 0 0 -1
vn 0 -1 0
vn 0 1 0

# texcoords
vt 0.326172 0.5
vt 0.591797 0.5
vt 0.958984 0.5
vt 0.994141 0.5

# verts
v -0.6 0.4 0.1
v -0.6 0.4 -0.1
v -0.6 0.6 0.1
v -0.6 0.6 -0.1
v -0.4 0 0.4
v -0.4 0 -0.4
v -0.4 0.4 0.1
v -0.4 0.4 -0.1
v -0.4 0.6 0.1
v -0.4 0.6 -0.1
v -0.4 0.7 0.4
v -0.4 0.7 -0.4
v -0.2 0.7 0.2
v -0.2 0.7 -0.2
v -0.2 0.8 0.2
v -0.2 0.8 -0.2
v 0.2 0.7 0.2
v 0.2 0.7 -0.2
v 0.2 0.8 0.2
v 0.2 0.8 -0.2
v 0.4 0 0.4
v 0.4 0 -0.4
v 0.4 0.4 0.1
v 0.4 0.4 -0.1
v 0.4 0.6 0.1
v 0.4 0.6 -0.1
v 0.4 0.7 0.4
v 0.4 0.7 -0.4
v 0.6 0.4 0.1
v 0.6 0.4 -0.1
v 0.6 0.6 0.1
v 0.6 0.6 -0.1
v -0.4 0 0.4
v -0.4 0.7 0.4
v 0.4 0 0.4
v 0.4 0.7 0.4
v -0.2 0.7 0.2
v -0.2 0.8 0.2
v 0.2 0.7 0.2
v 0.2 0.8 0.2
v -0.6 0.4 0.1
v -0.6 0.6 0.1
v -0.4 0.4 0.1
v -0.4 0.6 0.1
v 0.4 0.4 0.1
v 0.4 0.6 0.1
v 0.6 0.4 0.1
v 0.6 0.6 0.1
v -0.6 0.4 -0.1
v -0.6 0.6 -0.1
v -0.4 0.4 -0.1
v -0.4 0.6 -0.1
v 0.4 0.4 -0.1
v 0.4 0.6 -0.1
v 0.6 0.4 -0.1
v 0.6 0.6 -0.1
v -0.2 0.7 -0.2
v -0.2 0.8 -0.2
v 0.1 0.7 -0.2
v 0.2 0.7 -0.2
v 0.2 0.8 -0.2
v -0.4 0 -0.4
v -0.4 0.7 -0.4
v -0.1 0 -0.4
v -0.1 0.7 -0.4
v -5.96046e-008 0.1 -0.4
v -5.96046e-008 0.2 -0.4
v -5.96046e-008 0.3 -0.4
v -5.96046e-008 0.4 -0.4
v -5.96046e-008 0.5 -0.4
v -5.96046e-008 0.6 -0.4
v 0.1 0 -0.4
v 0.1 0.1 -0.4
v 0.1 0.2 -0.4
v 0.1 0.3 -0.4
v 0.1 0.4 -0.4
v 0.1 0.5 -0.4
v 0.1 0.6 -0.4
v 0.1 0.7 -0.4
v 0.4 0 -0.4
v 0.4 0.7 -0.4
v -0.4 0 0.4
v 0.4 0 0.4
v -0.3 0 0.3
v 0.3 0 0.3
v -0.3 0 -0.3
v -0.1 0 -0.3
v 0.1 0 -0.3
v 0.3 0 -0.3
v -0.4 0 -0.4
v -0.1 0 -0.4
v 0.1 0 -0.4
v 0.4 0 -0.4
v -0.6 0.4 0.1
v -0.4 0.4 0.1
v 0.4 0.4 0.1
v 0.6 0.4 0.1
v -0.6 0.4 -0.1
v -0.4 0.4 -0.1
v 0.4 0.4 -0.1
v 0.6 0.4 -0.1
v -0.6 0.6 0.1
v -0.4 0.6 0.1
v 0.4 0.6 0.1
v 0.6 0.6 0.1
v -0.6 0.6 -0.1
v -0.4 0.6 -0.1
v 0.4 0.6 -0.1
v 0.6 0.6 -0.1
v -0.4 0.7 0.4
v 0.4 0.7 0.4
v -0.2 0.7 0.2
v 0.2 0.7 0.2
v -0.2 0.7 -0.2
v 0.1 0.7 -0.2
v 0.2 0.7 -0.2
v -0.2 0.7 -0.3
v -0.1 0.7 -0.3
v 0.1 0.7 -0.3
v -0.4 0.7 -0.4
v -0.1 0.7 -0.4
v 0.1 0.7 -0.4
v 0.4 0.7 -0.4
v -0.2 0.8 0.2
v 0.2 0.8 0.2
v -0.2 0.8 -0.2
v 0.2 0.8 -0.2

# faces
f 3/3/1 2/3/1 1/3/1
f 4/3/1 2/3/1 3/3/1
f 7/2/1 6/2/1 5/2/1
f 8/2/1 6/2/1 7/2/1
f 9/2/1 7/2/1 5/2/1
f 10/2/1 6/2/1 8/2/1
f 11/2/1 9/2/1 5/2/1
f 11/2/1 10/2/1 9/2/1
f 12/2/1 6/2/1 10/2/1
f 12/2/1 10/2/1 11/2/1
f 15/1/1 14/1/1 13/1/1
f 16/1/1 14/1/1 15/1/1
f 17/1/2 18/1/2 19/1/2
f 19/1/2 18/1/2 20/1/2
f 21/2/2 22/2/2 23/2/2
f 23/2/2 22/2/2 24/2/2
f 21/2/2 23/2/2 25/2/2
f 24/2/2 22/2/2 26/2/2
f 21/2/2 25/2/2 27/2/2
f 25/2/2 26/2/2 27/2/2
f 26/2/2 22/2/2 28/2/2
f 27/2/2 26/2/2 28/2/2
f 29/3/2 30/3/2 31/3/2
f 31/3/2 30/3/2 32/3/2
f 35/2/3 34/2/3 33/2/3
f 36/2/3 34/2/3 35/2/3
f 39/1/3 38/1/3 37/1/3
f 40/1/3 38/1/3 39/1/3
f 43/3/3 42/3/3 41/3/3
f 44/3/3 42/3/3 43/3/3
f 47/3/3 46/3/3 45/3/3
f 48/3/3 46/3/3 47/3/3
f 49/3/4 50/3/4 51/3/4
f 51/3/4 50/3/4 52/3/4
f 53/3/4 54/3/4 55/3/4
f 55/3/4 54/3/4 56/3/4
f 57/1/4 58/1/4 59/1/4
f 59/1/4 58/1/4 60/1/4
f 60/1/4 58/1/4 61/1/4
f 62/2/4 63/2/4 64/2/4
f 64/2/4 63/2/4 65/2/4
f 64/3/4 65/3/4 66/3/4
f 66/3/4 65/3/4 67/3/4
f 67/3/4 65/3/4 68/3/4
f 68/3/4 65/3/4 69/3/4
f 69/3/4 65/3/4 70/3/4
f 70/3/4 65/3/4 71/3/4
f 64/3/4 66/3/4 72/3/4
f 66/4/4 67/4/4 73/4/4
f 72/3/4 66/3/4 73/3/4
f 67/3/4 68/3/4 74/3/4
f 73/4/4 67/4/4 74/4/4
f 68/4/4 69/4/4 75/4/4
f 74/3/4 68/3/4 75/3/4
f 69/3/4 70/3/4 76/3/4
f 75/4/4 69/4/4 76/4/4
f 70/4/4 71/4/4 77/4/4
f 76/3/4 70/3/4 77/3/4
f 71/3/4 65/3/4 78/3/4
f 77/4/4 71/4/4 78/4/4
f 78/3/4 65/3/4 79/3/4
f 76/2/4 77/2/4 80/2/4
f 72/2/4 73/2/4 80/2/4
f 78/2/4 79/2/4 80/2/4
f 77/2/4 78/2/4 80/2/4
f 75/2/4 76/2/4 80/2/4
f 74/2/4 75/2/4 80/2/4
f 73/2/4 74/2/4 80/2/4
f 80/2/4 79/2/4 81/2/4
f 84/2/5 83/2/5 82/2/5
f 85/2/5 83/2/5 84/2/5
f 86/2/5 84/2/5 82/2/5
f 86/1/5 85/1/5 84/1/5
f 87/1/5 85/1/5 86/1/5
f 88/1/5 85/1/5 87/1/5
f 89/2/5 83/2/5 85/2/5
f 89/1/5 85/1/5 88/1/5
f 90/2/5 86/2/5 82/2/5
f 90/2/5 87/2/5 86/2/5
f 91/3/5 88/3/5 87/3/5
f 91/2/5 87/2/5 90/2/5
f 92/2/5 89/2/5 88/2/5
f 92/3/5 88/3/5 91/3/5
f 93/2/5 83/2/5 89/2/5
f 93/2/5 89/2/5 92/2/5
f 98/3/5 95/3/5 94/3/5
f 99/3/5 95/3/5 98/3/5
f 100/3/5 97/3/5 96/3/5
f 101/3/5 97/3/5 100/3/5
f 102/3/6 103/3/6 106/3/6
f 106/3/6 103/3/6 107/3/6
f 104/3/6 105/3/6 108/3/6
f 108/3/6 105/3/6 109/3/6
f 110/2/6 111/2/6 112/2/6
f 112/2/6 111/2/6 113/2/6
f 110/2/6 112/2/6 114/2/6
f 113/2/6 111/2/6 116/2/6
f 114/1/6 115/1/6 117/1/6
f 110/2/6 114/2/6 117/2/6
f 117/1/6 115/1/6 118/1/6
f 115/2/6 116/2/6 119/2/6
f 118/1/6 115/1/6 119/1/6
f 117/2/6 118/2/6 120/2/6
f 110/2/6 117/2/6 120/2/6
f 118/3/6 119/3/6 121/3/6
f 120/2/6 118/2/6 121/2/6
f 119/2/6 116/2/6 122/2/6
f 121/3/6 119/3/6 122/3/6
f 116/2/6 111/2/6 123/2/6
f 122/2/6 116/2/6 123/2/6
f 124/1/6 125/1/6 126/1/6
f 126/1/6 125/1/6 127/1/6
