# MagicaVoxel @ Ephtracy

# group
o 

# material
mtllib torso1.mtl
usemtl palette

# normals
vn -1 0 0
vn 1 0 0
vn 0 0 1
vn 0 0 -1
vn 0 -1 0
vn 0 1 0

# texcoords
vt 0.326172 0.5
vt 0.341797 0.5
vt 0.771484 0.5
vt 0.994141 0.5

# verts
v -0.6 0.4 0.1
v -0.6 0.4 -0.1
v -0.6 0.6 0.1
v -0.6 0.6 -0.1
v -0.4 0 0.4
v -0.4 0 -0.4
v -0.4 0.4 0.1
v -0.4 0.4 -0.1
v -0.4 0.6 0.1
v -0.4 0.6 -0.1
v -0.4 0.7 0.4
v -0.4 0.7 -0.4
v -0.2 0.7 0.2
v -0.2 0.7 -0.2
v -0.2 0.8 0.2
v -0.2 0.8 -0.2
v 0.2 0.7 0.2
v 0.2 0.7 -0.2
v 0.2 0.8 0.2
v 0.2 0.8 -0.2
v 0.4 0 0.4
v 0.4 0 -0.4
v 0.4 0.4 0.1
v 0.4 0.4 -0.1
v 0.4 0.6 0.1
v 0.4 0.6 -0.1
v 0.4 0.7 0.4
v 0.4 0.7 -0.4
v 0.6 0.4 0.1
v 0.6 0.4 -0.1
v 0.6 0.6 0.1
v 0.6 0.6 -0.1
v -0.4 0 0.4
v -0.4 0.7 0.4
v 0.4 0 0.4
v 0.4 0.7 0.4
v -0.2 0.7 0.2
v -0.2 0.8 0.2
v 0.2 0.7 0.2
v 0.2 0.8 0.2
v -0.6 0.4 0.1
v -0.6 0.6 0.1
v -0.4 0.4 0.1
v -0.4 0.6 0.1
v 0.4 0.4 0.1
v 0.4 0.6 0.1
v 0.6 0.4 0.1
v 0.6 0.6 0.1
v -0.6 0.4 -0.1
v -0.6 0.6 -0.1
v -0.4 0.4 -0.1
v -0.4 0.6 -0.1
v 0.4 0.4 -0.1
v 0.4 0.6 -0.1
v 0.6 0.4 -0.1
v 0.6 0.6 -0.1
v -0.2 0.7 -0.2
v -0.2 0.8 -0.2
v -0.1 0.7 -0.2
v 0.1 0.7 -0.2
v 0.2 0.7 -0.2
v 0.2 0.8 -0.2
v -0.4 0 -0.4
v -0.4 0.7 -0.4
v -0.1 0 -0.4
v -0.1 0.7 -0.4
v -5.96046e-008 0.1 -0.4
v -5.96046e-008 0.2 -0.4
v -5.96046e-008 0.3 -0.4
v -5.96046e-008 0.4 -0.4
v -5.96046e-008 0.5 -0.4
v -5.96046e-008 0.6 -0.4
v 0.1 0 -0.4
v 0.1 0.1 -0.4
v 0.1 0.2 -0.4
v 0.1 0.3 -0.4
v 0.1 0.4 -0.4
v 0.1 0.5 -0.4
v 0.1 0.6 -0.4
v 0.1 0.7 -0.4
v 0.4 0 -0.4
v 0.4 0.7 -0.4
v -0.4 0 0.4
v 0.4 0 0.4
v -0.3 0 0.3
v 0.3 0 0.3
v -0.3 0 -0.3
v -0.1 0 -0.3
v 0.1 0 -0.3
v 0.3 0 -0.3
v -0.4 0 -0.4
v -0.1 0 -0.4
v 0.1 0 -0.4
v 0.4 0 -0.4
v -0.6 0.4 0.1
v -0.4 0.4 0.1
v 0.4 0.4 0.1
v 0.6 0.4 0.1
v -0.6 0.4 -0.1
v -0.4 0.4 -0.1
v 0.4 0.4 -0.1
v 0.6 0.4 -0.1
v -0.6 0.6 0.1
v -0.4 0.6 0.1
v 0.4 0.6 0.1
v 0.6 0.6 0.1
v -0.6 0.6 -0.1
v -0.4 0.6 -0.1
v 0.4 0.6 -0.1
v 0.6 0.6 -0.1
v -0.4 0.7 0.4
v 0.4 0.7 0.4
v -0.2 0.7 0.2
v 0.2 0.7 0.2
v -0.2 0.7 -0.2
v -0.1 0.7 -0.2
v 0.1 0.7 -0.2
v 0.2 0.7 -0.2
v -0.1 0.7 -0.3
v 0.1 0.7 -0.3
v -0.4 0.7 -0.4
v -0.1 0.7 -0.4
v 0.1 0.7 -0.4
v 0.4 0.7 -0.4
v -0.2 0.8 0.2
v 0.2 0.8 0.2
v -0.2 0.8 -0.2
v 0.2 0.8 -0.2

# faces
f 3/2/1 2/2/1 1/2/1
f 4/2/1 2/2/1 3/2/1
f 7/3/1 6/3/1 5/3/1
f 8/3/1 6/3/1 7/3/1
f 9/3/1 7/3/1 5/3/1
f 10/3/1 6/3/1 8/3/1
f 11/3/1 9/3/1 5/3/1
f 11/3/1 10/3/1 9/3/1
f 12/3/1 6/3/1 10/3/1
f 12/3/1 10/3/1 11/3/1
f 15/1/1 14/1/1 13/1/1
f 16/1/1 14/1/1 15/1/1
f 17/1/2 18/1/2 19/1/2
f 19/1/2 18/1/2 20/1/2
f 21/3/2 22/3/2 23/3/2
f 23/3/2 22/3/2 24/3/2
f 21/3/2 23/3/2 25/3/2
f 24/3/2 22/3/2 26/3/2
f 21/3/2 25/3/2 27/3/2
f 25/3/2 26/3/2 27/3/2
f 26/3/2 22/3/2 28/3/2
f 27/3/2 26/3/2 28/3/2
f 29/2/2 30/2/2 31/2/2
f 31/2/2 30/2/2 32/2/2
f 35/3/3 34/3/3 33/3/3
f 36/3/3 34/3/3 35/3/3
f 39/1/3 38/1/3 37/1/3
f 40/1/3 38/1/3 39/1/3
f 43/2/3 42/2/3 41/2/3
f 44/2/3 42/2/3 43/2/3
f 47/2/3 46/2/3 45/2/3
f 48/2/3 46/2/3 47/2/3
f 49/2/4 50/2/4 51/2/4
f 51/2/4 50/2/4 52/2/4
f 53/2/4 54/2/4 55/2/4
f 55/2/4 54/2/4 56/2/4
f 57/1/4 58/1/4 59/1/4
f 59/1/4 58/1/4 60/1/4
f 60/1/4 58/1/4 61/1/4
f 61/1/4 58/1/4 62/1/4
f 63/3/4 64/3/4 65/3/4
f 65/3/4 64/3/4 66/3/4
f 65/2/4 66/2/4 67/2/4
f 67/2/4 66/2/4 68/2/4
f 68/2/4 66/2/4 69/2/4
f 69/2/4 66/2/4 70/2/4
f 70/2/4 66/2/4 71/2/4
f 71/2/4 66/2/4 72/2/4
f 65/2/4 67/2/4 73/2/4
f 67/4/4 68/4/4 74/4/4
f 73/2/4 67/2/4 74/2/4
f 68/2/4 69/2/4 75/2/4
f 74/4/4 68/4/4 75/4/4
f 69/4/4 70/4/4 76/4/4
f 75/2/4 69/2/4 76/2/4
f 70/2/4 71/2/4 77/2/4
f 76/4/4 70/4/4 77/4/4
f 71/4/4 72/4/4 78/4/4
f 77/2/4 71/2/4 78/2/4
f 72/2/4 66/2/4 79/2/4
f 78/4/4 72/4/4 79/4/4
f 79/2/4 66/2/4 80/2/4
f 77/3/4 78/3/4 81/3/4
f 73/3/4 74/3/4 81/3/4
f 79/3/4 80/3/4 81/3/4
f 78/3/4 79/3/4 81/3/4
f 76/3/4 77/3/4 81/3/4
f 75/3/4 76/3/4 81/3/4
f 74/3/4 75/3/4 81/3/4
f 81/3/4 80/3/4 82/3/4
f 85/3/5 84/3/5 83/3/5
f 86/3/5 84/3/5 85/3/5
f 87/3/5 85/3/5 83/3/5
f 87/1/5 86/1/5 85/1/5
f 88/1/5 86/1/5 87/1/5
f 89/1/5 86/1/5 88/1/5
f 90/3/5 84/3/5 86/3/5
f 90/1/5 86/1/5 89/1/5
f 91/3/5 87/3/5 83/3/5
f 91/3/5 88/3/5 87/3/5
f 92/2/5 89/2/5 88/2/5
f 92/3/5 88/3/5 91/3/5
f 93/3/5 90/3/5 89/3/5
f 93/2/5 89/2/5 92/2/5
f 94/3/5 84/3/5 90/3/5
f 94/3/5 90/3/5 93/3/5
f 99/2/5 96/2/5 95/2/5
f 100/2/5 96/2/5 99/2/5
f 101/2/5 98/2/5 97/2/5
f 102/2/5 98/2/5 101/2/5
f 103/2/6 104/2/6 107/2/6
f 107/2/6 104/2/6 108/2/6
f 105/2/6 106/2/6 109/2/6
f 109/2/6 106/2/6 110/2/6
f 111/3/6 112/3/6 113/3/6
f 113/3/6 112/3/6 114/3/6
f 111/3/6 113/3/6 115/3/6
f 114/3/6 112/3/6 118/3/6
f 116/1/6 117/1/6 119/1/6
f 115/3/6 116/3/6 119/3/6
f 117/3/6 118/3/6 120/3/6
f 119/1/6 117/1/6 120/1/6
f 115/3/6 119/3/6 121/3/6
f 111/3/6 115/3/6 121/3/6
f 119/2/6 120/2/6 122/2/6
f 121/3/6 119/3/6 122/3/6
f 120/3/6 118/3/6 123/3/6
f 122/2/6 120/2/6 123/2/6
f 118/3/6 112/3/6 124/3/6
f 123/3/6 118/3/6 124/3/6
f 125/1/6 126/1/6 127/1/6
f 127/1/6 126/1/6 128/1/6
