# MagicaVoxel @ Ephtracy

# group
o 

# material
mtllib clock.mtl
usemtl palette

# normals
vn -1 0 0
vn 1 0 0
vn 0 0 1
vn 0 0 -1
vn 0 -1 0
vn 0 1 0

# texcoords
vt 0.958984 0.5
vt 0.994141 0.5

# verts
v -0.4 0.1 0.1
v -0.4 0.1 -0.2
v -0.4 0.8 0.1
v -0.4 0.8 -0.2
v -0.3 0 0.1
v -0.3 0 -0.2
v -0.3 0.1 0.1
v -0.3 0.1 -0.2
v -0.3 0.8 0.1
v -0.3 0.8 -0.2
v -0.3 0.9 0.1
v -0.3 0.9 -0.2
v 0 0.4 0.1
v 0 0.4 0
v 0 0.5 0.1
v 0 0.5 0
v 0.1 0.3 0.1
v 0.1 0.3 0
v 0.1 0.4 0.1
v 0.1 0.4 0
v 0.1 0.5 0.1
v 0.1 0.5 0
v 0.1 0.6 0.1
v 0.1 0.6 0
v 0.2 0.6 0.1
v 0.2 0.6 0
v 0.2 0.7 0.1
v 0.2 0.7 0
v 0.4 0.1 0.1
v 0.4 0.1 0
v 0.4 0.8 0.1
v 0.4 0.8 0
v -0.3 0.1 0.1
v -0.3 0.1 0
v -0.3 0.8 0.1
v -0.3 0.8 0
v 0.1 0.4 0.1
v 0.1 0.4 0
v 0.1 0.5 0.1
v 0.1 0.5 0
v 0.2 0.3 0.1
v 0.2 0.3 0
v 0.2 0.4 0.1
v 0.2 0.4 0
v 0.2 0.5 0.1
v 0.2 0.5 0
v 0.2 0.6 0.1
v 0.2 0.6 0
v 0.3 0.6 0.1
v 0.3 0.6 0
v 0.3 0.7 0.1
v 0.3 0.7 0
v 0.4 0 0.1
v 0.4 0 -0.2
v 0.4 0.1 0.1
v 0.4 0.1 -0.2
v 0.4 0.8 0.1
v 0.4 0.8 -0.2
v 0.4 0.9 0.1
v 0.4 0.9 -0.2
v 0.5 0.1 0.1
v 0.5 0.1 -0.2
v 0.5 0.8 0.1
v 0.5 0.8 -0.2
v -0.4 0.1 0.1
v -0.4 0.8 0.1
v -0.3 0 0.1
v -0.3 0.1 0.1
v -0.3 0.8 0.1
v -0.3 0.9 0.1
v 0 0.4 0.1
v 0 0.5 0.1
v 0.1 0.3 0.1
v 0.1 0.4 0.1
v 0.1 0.5 0.1
v 0.1 0.6 0.1
v 0.2 0.3 0.1
v 0.2 0.4 0.1
v 0.2 0.5 0.1
v 0.2 0.6 0.1
v 0.2 0.7 0.1
v 0.3 0.6 0.1
v 0.3 0.7 0.1
v 0.4 0 0.1
v 0.4 0.1 0.1
v 0.4 0.8 0.1
v 0.4 0.9 0.1
v 0.5 0.1 0.1
v 0.5 0.8 0.1
v -0.3 0.1 0
v -0.3 0.8 0
v 0 0.4 0
v 0 0.5 0
v 0.1 0.3 0
v 0.1 0.4 0
v 0.1 0.5 0
v 0.1 0.6 0
v 0.2 0.3 0
v 0.2 0.4 0
v 0.2 0.5 0
v 0.2 0.6 0
v 0.2 0.7 0
v 0.3 0.6 0
v 0.3 0.7 0
v 0.4 0.1 0
v 0.4 0.8 0
v -0.4 0.1 -0.2
v -0.4 0.8 -0.2
v -0.3 0 -0.2
v -0.3 0.1 -0.2
v -0.3 0.8 -0.2
v -0.3 0.9 -0.2
v 0.4 0 -0.2
v 0.4 0.1 -0.2
v 0.4 0.8 -0.2
v 0.4 0.9 -0.2
v 0.5 0.1 -0.2
v 0.5 0.8 -0.2
v -0.3 0 0.1
v 0.4 0 0.1
v -0.3 0 -0.2
v 0.4 0 -0.2
v -0.4 0.1 0.1
v -0.3 0.1 0.1
v 0.4 0.1 0.1
v 0.5 0.1 0.1
v -0.4 0.1 -0.2
v -0.3 0.1 -0.2
v 0.4 0.1 -0.2
v 0.5 0.1 -0.2
v 0.1 0.3 0.1
v 0.2 0.3 0.1
v 0.1 0.3 0
v 0.2 0.3 0
v 0 0.4 0.1
v 0.1 0.4 0.1
v 0 0.4 0
v 0.1 0.4 0
v 0.1 0.5 0.1
v 0.2 0.5 0.1
v 0.1 0.5 0
v 0.2 0.5 0
v 0.2 0.6 0.1
v 0.3 0.6 0.1
v 0.2 0.6 0
v 0.3 0.6 0
v -0.3 0.8 0.1
v 0.4 0.8 0.1
v -0.3 0.8 0
v 0.4 0.8 0
v -0.3 0.1 0.1
v 0.4 0.1 0.1
v -0.3 0.1 0
v 0.4 0.1 0
v 0.1 0.4 0.1
v 0.2 0.4 0.1
v 0.1 0.4 0
v 0.2 0.4 0
v 0 0.5 0.1
v 0.1 0.5 0.1
v 0 0.5 0
v 0.1 0.5 0
v 0.1 0.6 0.1
v 0.2 0.6 0.1
v 0.1 0.6 0
v 0.2 0.6 0
v 0.2 0.7 0.1
v 0.3 0.7 0.1
v 0.2 0.7 0
v 0.3 0.7 0
v -0.4 0.8 0.1
v -0.3 0.8 0.1
v 0.4 0.8 0.1
v 0.5 0.8 0.1
v -0.4 0.8 -0.2
v -0.3 0.8 -0.2
v 0.4 0.8 -0.2
v 0.5 0.8 -0.2
v -0.3 0.9 0.1
v 0.4 0.9 0.1
v -0.3 0.9 -0.2
v 0.4 0.9 -0.2

# faces
f 3/2/1 2/2/1 1/2/1
f 4/2/1 2/2/1 3/2/1
f 7/2/1 6/2/1 5/2/1
f 8/2/1 6/2/1 7/2/1
f 11/2/1 10/2/1 9/2/1
f 12/2/1 10/2/1 11/2/1
f 15/2/1 14/2/1 13/2/1
f 16/2/1 14/2/1 15/2/1
f 19/2/1 18/2/1 17/2/1
f 20/2/1 18/2/1 19/2/1
f 23/2/1 22/2/1 21/2/1
f 24/2/1 22/2/1 23/2/1
f 27/2/1 26/2/1 25/2/1
f 28/2/1 26/2/1 27/2/1
f 31/2/1 30/2/1 29/2/1
f 32/2/1 30/2/1 31/2/1
f 33/2/2 34/2/2 35/2/2
f 35/2/2 34/2/2 36/2/2
f 37/2/2 38/2/2 39/2/2
f 39/2/2 38/2/2 40/2/2
f 41/2/2 42/2/2 43/2/2
f 43/2/2 42/2/2 44/2/2
f 45/2/2 46/2/2 47/2/2
f 47/2/2 46/2/2 48/2/2
f 49/2/2 50/2/2 51/2/2
f 51/2/2 50/2/2 52/2/2
f 53/2/2 54/2/2 55/2/2
f 55/2/2 54/2/2 56/2/2
f 57/2/2 58/2/2 59/2/2
f 59/2/2 58/2/2 60/2/2
f 61/2/2 62/2/2 63/2/2
f 63/2/2 62/2/2 64/2/2
f 68/2/3 66/2/3 65/2/3
f 69/2/3 66/2/3 68/2/3
f 74/2/3 72/2/3 71/2/3
f 75/2/3 72/2/3 74/2/3
f 77/2/3 74/2/3 73/2/3
f 78/2/3 74/2/3 77/2/3
f 79/2/3 76/2/3 75/2/3
f 80/2/3 76/2/3 79/2/3
f 82/2/3 81/2/3 80/2/3
f 83/2/3 81/2/3 82/2/3
f 84/2/3 68/2/3 67/2/3
f 85/2/3 68/2/3 84/2/3
f 86/2/3 70/2/3 69/2/3
f 87/2/3 70/2/3 86/2/3
f 88/2/3 86/2/3 85/2/3
f 89/2/3 86/2/3 88/2/3
f 92/1/3 91/1/3 90/1/3
f 93/1/3 91/1/3 92/1/3
f 94/1/3 92/1/3 90/1/3
f 95/1/3 92/1/3 94/1/3
f 96/1/3 91/1/3 93/1/3
f 97/1/3 91/1/3 96/1/3
f 98/1/3 94/1/3 90/1/3
f 99/1/3 96/1/3 95/1/3
f 100/1/3 96/1/3 99/1/3
f 101/1/3 91/1/3 97/1/3
f 102/1/3 91/1/3 101/1/3
f 103/1/3 100/1/3 99/1/3
f 103/1/3 99/1/3 98/1/3
f 103/1/3 101/1/3 100/1/3
f 104/1/3 91/1/3 102/1/3
f 105/1/3 103/1/3 98/1/3
f 105/1/3 104/1/3 103/1/3
f 105/1/3 98/1/3 90/1/3
f 106/1/3 91/1/3 104/1/3
f 106/1/3 104/1/3 105/1/3
f 107/2/4 108/2/4 110/2/4
f 110/2/4 108/2/4 111/2/4
f 109/2/4 110/2/4 113/2/4
f 111/2/4 112/2/4 113/2/4
f 110/2/4 111/2/4 113/2/4
f 113/2/4 112/2/4 114/2/4
f 114/2/4 112/2/4 115/2/4
f 115/2/4 112/2/4 116/2/4
f 114/2/4 115/2/4 117/2/4
f 117/2/4 115/2/4 118/2/4
f 121/2/5 120/2/5 119/2/5
f 122/2/5 120/2/5 121/2/5
f 127/2/5 124/2/5 123/2/5
f 128/2/5 124/2/5 127/2/5
f 129/2/5 126/2/5 125/2/5
f 130/2/5 126/2/5 129/2/5
f 133/2/5 132/2/5 131/2/5
f 134/2/5 132/2/5 133/2/5
f 137/2/5 136/2/5 135/2/5
f 138/2/5 136/2/5 137/2/5
f 141/2/5 140/2/5 139/2/5
f 142/2/5 140/2/5 141/2/5
f 145/2/5 144/2/5 143/2/5
f 146/2/5 144/2/5 145/2/5
f 149/2/5 148/2/5 147/2/5
f 150/2/5 148/2/5 149/2/5
f 151/2/6 152/2/6 153/2/6
f 153/2/6 152/2/6 154/2/6
f 155/2/6 156/2/6 157/2/6
f 157/2/6 156/2/6 158/2/6
f 159/2/6 160/2/6 161/2/6
f 161/2/6 160/2/6 162/2/6
f 163/2/6 164/2/6 165/2/6
f 165/2/6 164/2/6 166/2/6
f 167/2/6 168/2/6 169/2/6
f 169/2/6 168/2/6 170/2/6
f 171/2/6 172/2/6 175/2/6
f 175/2/6 172/2/6 176/2/6
f 173/2/6 174/2/6 177/2/6
f 177/2/6 174/2/6 178/2/6
f 179/2/6 180/2/6 181/2/6
f 181/2/6 180/2/6 182/2/6
