# MagicaVoxel @ Ephtracy

# group
o 

# material
mtllib House1.mtl
usemtl palette

# normals
vn -1 0 0
vn 1 0 0
vn 0 0 1
vn 0 0 -1
vn 0 -1 0
vn 0 1 0

# texcoords
vt 0.701172 0.5
vt 0.873047 0.5

# verts
v -0.8 0.7 0.8
v -0.8 0.7 -0.8
v -0.8 0.8 0.8
v -0.8 0.8 -0.8
v -0.7 0 0.7
v -0.7 0 -0.7
v -0.7 0.7 0.7
v -0.7 0.7 -0.7
v -0.7 0.8 0.8
v -0.7 0.8 -0.8
v -0.7 0.9 0.8
v -0.7 0.9 -0.8
v -0.6 0.9 0.8
v -0.6 0.9 -0.8
v -0.6 1 0.8
v -0.6 1 -0.8
v -0.5 0.8 0.7
v -0.5 0.8 0.6
v -0.5 0.8 -0.6
v -0.5 0.8 -0.7
v -0.5 0.9 0.7
v -0.5 0.9 0.6
v -0.5 0.9 -0.6
v -0.5 0.9 -0.7
v -0.5 1 0.8
v -0.5 1 -0.8
v -0.5 1.1 0.8
v -0.5 1.1 -0.8
v -0.4 0.9 0.7
v -0.4 0.9 0.6
v -0.4 0.9 -0.6
v -0.4 0.9 -0.7
v -0.4 1 0.7
v -0.4 1 0.6
v -0.4 1 -0.6
v -0.4 1 -0.7
v -0.4 1.1 0.8
v -0.4 1.1 -0.8
v -0.4 1.2 0.8
v -0.4 1.2 -0.8
v -0.3 1 0.7
v -0.3 1 0.6
v -0.3 1 -0.6
v -0.3 1 -0.7
v -0.3 1.1 0.7
v -0.3 1.1 0.6
v -0.3 1.1 -0.6
v -0.3 1.1 -0.7
v 0.2 0 0.7
v 0.2 0 0.6
v 0.2 0.5 0.7
v 0.2 0.5 0.6
v 0.3 1 -0.7
v 0.3 1 -0.8
v 0.3 1.1 -0.7
v 0.3 1.1 -0.8
v 0.4 0.9 0.8
v 0.4 0.9 0.7
v 0.4 0.9 -0.7
v 0.4 0.9 -0.8
v 0.4 1 0.6
v 0.4 1 -0.6
v 0.4 1 -0.7
v 0.4 1 -0.8
v 0.4 1.1 0.8
v 0.4 1.1 0.7
v 0.4 1.1 0.6
v 0.4 1.1 -0.7
v 0.5 0.8 0.8
v 0.5 0.8 0.7
v 0.5 0.8 -0.7
v 0.5 0.8 -0.8
v 0.5 0.9 0.8
v 0.5 0.9 0.7
v 0.5 0.9 0.6
v 0.5 0.9 -0.6
v 0.5 0.9 -0.7
v 0.5 0.9 -0.8
v 0.5 1 0.7
v 0.5 1 -0.7
v 0.6 0 0.6
v 0.6 0 -0.6
v 0.6 0.7 0.8
v 0.6 0.7 0.7
v 0.6 0.7 0.6
v 0.6 0.7 -0.6
v 0.6 0.7 -0.7
v 0.6 0.7 -0.8
v 0.6 0.8 0.8
v 0.6 0.8 0.7
v 0.6 0.8 0.6
v 0.6 0.8 -0.6
v 0.6 0.8 -0.7
v 0.6 0.8 -0.8
v 0.6 0.9 0.7
v 0.6 0.9 -0.6
v -0.6 0 0.6
v -0.6 0 -0.6
v -0.6 0.7 0.8
v -0.6 0.7 0.7
v -0.6 0.7 0.6
v -0.6 0.7 -0.6
v -0.6 0.7 -0.7
v -0.6 0.7 -0.8
v -0.6 0.8 0.8
v -0.6 0.8 0.7
v -0.6 0.8 0.6
v -0.6 0.8 -0.6
v -0.6 0.8 -0.7
v -0.6 0.8 -0.8
v -0.6 0.9 0.7
v -0.6 0.9 -0.7
v -0.5 0.8 0.8
v -0.5 0.8 0.7
v -0.5 0.8 -0.7
v -0.5 0.8 -0.8
v -0.5 0.9 0.8
v -0.5 0.9 0.7
v -0.5 0.9 0.6
v -0.5 0.9 -0.6
v -0.5 0.9 -0.7
v -0.5 0.9 -0.8
v -0.5 1 0.7
v -0.5 1 -0.7
v -0.4 0.9 0.8
v -0.4 0.9 0.7
v -0.4 0.9 -0.7
v -0.4 0.9 -0.8
v -0.4 1 0.8
v -0.4 1 0.7
v -0.4 1 0.6
v -0.4 1 -0.6
v -0.4 1 -0.7
v -0.4 1 -0.8
v -0.4 1.1 0.7
v -0.4 1.1 -0.7
v -0.3 1 0.8
v -0.3 1 0.7
v -0.3 1 -0.7
v -0.3 1 -0.8
v -0.3 1.1 0.8
v -0.3 1.1 0.7
v -0.3 1.1 -0.7
v -0.3 1.1 -0.8
v -0.2 0 0.7
v -0.2 0 0.6
v -0.2 0.5 0.7
v -0.2 0.5 0.6
v 0.3 1 -0.6
v 0.3 1 -0.7
v 0.3 1.1 -0.6
v 0.3 1.1 -0.7
v 0.4 0.9 0.7
v 0.4 0.9 0.6
v 0.4 0.9 -0.6
v 0.4 0.9 -0.7
v 0.4 1 0.7
v 0.4 1 0.6
v 0.4 1 -0.6
v 0.4 1 -0.7
v 0.4 1.1 0.8
v 0.4 1.1 -0.8
v 0.4 1.2 0.8
v 0.4 1.2 -0.8
v 0.5 0.8 0.7
v 0.5 0.8 0.6
v 0.5 0.9 0.7
v 0.5 0.9 0.6
v 0.5 1 0.8
v 0.5 1 -0.8
v 0.5 1.1 0.8
v 0.5 1.1 -0.8
v 0.6 0.9 0.8
v 0.6 0.9 -0.8
v 0.6 1 0.8
v 0.6 1 -0.8
v 0.7 0 0.7
v 0.7 0 -0.7
v 0.7 0.7 0.7
v 0.7 0.7 -0.7
v 0.7 0.8 0.8
v 0.7 0.8 -0.8
v 0.7 0.9 0.8
v 0.7 0.9 -0.8
v 0.8 0.7 0.8
v 0.8 0.7 -0.8
v 0.8 0.8 0.8
v 0.8 0.8 -0.8
v -0.8 0.7 0.8
v -0.8 0.8 0.8
v -0.7 0.8 0.8
v -0.7 0.9 0.8
v -0.6 0.7 0.8
v -0.6 0.8 0.8
v -0.6 0.9 0.8
v -0.6 1 0.8
v -0.5 0.8 0.8
v -0.5 0.9 0.8
v -0.5 1 0.8
v -0.5 1.1 0.8
v -0.4 0.9 0.8
v -0.4 1 0.8
v -0.4 1.1 0.8
v -0.4 1.2 0.8
v -0.3 1 0.8
v -0.3 1.1 0.8
v 0.4 0.9 0.8
v 0.4 1.1 0.8
v 0.4 1.2 0.8
v 0.5 0.8 0.8
v 0.5 0.9 0.8
v 0.5 1 0.8
v 0.5 1.1 0.8
v 0.6 0.7 0.8
v 0.6 0.8 0.8
v 0.6 0.9 0.8
v 0.6 1 0.8
v 0.7 0.8 0.8
v 0.7 0.9 0.8
v 0.8 0.7 0.8
v 0.8 0.8 0.8
v -0.7 0 0.7
v -0.7 0.7 0.7
v -0.6 0.7 0.7
v -0.6 0.8 0.7
v -0.5 0.8 0.7
v -0.5 0.9 0.7
v -0.4 0.9 0.7
v -0.4 1 0.7
v -0.3 1 0.7
v -0.3 1.1 0.7
v -0.2 0 0.7
v -0.2 0.5 0.7
v 0.2 0 0.7
v 0.2 0.5 0.7
v 0.4 0.9 0.7
v 0.4 1.1 0.7
v 0.5 0.8 0.7
v 0.5 0.9 0.7
v 0.6 0.7 0.7
v 0.6 0.8 0.7
v 0.7 0 0.7
v 0.7 0.7 0.7
v -0.6 0 -0.6
v -0.6 0.7 -0.6
v -0.5 0.8 -0.6
v -0.5 0.9 -0.6
v -0.4 0.9 -0.6
v -0.4 1 -0.6
v -0.3 1 -0.6
v -0.3 1.1 -0.6
v 0.3 1 -0.6
v 0.3 1.1 -0.6
v 0.4 0.9 -0.6
v 0.4 1 -0.6
v 0.5 0.9 -0.6
v 0.6 0 -0.6
v 0.6 0.7 -0.6
v 0.6 0.8 -0.6
v 0.6 0.9 -0.6
v -0.6 0.8 -0.7
v -0.6 0.9 -0.7
v -0.5 0.8 -0.7
v -0.5 0.9 -0.7
v -0.5 1 -0.7
v -0.4 0.9 -0.7
v -0.4 1 -0.7
v -0.4 1.1 -0.7
v -0.3 1 -0.7
v -0.3 1.1 -0.7
v 0.3 1 -0.7
v 0.3 1.1 -0.7
v 0.4 0.9 -0.7
v 0.4 1 -0.7
v 0.4 1.1 -0.7
v 0.5 0.9 -0.7
v 0.5 1 -0.7
v -0.6 0.8 0.7
v -0.6 0.9 0.7
v -0.5 0.8 0.7
v -0.5 0.9 0.7
v -0.5 1 0.7
v -0.4 0.9 0.7
v -0.4 1 0.7
v -0.4 1.1 0.7
v -0.3 1 0.7
v -0.3 1.1 0.7
v 0.4 0.9 0.7
v 0.4 1 0.7
v 0.5 0.8 0.7
v 0.5 0.9 0.7
v 0.5 1 0.7
v 0.6 0.8 0.7
v 0.6 0.9 0.7
v -0.6 0 0.6
v -0.6 0.7 0.6
v -0.5 0.8 0.6
v -0.5 0.9 0.6
v -0.4 0.9 0.6
v -0.4 1 0.6
v -0.3 1 0.6
v -0.3 1.1 0.6
v -0.2 0 0.6
v -0.2 0.5 0.6
v 0.2 0 0.6
v 0.2 0.5 0.6
v 0.4 0.9 0.6
v 0.4 1 0.6
v 0.4 1.1 0.6
v 0.5 0.8 0.6
v 0.5 0.9 0.6
v 0.6 0 0.6
v 0.6 0.7 0.6
v -0.7 0 -0.7
v -0.7 0.7 -0.7
v -0.6 0.7 -0.7
v -0.6 0.8 -0.7
v -0.5 0.8 -0.7
v -0.5 0.9 -0.7
v -0.4 0.9 -0.7
v -0.4 1 -0.7
v -0.3 1 -0.7
v -0.3 1.1 -0.7
v 0.3 1 -0.7
v 0.3 1.1 -0.7
v 0.4 0.9 -0.7
v 0.4 1 -0.7
v 0.5 0.8 -0.7
v 0.5 0.9 -0.7
v 0.6 0.7 -0.7
v 0.6 0.8 -0.7
v 0.7 0 -0.7
v 0.7 0.7 -0.7
v -0.8 0.7 -0.8
v -0.8 0.8 -0.8
v -0.7 0.8 -0.8
v -0.7 0.9 -0.8
v -0.6 0.7 -0.8
v -0.6 0.8 -0.8
v -0.6 0.9 -0.8
v -0.6 1 -0.8
v -0.5 0.8 -0.8
v -0.5 0.9 -0.8
v -0.5 1 -0.8
v -0.5 1.1 -0.8
v -0.4 0.9 -0.8
v -0.4 1 -0.8
v -0.4 1.1 -0.8
v -0.4 1.2 -0.8
v -0.3 1 -0.8
v -0.3 1.1 -0.8
v 0.3 1 -0.8
v 0.3 1.1 -0.8
v 0.4 0.9 -0.8
v 0.4 1 -0.8
v 0.4 1.1 -0.8
v 0.4 1.2 -0.8
v 0.5 0.8 -0.8
v 0.5 0.9 -0.8
v 0.5 1 -0.8
v 0.5 1.1 -0.8
v 0.6 0.7 -0.8
v 0.6 0.8 -0.8
v 0.6 0.9 -0.8
v 0.6 1 -0.8
v 0.7 0.8 -0.8
v 0.7 0.9 -0.8
v 0.8 0.7 -0.8
v 0.8 0.8 -0.8
v -0.7 0 0.7
v -0.2 0 0.7
v 0.2 0 0.7
v 0.7 0 0.7
v -0.6 0 0.6
v -0.2 0 0.6
v 0.2 0 0.6
v 0.6 0 0.6
v -0.6 0 -0.6
v 0.6 0 -0.6
v -0.7 0 -0.7
v 0.7 0 -0.7
v -0.2 0.5 0.7
v 0.2 0.5 0.7
v -0.2 0.5 0.6
v 0.2 0.5 0.6
v -0.8 0.7 0.8
v -0.6 0.7 0.8
v 0.6 0.7 0.8
v 0.8 0.7 0.8
v -0.7 0.7 0.7
v -0.6 0.7 0.7
v 0.6 0.7 0.7
v 0.7 0.7 0.7
v -0.6 0.7 0.6
v 0.6 0.7 0.6
v -0.6 0.7 -0.6
v 0.6 0.7 -0.6
v -0.7 0.7 -0.7
v -0.6 0.7 -0.7
v 0.6 0.7 -0.7
v 0.7 0.7 -0.7
v -0.8 0.7 -0.8
v -0.6 0.7 -0.8
v 0.6 0.7 -0.8
v 0.8 0.7 -0.8
v -0.6 0.8 0.8
v -0.5 0.8 0.8
v 0.5 0.8 0.8
v 0.6 0.8 0.8
v -0.6 0.8 0.7
v -0.5 0.8 0.7
v 0.5 0.8 0.7
v 0.6 0.8 0.7
v -0.6 0.8 -0.7
v -0.5 0.8 -0.7
v 0.5 0.8 -0.7
v 0.6 0.8 -0.7
v -0.6 0.8 -0.8
v -0.5 0.8 -0.8
v 0.5 0.8 -0.8
v 0.6 0.8 -0.8
v -0.5 0.9 0.8
v -0.4 0.9 0.8
v 0.4 0.9 0.8
v 0.5 0.9 0.8
v -0.6 0.9 0.7
v -0.5 0.9 0.7
v -0.4 0.9 0.7
v 0.4 0.9 0.7
v 0.5 0.9 0.7
v 0.6 0.9 0.7
v -0.5 0.9 0.6
v 0.5 0.9 0.6
v -0.5 0.9 -0.6
v 0.5 0.9 -0.6
v 0.6 0.9 -0.6
v -0.6 0.9 -0.7
v -0.5 0.9 -0.7
v -0.4 0.9 -0.7
v 0.4 0.9 -0.7
v 0.5 0.9 -0.7
v -0.5 0.9 -0.8
v -0.4 0.9 -0.8
v 0.4 0.9 -0.8
v 0.5 0.9 -0.8
v -0.4 1 0.8
v -0.3 1 0.8
v -0.5 1 0.7
v -0.4 1 0.7
v -0.3 1 0.7
v 0.4 1 0.7
v 0.5 1 0.7
v -0.4 1 0.6
v 0.4 1 0.6
v -0.4 1 -0.6
v 0.4 1 -0.6
v -0.5 1 -0.7
v -0.4 1 -0.7
v -0.3 1 -0.7
v 0.3 1 -0.7
v 0.4 1 -0.7
v 0.5 1 -0.7
v -0.4 1 -0.8
v -0.3 1 -0.8
v 0.3 1 -0.8
v 0.4 1 -0.8
v -0.3 1.1 0.8
v 0.4 1.1 0.8
v -0.4 1.1 0.7
v -0.3 1.1 0.7
v 0.4 1.1 0.7
v -0.3 1.1 0.6
v 0.4 1.1 0.6
v -0.3 1.1 -0.6
v 0.3 1.1 -0.6
v -0.4 1.1 -0.7
v -0.3 1.1 -0.7
v 0.3 1.1 -0.7
v 0.4 1.1 -0.7
v -0.3 1.1 -0.8
v 0.3 1.1 -0.8
v -0.8 0.8 0.8
v -0.7 0.8 0.8
v 0.7 0.8 0.8
v 0.8 0.8 0.8
v -0.6 0.8 0.7
v -0.5 0.8 0.7
v 0.5 0.8 0.7
v 0.6 0.8 0.7
v -0.6 0.8 0.6
v -0.5 0.8 0.6
v 0.5 0.8 0.6
v 0.6 0.8 0.6
v -0.6 0.8 -0.6
v -0.5 0.8 -0.6
v 0.6 0.8 -0.6
v -0.6 0.8 -0.7
v -0.5 0.8 -0.7
v -0.8 0.8 -0.8
v -0.7 0.8 -0.8
v 0.7 0.8 -0.8
v 0.8 0.8 -0.8
v -0.7 0.9 0.8
v -0.6 0.9 0.8
v 0.6 0.9 0.8
v 0.7 0.9 0.8
v -0.5 0.9 0.7
v -0.4 0.9 0.7
v 0.4 0.9 0.7
v 0.5 0.9 0.7
v -0.5 0.9 0.6
v -0.4 0.9 0.6
v 0.4 0.9 0.6
v 0.5 0.9 0.6
v -0.5 0.9 -0.6
v -0.4 0.9 -0.6
v 0.4 0.9 -0.6
v 0.5 0.9 -0.6
v -0.5 0.9 -0.7
v -0.4 0.9 -0.7
v 0.4 0.9 -0.7
v 0.5 0.9 -0.7
v -0.7 0.9 -0.8
v -0.6 0.9 -0.8
v 0.6 0.9 -0.8
v 0.7 0.9 -0.8
v -0.6 1 0.8
v -0.5 1 0.8
v 0.5 1 0.8
v 0.6 1 0.8
v -0.4 1 0.7
v -0.3 1 0.7
v -0.4 1 0.6
v -0.3 1 0.6
v -0.4 1 -0.6
v -0.3 1 -0.6
v 0.3 1 -0.6
v 0.4 1 -0.6
v -0.4 1 -0.7
v -0.3 1 -0.7
v 0.3 1 -0.7
v 0.4 1 -0.7
v -0.6 1 -0.8
v -0.5 1 -0.8
v 0.5 1 -0.8
v 0.6 1 -0.8
v -0.5 1.1 0.8
v -0.4 1.1 0.8
v 0.4 1.1 0.8
v 0.5 1.1 0.8
v -0.5 1.1 -0.8
v -0.4 1.1 -0.8
v 0.4 1.1 -0.8
v 0.5 1.1 -0.8
v -0.4 1.2 0.8
v 0.4 1.2 0.8
v -0.4 1.2 -0.8
v 0.4 1.2 -0.8

# faces
f 3/2/1 2/2/1 1/2/1
f 4/2/1 2/2/1 3/2/1
f 7/1/1 6/1/1 5/1/1
f 8/1/1 6/1/1 7/1/1
f 11/2/1 10/2/1 9/2/1
f 12/2/1 10/2/1 11/2/1
f 15/2/1 14/2/1 13/2/1
f 16/2/1 14/2/1 15/2/1
f 21/1/1 18/1/1 17/1/1
f 22/1/1 18/1/1 21/1/1
f 23/1/1 20/1/1 19/1/1
f 24/1/1 20/1/1 23/1/1
f 27/2/1 26/2/1 25/2/1
f 28/2/1 26/2/1 27/2/1
f 33/1/1 30/1/1 29/1/1
f 34/1/1 30/1/1 33/1/1
f 35/1/1 32/1/1 31/1/1
f 36/1/1 32/1/1 35/1/1
f 39/2/1 38/2/1 37/2/1
f 40/2/1 38/2/1 39/2/1
f 45/1/1 42/1/1 41/1/1
f 46/1/1 42/1/1 45/1/1
f 47/1/1 44/1/1 43/1/1
f 48/1/1 44/1/1 47/1/1
f 51/1/1 50/1/1 49/1/1
f 52/1/1 50/1/1 51/1/1
f 55/2/1 54/2/1 53/2/1
f 56/2/1 54/2/1 55/2/1
f 63/2/1 60/2/1 59/2/1
f 64/2/1 60/2/1 63/2/1
f 65/2/1 58/2/1 57/2/1
f 66/2/1 58/2/1 65/2/1
f 67/2/1 62/2/1 61/2/1
f 67/2/1 63/2/1 62/2/1
f 68/2/1 63/2/1 67/2/1
f 73/2/1 70/2/1 69/2/1
f 74/2/1 70/2/1 73/2/1
f 77/2/1 72/2/1 71/2/1
f 78/2/1 72/2/1 77/2/1
f 79/2/1 76/2/1 75/2/1
f 79/2/1 77/2/1 76/2/1
f 79/2/1 75/2/1 74/2/1
f 80/2/1 77/2/1 79/2/1
f 85/1/1 82/1/1 81/1/1
f 86/1/1 82/1/1 85/1/1
f 89/2/1 84/2/1 83/2/1
f 90/2/1 84/2/1 89/2/1
f 93/2/1 88/2/1 87/2/1
f 94/2/1 88/2/1 93/2/1
f 95/2/1 92/2/1 91/2/1
f 95/2/1 91/2/1 90/2/1
f 96/2/1 92/2/1 95/2/1
f 97/1/2 98/1/2 101/1/2
f 101/1/2 98/1/2 102/1/2
f 99/2/2 100/2/2 105/2/2
f 105/2/2 100/2/2 106/2/2
f 103/2/2 104/2/2 109/2/2
f 109/2/2 104/2/2 110/2/2
f 107/2/2 108/2/2 111/2/2
f 108/2/2 109/2/2 111/2/2
f 106/2/2 107/2/2 111/2/2
f 111/2/2 109/2/2 112/2/2
f 113/2/2 114/2/2 117/2/2
f 117/2/2 114/2/2 118/2/2
f 115/2/2 116/2/2 121/2/2
f 121/2/2 116/2/2 122/2/2
f 119/2/2 120/2/2 123/2/2
f 120/2/2 121/2/2 123/2/2
f 118/2/2 119/2/2 123/2/2
f 123/2/2 121/2/2 124/2/2
f 125/2/2 126/2/2 129/2/2
f 129/2/2 126/2/2 130/2/2
f 127/2/2 128/2/2 133/2/2
f 133/2/2 128/2/2 134/2/2
f 131/2/2 132/2/2 135/2/2
f 132/2/2 133/2/2 135/2/2
f 130/2/2 131/2/2 135/2/2
f 135/2/2 133/2/2 136/2/2
f 137/2/2 138/2/2 141/2/2
f 141/2/2 138/2/2 142/2/2
f 139/2/2 140/2/2 143/2/2
f 143/2/2 140/2/2 144/2/2
f 145/1/2 146/1/2 147/1/2
f 147/1/2 146/1/2 148/1/2
f 149/1/2 150/1/2 151/1/2
f 151/1/2 150/1/2 152/1/2
f 153/1/2 154/1/2 157/1/2
f 157/1/2 154/1/2 158/1/2
f 155/1/2 156/1/2 159/1/2
f 159/1/2 156/1/2 160/1/2
f 161/2/2 162/2/2 163/2/2
f 163/2/2 162/2/2 164/2/2
f 165/1/2 166/1/2 167/1/2
f 167/1/2 166/1/2 168/1/2
f 169/2/2 170/2/2 171/2/2
f 171/2/2 170/2/2 172/2/2
f 173/2/2 174/2/2 175/2/2
f 175/2/2 174/2/2 176/2/2
f 177/1/2 178/1/2 179/1/2
f 179/1/2 178/1/2 180/1/2
f 181/2/2 182/2/2 183/2/2
f 183/2/2 182/2/2 184/2/2
f 185/2/2 186/2/2 187/2/2
f 187/2/2 186/2/2 188/2/2
f 191/2/3 190/2/3 189/2/3
f 193/2/3 191/2/3 189/2/3
f 193/2/3 192/2/3 191/2/3
f 194/2/3 192/2/3 193/2/3
f 195/2/3 192/2/3 194/2/3
f 197/2/3 196/2/3 195/2/3
f 197/2/3 195/2/3 194/2/3
f 198/2/3 196/2/3 197/2/3
f 199/2/3 196/2/3 198/2/3
f 201/2/3 200/2/3 199/2/3
f 201/2/3 199/2/3 198/2/3
f 202/2/3 200/2/3 201/2/3
f 203/2/3 200/2/3 202/2/3
f 205/2/3 204/2/3 203/2/3
f 205/2/3 203/2/3 202/2/3
f 206/2/3 204/2/3 205/2/3
f 208/2/3 204/2/3 206/2/3
f 209/2/3 204/2/3 208/2/3
f 211/2/3 208/2/3 207/2/3
f 212/2/3 208/2/3 211/2/3
f 213/2/3 208/2/3 212/2/3
f 215/2/3 211/2/3 210/2/3
f 215/2/3 212/2/3 211/2/3
f 216/2/3 212/2/3 215/2/3
f 217/2/3 212/2/3 216/2/3
f 218/2/3 215/2/3 214/2/3
f 218/2/3 216/2/3 215/2/3
f 219/2/3 216/2/3 218/2/3
f 220/2/3 218/2/3 214/2/3
f 221/2/3 218/2/3 220/2/3
f 224/1/3 223/1/3 222/1/3
f 226/1/3 225/1/3 224/1/3
f 228/1/3 227/1/3 226/1/3
f 230/1/3 229/1/3 228/1/3
f 232/1/3 224/1/3 222/1/3
f 232/1/3 231/1/3 230/1/3
f 232/1/3 230/1/3 228/1/3
f 232/1/3 228/1/3 226/1/3
f 232/1/3 226/1/3 224/1/3
f 233/1/3 231/1/3 232/1/3
f 235/1/3 231/1/3 233/1/3
f 236/1/3 231/1/3 235/1/3
f 236/1/3 235/1/3 234/1/3
f 237/1/3 231/1/3 236/1/3
f 238/1/3 236/1/3 234/1/3
f 239/1/3 236/1/3 238/1/3
f 240/1/3 238/1/3 234/1/3
f 241/1/3 238/1/3 240/1/3
f 242/1/3 240/1/3 234/1/3
f 243/1/3 240/1/3 242/1/3
f 248/1/3 247/1/3 246/1/3
f 250/1/3 249/1/3 248/1/3
f 252/1/3 250/1/3 248/1/3
f 252/1/3 251/1/3 250/1/3
f 253/1/3 251/1/3 252/1/3
f 254/1/3 248/1/3 246/1/3
f 254/1/3 252/1/3 248/1/3
f 255/1/3 252/1/3 254/1/3
f 256/1/3 254/1/3 246/1/3
f 257/1/3 245/1/3 244/1/3
f 258/1/3 245/1/3 257/1/3
f 259/1/3 256/1/3 246/1/3
f 260/1/3 256/1/3 259/1/3
f 263/2/3 262/2/3 261/2/3
f 264/2/3 262/2/3 263/2/3
f 266/2/3 265/2/3 264/2/3
f 267/2/3 265/2/3 266/2/3
f 269/2/3 268/2/3 267/2/3
f 270/2/3 268/2/3 269/2/3
f 274/2/3 272/2/3 271/2/3
f 275/2/3 272/2/3 274/2/3
f 276/2/3 274/2/3 273/2/3
f 277/2/3 274/2/3 276/2/3
f 278/2/4 279/2/4 280/2/4
f 280/2/4 279/2/4 281/2/4
f 281/2/4 282/2/4 283/2/4
f 283/2/4 282/2/4 284/2/4
f 284/2/4 285/2/4 286/2/4
f 286/2/4 285/2/4 287/2/4
f 288/2/4 289/2/4 291/2/4
f 291/2/4 289/2/4 292/2/4
f 290/2/4 291/2/4 293/2/4
f 293/2/4 291/2/4 294/2/4
f 297/1/4 298/1/4 299/1/4
f 299/1/4 300/1/4 301/1/4
f 295/1/4 296/1/4 303/1/4
f 303/1/4 296/1/4 304/1/4
f 304/1/4 296/1/4 306/1/4
f 301/1/4 302/1/4 307/1/4
f 297/1/4 299/1/4 307/1/4
f 299/1/4 301/1/4 307/1/4
f 307/1/4 302/1/4 308/1/4
f 308/1/4 302/1/4 309/1/4
f 297/1/4 307/1/4 310/1/4
f 310/1/4 307/1/4 311/1/4
f 305/1/4 306/1/4 312/1/4
f 306/1/4 296/1/4 313/1/4
f 312/1/4 306/1/4 313/1/4
f 314/1/4 315/1/4 316/1/4
f 316/1/4 317/1/4 318/1/4
f 318/1/4 319/1/4 320/1/4
f 320/1/4 321/1/4 322/1/4
f 320/1/4 322/1/4 324/1/4
f 322/1/4 323/1/4 324/1/4
f 324/1/4 323/1/4 325/1/4
f 318/1/4 320/1/4 326/1/4
f 320/1/4 324/1/4 326/1/4
f 326/1/4 324/1/4 327/1/4
f 316/1/4 318/1/4 328/1/4
f 318/1/4 326/1/4 328/1/4
f 328/1/4 326/1/4 329/1/4
f 314/1/4 316/1/4 330/1/4
f 316/1/4 328/1/4 330/1/4
f 330/1/4 328/1/4 331/1/4
f 314/1/4 330/1/4 332/1/4
f 332/1/4 330/1/4 333/1/4
f 334/2/4 335/2/4 336/2/4
f 334/2/4 336/2/4 338/2/4
f 336/2/4 337/2/4 338/2/4
f 338/2/4 337/2/4 339/2/4
f 339/2/4 337/2/4 340/2/4
f 340/2/4 341/2/4 342/2/4
f 339/2/4 340/2/4 342/2/4
f 342/2/4 341/2/4 343/2/4
f 343/2/4 341/2/4 344/2/4
f 344/2/4 345/2/4 346/2/4
f 343/2/4 344/2/4 346/2/4
f 346/2/4 345/2/4 347/2/4
f 347/2/4 345/2/4 348/2/4
f 348/2/4 349/2/4 350/2/4
f 347/2/4 348/2/4 350/2/4
f 350/2/4 349/2/4 351/2/4
f 351/2/4 349/2/4 353/2/4
f 352/2/4 353/2/4 355/2/4
f 353/2/4 349/2/4 356/2/4
f 355/2/4 353/2/4 356/2/4
f 356/2/4 349/2/4 357/2/4
f 354/2/4 355/2/4 359/2/4
f 355/2/4 356/2/4 359/2/4
f 359/2/4 356/2/4 360/2/4
f 360/2/4 356/2/4 361/2/4
f 358/2/4 359/2/4 363/2/4
f 359/2/4 360/2/4 363/2/4
f 363/2/4 360/2/4 364/2/4
f 364/2/4 360/2/4 365/2/4
f 362/2/4 363/2/4 366/2/4
f 363/2/4 364/2/4 366/2/4
f 366/2/4 364/2/4 367/2/4
f 362/2/4 366/2/4 368/2/4
f 368/2/4 366/2/4 369/2/4
f 374/1/5 371/1/5 370/1/5
f 375/1/5 371/1/5 374/1/5
f 376/1/5 373/1/5 372/1/5
f 377/1/5 373/1/5 376/1/5
f 378/1/5 374/1/5 370/1/5
f 379/1/5 373/1/5 377/1/5
f 380/1/5 378/1/5 370/1/5
f 380/1/5 379/1/5 378/1/5
f 381/1/5 373/1/5 379/1/5
f 381/1/5 379/1/5 380/1/5
f 384/1/5 383/1/5 382/1/5
f 385/1/5 383/1/5 384/1/5
f 390/2/5 387/2/5 386/2/5
f 391/2/5 387/2/5 390/2/5
f 392/2/5 389/2/5 388/2/5
f 393/2/5 389/2/5 392/2/5
f 396/2/5 395/2/5 394/2/5
f 397/2/5 395/2/5 396/2/5
f 398/2/5 390/2/5 386/2/5
f 401/2/5 389/2/5 393/2/5
f 402/2/5 399/2/5 398/2/5
f 402/2/5 398/2/5 386/2/5
f 403/2/5 399/2/5 402/2/5
f 404/2/5 401/2/5 400/2/5
f 405/2/5 389/2/5 401/2/5
f 405/2/5 401/2/5 404/2/5
f 410/2/5 407/2/5 406/2/5
f 411/2/5 407/2/5 410/2/5
f 412/2/5 409/2/5 408/2/5
f 413/2/5 409/2/5 412/2/5
f 418/2/5 415/2/5 414/2/5
f 419/2/5 415/2/5 418/2/5
f 420/2/5 417/2/5 416/2/5
f 421/2/5 417/2/5 420/2/5
f 427/2/5 423/2/5 422/2/5
f 428/2/5 423/2/5 427/2/5
f 429/2/5 425/2/5 424/2/5
f 430/2/5 425/2/5 429/2/5
f 432/2/5 427/2/5 426/2/5
f 433/2/5 431/2/5 430/2/5
f 434/2/5 432/2/5 426/2/5
f 435/2/5 431/2/5 433/2/5
f 436/2/5 431/2/5 435/2/5
f 437/2/5 434/2/5 426/2/5
f 438/2/5 434/2/5 437/2/5
f 442/2/5 439/2/5 438/2/5
f 443/2/5 439/2/5 442/2/5
f 444/2/5 441/2/5 440/2/5
f 445/2/5 441/2/5 444/2/5
f 449/2/5 447/2/5 446/2/5
f 450/2/5 447/2/5 449/2/5
f 453/2/5 449/2/5 448/2/5
f 454/2/5 452/2/5 451/2/5
f 455/2/5 453/2/5 448/2/5
f 456/2/5 452/2/5 454/2/5
f 457/2/5 455/2/5 448/2/5
f 458/2/5 455/2/5 457/2/5
f 461/2/5 452/2/5 456/2/5
f 462/2/5 452/2/5 461/2/5
f 463/2/5 459/2/5 458/2/5
f 464/2/5 459/2/5 463/2/5
f 465/2/5 461/2/5 460/2/5
f 466/2/5 461/2/5 465/2/5
f 470/2/5 468/2/5 467/2/5
f 471/2/5 468/2/5 470/2/5
f 472/2/5 470/2/5 469/2/5
f 474/2/5 472/2/5 469/2/5
f 474/2/5 473/2/5 472/2/5
f 475/2/5 473/2/5 474/2/5
f 476/2/5 474/2/5 469/2/5
f 477/2/5 474/2/5 476/2/5
f 478/2/5 473/2/5 475/2/5
f 479/2/5 473/2/5 478/2/5
f 480/2/5 478/2/5 477/2/5
f 481/2/5 478/2/5 480/2/5
f 486/1/6 487/1/6 490/1/6
f 490/1/6 487/1/6 491/1/6
f 488/1/6 489/1/6 492/1/6
f 492/1/6 489/1/6 493/1/6
f 490/2/6 491/2/6 494/2/6
f 491/2/6 492/2/6 494/2/6
f 492/2/6 493/2/6 494/2/6
f 494/2/6 493/2/6 495/2/6
f 495/2/6 493/2/6 496/2/6
f 494/1/6 495/1/6 497/1/6
f 497/1/6 495/1/6 498/1/6
f 482/2/6 483/2/6 499/2/6
f 499/2/6 483/2/6 500/2/6
f 484/2/6 485/2/6 501/2/6
f 501/2/6 485/2/6 502/2/6
f 507/1/6 508/1/6 511/1/6
f 511/1/6 508/1/6 512/1/6
f 509/1/6 510/1/6 513/1/6
f 513/1/6 510/1/6 514/1/6
f 515/1/6 516/1/6 519/1/6
f 519/1/6 516/1/6 520/1/6
f 517/1/6 518/1/6 521/1/6
f 521/1/6 518/1/6 522/1/6
f 503/2/6 504/2/6 523/2/6
f 523/2/6 504/2/6 524/2/6
f 505/2/6 506/2/6 525/2/6
f 525/2/6 506/2/6 526/2/6
f 531/1/6 532/1/6 533/1/6
f 533/1/6 532/1/6 534/1/6
f 535/1/6 536/1/6 539/1/6
f 539/1/6 536/1/6 540/1/6
f 537/1/6 538/1/6 541/1/6
f 541/1/6 538/1/6 542/1/6
f 527/2/6 528/2/6 543/2/6
f 543/2/6 528/2/6 544/2/6
f 529/2/6 530/2/6 545/2/6
f 545/2/6 530/2/6 546/2/6
f 547/2/6 548/2/6 551/2/6
f 551/2/6 548/2/6 552/2/6
f 549/2/6 550/2/6 553/2/6
f 553/2/6 550/2/6 554/2/6
f 555/2/6 556/2/6 557/2/6
f 557/2/6 556/2/6 558/2/6
