# MagicaVoxel @ Ephtracy

# group
o 

# material
mtllib Lock.mtl
usemtl palette

# normals
vn -1 0 0
vn 1 0 0
vn 0 0 1
vn 0 0 -1
vn 0 -1 0
vn 0 1 0

# texcoords
vt 0.0136719 0.5
vt 0.994141 0.5

# verts
v -0.4 0 0.1
v -0.4 0 -0.2
v -0.4 0.7 0.1
v -0.4 0.7 -0.2
v -0.3 0.7 0.1
v -0.3 0.7 -0.2
v -0.3 1.1 0.1
v -0.3 1.1 -0.2
v 0.2 0.7 0.1
v 0.2 0.7 -0.2
v 0.2 0.9 0.1
v 0.2 0.9 -0.2
v -0.1 0.7 0.1
v -0.1 0.7 -0.2
v -0.1 0.9 0.1
v -0.1 0.9 -0.2
v 0.4 0.7 0.1
v 0.4 0.7 -0.2
v 0.4 1.1 0.1
v 0.4 1.1 -0.2
v 0.5 0 0.1
v 0.5 0 -0.2
v 0.5 0.7 0.1
v 0.5 0.7 -0.2
v -0.4 0 0.1
v -0.4 0.7 0.1
v -0.3 0.7 0.1
v -0.3 1.1 0.1
v -0.1 0.3 0.1
v -0.1 0.5 0.1
v -0.1 0.7 0.1
v -0.1 0.9 0.1
v 0 0.2 0.1
v 0 0.3 0.1
v 0.1 0.2 0.1
v 0.1 0.3 0.1
v 0.2 0.3 0.1
v 0.2 0.5 0.1
v 0.2 0.7 0.1
v 0.2 0.9 0.1
v 0.4 0.7 0.1
v 0.4 1.1 0.1
v 0.5 0 0.1
v 0.5 0.7 0.1
v -0.4 0 -0.2
v -0.4 0.7 -0.2
v -0.3 0.7 -0.2
v -0.3 1.1 -0.2
v -0.1 0.7 -0.2
v -0.1 0.9 -0.2
v 0.2 0.7 -0.2
v 0.2 0.9 -0.2
v 0.4 0.7 -0.2
v 0.4 1.1 -0.2
v 0.5 0 -0.2
v 0.5 0.7 -0.2
v -0.4 0 0.1
v 0.5 0 0.1
v -0.4 0 -0.2
v 0.5 0 -0.2
v -0.1 0.9 0.1
v 0.2 0.9 0.1
v -0.1 0.9 -0.2
v 0.2 0.9 -0.2
v -0.4 0.7 0.1
v -0.3 0.7 0.1
v -0.1 0.7 0.1
v 0.2 0.7 0.1
v 0.4 0.7 0.1
v 0.5 0.7 0.1
v -0.4 0.7 -0.2
v -0.3 0.7 -0.2
v -0.1 0.7 -0.2
v 0.2 0.7 -0.2
v 0.4 0.7 -0.2
v 0.5 0.7 -0.2
v -0.3 1.1 0.1
v 0.4 1.1 0.1
v -0.3 1.1 -0.2
v 0.4 1.1 -0.2

# faces
f 3/1/1 2/1/1 1/1/1
f 4/1/1 2/1/1 3/1/1
f 7/1/1 6/1/1 5/1/1
f 8/1/1 6/1/1 7/1/1
f 11/1/1 10/1/1 9/1/1
f 12/1/1 10/1/1 11/1/1
f 13/1/2 14/1/2 15/1/2
f 15/1/2 14/1/2 16/1/2
f 17/1/2 18/1/2 19/1/2
f 19/1/2 18/1/2 20/1/2
f 21/1/2 22/1/2 23/1/2
f 23/1/2 22/1/2 24/1/2
f 27/1/3 26/1/3 25/1/3
f 29/1/3 27/1/3 25/1/3
f 29/1/3 28/1/3 27/1/3
f 30/1/3 28/1/3 29/1/3
f 31/1/3 28/1/3 30/1/3
f 32/1/3 28/1/3 31/1/3
f 33/1/3 29/1/3 25/1/3
f 34/2/3 30/2/3 29/2/3
f 34/1/3 29/1/3 33/1/3
f 35/1/3 33/1/3 25/1/3
f 35/2/3 34/2/3 33/2/3
f 36/2/3 30/2/3 34/2/3
f 36/2/3 34/2/3 35/2/3
f 37/1/3 36/1/3 35/1/3
f 37/2/3 30/2/3 36/2/3
f 38/1/3 31/1/3 30/1/3
f 38/2/3 30/2/3 37/2/3
f 39/1/3 31/1/3 38/1/3
f 40/1/3 28/1/3 32/1/3
f 41/1/3 39/1/3 38/1/3
f 41/1/3 40/1/3 39/1/3
f 41/1/3 38/1/3 37/1/3
f 42/1/3 28/1/3 40/1/3
f 42/1/3 40/1/3 41/1/3
f 43/1/3 41/1/3 37/1/3
f 43/1/3 35/1/3 25/1/3
f 43/1/3 37/1/3 35/1/3
f 44/1/3 41/1/3 43/1/3
f 45/1/4 46/1/4 47/1/4
f 45/1/4 47/1/4 49/1/4
f 47/1/4 48/1/4 49/1/4
f 49/1/4 48/1/4 50/1/4
f 45/1/4 49/1/4 51/1/4
f 50/1/4 48/1/4 52/1/4
f 45/1/4 51/1/4 53/1/4
f 51/1/4 52/1/4 53/1/4
f 52/1/4 48/1/4 54/1/4
f 53/1/4 52/1/4 54/1/4
f 45/1/4 53/1/4 55/1/4
f 55/1/4 53/1/4 56/1/4
f 59/1/5 58/1/5 57/1/5
f 60/1/5 58/1/5 59/1/5
f 63/1/5 62/1/5 61/1/5
f 64/1/5 62/1/5 63/1/5
f 65/1/6 66/1/6 71/1/6
f 71/1/6 66/1/6 72/1/6
f 67/1/6 68/1/6 73/1/6
f 73/1/6 68/1/6 74/1/6
f 69/1/6 70/1/6 75/1/6
f 75/1/6 70/1/6 76/1/6
f 77/1/6 78/1/6 79/1/6
f 79/1/6 78/1/6 80/1/6
