# MagicaVoxel @ Ephtracy

# group
o 

# material
mtllib Notepad.mtl
usemtl palette

# normals
vn -1 0 0
vn 1 0 0
vn 0 0 1
vn 0 0 -1
vn 0 -1 0
vn 0 1 0

# texcoords
vt 0.0449219 0.5
vt 0.0644531 0.5
vt 0.779297 0.5
vt 0.845703 0.5

# verts
v -1 0 -0.1
v -1 0 -0.2
v -1 0.2 -0.1
v -1 0.2 -0.2
v -1 0.3 -0.1
v -1 0.3 -0.2
v -1 0.5 -0.1
v -1 0.5 -0.2
v -1 0.6 -0.1
v -1 0.6 -0.2
v -1 0.8 -0.1
v -1 0.8 -0.2
v -1 0.9 -0.1
v -1 0.9 -0.2
v -1 1.1 -0.1
v -1 1.1 -0.2
v -1 1.2 -0.1
v -1 1.2 -0.2
v -1 1.4 -0.1
v -1 1.4 -0.2
v -1 1.5 -0.1
v -1 1.5 -0.2
v -1 1.7 -0.1
v -1 1.7 -0.2
v -1 1.8 -0.1
v -1 1.8 -0.2
v -1 2 -0.1
v -1 2 -0.2
v -1 2.1 -0.1
v -1 2.1 -0.2
v -1 2.3 -0.1
v -1 2.3 -0.2
v -1 2.4 -0.1
v -1 2.4 -0.2
v -1 2.6 0
v -1 2.6 -0.1
v -1 2.6 -0.2
v -1 3 0
v -1 3 -0.2
v 1 0 -0.1
v 1 0 -0.2
v 1 0.2 -0.1
v 1 0.2 -0.2
v 1 0.3 -0.1
v 1 0.3 -0.2
v 1 0.5 -0.1
v 1 0.5 -0.2
v 1 0.6 -0.1
v 1 0.6 -0.2
v 1 0.8 -0.1
v 1 0.8 -0.2
v 1 0.9 -0.1
v 1 0.9 -0.2
v 1 1.1 -0.1
v 1 1.1 -0.2
v 1 1.2 -0.1
v 1 1.2 -0.2
v 1 1.4 -0.1
v 1 1.4 -0.2
v 1 1.5 -0.1
v 1 1.5 -0.2
v 1 1.7 -0.1
v 1 1.7 -0.2
v 1 1.8 -0.1
v 1 1.8 -0.2
v 1 2 -0.1
v 1 2 -0.2
v 1 2.1 -0.1
v 1 2.1 -0.2
v 1 2.3 -0.1
v 1 2.3 -0.2
v 1 2.4 -0.1
v 1 2.4 -0.2
v 1 2.6 0
v 1 2.6 -0.1
v 1 2.6 -0.2
v 1 3 0
v 1 3 -0.2
v -1 2.6 0
v -1 3 0
v 1 2.6 0
v 1 3 0
v -1 0 -0.1
v -1 0.2 -0.1
v -1 0.3 -0.1
v -1 0.5 -0.1
v -1 0.6 -0.1
v -1 0.8 -0.1
v -1 0.9 -0.1
v -1 1.1 -0.1
v -1 1.2 -0.1
v -1 1.4 -0.1
v -1 1.5 -0.1
v -1 1.7 -0.1
v -1 1.8 -0.1
v -1 2 -0.1
v -1 2.1 -0.1
v -1 2.3 -0.1
v -1 2.4 -0.1
v -1 2.6 -0.1
v -0.8 0 -0.1
v -0.8 0.2 -0.1
v -0.8 0.3 -0.1
v -0.8 0.5 -0.1
v -0.8 0.6 -0.1
v -0.8 0.8 -0.1
v -0.8 0.9 -0.1
v -0.8 1.1 -0.1
v -0.8 1.2 -0.1
v -0.8 1.4 -0.1
v -0.8 1.5 -0.1
v -0.8 1.7 -0.1
v -0.8 1.8 -0.1
v -0.8 2 -0.1
v -0.8 2.1 -0.1
v -0.8 2.3 -0.1
v -0.8 2.4 -0.1
v -0.8 2.6 -0.1
v -0.7 0 -0.1
v -0.7 0.2 -0.1
v -0.7 0.3 -0.1
v -0.7 0.5 -0.1
v -0.7 0.6 -0.1
v -0.7 0.8 -0.1
v -0.7 0.9 -0.1
v -0.7 1.1 -0.1
v -0.7 1.2 -0.1
v -0.7 1.4 -0.1
v -0.7 1.5 -0.1
v -0.7 1.7 -0.1
v -0.7 1.8 -0.1
v -0.7 2 -0.1
v -0.7 2.1 -0.1
v -0.7 2.3 -0.1
v -0.7 2.4 -0.1
v -0.7 2.6 -0.1
v 1 0 -0.1
v 1 0.2 -0.1
v 1 0.3 -0.1
v 1 0.5 -0.1
v 1 0.6 -0.1
v 1 0.8 -0.1
v 1 0.9 -0.1
v 1 1.1 -0.1
v 1 1.2 -0.1
v 1 1.4 -0.1
v 1 1.5 -0.1
v 1 1.7 -0.1
v 1 1.8 -0.1
v 1 2 -0.1
v 1 2.1 -0.1
v 1 2.3 -0.1
v 1 2.4 -0.1
v 1 2.6 -0.1
v -1 0 -0.2
v -1 0.2 -0.2
v -1 0.3 -0.2
v -1 0.5 -0.2
v -1 0.6 -0.2
v -1 0.8 -0.2
v -1 0.9 -0.2
v -1 1.1 -0.2
v -1 1.2 -0.2
v -1 1.4 -0.2
v -1 1.5 -0.2
v -1 1.7 -0.2
v -1 1.8 -0.2
v -1 2 -0.2
v -1 2.1 -0.2
v -1 2.3 -0.2
v -1 2.4 -0.2
v -1 2.6 -0.2
v -1 3 -0.2
v -0.8 0 -0.2
v -0.8 0.2 -0.2
v -0.8 0.3 -0.2
v -0.8 0.5 -0.2
v -0.8 0.6 -0.2
v -0.8 0.8 -0.2
v -0.8 0.9 -0.2
v -0.8 1.1 -0.2
v -0.8 1.2 -0.2
v -0.8 1.4 -0.2
v -0.8 1.5 -0.2
v -0.8 1.7 -0.2
v -0.8 1.8 -0.2
v -0.8 2 -0.2
v -0.8 2.1 -0.2
v -0.8 2.3 -0.2
v -0.8 2.4 -0.2
v -0.8 2.6 -0.2
v -0.7 0 -0.2
v -0.7 0.2 -0.2
v -0.7 0.3 -0.2
v -0.7 0.5 -0.2
v -0.7 0.6 -0.2
v -0.7 0.8 -0.2
v -0.7 0.9 -0.2
v -0.7 1.1 -0.2
v -0.7 1.2 -0.2
v -0.7 1.4 -0.2
v -0.7 1.5 -0.2
v -0.7 1.7 -0.2
v -0.7 1.8 -0.2
v -0.7 2 -0.2
v -0.7 2.1 -0.2
v -0.7 2.3 -0.2
v -0.7 2.4 -0.2
v -0.7 2.6 -0.2
v 1 0 -0.2
v 1 0.2 -0.2
v 1 0.3 -0.2
v 1 0.5 -0.2
v 1 0.6 -0.2
v 1 0.8 -0.2
v 1 0.9 -0.2
v 1 1.1 -0.2
v 1 1.2 -0.2
v 1 1.4 -0.2
v 1 1.5 -0.2
v 1 1.7 -0.2
v 1 1.8 -0.2
v 1 2 -0.2
v 1 2.1 -0.2
v 1 2.3 -0.2
v 1 2.4 -0.2
v 1 2.6 -0.2
v 1 3 -0.2
v -1 0 -0.1
v -0.8 0 -0.1
v -0.7 0 -0.1
v 1 0 -0.1
v -1 0 -0.2
v -0.8 0 -0.2
v -0.7 0 -0.2
v 1 0 -0.2
v -1 2.6 0
v 1 2.6 0
v -1 2.6 -0.1
v -0.8 2.6 -0.1
v -0.7 2.6 -0.1
v 1 2.6 -0.1
v -1 3 0
v 1 3 0
v -1 3 -0.2
v 1 3 -0.2

# faces
f 3/1/1 2/1/1 1/1/1
f 4/1/1 2/1/1 3/1/1
f 5/3/1 4/3/1 3/3/1
f 6/3/1 4/3/1 5/3/1
f 7/1/1 6/1/1 5/1/1
f 8/1/1 6/1/1 7/1/1
f 9/3/1 8/3/1 7/3/1
f 10/3/1 8/3/1 9/3/1
f 11/1/1 10/1/1 9/1/1
f 12/1/1 10/1/1 11/1/1
f 13/3/1 12/3/1 11/3/1
f 14/3/1 12/3/1 13/3/1
f 15/1/1 14/1/1 13/1/1
f 16/1/1 14/1/1 15/1/1
f 17/3/1 16/3/1 15/3/1
f 18/3/1 16/3/1 17/3/1
f 19/1/1 18/1/1 17/1/1
f 20/1/1 18/1/1 19/1/1
f 21/3/1 20/3/1 19/3/1
f 22/3/1 20/3/1 21/3/1
f 23/1/1 22/1/1 21/1/1
f 24/1/1 22/1/1 23/1/1
f 25/3/1 24/3/1 23/3/1
f 26/3/1 24/3/1 25/3/1
f 27/1/1 26/1/1 25/1/1
f 28/1/1 26/1/1 27/1/1
f 29/3/1 28/3/1 27/3/1
f 30/3/1 28/3/1 29/3/1
f 31/1/1 30/1/1 29/1/1
f 32/1/1 30/1/1 31/1/1
f 33/3/1 32/3/1 31/3/1
f 34/3/1 32/3/1 33/3/1
f 36/1/1 34/1/1 33/1/1
f 37/1/1 34/1/1 36/1/1
f 38/2/1 36/2/1 35/2/1
f 38/2/1 37/2/1 36/2/1
f 39/2/1 37/2/1 38/2/1
f 40/1/2 41/1/2 42/1/2
f 42/1/2 41/1/2 43/1/2
f 42/3/2 43/3/2 44/3/2
f 44/3/2 43/3/2 45/3/2
f 44/1/2 45/1/2 46/1/2
f 46/1/2 45/1/2 47/1/2
f 46/3/2 47/3/2 48/3/2
f 48/3/2 47/3/2 49/3/2
f 48/1/2 49/1/2 50/1/2
f 50/1/2 49/1/2 51/1/2
f 50/3/2 51/3/2 52/3/2
f 52/3/2 51/3/2 53/3/2
f 52/1/2 53/1/2 54/1/2
f 54/1/2 53/1/2 55/1/2
f 54/3/2 55/3/2 56/3/2
f 56/3/2 55/3/2 57/3/2
f 56/1/2 57/1/2 58/1/2
f 58/1/2 57/1/2 59/1/2
f 58/3/2 59/3/2 60/3/2
f 60/3/2 59/3/2 61/3/2
f 60/1/2 61/1/2 62/1/2
f 62/1/2 61/1/2 63/1/2
f 62/3/2 63/3/2 64/3/2
f 64/3/2 63/3/2 65/3/2
f 64/1/2 65/1/2 66/1/2
f 66/1/2 65/1/2 67/1/2
f 66/3/2 67/3/2 68/3/2
f 68/3/2 67/3/2 69/3/2
f 68/1/2 69/1/2 70/1/2
f 70/1/2 69/1/2 71/1/2
f 70/3/2 71/3/2 72/3/2
f 72/3/2 71/3/2 73/3/2
f 72/1/2 73/1/2 75/1/2
f 75/1/2 73/1/2 76/1/2
f 74/2/2 75/2/2 77/2/2
f 75/2/2 76/2/2 77/2/2
f 77/2/2 76/2/2 78/2/2
f 81/2/3 80/2/3 79/2/3
f 82/2/3 80/2/3 81/2/3
f 101/1/3 84/1/3 83/1/3
f 102/3/3 85/3/3 84/3/3
f 102/1/3 84/1/3 101/1/3
f 103/1/3 86/1/3 85/1/3
f 103/3/3 85/3/3 102/3/3
f 104/3/3 87/3/3 86/3/3
f 104/1/3 86/1/3 103/1/3
f 105/1/3 88/1/3 87/1/3
f 105/3/3 87/3/3 104/3/3
f 106/3/3 89/3/3 88/3/3
f 106/1/3 88/1/3 105/1/3
f 107/1/3 90/1/3 89/1/3
f 107/3/3 89/3/3 106/3/3
f 108/3/3 91/3/3 90/3/3
f 108/1/3 90/1/3 107/1/3
f 109/1/3 92/1/3 91/1/3
f 109/3/3 91/3/3 108/3/3
f 110/3/3 93/3/3 92/3/3
f 110/1/3 92/1/3 109/1/3
f 111/1/3 94/1/3 93/1/3
f 111/3/3 93/3/3 110/3/3
f 112/3/3 95/3/3 94/3/3
f 112/1/3 94/1/3 111/1/3
f 113/1/3 96/1/3 95/1/3
f 113/3/3 95/3/3 112/3/3
f 114/3/3 97/3/3 96/3/3
f 114/1/3 96/1/3 113/1/3
f 115/1/3 98/1/3 97/1/3
f 115/3/3 97/3/3 114/3/3
f 116/3/3 99/3/3 98/3/3
f 116/1/3 98/1/3 115/1/3
f 117/1/3 100/1/3 99/1/3
f 117/3/3 99/3/3 116/3/3
f 118/1/3 100/1/3 117/1/3
f 119/4/3 116/4/3 115/4/3
f 119/4/3 102/4/3 101/4/3
f 119/4/3 118/4/3 117/4/3
f 119/4/3 117/4/3 116/4/3
f 119/4/3 115/4/3 114/4/3
f 119/4/3 114/4/3 113/4/3
f 119/4/3 113/4/3 112/4/3
f 119/4/3 112/4/3 111/4/3
f 119/4/3 111/4/3 110/4/3
f 119/4/3 110/4/3 109/4/3
f 119/4/3 109/4/3 108/4/3
f 119/4/3 108/4/3 107/4/3
f 119/4/3 107/4/3 106/4/3
f 119/4/3 106/4/3 105/4/3
f 119/4/3 105/4/3 104/4/3
f 119/4/3 104/4/3 103/4/3
f 119/4/3 103/4/3 102/4/3
f 120/4/3 118/4/3 119/4/3
f 121/4/3 118/4/3 120/4/3
f 122/4/3 118/4/3 121/4/3
f 123/4/3 118/4/3 122/4/3
f 124/4/3 118/4/3 123/4/3
f 125/4/3 118/4/3 124/4/3
f 126/4/3 118/4/3 125/4/3
f 127/4/3 118/4/3 126/4/3
f 128/4/3 118/4/3 127/4/3
f 129/4/3 118/4/3 128/4/3
f 130/4/3 118/4/3 129/4/3
f 131/4/3 118/4/3 130/4/3
f 132/4/3 118/4/3 131/4/3
f 133/4/3 118/4/3 132/4/3
f 134/4/3 118/4/3 133/4/3
f 135/4/3 118/4/3 134/4/3
f 136/4/3 118/4/3 135/4/3
f 137/1/3 120/1/3 119/1/3
f 138/3/3 121/3/3 120/3/3
f 138/1/3 120/1/3 137/1/3
f 139/1/3 122/1/3 121/1/3
f 139/3/3 121/3/3 138/3/3
f 140/3/3 123/3/3 122/3/3
f 140/1/3 122/1/3 139/1/3
f 141/1/3 124/1/3 123/1/3
f 141/3/3 123/3/3 140/3/3
f 142/3/3 125/3/3 124/3/3
f 142/1/3 124/1/3 141/1/3
f 143/1/3 126/1/3 125/1/3
f 143/3/3 125/3/3 142/3/3
f 144/3/3 127/3/3 126/3/3
f 144/1/3 126/1/3 143/1/3
f 145/1/3 128/1/3 127/1/3
f 145/3/3 127/3/3 144/3/3
f 146/3/3 129/3/3 128/3/3
f 146/1/3 128/1/3 145/1/3
f 147/1/3 130/1/3 129/1/3
f 147/3/3 129/3/3 146/3/3
f 148/3/3 131/3/3 130/3/3
f 148/1/3 130/1/3 147/1/3
f 149/1/3 132/1/3 131/1/3
f 149/3/3 131/3/3 148/3/3
f 150/3/3 133/3/3 132/3/3
f 150/1/3 132/1/3 149/1/3
f 151/1/3 134/1/3 133/1/3
f 151/3/3 133/3/3 150/3/3
f 152/3/3 135/3/3 134/3/3
f 152/1/3 134/1/3 151/1/3
f 153/1/3 136/1/3 135/1/3
f 153/3/3 135/3/3 152/3/3
f 154/1/3 136/1/3 153/1/3
f 155/1/4 156/1/4 174/1/4
f 156/3/4 157/3/4 175/3/4
f 174/1/4 156/1/4 175/1/4
f 157/1/4 158/1/4 176/1/4
f 175/3/4 157/3/4 176/3/4
f 158/3/4 159/3/4 177/3/4
f 176/1/4 158/1/4 177/1/4
f 159/1/4 160/1/4 178/1/4
f 177/3/4 159/3/4 178/3/4
f 160/3/4 161/3/4 179/3/4
f 178/1/4 160/1/4 179/1/4
f 161/1/4 162/1/4 180/1/4
f 179/3/4 161/3/4 180/3/4
f 162/3/4 163/3/4 181/3/4
f 180/1/4 162/1/4 181/1/4
f 163/1/4 164/1/4 182/1/4
f 181/3/4 163/3/4 182/3/4
f 164/3/4 165/3/4 183/3/4
f 182/1/4 164/1/4 183/1/4
f 165/1/4 166/1/4 184/1/4
f 183/3/4 165/3/4 184/3/4
f 166/3/4 167/3/4 185/3/4
f 184/1/4 166/1/4 185/1/4
f 167/1/4 168/1/4 186/1/4
f 185/3/4 167/3/4 186/3/4
f 168/3/4 169/3/4 187/3/4
f 186/1/4 168/1/4 187/1/4
f 169/1/4 170/1/4 188/1/4
f 187/3/4 169/3/4 188/3/4
f 170/3/4 171/3/4 189/3/4
f 188/1/4 170/1/4 189/1/4
f 171/1/4 172/1/4 190/1/4
f 189/3/4 171/3/4 190/3/4
f 172/2/4 173/2/4 191/2/4
f 190/1/4 172/1/4 191/1/4
f 189/4/4 190/4/4 192/4/4
f 174/4/4 175/4/4 192/4/4
f 190/4/4 191/4/4 192/4/4
f 188/4/4 189/4/4 192/4/4
f 187/4/4 188/4/4 192/4/4
f 186/4/4 187/4/4 192/4/4
f 185/4/4 186/4/4 192/4/4
f 184/4/4 185/4/4 192/4/4
f 183/4/4 184/4/4 192/4/4
f 182/4/4 183/4/4 192/4/4
f 181/4/4 182/4/4 192/4/4
f 180/4/4 181/4/4 192/4/4
f 179/4/4 180/4/4 192/4/4
f 178/4/4 179/4/4 192/4/4
f 177/4/4 178/4/4 192/4/4
f 176/4/4 177/4/4 192/4/4
f 175/4/4 176/4/4 192/4/4
f 192/4/4 191/4/4 193/4/4
f 193/4/4 191/4/4 194/4/4
f 194/4/4 191/4/4 195/4/4
f 195/4/4 191/4/4 196/4/4
f 196/4/4 191/4/4 197/4/4
f 197/4/4 191/4/4 198/4/4
f 198/4/4 191/4/4 199/4/4
f 199/4/4 191/4/4 200/4/4
f 200/4/4 191/4/4 201/4/4
f 201/4/4 191/4/4 202/4/4
f 202/4/4 191/4/4 203/4/4
f 203/4/4 191/4/4 204/4/4
f 204/4/4 191/4/4 205/4/4
f 205/4/4 191/4/4 206/4/4
f 206/4/4 191/4/4 207/4/4
f 207/4/4 191/4/4 208/4/4
f 191/2/4 173/2/4 209/2/4
f 208/4/4 191/4/4 209/4/4
f 192/1/4 193/1/4 210/1/4
f 193/3/4 194/3/4 211/3/4
f 210/1/4 193/1/4 211/1/4
f 194/1/4 195/1/4 212/1/4
f 211/3/4 194/3/4 212/3/4
f 195/3/4 196/3/4 213/3/4
f 212/1/4 195/1/4 213/1/4
f 196/1/4 197/1/4 214/1/4
f 213/3/4 196/3/4 214/3/4
f 197/3/4 198/3/4 215/3/4
f 214/1/4 197/1/4 215/1/4
f 198/1/4 199/1/4 216/1/4
f 215/3/4 198/3/4 216/3/4
f 199/3/4 200/3/4 217/3/4
f 216/1/4 199/1/4 217/1/4
f 200/1/4 201/1/4 218/1/4
f 217/3/4 200/3/4 218/3/4
f 201/3/4 202/3/4 219/3/4
f 218/1/4 201/1/4 219/1/4
f 202/1/4 203/1/4 220/1/4
f 219/3/4 202/3/4 220/3/4
f 203/3/4 204/3/4 221/3/4
f 220/1/4 203/1/4 221/1/4
f 204/1/4 205/1/4 222/1/4
f 221/3/4 204/3/4 222/3/4
f 205/3/4 206/3/4 223/3/4
f 222/1/4 205/1/4 223/1/4
f 206/1/4 207/1/4 224/1/4
f 223/3/4 206/3/4 224/3/4
f 207/3/4 208/3/4 225/3/4
f 224/1/4 207/1/4 225/1/4
f 208/1/4 209/1/4 226/1/4
f 225/3/4 208/3/4 226/3/4
f 209/2/4 173/2/4 227/2/4
f 226/1/4 209/1/4 227/1/4
f 227/2/4 173/2/4 228/2/4
f 233/1/5 230/1/5 229/1/5
f 234/4/5 231/4/5 230/4/5
f 234/1/5 230/1/5 233/1/5
f 235/1/5 232/1/5 231/1/5
f 235/4/5 231/4/5 234/4/5
f 236/1/5 232/1/5 235/1/5
f 239/2/5 238/2/5 237/2/5
f 240/2/5 238/2/5 239/2/5
f 241/2/5 238/2/5 240/2/5
f 242/2/5 238/2/5 241/2/5
f 243/2/6 244/2/6 245/2/6
f 245/2/6 244/2/6 246/2/6
