# MagicaVoxel @ Ephtracy

# group
o 

# material
mtllib window.mtl
usemtl palette

# normals
vn -1 0 0
vn 1 0 0
vn 0 0 1
vn 0 0 -1
vn 0 -1 0
vn 0 1 0

# texcoords
vt 0.705078 0.5
vt 0.958984 0.5

# verts
v -0.5 0 0.1
v -0.5 0 -0.2
v -0.5 1.5 0.1
v -0.5 1.5 -0.2
v -0.1 0.1 0.1
v -0.1 0.1 0
v -0.1 0.7 0.1
v -0.1 0.7 0
v -0.1 0.8 0.1
v -0.1 0.8 0
v -0.1 1.4 0.1
v -0.1 1.4 0
v 0.4 0.1 0.1
v 0.4 0.1 0
v 0.4 0.7 0.1
v 0.4 0.7 0
v 0.4 0.8 0.1
v 0.4 0.8 0
v 0.4 1.4 0.1
v 0.4 1.4 0
v -0.4 0.1 0.1
v -0.4 0.1 0
v -0.4 0.7 0.1
v -0.4 0.7 0
v -0.4 0.8 0.1
v -0.4 0.8 0
v -0.4 1.4 0.1
v -0.4 1.4 0
v 0.1 0.1 0.1
v 0.1 0.1 0
v 0.1 0.7 0.1
v 0.1 0.7 0
v 0.1 0.8 0.1
v 0.1 0.8 0
v 0.1 1.4 0.1
v 0.1 1.4 0
v 0.5 0 0.1
v 0.5 0 -0.2
v 0.5 1.5 0.1
v 0.5 1.5 -0.2
v -0.5 0 0.1
v -0.5 1.5 0.1
v -0.4 0.1 0.1
v -0.4 0.7 0.1
v -0.4 0.8 0.1
v -0.4 1.4 0.1
v -0.1 0.1 0.1
v -0.1 0.7 0.1
v -0.1 0.8 0.1
v -0.1 1.4 0.1
v 0.1 0.1 0.1
v 0.1 0.7 0.1
v 0.1 0.8 0.1
v 0.1 1.4 0.1
v 0.4 0.1 0.1
v 0.4 0.7 0.1
v 0.4 0.8 0.1
v 0.4 1.4 0.1
v 0.5 0 0.1
v 0.5 1.5 0.1
v -0.4 0.1 0
v -0.4 0.7 0
v -0.4 0.8 0
v -0.4 1.4 0
v -0.1 0.1 0
v -0.1 0.7 0
v -0.1 0.8 0
v -0.1 1.4 0
v 0.1 0.1 0
v 0.1 0.7 0
v 0.1 0.8 0
v 0.1 1.4 0
v 0.4 0.1 0
v 0.4 0.7 0
v 0.4 0.8 0
v 0.4 1.4 0
v -0.5 0 -0.2
v -0.5 1.5 -0.2
v 0.5 0 -0.2
v 0.5 1.5 -0.2
v -0.5 0 0.1
v 0.5 0 0.1
v -0.5 0 -0.2
v 0.5 0 -0.2
v -0.4 0.7 0.1
v -0.1 0.7 0.1
v 0.1 0.7 0.1
v 0.4 0.7 0.1
v -0.4 0.7 0
v -0.1 0.7 0
v 0.1 0.7 0
v 0.4 0.7 0
v -0.4 1.4 0.1
v -0.1 1.4 0.1
v 0.1 1.4 0.1
v 0.4 1.4 0.1
v -0.4 1.4 0
v -0.1 1.4 0
v 0.1 1.4 0
v 0.4 1.4 0
v -0.4 0.1 0.1
v -0.1 0.1 0.1
v 0.1 0.1 0.1
v 0.4 0.1 0.1
v -0.4 0.1 0
v -0.1 0.1 0
v 0.1 0.1 0
v 0.4 0.1 0
v -0.4 0.8 0.1
v -0.1 0.8 0.1
v 0.1 0.8 0.1
v 0.4 0.8 0.1
v -0.4 0.8 0
v -0.1 0.8 0
v 0.1 0.8 0
v 0.4 0.8 0
v -0.5 1.5 0.1
v 0.5 1.5 0.1
v -0.5 1.5 -0.2
v 0.5 1.5 -0.2

# faces
f 3/2/1 2/2/1 1/2/1
f 4/2/1 2/2/1 3/2/1
f 7/2/1 6/2/1 5/2/1
f 8/2/1 6/2/1 7/2/1
f 11/2/1 10/2/1 9/2/1
f 12/2/1 10/2/1 11/2/1
f 15/2/1 14/2/1 13/2/1
f 16/2/1 14/2/1 15/2/1
f 19/2/1 18/2/1 17/2/1
f 20/2/1 18/2/1 19/2/1
f 21/2/2 22/2/2 23/2/2
f 23/2/2 22/2/2 24/2/2
f 25/2/2 26/2/2 27/2/2
f 27/2/2 26/2/2 28/2/2
f 29/2/2 30/2/2 31/2/2
f 31/2/2 30/2/2 32/2/2
f 33/2/2 34/2/2 35/2/2
f 35/2/2 34/2/2 36/2/2
f 37/2/2 38/2/2 39/2/2
f 39/2/2 38/2/2 40/2/2
f 43/2/3 42/2/3 41/2/3
f 44/2/3 42/2/3 43/2/3
f 45/2/3 42/2/3 44/2/3
f 46/2/3 42/2/3 45/2/3
f 47/2/3 43/2/3 41/2/3
f 48/2/3 45/2/3 44/2/3
f 49/2/3 45/2/3 48/2/3
f 50/2/3 42/2/3 46/2/3
f 51/2/3 49/2/3 48/2/3
f 51/2/3 50/2/3 49/2/3
f 51/2/3 47/2/3 41/2/3
f 51/2/3 48/2/3 47/2/3
f 52/2/3 50/2/3 51/2/3
f 53/2/3 50/2/3 52/2/3
f 54/2/3 42/2/3 50/2/3
f 54/2/3 50/2/3 53/2/3
f 55/2/3 51/2/3 41/2/3
f 56/2/3 53/2/3 52/2/3
f 57/2/3 53/2/3 56/2/3
f 58/2/3 42/2/3 54/2/3
f 59/2/3 55/2/3 41/2/3
f 59/2/3 58/2/3 57/2/3
f 59/2/3 57/2/3 56/2/3
f 59/2/3 56/2/3 55/2/3
f 60/2/3 42/2/3 58/2/3
f 60/2/3 58/2/3 59/2/3
f 65/1/3 62/1/3 61/1/3
f 66/1/3 62/1/3 65/1/3
f 67/1/3 64/1/3 63/1/3
f 68/1/3 64/1/3 67/1/3
f 73/1/3 70/1/3 69/1/3
f 74/1/3 70/1/3 73/1/3
f 75/1/3 72/1/3 71/1/3
f 76/1/3 72/1/3 75/1/3
f 77/2/4 78/2/4 79/2/4
f 79/2/4 78/2/4 80/2/4
f 83/2/5 82/2/5 81/2/5
f 84/2/5 82/2/5 83/2/5
f 89/2/5 86/2/5 85/2/5
f 90/2/5 86/2/5 89/2/5
f 91/2/5 88/2/5 87/2/5
f 92/2/5 88/2/5 91/2/5
f 97/2/5 94/2/5 93/2/5
f 98/2/5 94/2/5 97/2/5
f 99/2/5 96/2/5 95/2/5
f 100/2/5 96/2/5 99/2/5
f 101/2/6 102/2/6 105/2/6
f 105/2/6 102/2/6 106/2/6
f 103/2/6 104/2/6 107/2/6
f 107/2/6 104/2/6 108/2/6
f 109/2/6 110/2/6 113/2/6
f 113/2/6 110/2/6 114/2/6
f 111/2/6 112/2/6 115/2/6
f 115/2/6 112/2/6 116/2/6
f 117/2/6 118/2/6 119/2/6
f 119/2/6 118/2/6 120/2/6
