# MagicaVoxel @ Ephtracy

# group
o 

# material
mtllib Witch_Head.mtl
usemtl palette

# normals
vn -1 0 0
vn 1 0 0
vn 0 0 1
vn 0 0 -1
vn 0 -1 0
vn 0 1 0

# texcoords
vt 0.326172 0.5
vt 0.560547 0.5
vt 0.591797 0.5
vt 0.958984 0.5
vt 0.994141 0.5

# verts
v -0.4 0 0.3
v -0.4 0 -0.3
v -0.4 0.1 0.4
v -0.4 0.1 0.3
v -0.4 0.1 -0.3
v -0.4 0.1 -0.4
v -0.4 0.7 0.4
v -0.4 0.7 0.3
v -0.4 0.7 -0.3
v -0.4 0.7 -0.4
v -0.4 0.8 0.3
v -0.4 0.8 -0.3
v -0.3 0 0.4
v -0.3 0 0.3
v -0.3 0 -0.3
v -0.3 0 -0.4
v -0.3 0.1 0.4
v -0.3 0.1 0.3
v -0.3 0.1 -0.3
v -0.3 0.1 -0.4
v -0.3 0.7 0.4
v -0.3 0.7 0.3
v -0.3 0.7 -0.3
v -0.3 0.7 -0.4
v -0.3 0.8 0.4
v -0.3 0.8 0.3
v -0.3 0.8 -0.3
v -0.3 0.8 -0.4
v 0.3 0 0.4
v 0.3 0 0.3
v 0.3 0 -0.3
v 0.3 0 -0.4
v 0.3 0.1 0.4
v 0.3 0.1 0.3
v 0.3 0.1 -0.3
v 0.3 0.1 -0.4
v 0.3 0.7 0.4
v 0.3 0.7 0.3
v 0.3 0.7 -0.3
v 0.3 0.7 -0.4
v 0.3 0.8 0.4
v 0.3 0.8 0.3
v 0.3 0.8 -0.3
v 0.3 0.8 -0.4
v 0.4 0 0.3
v 0.4 0 -0.3
v 0.4 0.1 0.4
v 0.4 0.1 0.3
v 0.4 0.1 -0.3
v 0.4 0.1 -0.4
v 0.4 0.7 0.4
v 0.4 0.7 0.3
v 0.4 0.7 -0.3
v 0.4 0.7 -0.4
v 0.4 0.8 0.3
v 0.4 0.8 -0.3
v -0.4 0.1 0.4
v -0.4 0.7 0.4
v -0.3 0 0.4
v -0.3 0.1 0.4
v -0.3 0.7 0.4
v -0.3 0.8 0.4
v 0.3 0 0.4
v 0.3 0.1 0.4
v 0.3 0.7 0.4
v 0.3 0.8 0.4
v 0.4 0.1 0.4
v 0.4 0.7 0.4
v -0.4 0 0.3
v -0.4 0.1 0.3
v -0.4 0.7 0.3
v -0.4 0.8 0.3
v -0.3 0 0.3
v -0.3 0.1 0.3
v -0.3 0.7 0.3
v -0.3 0.8 0.3
v 0.3 0 0.3
v 0.3 0.1 0.3
v 0.3 0.7 0.3
v 0.3 0.8 0.3
v 0.4 0 0.3
v 0.4 0.1 0.3
v 0.4 0.7 0.3
v 0.4 0.8 0.3
v -0.4 0 -0.3
v -0.4 0.1 -0.3
v -0.4 0.7 -0.3
v -0.4 0.8 -0.3
v -0.3 0 -0.3
v -0.3 0.1 -0.3
v -0.3 0.7 -0.3
v -0.3 0.8 -0.3
v 0.3 0 -0.3
v 0.3 0.1 -0.3
v 0.3 0.7 -0.3
v 0.3 0.8 -0.3
v 0.4 0 -0.3
v 0.4 0.1 -0.3
v 0.4 0.7 -0.3
v 0.4 0.8 -0.3
v -0.4 0.1 -0.4
v -0.4 0.7 -0.4
v -0.3 0 -0.4
v -0.3 0.1 -0.4
v -0.3 0.5 -0.4
v -0.3 0.6 -0.4
v -0.3 0.7 -0.4
v -0.3 0.8 -0.4
v -0.2 0.2 -0.4
v -0.2 0.3 -0.4
v -0.2 0.5 -0.4
v -0.2 0.6 -0.4
v -0.1 0.1 -0.4
v -0.1 0.2 -0.4
v -0.1 0.3 -0.4
v -0.1 0.5 -0.4
v -0.1 0.6 -0.4
v 0.1 0.1 -0.4
v 0.1 0.2 -0.4
v 0.1 0.3 -0.4
v 0.1 0.5 -0.4
v 0.1 0.6 -0.4
v 0.2 0.2 -0.4
v 0.2 0.3 -0.4
v 0.2 0.5 -0.4
v 0.2 0.6 -0.4
v 0.3 0 -0.4
v 0.3 0.1 -0.4
v 0.3 0.5 -0.4
v 0.3 0.6 -0.4
v 0.3 0.7 -0.4
v 0.3 0.8 -0.4
v 0.4 0.1 -0.4
v 0.4 0.7 -0.4
v -0.3 0 0.4
v 0.3 0 0.4
v -0.4 0 0.3
v -0.3 0 0.3
v 0.3 0 0.3
v 0.4 0 0.3
v -0.4 0 -0.3
v -0.3 0 -0.3
v 0.3 0 -0.3
v 0.4 0 -0.3
v -0.3 0 -0.4
v 0.3 0 -0.4
v -0.4 0.1 0.4
v -0.3 0.1 0.4
v 0.3 0.1 0.4
v 0.4 0.1 0.4
v -0.4 0.1 0.3
v -0.3 0.1 0.3
v 0.3 0.1 0.3
v 0.4 0.1 0.3
v -0.4 0.1 -0.3
v -0.3 0.1 -0.3
v 0.3 0.1 -0.3
v 0.4 0.1 -0.3
v -0.4 0.1 -0.4
v -0.3 0.1 -0.4
v 0.3 0.1 -0.4
v 0.4 0.1 -0.4
v -0.4 0.7 0.4
v -0.3 0.7 0.4
v 0.3 0.7 0.4
v 0.4 0.7 0.4
v -0.4 0.7 0.3
v -0.3 0.7 0.3
v 0.3 0.7 0.3
v 0.4 0.7 0.3
v -0.4 0.7 -0.3
v -0.3 0.7 -0.3
v 0.3 0.7 -0.3
v 0.4 0.7 -0.3
v -0.4 0.7 -0.4
v -0.3 0.7 -0.4
v 0.3 0.7 -0.4
v 0.4 0.7 -0.4
v -0.3 0.8 0.4
v 0.3 0.8 0.4
v -0.4 0.8 0.3
v -0.3 0.8 0.3
v 0.3 0.8 0.3
v 0.4 0.8 0.3
v -0.4 0.8 -0.3
v -0.3 0.8 -0.3
v 0.3 0.8 -0.3
v 0.4 0.8 -0.3
v -0.3 0.8 -0.4
v 0.3 0.8 -0.4

# faces
f 4/3/1 2/3/1 1/3/1
f 5/3/1 2/3/1 4/3/1
f 7/3/1 4/3/1 3/3/1
f 7/3/1 6/3/1 5/3/1
f 7/3/1 5/3/1 4/3/1
f 8/3/1 6/3/1 7/3/1
f 9/3/1 6/3/1 8/3/1
f 10/3/1 6/3/1 9/3/1
f 11/3/1 9/3/1 8/3/1
f 12/3/1 9/3/1 11/3/1
f 17/3/1 14/3/1 13/3/1
f 18/3/1 14/3/1 17/3/1
f 19/3/1 16/3/1 15/3/1
f 20/3/1 16/3/1 19/3/1
f 25/3/1 22/3/1 21/3/1
f 26/3/1 22/3/1 25/3/1
f 27/3/1 24/3/1 23/3/1
f 28/3/1 24/3/1 27/3/1
f 29/3/2 30/3/2 33/3/2
f 33/3/2 30/3/2 34/3/2
f 31/3/2 32/3/2 35/3/2
f 35/3/2 32/3/2 36/3/2
f 37/3/2 38/3/2 41/3/2
f 41/3/2 38/3/2 42/3/2
f 39/3/2 40/3/2 43/3/2
f 43/3/2 40/3/2 44/3/2
f 45/3/2 46/3/2 48/3/2
f 48/3/2 46/3/2 49/3/2
f 47/3/2 48/3/2 51/3/2
f 49/3/2 50/3/2 51/3/2
f 48/3/2 49/3/2 51/3/2
f 51/3/2 50/3/2 52/3/2
f 52/3/2 50/3/2 53/3/2
f 53/3/2 50/3/2 54/3/2
f 52/3/2 53/3/2 55/3/2
f 55/3/2 53/3/2 56/3/2
f 60/3/3 58/3/3 57/3/3
f 61/3/3 58/3/3 60/3/3
f 63/3/3 60/3/3 59/3/3
f 63/3/3 62/3/3 61/3/3
f 63/3/3 61/3/3 60/3/3
f 64/3/3 62/3/3 63/3/3
f 65/3/3 62/3/3 64/3/3
f 66/3/3 62/3/3 65/3/3
f 67/3/3 65/3/3 64/3/3
f 68/3/3 65/3/3 67/3/3
f 73/3/3 70/3/3 69/3/3
f 74/3/3 70/3/3 73/3/3
f 75/3/3 72/3/3 71/3/3
f 76/3/3 72/3/3 75/3/3
f 81/3/3 78/3/3 77/3/3
f 82/3/3 78/3/3 81/3/3
f 83/3/3 80/3/3 79/3/3
f 84/3/3 80/3/3 83/3/3
f 85/3/4 86/3/4 89/3/4
f 89/3/4 86/3/4 90/3/4
f 87/3/4 88/3/4 91/3/4
f 91/3/4 88/3/4 92/3/4
f 93/3/4 94/3/4 97/3/4
f 97/3/4 94/3/4 98/3/4
f 95/3/4 96/3/4 99/3/4
f 99/3/4 96/3/4 100/3/4
f 101/3/4 102/3/4 104/3/4
f 104/3/4 102/3/4 105/3/4
f 105/3/4 102/3/4 106/3/4
f 106/3/4 102/3/4 107/3/4
f 103/3/4 104/3/4 109/3/4
f 104/3/4 105/3/4 109/3/4
f 109/3/4 105/3/4 110/3/4
f 105/4/4 106/4/4 111/4/4
f 110/3/4 105/3/4 111/3/4
f 107/3/4 108/3/4 112/3/4
f 111/4/4 106/4/4 112/4/4
f 106/3/4 107/3/4 112/3/4
f 103/3/4 109/3/4 113/3/4
f 109/5/4 110/5/4 114/5/4
f 113/3/4 109/3/4 114/3/4
f 110/3/4 111/3/4 115/3/4
f 114/5/4 110/5/4 115/5/4
f 111/2/4 112/2/4 116/2/4
f 115/3/4 111/3/4 116/3/4
f 112/3/4 108/3/4 117/3/4
f 116/2/4 112/2/4 117/2/4
f 113/5/4 114/5/4 118/5/4
f 103/3/4 113/3/4 118/3/4
f 115/3/4 116/3/4 119/3/4
f 118/5/4 114/5/4 119/5/4
f 116/3/4 117/3/4 119/3/4
f 114/3/4 115/3/4 119/3/4
f 119/3/4 117/3/4 120/3/4
f 120/3/4 117/3/4 121/3/4
f 117/3/4 108/3/4 122/3/4
f 121/3/4 117/3/4 122/3/4
f 118/3/4 119/3/4 123/3/4
f 119/5/4 120/5/4 123/5/4
f 120/3/4 121/3/4 124/3/4
f 123/5/4 120/5/4 124/5/4
f 121/2/4 122/2/4 125/2/4
f 124/3/4 121/3/4 125/3/4
f 122/3/4 108/3/4 126/3/4
f 125/2/4 122/2/4 126/2/4
f 118/3/4 123/3/4 127/3/4
f 103/3/4 118/3/4 127/3/4
f 124/3/4 125/3/4 127/3/4
f 123/3/4 124/3/4 127/3/4
f 127/3/4 125/3/4 128/3/4
f 125/4/4 126/4/4 129/4/4
f 128/3/4 125/3/4 129/3/4
f 126/3/4 108/3/4 130/3/4
f 129/4/4 126/4/4 130/4/4
f 130/3/4 108/3/4 131/3/4
f 131/3/4 108/3/4 132/3/4
f 128/3/4 129/3/4 133/3/4
f 130/3/4 131/3/4 133/3/4
f 129/3/4 130/3/4 133/3/4
f 133/3/4 131/3/4 134/3/4
f 138/3/5 136/3/5 135/3/5
f 139/3/5 136/3/5 138/3/5
f 141/3/5 138/3/5 137/3/5
f 141/3/5 140/3/5 139/3/5
f 141/3/5 139/3/5 138/3/5
f 142/3/5 140/3/5 141/3/5
f 143/3/5 140/3/5 142/3/5
f 144/3/5 140/3/5 143/3/5
f 145/3/5 143/3/5 142/3/5
f 146/3/5 143/3/5 145/3/5
f 151/3/5 148/3/5 147/3/5
f 152/3/5 148/3/5 151/3/5
f 153/3/5 150/3/5 149/3/5
f 154/3/5 150/3/5 153/3/5
f 159/3/5 156/3/5 155/3/5
f 160/3/5 156/3/5 159/3/5
f 161/3/5 158/3/5 157/3/5
f 162/3/5 158/3/5 161/3/5
f 163/3/6 164/3/6 167/3/6
f 167/3/6 164/3/6 168/3/6
f 165/3/6 166/3/6 169/3/6
f 169/3/6 166/3/6 170/3/6
f 171/3/6 172/3/6 175/3/6
f 175/3/6 172/3/6 176/3/6
f 173/3/6 174/3/6 177/3/6
f 177/3/6 174/3/6 178/3/6
f 179/3/6 180/3/6 182/3/6
f 182/3/6 180/3/6 183/3/6
f 181/3/6 182/3/6 185/3/6
f 183/3/6 184/3/6 185/3/6
f 182/3/6 183/3/6 185/3/6
f 185/3/6 184/3/6 186/3/6
f 186/3/6 184/3/6 187/3/6
f 187/3/6 184/3/6 188/3/6
f 186/3/6 187/3/6 189/3/6
f 189/3/6 187/3/6 190/3/6
