# MagicaVoxel @ Ephtracy

# group
o 

# material
mtllib Witch_Torso.mtl
usemtl palette

# normals
vn -1 0 0
vn 1 0 0
vn 0 0 1
vn 0 0 -1
vn 0 -1 0
vn 0 1 0

# texcoords
vt 0.169922 0.5
vt 0.326172 0.5
vt 0.404297 0.5
vt 0.591797 0.5
vt 0.994141 0.5

# verts
v -0.6 0.4 0.1
v -0.6 0.4 -0.1
v -0.6 0.6 0.1
v -0.6 0.6 -0.1
v -0.4 0 0.3
v -0.4 0 -0.3
v -0.4 0.1 0.3
v -0.4 0.1 -0.3
v -0.4 0.4 0.1
v -0.4 0.4 -0.1
v -0.4 0.6 0.1
v -0.4 0.6 -0.1
v -0.4 0.7 0.3
v -0.4 0.7 -0.3
v -0.3 0 0.4
v -0.3 0 0.3
v -0.3 0 -0.3
v -0.3 0 -0.4
v -0.3 0.1 0.4
v -0.3 0.1 0.3
v -0.3 0.1 -0.3
v -0.3 0.1 -0.4
v -0.3 0.7 0.4
v -0.3 0.7 0.3
v -0.3 0.7 -0.3
v -0.3 0.7 -0.4
v -0.2 0.7 0.2
v -0.2 0.7 -0.2
v -0.2 0.8 0.2
v -0.2 0.8 -0.2
v 0.2 0.7 0.2
v 0.2 0.7 -0.2
v 0.2 0.8 0.2
v 0.2 0.8 -0.2
v 0.3 0 0.4
v 0.3 0 0.3
v 0.3 0 -0.3
v 0.3 0 -0.4
v 0.3 0.1 0.4
v 0.3 0.1 0.3
v 0.3 0.1 -0.3
v 0.3 0.1 -0.4
v 0.3 0.7 0.4
v 0.3 0.7 0.3
v 0.3 0.7 -0.3
v 0.3 0.7 -0.4
v 0.4 0 0.3
v 0.4 0 -0.3
v 0.4 0.1 0.3
v 0.4 0.1 -0.3
v 0.4 0.4 0.1
v 0.4 0.4 -0.1
v 0.4 0.6 0.1
v 0.4 0.6 -0.1
v 0.4 0.7 0.3
v 0.4 0.7 -0.3
v 0.6 0.4 0.1
v 0.6 0.4 -0.1
v 0.6 0.6 0.1
v 0.6 0.6 -0.1
v -0.3 0 0.4
v -0.3 0.1 0.4
v -0.3 0.7 0.4
v 0.3 0 0.4
v 0.3 0.1 0.4
v 0.3 0.7 0.4
v -0.4 0 0.3
v -0.4 0.1 0.3
v -0.4 0.7 0.3
v -0.3 0 0.3
v -0.3 0.1 0.3
v -0.3 0.7 0.3
v 0.3 0 0.3
v 0.3 0.1 0.3
v 0.3 0.7 0.3
v 0.4 0 0.3
v 0.4 0.1 0.3
v 0.4 0.7 0.3
v -0.2 0.7 0.2
v -0.2 0.8 0.2
v 0.2 0.7 0.2
v 0.2 0.8 0.2
v -0.6 0.4 0.1
v -0.6 0.6 0.1
v -0.4 0.4 0.1
v -0.4 0.6 0.1
v 0.4 0.4 0.1
v 0.4 0.6 0.1
v 0.6 0.4 0.1
v 0.6 0.6 0.1
v -0.6 0.4 -0.1
v -0.6 0.6 -0.1
v -0.4 0.4 -0.1
v -0.4 0.6 -0.1
v 0.4 0.4 -0.1
v 0.4 0.6 -0.1
v 0.6 0.4 -0.1
v 0.6 0.6 -0.1
v -0.2 0.7 -0.2
v -0.2 0.8 -0.2
v -0.1 0.7 -0.2
v 0.1 0.7 -0.2
v 0.2 0.7 -0.2
v 0.2 0.8 -0.2
v -0.4 0 -0.3
v -0.4 0.1 -0.3
v -0.4 0.7 -0.3
v -0.3 0 -0.3
v -0.3 0.1 -0.3
v -0.3 0.7 -0.3
v 0.3 0 -0.3
v 0.3 0.1 -0.3
v 0.3 0.7 -0.3
v 0.4 0 -0.3
v 0.4 0.1 -0.3
v 0.4 0.7 -0.3
v -0.3 0 -0.4
v -0.3 0.1 -0.4
v -0.3 0.7 -0.4
v -0.1 0 -0.4
v -0.1 0.1 -0.4
v -5.96046e-008 0 -0.4
v -5.96046e-008 0.1 -0.4
v 0.3 0 -0.4
v 0.3 0.1 -0.4
v 0.3 0.7 -0.4
v -0.3 0 0.4
v 0.3 0 0.4
v -0.4 0 0.3
v -0.3 0 0.3
v -0.1 0 0.3
v 0.3 0 0.3
v 0.4 0 0.3
v -0.1 0 0.2
v 0.1 0 0.2
v -0.4 0 -0.3
v -0.3 0 -0.3
v -0.1 0 -0.3
v -5.96046e-008 0 -0.3
v 0.1 0 -0.3
v 0.3 0 -0.3
v 0.4 0 -0.3
v -0.3 0 -0.4
v -0.1 0 -0.4
v -5.96046e-008 0 -0.4
v 0.3 0 -0.4
v -0.6 0.4 0.1
v -0.4 0.4 0.1
v 0.4 0.4 0.1
v 0.6 0.4 0.1
v -0.6 0.4 -0.1
v -0.4 0.4 -0.1
v 0.4 0.4 -0.1
v 0.6 0.4 -0.1
v -0.6 0.6 0.1
v -0.4 0.6 0.1
v 0.4 0.6 0.1
v 0.6 0.6 0.1
v -0.6 0.6 -0.1
v -0.4 0.6 -0.1
v 0.4 0.6 -0.1
v 0.6 0.6 -0.1
v -0.3 0.7 0.4
v 0.3 0.7 0.4
v -0.4 0.7 0.3
v -0.3 0.7 0.3
v 0.3 0.7 0.3
v 0.4 0.7 0.3
v -0.2 0.7 0.2
v 0.2 0.7 0.2
v -0.2 0.7 -0.2
v -0.1 0.7 -0.2
v 0.1 0.7 -0.2
v 0.2 0.7 -0.2
v -0.4 0.7 -0.3
v -0.3 0.7 -0.3
v -0.1 0.7 -0.3
v 0.1 0.7 -0.3
v 0.3 0.7 -0.3
v 0.4 0.7 -0.3
v -0.3 0.7 -0.4
v 0.3 0.7 -0.4
v -0.2 0.8 0.2
v 0.2 0.8 0.2
v -0.2 0.8 -0.2
v 0.2 0.8 -0.2

# faces
f 3/4/1 2/4/1 1/4/1
f 4/4/1 2/4/1 3/4/1
f 7/1/1 6/1/1 5/1/1
f 8/1/1 6/1/1 7/1/1
f 9/5/1 8/5/1 7/5/1
f 10/5/1 8/5/1 9/5/1
f 11/5/1 9/5/1 7/5/1
f 12/5/1 8/5/1 10/5/1
f 13/5/1 11/5/1 7/5/1
f 13/5/1 12/5/1 11/5/1
f 14/5/1 8/5/1 12/5/1
f 14/5/1 12/5/1 13/5/1
f 19/1/1 16/1/1 15/1/1
f 20/1/1 16/1/1 19/1/1
f 21/1/1 18/1/1 17/1/1
f 22/1/1 18/1/1 21/1/1
f 23/5/1 20/5/1 19/5/1
f 24/5/1 20/5/1 23/5/1
f 25/5/1 22/5/1 21/5/1
f 26/5/1 22/5/1 25/5/1
f 29/4/1 28/4/1 27/4/1
f 30/4/1 28/4/1 29/4/1
f 31/4/2 32/4/2 33/4/2
f 33/4/2 32/4/2 34/4/2
f 35/1/2 36/1/2 39/1/2
f 39/1/2 36/1/2 40/1/2
f 37/1/2 38/1/2 41/1/2
f 41/1/2 38/1/2 42/1/2
f 39/5/2 40/5/2 43/5/2
f 43/5/2 40/5/2 44/5/2
f 41/5/2 42/5/2 45/5/2
f 45/5/2 42/5/2 46/5/2
f 47/1/2 48/1/2 49/1/2
f 49/1/2 48/1/2 50/1/2
f 49/5/2 50/5/2 51/5/2
f 51/5/2 50/5/2 52/5/2
f 49/5/2 51/5/2 53/5/2
f 52/5/2 50/5/2 54/5/2
f 49/5/2 53/5/2 55/5/2
f 53/5/2 54/5/2 55/5/2
f 54/5/2 50/5/2 56/5/2
f 55/5/2 54/5/2 56/5/2
f 57/4/2 58/4/2 59/4/2
f 59/4/2 58/4/2 60/4/2
f 64/1/3 62/1/3 61/1/3
f 65/5/3 63/5/3 62/5/3
f 65/1/3 62/1/3 64/1/3
f 66/5/3 63/5/3 65/5/3
f 70/1/3 68/1/3 67/1/3
f 71/5/3 69/5/3 68/5/3
f 71/1/3 68/1/3 70/1/3
f 72/5/3 69/5/3 71/5/3
f 76/1/3 74/1/3 73/1/3
f 77/5/3 75/5/3 74/5/3
f 77/1/3 74/1/3 76/1/3
f 78/5/3 75/5/3 77/5/3
f 81/4/3 80/4/3 79/4/3
f 82/4/3 80/4/3 81/4/3
f 85/4/3 84/4/3 83/4/3
f 86/4/3 84/4/3 85/4/3
f 89/4/3 88/4/3 87/4/3
f 90/4/3 88/4/3 89/4/3
f 91/4/4 92/4/4 93/4/4
f 93/4/4 92/4/4 94/4/4
f 95/4/4 96/4/4 97/4/4
f 97/4/4 96/4/4 98/4/4
f 99/4/4 100/4/4 101/4/4
f 101/4/4 100/4/4 102/4/4
f 102/4/4 100/4/4 103/4/4
f 103/4/4 100/4/4 104/4/4
f 105/1/4 106/1/4 108/1/4
f 106/5/4 107/5/4 109/5/4
f 108/1/4 106/1/4 109/1/4
f 109/5/4 107/5/4 110/5/4
f 111/1/4 112/1/4 114/1/4
f 112/5/4 113/5/4 115/5/4
f 114/1/4 112/1/4 115/1/4
f 115/5/4 113/5/4 116/5/4
f 117/1/4 118/1/4 120/1/4
f 118/5/4 119/5/4 121/5/4
f 120/1/4 118/1/4 121/1/4
f 120/3/4 121/3/4 122/3/4
f 121/5/4 119/5/4 123/5/4
f 122/3/4 121/3/4 123/3/4
f 122/1/4 123/1/4 124/1/4
f 123/5/4 119/5/4 125/5/4
f 124/1/4 123/1/4 125/1/4
f 125/5/4 119/5/4 126/5/4
f 130/1/5 128/1/5 127/1/5
f 131/1/5 128/1/5 130/1/5
f 132/1/5 128/1/5 131/1/5
f 134/1/5 130/1/5 129/1/5
f 134/1/5 131/1/5 130/1/5
f 134/5/5 132/5/5 131/5/5
f 135/5/5 132/5/5 134/5/5
f 136/1/5 134/1/5 129/1/5
f 137/1/5 134/1/5 136/1/5
f 138/4/5 135/4/5 134/4/5
f 138/1/5 134/1/5 137/1/5
f 139/4/5 135/4/5 138/4/5
f 140/5/5 132/5/5 135/5/5
f 140/4/5 135/4/5 139/4/5
f 141/1/5 133/1/5 132/1/5
f 141/5/5 132/5/5 140/5/5
f 142/1/5 133/1/5 141/1/5
f 143/1/5 138/1/5 137/1/5
f 144/3/5 139/3/5 138/3/5
f 144/1/5 138/1/5 143/1/5
f 145/1/5 140/1/5 139/1/5
f 145/3/5 139/3/5 144/3/5
f 145/1/5 141/1/5 140/1/5
f 146/1/5 141/1/5 145/1/5
f 151/4/5 148/4/5 147/4/5
f 152/4/5 148/4/5 151/4/5
f 153/4/5 150/4/5 149/4/5
f 154/4/5 150/4/5 153/4/5
f 155/4/6 156/4/6 159/4/6
f 159/4/6 156/4/6 160/4/6
f 157/4/6 158/4/6 161/4/6
f 161/4/6 158/4/6 162/4/6
f 163/5/6 164/5/6 166/5/6
f 166/5/6 164/5/6 167/5/6
f 165/5/6 166/5/6 169/5/6
f 167/5/6 168/5/6 169/5/6
f 166/5/6 167/5/6 169/5/6
f 169/5/6 168/5/6 170/5/6
f 165/5/6 169/5/6 171/5/6
f 170/5/6 168/5/6 174/5/6
f 165/5/6 171/5/6 175/5/6
f 171/5/6 172/5/6 175/5/6
f 175/5/6 172/5/6 176/5/6
f 172/4/6 173/4/6 177/4/6
f 176/5/6 172/5/6 177/5/6
f 173/5/6 174/5/6 178/5/6
f 177/4/6 173/4/6 178/4/6
f 174/5/6 168/5/6 179/5/6
f 178/5/6 174/5/6 179/5/6
f 179/5/6 168/5/6 180/5/6
f 176/5/6 177/5/6 181/5/6
f 178/5/6 179/5/6 181/5/6
f 177/5/6 178/5/6 181/5/6
f 181/5/6 179/5/6 182/5/6
f 183/4/6 184/4/6 185/4/6
f 185/4/6 184/4/6 186/4/6
