# MagicaVoxel @ Ephtracy

# group
o 

# material
mtllib leg2.mtl
usemtl palette

# normals
vn -1 0 0
vn 1 0 0
vn 0 0 -1
vn 0 0 1
vn 0 -1 0
vn 0 1 0

# texcoords
vt 0.326172 0.5
vt 0.974609 0.5
vt 0.986328 0.5
vt 0.994141 0.5

# verts
v -0.1 -1 -0.2
v -0.1 -1 0.2
v -0.1 -0.8 -0.2
v -0.1 -0.8 0
v -0.1 -0.8 0.2
v -0.1 -0.7 0
v -0.1 -0.7 0.2
v -0.1 -0.2 0
v -0.1 -0.2 0.2
v -0.1 0 0
v -0.1 0 0.2
v 0.1 -1 -0.2
v 0.1 -1 0.2
v 0.1 -0.8 -0.2
v 0.1 -0.8 0
v 0.1 -0.8 0.2
v 0.1 -0.7 0
v 0.1 -0.7 0.2
v 0.1 -0.2 0
v 0.1 -0.2 0.2
v 0.1 0 0
v 0.1 0 0.2
v -0.1 -1 -0.2
v -0.1 -0.8 -0.2
v 0.1 -1 -0.2
v 0.1 -0.8 -0.2
v -0.1 -0.8 0
v -0.1 -0.7 0
v -0.1 -0.2 0
v -0.1 0 0
v 0.1 -0.8 0
v 0.1 -0.7 0
v 0.1 -0.2 0
v 0.1 0 0
v -0.1 -1 0.2
v -0.1 -0.8 0.2
v -0.1 -0.7 0.2
v -0.1 -0.2 0.2
v -0.1 0 0.2
v 0.1 -1 0.2
v 0.1 -0.8 0.2
v 0.1 -0.7 0.2
v 0.1 -0.2 0.2
v 0.1 0 0.2
v -0.1 -1 -0.2
v 0.1 -1 -0.2
v -0.1 -1 0.2
v 0.1 -1 0.2
v -0.1 -0.8 -0.2
v 0.1 -0.8 -0.2
v -0.1 -0.8 0
v 0.1 -0.8 0
v -0.1 0 0
v 0.1 0 0
v -0.1 0 0.2
v 0.1 0 0.2

# faces
f 1/4/1 2/4/1 3/4/1
f 3/4/1 2/4/1 4/4/1
f 4/4/1 2/4/1 5/4/1
f 4/2/1 5/2/1 6/2/1
f 6/2/1 5/2/1 7/2/1
f 6/1/1 7/1/1 8/1/1
f 8/1/1 7/1/1 9/1/1
f 8/3/1 9/3/1 10/3/1
f 10/3/1 9/3/1 11/3/1
f 14/4/2 13/4/2 12/4/2
f 15/4/2 13/4/2 14/4/2
f 16/4/2 13/4/2 15/4/2
f 17/2/2 16/2/2 15/2/2
f 18/2/2 16/2/2 17/2/2
f 19/1/2 18/1/2 17/1/2
f 20/1/2 18/1/2 19/1/2
f 21/3/2 20/3/2 19/3/2
f 22/3/2 20/3/2 21/3/2
f 23/4/3 24/4/3 25/4/3
f 25/4/3 24/4/3 26/4/3
f 27/2/3 28/2/3 31/2/3
f 28/1/3 29/1/3 32/1/3
f 31/2/3 28/2/3 32/2/3
f 29/3/3 30/3/3 33/3/3
f 32/1/3 29/1/3 33/1/3
f 33/3/3 30/3/3 34/3/3
f 40/4/4 36/4/4 35/4/4
f 41/2/4 37/2/4 36/2/4
f 41/4/4 36/4/4 40/4/4
f 42/1/4 38/1/4 37/1/4
f 42/2/4 37/2/4 41/2/4
f 43/3/4 39/3/4 38/3/4
f 43/1/4 38/1/4 42/1/4
f 44/3/4 39/3/4 43/3/4
f 45/4/5 46/4/5 47/4/5
f 47/4/5 46/4/5 48/4/5
f 51/4/6 50/4/6 49/4/6
f 52/4/6 50/4/6 51/4/6
f 55/3/6 54/3/6 53/3/6
f 56/3/6 54/3/6 55/3/6
