# MagicaVoxel @ Ephtracy

# group
o 

# material
mtllib Humphrey_Head.mtl
usemtl palette

# normals
vn -1 0 0
vn 1 0 0
vn 0 0 1
vn 0 0 -1
vn 0 -1 0
vn 0 1 0

# texcoords
vt 0.318359 0.5
vt 0.326172 0.5
vt 0.958984 0.5
vt 0.994141 0.5

# verts
v -0.4 0 0.3
v -0.4 0 -0.3
v -0.4 0.1 0.4
v -0.4 0.1 0.3
v -0.4 0.1 -0.3
v -0.4 0.1 -0.4
v -0.4 0.7 0.4
v -0.4 0.7 0.3
v -0.4 0.7 -0.3
v -0.4 0.7 -0.4
v -0.4 0.8 0.3
v -0.4 0.8 -0.3
v -0.3 0 0.4
v -0.3 0 0.3
v -0.3 0 -0.3
v -0.3 0 -0.4
v -0.3 0.1 0.4
v -0.3 0.1 0.3
v -0.3 0.1 -0.3
v -0.3 0.1 -0.4
v -0.3 0.7 0.4
v -0.3 0.7 0.3
v -0.3 0.7 -0.3
v -0.3 0.7 -0.4
v -0.3 0.8 0.4
v -0.3 0.8 0.3
v -0.3 0.8 -0.3
v -0.3 0.8 -0.4
v 0.3 0 0.4
v 0.3 0 0.3
v 0.3 0 -0.3
v 0.3 0 -0.4
v 0.3 0.1 0.4
v 0.3 0.1 0.3
v 0.3 0.1 -0.3
v 0.3 0.1 -0.4
v 0.3 0.7 0.4
v 0.3 0.7 0.3
v 0.3 0.7 -0.3
v 0.3 0.7 -0.4
v 0.3 0.8 0.4
v 0.3 0.8 0.3
v 0.3 0.8 -0.3
v 0.3 0.8 -0.4
v 0.4 0 0.3
v 0.4 0 -0.3
v 0.4 0.1 0.4
v 0.4 0.1 0.3
v 0.4 0.1 -0.3
v 0.4 0.1 -0.4
v 0.4 0.7 0.4
v 0.4 0.7 0.3
v 0.4 0.7 -0.3
v 0.4 0.7 -0.4
v 0.4 0.8 0.3
v 0.4 0.8 -0.3
v -0.4 0.1 0.4
v -0.4 0.7 0.4
v -0.3 0 0.4
v -0.3 0.1 0.4
v -0.3 0.7 0.4
v -0.3 0.8 0.4
v 0.3 0 0.4
v 0.3 0.1 0.4
v 0.3 0.7 0.4
v 0.3 0.8 0.4
v 0.4 0.1 0.4
v 0.4 0.7 0.4
v -0.4 0 0.3
v -0.4 0.1 0.3
v -0.4 0.7 0.3
v -0.4 0.8 0.3
v -0.3 0 0.3
v -0.3 0.1 0.3
v -0.3 0.7 0.3
v -0.3 0.8 0.3
v 0.3 0 0.3
v 0.3 0.1 0.3
v 0.3 0.7 0.3
v 0.3 0.8 0.3
v 0.4 0 0.3
v 0.4 0.1 0.3
v 0.4 0.7 0.3
v 0.4 0.8 0.3
v -0.4 0 -0.3
v -0.4 0.1 -0.3
v -0.4 0.7 -0.3
v -0.4 0.8 -0.3
v -0.3 0 -0.3
v -0.3 0.1 -0.3
v -0.3 0.7 -0.3
v -0.3 0.8 -0.3
v 0.3 0 -0.3
v 0.3 0.1 -0.3
v 0.3 0.7 -0.3
v 0.3 0.8 -0.3
v 0.4 0 -0.3
v 0.4 0.1 -0.3
v 0.4 0.7 -0.3
v 0.4 0.8 -0.3
v -0.4 0.1 -0.4
v -0.4 0.7 -0.4
v -0.3 0 -0.4
v -0.3 0.1 -0.4
v -0.3 0.4 -0.4
v -0.3 0.5 -0.4
v -0.3 0.6 -0.4
v -0.3 0.7 -0.4
v -0.3 0.8 -0.4
v -0.2 0.1 -0.4
v -0.2 0.2 -0.4
v -0.2 0.5 -0.4
v -0.2 0.6 -0.4
v -0.1 0.4 -0.4
v -0.1 0.5 -0.4
v -0.1 0.6 -0.4
v 0.1 0.4 -0.4
v 0.1 0.5 -0.4
v 0.1 0.6 -0.4
v 0.2 0.1 -0.4
v 0.2 0.2 -0.4
v 0.2 0.5 -0.4
v 0.2 0.6 -0.4
v 0.3 0 -0.4
v 0.3 0.1 -0.4
v 0.3 0.4 -0.4
v 0.3 0.5 -0.4
v 0.3 0.6 -0.4
v 0.3 0.7 -0.4
v 0.3 0.8 -0.4
v 0.4 0.1 -0.4
v 0.4 0.7 -0.4
v -0.3 0 0.4
v 0.3 0 0.4
v -0.4 0 0.3
v -0.3 0 0.3
v 0.3 0 0.3
v 0.4 0 0.3
v -0.4 0 -0.3
v -0.3 0 -0.3
v 0.3 0 -0.3
v 0.4 0 -0.3
v -0.3 0 -0.4
v 0.3 0 -0.4
v -0.4 0.1 0.4
v -0.3 0.1 0.4
v 0.3 0.1 0.4
v 0.4 0.1 0.4
v -0.4 0.1 0.3
v -0.3 0.1 0.3
v 0.3 0.1 0.3
v 0.4 0.1 0.3
v -0.4 0.1 -0.3
v -0.3 0.1 -0.3
v 0.3 0.1 -0.3
v 0.4 0.1 -0.3
v -0.4 0.1 -0.4
v -0.3 0.1 -0.4
v 0.3 0.1 -0.4
v 0.4 0.1 -0.4
v -0.4 0.7 0.4
v -0.3 0.7 0.4
v 0.3 0.7 0.4
v 0.4 0.7 0.4
v -0.4 0.7 0.3
v -0.3 0.7 0.3
v 0.3 0.7 0.3
v 0.4 0.7 0.3
v -0.4 0.7 -0.3
v -0.3 0.7 -0.3
v 0.3 0.7 -0.3
v 0.4 0.7 -0.3
v -0.4 0.7 -0.4
v -0.3 0.7 -0.4
v 0.3 0.7 -0.4
v 0.4 0.7 -0.4
v -0.3 0.8 0.4
v 0.3 0.8 0.4
v -0.4 0.8 0.3
v -0.3 0.8 0.3
v 0.3 0.8 0.3
v 0.4 0.8 0.3
v -0.4 0.8 -0.3
v -0.3 0.8 -0.3
v 0.3 0.8 -0.3
v 0.4 0.8 -0.3
v -0.3 0.8 -0.4
v 0.3 0.8 -0.4

# faces
f 4/2/1 2/2/1 1/2/1
f 5/2/1 2/2/1 4/2/1
f 7/2/1 4/2/1 3/2/1
f 7/2/1 6/2/1 5/2/1
f 7/2/1 5/2/1 4/2/1
f 8/2/1 6/2/1 7/2/1
f 9/2/1 6/2/1 8/2/1
f 10/2/1 6/2/1 9/2/1
f 11/2/1 9/2/1 8/2/1
f 12/2/1 9/2/1 11/2/1
f 17/2/1 14/2/1 13/2/1
f 18/2/1 14/2/1 17/2/1
f 19/2/1 16/2/1 15/2/1
f 20/2/1 16/2/1 19/2/1
f 25/2/1 22/2/1 21/2/1
f 26/2/1 22/2/1 25/2/1
f 27/2/1 24/2/1 23/2/1
f 28/2/1 24/2/1 27/2/1
f 29/2/2 30/2/2 33/2/2
f 33/2/2 30/2/2 34/2/2
f 31/2/2 32/2/2 35/2/2
f 35/2/2 32/2/2 36/2/2
f 37/2/2 38/2/2 41/2/2
f 41/2/2 38/2/2 42/2/2
f 39/2/2 40/2/2 43/2/2
f 43/2/2 40/2/2 44/2/2
f 45/2/2 46/2/2 48/2/2
f 48/2/2 46/2/2 49/2/2
f 47/2/2 48/2/2 51/2/2
f 49/2/2 50/2/2 51/2/2
f 48/2/2 49/2/2 51/2/2
f 51/2/2 50/2/2 52/2/2
f 52/2/2 50/2/2 53/2/2
f 53/2/2 50/2/2 54/2/2
f 52/2/2 53/2/2 55/2/2
f 55/2/2 53/2/2 56/2/2
f 60/2/3 58/2/3 57/2/3
f 61/2/3 58/2/3 60/2/3
f 63/2/3 60/2/3 59/2/3
f 63/2/3 62/2/3 61/2/3
f 63/2/3 61/2/3 60/2/3
f 64/2/3 62/2/3 63/2/3
f 65/2/3 62/2/3 64/2/3
f 66/2/3 62/2/3 65/2/3
f 67/2/3 65/2/3 64/2/3
f 68/2/3 65/2/3 67/2/3
f 73/2/3 70/2/3 69/2/3
f 74/2/3 70/2/3 73/2/3
f 75/2/3 72/2/3 71/2/3
f 76/2/3 72/2/3 75/2/3
f 81/2/3 78/2/3 77/2/3
f 82/2/3 78/2/3 81/2/3
f 83/2/3 80/2/3 79/2/3
f 84/2/3 80/2/3 83/2/3
f 85/2/4 86/2/4 89/2/4
f 89/2/4 86/2/4 90/2/4
f 87/2/4 88/2/4 91/2/4
f 91/2/4 88/2/4 92/2/4
f 93/2/4 94/2/4 97/2/4
f 97/2/4 94/2/4 98/2/4
f 95/2/4 96/2/4 99/2/4
f 99/2/4 96/2/4 100/2/4
f 101/2/4 102/2/4 104/2/4
f 104/2/4 102/2/4 105/2/4
f 105/2/4 102/2/4 106/2/4
f 106/2/4 102/2/4 107/2/4
f 107/2/4 102/2/4 108/2/4
f 103/2/4 104/2/4 110/2/4
f 104/2/4 105/2/4 110/2/4
f 110/2/4 105/2/4 111/2/4
f 105/1/4 106/1/4 112/1/4
f 106/3/4 107/3/4 112/3/4
f 108/2/4 109/2/4 113/2/4
f 112/3/4 107/3/4 113/3/4
f 107/2/4 108/2/4 113/2/4
f 105/1/4 112/1/4 114/1/4
f 111/2/4 105/2/4 114/2/4
f 112/4/4 113/4/4 115/4/4
f 114/1/4 112/1/4 115/1/4
f 113/2/4 109/2/4 116/2/4
f 115/4/4 113/4/4 116/4/4
f 114/2/4 115/2/4 117/2/4
f 111/2/4 114/2/4 117/2/4
f 115/2/4 116/2/4 117/2/4
f 117/2/4 116/2/4 118/2/4
f 116/2/4 109/2/4 119/2/4
f 118/2/4 116/2/4 119/2/4
f 103/2/4 110/2/4 120/2/4
f 110/4/4 111/4/4 120/4/4
f 111/2/4 117/2/4 121/2/4
f 120/4/4 111/4/4 121/4/4
f 117/1/4 118/1/4 122/1/4
f 118/4/4 119/4/4 122/4/4
f 119/2/4 109/2/4 123/2/4
f 122/4/4 119/4/4 123/4/4
f 120/2/4 121/2/4 124/2/4
f 103/2/4 120/2/4 124/2/4
f 124/2/4 121/2/4 125/2/4
f 121/2/4 117/2/4 126/2/4
f 125/2/4 121/2/4 126/2/4
f 117/1/4 122/1/4 126/1/4
f 122/3/4 123/3/4 127/3/4
f 126/1/4 122/1/4 127/1/4
f 123/2/4 109/2/4 128/2/4
f 127/3/4 123/3/4 128/3/4
f 128/2/4 109/2/4 129/2/4
f 129/2/4 109/2/4 130/2/4
f 126/2/4 127/2/4 131/2/4
f 128/2/4 129/2/4 131/2/4
f 127/2/4 128/2/4 131/2/4
f 125/2/4 126/2/4 131/2/4
f 131/2/4 129/2/4 132/2/4
f 136/2/5 134/2/5 133/2/5
f 137/2/5 134/2/5 136/2/5
f 139/2/5 136/2/5 135/2/5
f 139/2/5 138/2/5 137/2/5
f 139/2/5 137/2/5 136/2/5
f 140/2/5 138/2/5 139/2/5
f 141/2/5 138/2/5 140/2/5
f 142/2/5 138/2/5 141/2/5
f 143/2/5 141/2/5 140/2/5
f 144/2/5 141/2/5 143/2/5
f 149/2/5 146/2/5 145/2/5
f 150/2/5 146/2/5 149/2/5
f 151/2/5 148/2/5 147/2/5
f 152/2/5 148/2/5 151/2/5
f 157/2/5 154/2/5 153/2/5
f 158/2/5 154/2/5 157/2/5
f 159/2/5 156/2/5 155/2/5
f 160/2/5 156/2/5 159/2/5
f 161/2/6 162/2/6 165/2/6
f 165/2/6 162/2/6 166/2/6
f 163/2/6 164/2/6 167/2/6
f 167/2/6 164/2/6 168/2/6
f 169/2/6 170/2/6 173/2/6
f 173/2/6 170/2/6 174/2/6
f 171/2/6 172/2/6 175/2/6
f 175/2/6 172/2/6 176/2/6
f 177/2/6 178/2/6 180/2/6
f 180/2/6 178/2/6 181/2/6
f 179/2/6 180/2/6 183/2/6
f 181/2/6 182/2/6 183/2/6
f 180/2/6 181/2/6 183/2/6
f 183/2/6 182/2/6 184/2/6
f 184/2/6 182/2/6 185/2/6
f 185/2/6 182/2/6 186/2/6
f 184/2/6 185/2/6 187/2/6
f 187/2/6 185/2/6 188/2/6
