# MagicaVoxel @ Ephtracy

# group
o 

# material
mtllib SirHiggins_Torso.mtl
usemtl palette

# normals
vn -1 0 0
vn 1 0 0
vn 0 0 1
vn 0 0 -1
vn 0 -1 0
vn 0 1 0

# texcoords
vt 0.326172 0.5
vt 0.431641 0.5
vt 0.958984 0.5
vt 0.986328 0.5
vt 0.994141 0.5

# verts
v -0.6 0.4 0.1
v -0.6 0.4 -0.1
v -0.6 0.6 0.1
v -0.6 0.6 -0.1
v -0.4 0 0.3
v -0.4 0 -0.3
v -0.4 0.4 0.1
v -0.4 0.4 -0.1
v -0.4 0.6 0.1
v -0.4 0.6 -0.1
v -0.4 0.7 0.3
v -0.4 0.7 -0.3
v -0.3 0 0.4
v -0.3 0 0.3
v -0.3 0 -0.3
v -0.3 0 -0.4
v -0.3 0.7 0.4
v -0.3 0.7 0.3
v -0.3 0.7 -0.3
v -0.3 0.7 -0.4
v -0.2 0.7 0.2
v -0.2 0.7 -0.2
v -0.2 0.8 0.2
v -0.2 0.8 -0.2
v 0.3 0.7 -0.3
v 0.3 0.7 -0.4
v 0.3 0.8 -0.3
v 0.3 0.8 -0.4
v 0.2 0.7 0.2
v 0.2 0.7 -0.2
v 0.2 0.8 0.2
v 0.2 0.8 -0.2
v 0.3 0 0.4
v 0.3 0 0.3
v 0.3 0 -0.3
v 0.3 0 -0.4
v 0.3 0.5 -0.3
v 0.3 0.5 -0.4
v 0.3 0.7 0.4
v 0.3 0.7 0.3
v 0.3 0.7 -0.3
v 0.3 0.7 -0.4
v 0.4 0 0.3
v 0.4 0 -0.3
v 0.4 0.4 0.1
v 0.4 0.4 -0.1
v 0.4 0.6 0.1
v 0.4 0.6 -0.1
v 0.4 0.7 0.3
v 0.4 0.7 -0.3
v 0.4 0.7 -0.4
v 0.4 0.8 -0.3
v 0.4 0.8 -0.4
v 0.6 0.4 0.1
v 0.6 0.4 -0.1
v 0.6 0.6 0.1
v 0.6 0.6 -0.1
v -0.3 0 0.4
v -0.3 0.7 0.4
v 0.3 0 0.4
v 0.3 0.7 0.4
v -0.4 0 0.3
v -0.4 0.7 0.3
v -0.3 0 0.3
v -0.3 0.7 0.3
v 0.3 0 0.3
v 0.3 0.7 0.3
v 0.4 0 0.3
v 0.4 0.7 0.3
v -0.2 0.7 0.2
v -0.2 0.8 0.2
v 0.2 0.7 0.2
v 0.2 0.8 0.2
v -0.6 0.4 0.1
v -0.6 0.6 0.1
v -0.4 0.4 0.1
v -0.4 0.6 0.1
v 0.4 0.4 0.1
v 0.4 0.6 0.1
v 0.6 0.4 0.1
v 0.6 0.6 0.1
v 0.3 0.7 -0.3
v 0.3 0.8 -0.3
v 0.4 0.7 -0.3
v 0.4 0.8 -0.3
v -0.6 0.4 -0.1
v -0.6 0.6 -0.1
v -0.4 0.4 -0.1
v -0.4 0.6 -0.1
v 0.4 0.4 -0.1
v 0.4 0.6 -0.1
v 0.6 0.4 -0.1
v 0.6 0.6 -0.1
v -0.2 0.7 -0.2
v -0.2 0.8 -0.2
v -0.1 0.7 -0.2
v 0.1 0.7 -0.2
v 0.2 0.7 -0.2
v 0.2 0.8 -0.2
v -0.4 0 -0.3
v -0.4 0.7 -0.3
v -0.3 0 -0.3
v -0.3 0.7 -0.3
v 0.3 0 -0.3
v 0.3 0.5 -0.3
v 0.3 0.7 -0.3
v 0.4 0 -0.3
v 0.4 0.7 -0.3
v -0.3 0 -0.4
v -0.3 0.7 -0.4
v -0.1 0 -0.4
v -0.1 0.7 -0.4
v -5.96046e-008 0.1 -0.4
v -5.96046e-008 0.2 -0.4
v -5.96046e-008 0.3 -0.4
v -5.96046e-008 0.4 -0.4
v -5.96046e-008 0.5 -0.4
v -5.96046e-008 0.6 -0.4
v 0.1 0 -0.4
v 0.1 0.1 -0.4
v 0.1 0.2 -0.4
v 0.1 0.3 -0.4
v 0.1 0.4 -0.4
v 0.1 0.5 -0.4
v 0.1 0.6 -0.4
v 0.1 0.7 -0.4
v 0.2 0.6 -0.4
v 0.2 0.7 -0.4
v 0.3 0 -0.4
v 0.3 0.5 -0.4
v 0.3 0.7 -0.4
v 0.3 0.8 -0.4
v 0.4 0.7 -0.4
v 0.4 0.8 -0.4
v -0.3 0 0.4
v 0.3 0 0.4
v -0.4 0 0.3
v -0.3 0 0.3
v 0.3 0 0.3
v 0.4 0 0.3
v -0.2 0 0.2
v 0.1 0 0.2
v -0.2 0 -0.2
v -0.1 0 -0.2
v -0.4 0 -0.3
v -0.3 0 -0.3
v -0.1 0 -0.3
v 0.1 0 -0.3
v 0.3 0 -0.3
v 0.4 0 -0.3
v -0.3 0 -0.4
v -0.1 0 -0.4
v 0.1 0 -0.4
v 0.3 0 -0.4
v -0.6 0.4 0.1
v -0.4 0.4 0.1
v 0.4 0.4 0.1
v 0.6 0.4 0.1
v -0.6 0.4 -0.1
v -0.4 0.4 -0.1
v 0.4 0.4 -0.1
v 0.6 0.4 -0.1
v 0.3 0.7 -0.3
v 0.4 0.7 -0.3
v 0.3 0.7 -0.4
v 0.4 0.7 -0.4
v -0.6 0.6 0.1
v -0.4 0.6 0.1
v 0.4 0.6 0.1
v 0.6 0.6 0.1
v -0.6 0.6 -0.1
v -0.4 0.6 -0.1
v 0.4 0.6 -0.1
v 0.6 0.6 -0.1
v -0.3 0.7 0.4
v 0.3 0.7 0.4
v -0.4 0.7 0.3
v -0.3 0.7 0.3
v 0.3 0.7 0.3
v 0.4 0.7 0.3
v -0.2 0.7 0.2
v 0.2 0.7 0.2
v -0.2 0.7 -0.2
v -0.1 0.7 -0.2
v 0.1 0.7 -0.2
v 0.2 0.7 -0.2
v -0.4 0.7 -0.3
v -0.3 0.7 -0.3
v -0.1 0.7 -0.3
v 0.1 0.7 -0.3
v 0.2 0.7 -0.3
v 0.3 0.7 -0.3
v 0.4 0.7 -0.3
v -0.3 0.7 -0.4
v -0.1 0.7 -0.4
v 0.1 0.7 -0.4
v 0.2 0.7 -0.4
v 0.3 0.7 -0.4
v -0.2 0.8 0.2
v 0.2 0.8 0.2
v -0.2 0.8 -0.2
v 0.2 0.8 -0.2
v 0.3 0.8 -0.3
v 0.4 0.8 -0.3
v 0.3 0.8 -0.4
v 0.4 0.8 -0.4

# faces
f 3/5/1 2/5/1 1/5/1
f 4/5/1 2/5/1 3/5/1
f 7/5/1 6/5/1 5/5/1
f 8/5/1 6/5/1 7/5/1
f 9/5/1 7/5/1 5/5/1
f 10/5/1 6/5/1 8/5/1
f 11/5/1 9/5/1 5/5/1
f 11/5/1 10/5/1 9/5/1
f 12/5/1 6/5/1 10/5/1
f 12/5/1 10/5/1 11/5/1
f 17/5/1 14/5/1 13/5/1
f 18/5/1 14/5/1 17/5/1
f 19/5/1 16/5/1 15/5/1
f 20/5/1 16/5/1 19/5/1
f 23/1/1 22/1/1 21/1/1
f 24/1/1 22/1/1 23/1/1
f 27/2/1 26/2/1 25/2/1
f 28/2/1 26/2/1 27/2/1
f 29/1/2 30/1/2 31/1/2
f 31/1/2 30/1/2 32/1/2
f 35/5/2 36/5/2 37/5/2
f 37/5/2 36/5/2 38/5/2
f 33/5/2 34/5/2 39/5/2
f 39/5/2 34/5/2 40/5/2
f 37/2/2 38/2/2 41/2/2
f 41/2/2 38/2/2 42/2/2
f 43/5/2 44/5/2 45/5/2
f 45/5/2 44/5/2 46/5/2
f 43/5/2 45/5/2 47/5/2
f 46/5/2 44/5/2 48/5/2
f 43/5/2 47/5/2 49/5/2
f 47/5/2 48/5/2 49/5/2
f 48/5/2 44/5/2 50/5/2
f 49/5/2 48/5/2 50/5/2
f 50/2/2 51/2/2 52/2/2
f 52/2/2 51/2/2 53/2/2
f 54/5/2 55/5/2 56/5/2
f 56/5/2 55/5/2 57/5/2
f 60/5/3 59/5/3 58/5/3
f 61/5/3 59/5/3 60/5/3
f 64/5/3 63/5/3 62/5/3
f 65/5/3 63/5/3 64/5/3
f 68/5/3 67/5/3 66/5/3
f 69/5/3 67/5/3 68/5/3
f 72/1/3 71/1/3 70/1/3
f 73/1/3 71/1/3 72/1/3
f 76/5/3 75/5/3 74/5/3
f 77/5/3 75/5/3 76/5/3
f 80/5/3 79/5/3 78/5/3
f 81/5/3 79/5/3 80/5/3
f 84/2/3 83/2/3 82/2/3
f 85/2/3 83/2/3 84/2/3
f 86/5/4 87/5/4 88/5/4
f 88/5/4 87/5/4 89/5/4
f 90/5/4 91/5/4 92/5/4
f 92/5/4 91/5/4 93/5/4
f 94/1/4 95/1/4 96/1/4
f 96/1/4 95/1/4 97/1/4
f 97/1/4 95/1/4 98/1/4
f 98/1/4 95/1/4 99/1/4
f 100/5/4 101/5/4 102/5/4
f 102/5/4 101/5/4 103/5/4
f 104/5/4 105/5/4 107/5/4
f 105/5/4 106/5/4 107/5/4
f 107/5/4 106/5/4 108/5/4
f 109/5/4 110/5/4 111/5/4
f 111/5/4 110/5/4 112/5/4
f 111/3/4 112/3/4 113/3/4
f 113/3/4 112/3/4 114/3/4
f 114/3/4 112/3/4 115/3/4
f 115/3/4 112/3/4 116/3/4
f 116/3/4 112/3/4 117/3/4
f 117/3/4 112/3/4 118/3/4
f 111/3/4 113/3/4 119/3/4
f 113/4/4 114/4/4 120/4/4
f 119/3/4 113/3/4 120/3/4
f 114/3/4 115/3/4 121/3/4
f 120/4/4 114/4/4 121/4/4
f 115/4/4 116/4/4 122/4/4
f 121/3/4 115/3/4 122/3/4
f 116/3/4 117/3/4 123/3/4
f 122/4/4 116/4/4 123/4/4
f 117/4/4 118/4/4 124/4/4
f 123/3/4 117/3/4 124/3/4
f 118/3/4 112/3/4 125/3/4
f 124/4/4 118/4/4 125/4/4
f 125/3/4 112/3/4 126/3/4
f 124/2/4 125/2/4 127/2/4
f 125/5/4 126/5/4 127/5/4
f 127/5/4 126/5/4 128/5/4
f 123/5/4 124/5/4 129/5/4
f 119/5/4 120/5/4 129/5/4
f 120/5/4 121/5/4 129/5/4
f 121/5/4 122/5/4 129/5/4
f 122/5/4 123/5/4 129/5/4
f 127/2/4 128/2/4 130/2/4
f 129/5/4 124/5/4 130/5/4
f 124/2/4 127/2/4 130/2/4
f 130/2/4 128/2/4 131/2/4
f 131/2/4 132/2/4 133/2/4
f 133/2/4 132/2/4 134/2/4
f 138/5/5 136/5/5 135/5/5
f 139/5/5 136/5/5 138/5/5
f 141/5/5 138/5/5 137/5/5
f 141/5/5 140/5/5 139/5/5
f 141/5/5 139/5/5 138/5/5
f 142/5/5 140/5/5 141/5/5
f 143/5/5 141/5/5 137/5/5
f 143/1/5 142/1/5 141/1/5
f 144/1/5 142/1/5 143/1/5
f 145/5/5 143/5/5 137/5/5
f 145/5/5 144/5/5 143/5/5
f 146/5/5 144/5/5 145/5/5
f 147/1/5 142/1/5 144/1/5
f 147/5/5 144/5/5 146/5/5
f 148/5/5 140/5/5 142/5/5
f 148/1/5 142/1/5 147/1/5
f 149/5/5 140/5/5 148/5/5
f 150/5/5 140/5/5 149/5/5
f 151/5/5 147/5/5 146/5/5
f 152/3/5 148/3/5 147/3/5
f 152/5/5 147/5/5 151/5/5
f 153/5/5 149/5/5 148/5/5
f 153/3/5 148/3/5 152/3/5
f 154/5/5 149/5/5 153/5/5
f 159/5/5 156/5/5 155/5/5
f 160/5/5 156/5/5 159/5/5
f 161/5/5 158/5/5 157/5/5
f 162/5/5 158/5/5 161/5/5
f 165/2/5 164/2/5 163/2/5
f 166/2/5 164/2/5 165/2/5
f 167/5/6 168/5/6 171/5/6
f 171/5/6 168/5/6 172/5/6
f 169/5/6 170/5/6 173/5/6
f 173/5/6 170/5/6 174/5/6
f 175/5/6 176/5/6 178/5/6
f 178/5/6 176/5/6 179/5/6
f 177/5/6 178/5/6 181/5/6
f 179/5/6 180/5/6 181/5/6
f 178/5/6 179/5/6 181/5/6
f 181/5/6 180/5/6 182/5/6
f 177/5/6 181/5/6 183/5/6
f 182/5/6 180/5/6 186/5/6
f 177/5/6 183/5/6 187/5/6
f 183/5/6 184/5/6 187/5/6
f 187/5/6 184/5/6 188/5/6
f 184/1/6 185/1/6 189/1/6
f 188/5/6 184/5/6 189/5/6
f 185/5/6 186/5/6 190/5/6
f 189/1/6 185/1/6 190/1/6
f 186/5/6 180/5/6 191/5/6
f 190/5/6 186/5/6 191/5/6
f 191/5/6 180/5/6 192/5/6
f 192/5/6 180/5/6 193/5/6
f 188/5/6 189/5/6 194/5/6
f 189/3/6 190/3/6 195/3/6
f 194/5/6 189/5/6 195/5/6
f 190/5/6 191/5/6 196/5/6
f 195/3/6 190/3/6 196/3/6
f 191/2/6 192/2/6 197/2/6
f 196/5/6 191/5/6 197/5/6
f 197/2/6 192/2/6 198/2/6
f 199/1/6 200/1/6 201/1/6
f 201/1/6 200/1/6 202/1/6
f 203/2/6 204/2/6 205/2/6
f 205/2/6 204/2/6 206/2/6
