# MagicaVoxel @ Ephtracy

# group
o 

# material
mtllib SirHiggins_Head.mtl
usemtl palette

# normals
vn -1 0 0
vn 1 0 0
vn 0 0 1
vn 0 0 -1
vn 0 -1 0
vn 0 1 0

# texcoords
vt 0.326172 0.5
vt 0.431641 0.5
vt 0.744141 0.5
vt 0.958984 0.5
vt 0.994141 0.5

# verts
v -0.4 0 0.3
v -0.4 0 -0.3
v -0.4 0.1 0.4
v -0.4 0.1 0.3
v -0.4 0.1 -0.3
v -0.4 0.1 -0.4
v -0.4 0.7 0.4
v -0.4 0.7 0.3
v -0.4 0.7 -0.3
v -0.4 0.7 -0.4
v -0.4 0.8 0.3
v -0.4 0.8 -0.3
v -0.3 0 0.4
v -0.3 0 0.3
v -0.3 0 -0.3
v -0.3 0 -0.4
v -0.3 0.1 0.4
v -0.3 0.1 0.3
v -0.3 0.1 -0.3
v -0.3 0.1 -0.4
v -0.3 0.7 0.4
v -0.3 0.7 0.3
v -0.3 0.7 -0.3
v -0.3 0.7 -0.4
v -0.3 0.8 0.4
v -0.3 0.8 0.3
v -0.3 0.8 -0.3
v -0.3 0.8 -0.4
v 0 0.4 -0.4
v 0 0.4 -0.5
v 0 0.6 -0.4
v 0 0.6 -0.5
v 0.1 0.3 -0.4
v 0.1 0.3 -0.5
v 0.1 0.4 -0.4
v 0.1 0.4 -0.5
v 0.1 0.6 -0.4
v 0.1 0.6 -0.5
v 0.1 0.7 -0.4
v 0.1 0.7 -0.5
v 0.3 0.4 -0.4
v 0.3 0.4 -0.5
v 0.3 0.5 -0.4
v 0.3 0.6 -0.4
v 0.3 0.6 -0.5
v 0.1 0.4 -0.4
v 0.1 0.4 -0.5
v 0.1 0.5 -0.4
v 0.1 0.6 -0.4
v 0.1 0.6 -0.5
v 0.3 0 0.4
v 0.3 0 0.3
v 0.3 0.1 0.4
v 0.3 0.1 0.3
v 0.3 0.3 -0.4
v 0.3 0.3 -0.5
v 0.3 0.4 -0.4
v 0.3 0.4 -0.5
v 0.3 0.6 -0.4
v 0.3 0.6 -0.5
v 0.3 0.7 0.4
v 0.3 0.7 0.3
v 0.3 0.7 -0.3
v 0.3 0.7 -0.4
v 0.3 0.7 -0.5
v 0.3 0.8 0.4
v 0.3 0.8 0.3
v 0.3 0.8 -0.3
v 0.3 0.8 -0.4
v 0.4 0 0.3
v 0.4 0 -0.3
v 0.4 0 -0.4
v 0.4 0.1 0.4
v 0.4 0.1 0.3
v 0.4 0.4 -0.3
v 0.4 0.4 -0.4
v 0.4 0.4 -0.5
v 0.4 0.6 -0.4
v 0.4 0.6 -0.5
v 0.4 0.7 0.4
v 0.4 0.7 0.3
v 0.4 0.7 -0.3
v 0.4 0.7 -0.4
v 0.4 0.8 0.3
v 0.4 0.8 -0.3
v -0.4 0.1 0.4
v -0.4 0.7 0.4
v -0.3 0 0.4
v -0.3 0.1 0.4
v -0.3 0.7 0.4
v -0.3 0.8 0.4
v 0.3 0 0.4
v 0.3 0.1 0.4
v 0.3 0.7 0.4
v 0.3 0.8 0.4
v 0.4 0.1 0.4
v 0.4 0.7 0.4
v -0.4 0 0.3
v -0.4 0.1 0.3
v -0.4 0.7 0.3
v -0.4 0.8 0.3
v -0.3 0 0.3
v -0.3 0.1 0.3
v -0.3 0.7 0.3
v -0.3 0.8 0.3
v 0.3 0 0.3
v 0.3 0.1 0.3
v 0.3 0.7 0.3
v 0.3 0.8 0.3
v 0.4 0 0.3
v 0.4 0.1 0.3
v 0.4 0.7 0.3
v 0.4 0.8 0.3
v -0.4 0 -0.3
v -0.4 0.1 -0.3
v -0.4 0.7 -0.3
v -0.4 0.8 -0.3
v -0.3 0 -0.3
v -0.3 0.1 -0.3
v -0.3 0.7 -0.3
v -0.3 0.8 -0.3
v 0.3 0.7 -0.3
v 0.3 0.8 -0.3
v 0.4 0.7 -0.3
v 0.4 0.8 -0.3
v -0.4 0.1 -0.4
v -0.4 0.7 -0.4
v -0.3 0 -0.4
v -0.3 0.1 -0.4
v -0.3 0.5 -0.4
v -0.3 0.6 -0.4
v -0.3 0.7 -0.4
v -0.3 0.8 -0.4
v -0.2 0.1 -0.4
v -0.2 0.2 -0.4
v -0.2 0.5 -0.4
v -0.2 0.6 -0.4
v -0.1 0.5 -0.4
v -0.1 0.6 -0.4
v 0 0.4 -0.4
v 0 0.6 -0.4
v 0.1 0.1 -0.4
v 0.1 0.2 -0.4
v 0.1 0.3 -0.4
v 0.1 0.4 -0.4
v 0.1 0.5 -0.4
v 0.1 0.6 -0.4
v 0.1 0.7 -0.4
v 0.2 0.5 -0.4
v 0.2 0.6 -0.4
v 0.3 0 -0.4
v 0.3 0.3 -0.4
v 0.3 0.4 -0.4
v 0.3 0.5 -0.4
v 0.3 0.6 -0.4
v 0.3 0.7 -0.4
v 0.3 0.8 -0.4
v 0.4 0 -0.4
v 0.4 0.4 -0.4
v 0.4 0.6 -0.4
v 0.4 0.7 -0.4
v 0 0.4 -0.5
v 0 0.6 -0.5
v 0.1 0.3 -0.5
v 0.1 0.4 -0.5
v 0.1 0.6 -0.5
v 0.1 0.7 -0.5
v 0.3 0.3 -0.5
v 0.3 0.4 -0.5
v 0.3 0.6 -0.5
v 0.3 0.7 -0.5
v 0.4 0.4 -0.5
v 0.4 0.6 -0.5
v -0.3 0 0.4
v 0.3 0 0.4
v -0.4 0 0.3
v -0.3 0 0.3
v 0.3 0 0.3
v 0.4 0 0.3
v -0.4 0 -0.3
v -0.3 0 -0.3
v 0.3 0 -0.3
v 0.4 0 -0.3
v -0.3 0 -0.4
v 0.3 0 -0.4
v 0.4 0 -0.4
v -0.4 0.1 0.4
v -0.3 0.1 0.4
v 0.3 0.1 0.4
v 0.4 0.1 0.4
v -0.4 0.1 0.3
v -0.3 0.1 0.3
v 0.3 0.1 0.3
v 0.4 0.1 0.3
v -0.4 0.1 -0.3
v -0.3 0.1 -0.3
v -0.4 0.1 -0.4
v -0.3 0.1 -0.4
v 0.1 0.3 -0.4
v 0.3 0.3 -0.4
v 0.1 0.3 -0.5
v 0.3 0.3 -0.5
v 0 0.4 -0.4
v 0.1 0.4 -0.4
v 0.3 0.4 -0.4
v 0.4 0.4 -0.4
v 0 0.4 -0.5
v 0.1 0.4 -0.5
v 0.3 0.4 -0.5
v 0.4 0.4 -0.5
v 0.1 0.6 -0.4
v 0.2 0.6 -0.4
v 0.3 0.6 -0.4
v 0.1 0.6 -0.5
v 0.3 0.6 -0.5
v 0.1 0.4 -0.4
v 0.3 0.4 -0.4
v 0.1 0.4 -0.5
v 0.3 0.4 -0.5
v 0 0.6 -0.4
v 0.1 0.6 -0.4
v 0.3 0.6 -0.4
v 0.4 0.6 -0.4
v 0 0.6 -0.5
v 0.1 0.6 -0.5
v 0.3 0.6 -0.5
v 0.4 0.6 -0.5
v -0.4 0.7 0.4
v -0.3 0.7 0.4
v 0.3 0.7 0.4
v 0.4 0.7 0.4
v -0.4 0.7 0.3
v -0.3 0.7 0.3
v 0.3 0.7 0.3
v 0.4 0.7 0.3
v -0.4 0.7 -0.3
v -0.3 0.7 -0.3
v 0.3 0.7 -0.3
v 0.4 0.7 -0.3
v -0.4 0.7 -0.4
v -0.3 0.7 -0.4
v 0.1 0.7 -0.4
v 0.3 0.7 -0.4
v 0.4 0.7 -0.4
v 0.1 0.7 -0.5
v 0.3 0.7 -0.5
v -0.3 0.8 0.4
v 0.3 0.8 0.4
v -0.4 0.8 0.3
v -0.3 0.8 0.3
v 0.3 0.8 0.3
v 0.4 0.8 0.3
v -0.4 0.8 -0.3
v -0.3 0.8 -0.3
v 0.3 0.8 -0.3
v 0.4 0.8 -0.3
v -0.3 0.8 -0.4
v 0.3 0.8 -0.4

# faces
f 4/1/1 2/1/1 1/1/1
f 5/1/1 2/1/1 4/1/1
f 7/1/1 4/1/1 3/1/1
f 7/1/1 6/1/1 5/1/1
f 7/1/1 5/1/1 4/1/1
f 8/1/1 6/1/1 7/1/1
f 9/1/1 6/1/1 8/1/1
f 10/1/1 6/1/1 9/1/1
f 11/1/1 9/1/1 8/1/1
f 12/1/1 9/1/1 11/1/1
f 17/1/1 14/1/1 13/1/1
f 18/1/1 14/1/1 17/1/1
f 19/1/1 16/1/1 15/1/1
f 20/1/1 16/1/1 19/1/1
f 25/1/1 22/1/1 21/1/1
f 26/1/1 22/1/1 25/1/1
f 27/1/1 24/1/1 23/1/1
f 28/1/1 24/1/1 27/1/1
f 31/2/1 30/2/1 29/2/1
f 32/2/1 30/2/1 31/2/1
f 35/2/1 34/2/1 33/2/1
f 36/2/1 34/2/1 35/2/1
f 39/2/1 38/2/1 37/2/1
f 40/2/1 38/2/1 39/2/1
f 43/2/1 42/2/1 41/2/1
f 44/2/1 42/2/1 43/2/1
f 45/2/1 42/2/1 44/2/1
f 46/2/2 47/2/2 48/2/2
f 48/2/2 47/2/2 49/2/2
f 49/2/2 47/2/2 50/2/2
f 51/1/2 52/1/2 53/1/2
f 53/1/2 52/1/2 54/1/2
f 55/2/2 56/2/2 57/2/2
f 57/2/2 56/2/2 58/2/2
f 59/2/2 60/2/2 64/2/2
f 64/2/2 60/2/2 65/2/2
f 61/1/2 62/1/2 66/1/2
f 66/1/2 62/1/2 67/1/2
f 63/1/2 64/1/2 68/1/2
f 68/1/2 64/1/2 69/1/2
f 70/1/2 71/1/2 74/1/2
f 71/2/2 72/2/2 75/2/2
f 73/1/2 74/1/2 75/1/2
f 74/1/2 71/1/2 75/1/2
f 75/2/2 72/2/2 76/2/2
f 75/1/2 76/1/2 78/1/2
f 76/2/2 77/2/2 78/2/2
f 78/2/2 77/2/2 79/2/2
f 73/1/2 75/1/2 80/1/2
f 75/1/2 78/1/2 80/1/2
f 80/1/2 78/1/2 81/1/2
f 81/1/2 78/1/2 82/1/2
f 82/1/2 78/1/2 83/1/2
f 81/1/2 82/1/2 84/1/2
f 84/1/2 82/1/2 85/1/2
f 89/1/3 87/1/3 86/1/3
f 90/1/3 87/1/3 89/1/3
f 92/1/3 89/1/3 88/1/3
f 92/1/3 91/1/3 90/1/3
f 92/1/3 90/1/3 89/1/3
f 93/1/3 91/1/3 92/1/3
f 94/1/3 91/1/3 93/1/3
f 95/1/3 91/1/3 94/1/3
f 96/1/3 94/1/3 93/1/3
f 97/1/3 94/1/3 96/1/3
f 102/1/3 99/1/3 98/1/3
f 103/1/3 99/1/3 102/1/3
f 104/1/3 101/1/3 100/1/3
f 105/1/3 101/1/3 104/1/3
f 110/1/3 107/1/3 106/1/3
f 111/1/3 107/1/3 110/1/3
f 112/1/3 109/1/3 108/1/3
f 113/1/3 109/1/3 112/1/3
f 114/1/4 115/1/4 118/1/4
f 118/1/4 115/1/4 119/1/4
f 116/1/4 117/1/4 120/1/4
f 120/1/4 117/1/4 121/1/4
f 122/1/4 123/1/4 124/1/4
f 124/1/4 123/1/4 125/1/4
f 126/1/4 127/1/4 129/1/4
f 129/1/4 127/1/4 130/1/4
f 130/1/4 127/1/4 131/1/4
f 131/1/4 127/1/4 132/1/4
f 128/1/4 129/1/4 134/1/4
f 129/1/4 130/1/4 134/1/4
f 134/1/4 130/1/4 135/1/4
f 130/4/4 131/4/4 136/4/4
f 135/1/4 130/1/4 136/1/4
f 132/1/4 133/1/4 137/1/4
f 136/4/4 131/4/4 137/4/4
f 131/1/4 132/1/4 137/1/4
f 135/1/4 136/1/4 138/1/4
f 136/3/4 137/3/4 138/3/4
f 137/1/4 133/1/4 139/1/4
f 138/3/4 137/3/4 139/3/4
f 135/1/4 138/1/4 140/1/4
f 138/1/4 139/1/4 140/1/4
f 139/1/4 133/1/4 141/1/4
f 140/1/4 139/1/4 141/1/4
f 128/1/4 134/1/4 142/1/4
f 134/5/4 135/5/4 142/5/4
f 135/1/4 140/1/4 143/1/4
f 142/5/4 135/5/4 143/5/4
f 143/1/4 140/1/4 144/1/4
f 144/1/4 140/1/4 145/1/4
f 141/1/4 133/1/4 147/1/4
f 147/1/4 133/1/4 148/1/4
f 145/1/4 146/1/4 149/1/4
f 146/3/4 147/3/4 149/3/4
f 149/3/4 147/3/4 150/3/4
f 128/1/4 142/1/4 151/1/4
f 142/1/4 143/1/4 151/1/4
f 143/1/4 144/1/4 151/1/4
f 151/1/4 144/1/4 152/1/4
f 145/1/4 149/1/4 153/1/4
f 149/4/4 150/4/4 154/4/4
f 153/1/4 149/1/4 154/1/4
f 154/4/4 150/4/4 155/4/4
f 148/1/4 133/1/4 156/1/4
f 156/1/4 133/1/4 157/1/4
f 152/2/4 153/2/4 158/2/4
f 151/2/4 152/2/4 158/2/4
f 158/2/4 153/2/4 159/2/4
f 155/1/4 156/1/4 160/1/4
f 160/1/4 156/1/4 161/1/4
f 162/2/4 163/2/4 165/2/4
f 165/2/4 163/2/4 166/2/4
f 164/2/4 165/2/4 168/2/4
f 168/2/4 165/2/4 169/2/4
f 166/2/4 167/2/4 170/2/4
f 170/2/4 167/2/4 171/2/4
f 169/2/4 170/2/4 172/2/4
f 172/2/4 170/2/4 173/2/4
f 177/1/5 175/1/5 174/1/5
f 178/1/5 175/1/5 177/1/5
f 180/1/5 177/1/5 176/1/5
f 180/1/5 179/1/5 178/1/5
f 180/1/5 178/1/5 177/1/5
f 181/1/5 179/1/5 180/1/5
f 182/1/5 179/1/5 181/1/5
f 183/1/5 179/1/5 182/1/5
f 184/1/5 182/1/5 181/1/5
f 185/2/5 183/2/5 182/2/5
f 185/1/5 182/1/5 184/1/5
f 186/2/5 183/2/5 185/2/5
f 191/1/5 188/1/5 187/1/5
f 192/1/5 188/1/5 191/1/5
f 193/1/5 190/1/5 189/1/5
f 194/1/5 190/1/5 193/1/5
f 197/1/5 196/1/5 195/1/5
f 198/1/5 196/1/5 197/1/5
f 201/2/5 200/2/5 199/2/5
f 202/2/5 200/2/5 201/2/5
f 207/2/5 204/2/5 203/2/5
f 208/2/5 204/2/5 207/2/5
f 209/2/5 206/2/5 205/2/5
f 210/2/5 206/2/5 209/2/5
f 214/2/5 212/2/5 211/2/5
f 214/2/5 213/2/5 212/2/5
f 215/2/5 213/2/5 214/2/5
f 216/2/6 217/2/6 218/2/6
f 218/2/6 217/2/6 219/2/6
f 220/2/6 221/2/6 224/2/6
f 224/2/6 221/2/6 225/2/6
f 222/2/6 223/2/6 226/2/6
f 226/2/6 223/2/6 227/2/6
f 228/1/6 229/1/6 232/1/6
f 232/1/6 229/1/6 233/1/6
f 230/1/6 231/1/6 234/1/6
f 234/1/6 231/1/6 235/1/6
f 236/1/6 237/1/6 240/1/6
f 240/1/6 237/1/6 241/1/6
f 238/1/6 239/1/6 243/1/6
f 243/1/6 239/1/6 244/1/6
f 242/2/6 243/2/6 245/2/6
f 245/2/6 243/2/6 246/2/6
f 247/1/6 248/1/6 250/1/6
f 250/1/6 248/1/6 251/1/6
f 249/1/6 250/1/6 253/1/6
f 251/1/6 252/1/6 253/1/6
f 250/1/6 251/1/6 253/1/6
f 253/1/6 252/1/6 254/1/6
f 254/1/6 252/1/6 255/1/6
f 255/1/6 252/1/6 256/1/6
f 254/1/6 255/1/6 257/1/6
f 257/1/6 255/1/6 258/1/6
