# MagicaVoxel @ Ephtracy

# group
o 

# material
mtllib MandrakeRoot.mtl
usemtl palette

# normals
vn -1 0 0
vn 1 0 0
vn 0 0 1
vn 0 0 -1
vn 0 -1 0
vn 0 1 0

# texcoords
vt 0.654297 0.5
vt 0.873047 0.5

# verts
v 0 2.2 -0.1
v 0 2.2 -0.2
v 0 2.3 -0.1
v 0 2.3 -0.2
v 0.1 2 -0.1
v 0.1 2 -0.2
v 0.1 2.1 -0.1
v 0.1 2.1 -0.2
v 0.1 2.2 0
v 0.1 2.2 -0.1
v 0.1 2.2 -0.2
v 0.1 2.3 0
v 0.1 2.3 -0.1
v 0.2 2 0
v 0.2 2 -0.1
v 0.2 2 -0.2
v 0.2 2 -0.3
v 0.2 2.1 0
v 0.2 2.1 -0.1
v 0.2 2.1 -0.2
v 0.2 2.1 -0.3
v 0.1 2.2 -0.1
v 0.1 2.2 -0.2
v 0.1 2.3 -0.1
v 0.1 2.3 -0.2
v 0.2 2 -0.1
v 0.2 2 -0.2
v 0.2 2.1 -0.1
v 0.2 2.1 -0.2
v 0.2 2.2 0
v 0.2 2.2 -0.1
v 0.2 2.2 -0.2
v 0.2 2.3 0
v 0.2 2.3 -0.1
v 0.3 2 0
v 0.3 2 -0.1
v 0.3 2 -0.2
v 0.3 2 -0.3
v 0.3 2.1 0
v 0.3 2.1 -0.1
v 0.3 2.1 -0.2
v 0.3 2.1 -0.3
v 0.1 2.2 0
v 0.1 2.3 0
v 0.2 2 0
v 0.2 2.1 0
v 0.2 2.2 0
v 0.2 2.3 0
v 0.3 2 0
v 0.3 2.1 0
v 0 2.2 -0.1
v 0 2.3 -0.1
v 0.1 2 -0.1
v 0.1 2.1 -0.1
v 0.1 2.2 -0.1
v 0.1 2.3 -0.1
v 0.2 2 -0.1
v 0.2 2.1 -0.1
v 0.2 2.2 -0.1
v 0.2 2 -0.2
v 0.2 2.1 -0.2
v 0.3 2 -0.2
v 0.3 2.1 -0.2
v 0.1 2.2 -0.1
v 0.1 2.3 -0.1
v 0.2 2 -0.1
v 0.2 2.1 -0.1
v 0.2 2.2 -0.1
v 0.2 2.3 -0.1
v 0.3 2 -0.1
v 0.3 2.1 -0.1
v 0 2.2 -0.2
v 0 2.3 -0.2
v 0.1 2 -0.2
v 0.1 2.1 -0.2
v 0.1 2.2 -0.2
v 0.1 2.3 -0.2
v 0.2 2 -0.2
v 0.2 2.1 -0.2
v 0.2 2.2 -0.2
v 0.2 2 -0.3
v 0.2 2.1 -0.3
v 0.3 2 -0.3
v 0.3 2.1 -0.3
v 0.2 2 0
v 0.3 2 0
v 0.1 2 -0.1
v 0.2 2 -0.1
v 0.3 2 -0.1
v 0.1 2 -0.2
v 0.2 2 -0.2
v 0.3 2 -0.2
v 0.2 2 -0.3
v 0.3 2 -0.3
v 0.1 2.2 0
v 0.2 2.2 0
v 0 2.2 -0.1
v 0.1 2.2 -0.1
v 0.2 2.2 -0.1
v 0 2.2 -0.2
v 0.1 2.2 -0.2
v 0.2 2.1 0
v 0.3 2.1 0
v 0.2 2.1 -0.1
v 0.3 2.1 -0.1
v 0.2 2.1 -0.2
v 0.3 2.1 -0.2
v 0.2 2.1 -0.3
v 0.3 2.1 -0.3
v 0.1 2.2 -0.1
v 0.2 2.2 -0.1
v 0.1 2.2 -0.2
v 0.2 2.2 -0.2
v 0.1 2.3 0
v 0.2 2.3 0
v 0 2.3 -0.1
v 0.1 2.3 -0.1
v 0.2 2.3 -0.1
v 0 2.3 -0.2
v 0.1 2.3 -0.2

# faces
f 3/1/1 2/1/1 1/1/1
f 4/1/1 2/1/1 3/1/1
f 7/2/1 6/2/1 5/2/1
f 8/2/1 6/2/1 7/2/1
f 10/1/1 8/1/1 7/1/1
f 11/1/1 8/1/1 10/1/1
f 12/1/1 10/1/1 9/1/1
f 13/1/1 10/1/1 12/1/1
f 18/2/1 15/2/1 14/2/1
f 19/2/1 15/2/1 18/2/1
f 20/2/1 17/2/1 16/2/1
f 21/2/1 17/2/1 20/2/1
f 22/1/2 23/1/2 24/1/2
f 24/1/2 23/1/2 25/1/2
f 26/2/2 27/2/2 28/2/2
f 28/2/2 27/2/2 29/2/2
f 28/1/2 29/1/2 31/1/2
f 31/1/2 29/1/2 32/1/2
f 30/1/2 31/1/2 33/1/2
f 33/1/2 31/1/2 34/1/2
f 35/2/2 36/2/2 39/2/2
f 39/2/2 36/2/2 40/2/2
f 37/2/2 38/2/2 41/2/2
f 41/2/2 38/2/2 42/2/2
f 47/1/3 44/1/3 43/1/3
f 48/1/3 44/1/3 47/1/3
f 49/2/3 46/2/3 45/2/3
f 50/2/3 46/2/3 49/2/3
f 55/1/3 52/1/3 51/1/3
f 56/1/3 52/1/3 55/1/3
f 57/2/3 54/2/3 53/2/3
f 58/1/3 55/1/3 54/1/3
f 58/2/3 54/2/3 57/2/3
f 59/1/3 55/1/3 58/1/3
f 62/2/3 61/2/3 60/2/3
f 63/2/3 61/2/3 62/2/3
f 64/1/4 65/1/4 68/1/4
f 68/1/4 65/1/4 69/1/4
f 66/2/4 67/2/4 70/2/4
f 70/2/4 67/2/4 71/2/4
f 72/1/4 73/1/4 76/1/4
f 76/1/4 73/1/4 77/1/4
f 74/2/4 75/2/4 78/2/4
f 75/1/4 76/1/4 79/1/4
f 78/2/4 75/2/4 79/2/4
f 79/1/4 76/1/4 80/1/4
f 81/2/4 82/2/4 83/2/4
f 83/2/4 82/2/4 84/2/4
f 88/2/5 86/2/5 85/2/5
f 89/2/5 86/2/5 88/2/5
f 90/2/5 88/2/5 87/2/5
f 91/2/5 88/2/5 90/2/5
f 93/2/5 92/2/5 91/2/5
f 94/2/5 92/2/5 93/2/5
f 98/1/5 96/1/5 95/1/5
f 99/1/5 96/1/5 98/1/5
f 100/1/5 98/1/5 97/1/5
f 101/1/5 98/1/5 100/1/5
f 102/2/6 103/2/6 104/2/6
f 104/2/6 103/2/6 105/2/6
f 106/2/6 107/2/6 108/2/6
f 108/2/6 107/2/6 109/2/6
f 110/1/6 111/1/6 112/1/6
f 112/1/6 111/1/6 113/1/6
f 114/1/6 115/1/6 117/1/6
f 117/1/6 115/1/6 118/1/6
f 116/1/6 117/1/6 119/1/6
f 119/1/6 117/1/6 120/1/6
