# MagicaVoxel @ Ephtracy

# group
o 

# material
mtllib Door.mtl
usemtl palette

# normals
vn -1 0 0
vn 1 0 0
vn 0 0 1
vn 0 0 -1
vn 0 -1 0
vn 0 1 0

# texcoords
vt 0.0136719 0.5
vt 0.701172 0.5

# verts
v -0.4 0 0
v -0.4 0 -0.1
v -0.4 1 0
v -0.4 1 -0.1
v 0.4 0 0
v 0.4 0 -0.1
v 0.4 1 0
v 0.4 1 -0.1
v -0.4 0 0
v -0.4 1 0
v 0.2 0.4 0
v 0.2 0.5 0
v 0.3 0.4 0
v 0.3 0.5 0
v 0.4 0 0
v 0.4 1 0
v -0.4 0 -0.1
v -0.4 1 -0.1
v 0.2 0.4 -0.1
v 0.2 0.5 -0.1
v 0.3 0.4 -0.1
v 0.3 0.5 -0.1
v 0.4 0 -0.1
v 0.4 1 -0.1
v -0.4 0 0
v 0.4 0 0
v -0.4 0 -0.1
v 0.4 0 -0.1
v -0.4 1 0
v 0.4 1 0
v -0.4 1 -0.1
v 0.4 1 -0.1

# faces
f 3/2/1 2/2/1 1/2/1
f 4/2/1 2/2/1 3/2/1
f 5/2/2 6/2/2 7/2/2
f 7/2/2 6/2/2 8/2/2
f 11/2/3 10/2/3 9/2/3
f 12/2/3 10/2/3 11/2/3
f 13/2/3 11/2/3 9/2/3
f 13/1/3 12/1/3 11/1/3
f 14/2/3 10/2/3 12/2/3
f 14/1/3 12/1/3 13/1/3
f 15/2/3 13/2/3 9/2/3
f 15/2/3 14/2/3 13/2/3
f 16/2/3 10/2/3 14/2/3
f 16/2/3 14/2/3 15/2/3
f 17/2/4 18/2/4 19/2/4
f 19/2/4 18/2/4 20/2/4
f 17/2/4 19/2/4 21/2/4
f 19/1/4 20/1/4 21/1/4
f 20/2/4 18/2/4 22/2/4
f 21/1/4 20/1/4 22/1/4
f 17/2/4 21/2/4 23/2/4
f 21/2/4 22/2/4 23/2/4
f 22/2/4 18/2/4 24/2/4
f 23/2/4 22/2/4 24/2/4
f 27/2/5 26/2/5 25/2/5
f 28/2/5 26/2/5 27/2/5
f 29/2/6 30/2/6 31/2/6
f 31/2/6 30/2/6 32/2/6
