# MagicaVoxel @ Ephtracy

# group
o 

# material
mtllib Garfield_Torso.mtl
usemtl palette

# normals
vn -1 0 0
vn 1 0 0
vn 0 0 1
vn 0 0 -1
vn 0 -1 0
vn 0 1 0

# texcoords
vt 0.326172 0.5
vt 0.333984 0.5
vt 0.373047 0.5

# verts
v -0.6 0.4 0.1
v -0.6 0.4 5.96046e-008
v -0.6 0.4 -0.1
v -0.6 0.6 0.1
v -0.6 0.6 5.96046e-008
v -0.6 0.6 -0.1
v -0.4 0 0.3
v -0.4 0 5.96046e-008
v -0.4 0 -0.1
v -0.4 0 -0.3
v -0.4 0.1 0.3
v -0.4 0.1 0.2
v -0.4 0.1 5.96046e-008
v -0.4 0.1 -0.1
v -0.4 0.1 -0.2
v -0.4 0.1 -0.3
v -0.4 0.2 0.3
v -0.4 0.2 0.2
v -0.4 0.2 -0.2
v -0.4 0.2 -0.3
v -0.4 0.3 0.2
v -0.4 0.3 0.1
v -0.4 0.4 0.2
v -0.4 0.4 0.1
v -0.4 0.4 -0.1
v -0.4 0.5 -0.2
v -0.4 0.5 -0.3
v -0.4 0.6 0.3
v -0.4 0.6 0.2
v -0.4 0.6 0.1
v -0.4 0.6 -0.1
v -0.4 0.6 -0.2
v -0.4 0.6 -0.3
v -0.4 0.7 0.3
v -0.4 0.7 0.2
v -0.4 0.7 -0.3
v -0.3 0 0.4
v -0.3 0 0.3
v -0.3 0 -0.3
v -0.3 0 -0.4
v -0.3 0.1 0.4
v -0.3 0.1 0.3
v -0.3 0.1 -0.3
v -0.3 0.2 0.4
v -0.3 0.2 0.3
v -0.3 0.2 -0.3
v -0.3 0.5 -0.3
v -0.3 0.6 0.4
v -0.3 0.6 0.3
v -0.3 0.6 -0.3
v -0.3 0.7 0.4
v -0.3 0.7 0.3
v -0.3 0.7 -0.3
v -0.3 0.7 -0.4
v -0.2 0.3 0.6
v -0.2 0.3 0.4
v -0.2 0.4 0.6
v -0.2 0.4 0.4
v -0.2 0.5 0.6
v -0.2 0.5 0.4
v -0.2 0.7 0.2
v -0.2 0.7 0.1
v -0.2 0.7 5.96046e-008
v -0.2 0.7 -0.2
v -0.2 0.8 0.2
v -0.2 0.8 -0.2
v -5.96046e-008 0 0.5
v -5.96046e-008 0 0.4
v -5.96046e-008 0.1 0.6
v -5.96046e-008 0.1 0.5
v -5.96046e-008 0.1 0.4
v -5.96046e-008 0.3 0.6
v -5.96046e-008 0.3 0.4
v 0.2 0 0.5
v 0.2 0 0.4
v 0.2 0.1 0.6
v 0.2 0.1 0.5
v 0.2 0.2 0.6
v 0.2 0.2 0.5
v 0.2 0.3 0.6
v 0.2 0.3 0.5
v 0.2 0.4 0.6
v 0.2 0.4 0.5
v 0.2 0.5 0.6
v 0.2 0.5 0.5
v 0.2 0.5 0.4
v 0.2 0.7 0.2
v 0.2 0.7 5.96046e-008
v 0.2 0.7 -0.1
v 0.2 0.7 -0.2
v 0.2 0.8 0.2
v 0.2 0.8 -0.2
v 0.3 0 0.4
v 0.3 0 0.3
v 0.3 0 -0.3
v 0.3 0 -0.4
v 0.3 0.1 -0.3
v 0.3 0.1 -0.4
v 0.3 0.2 -0.3
v 0.3 0.2 -0.4
v 0.3 0.3 -0.3
v 0.3 0.3 -0.4
v 0.3 0.5 -0.3
v 0.3 0.5 -0.4
v 0.3 0.6 0.3
v 0.3 0.6 -0.3
v 0.3 0.6 -0.4
v 0.3 0.7 0.4
v 0.3 0.7 0.3
v 0.3 0.7 -0.3
v 0.3 0.7 -0.4
v 0.4 0 0.3
v 0.4 0 0.2
v 0.4 0 0.1
v 0.4 0 -0.2
v 0.4 0 -0.3
v 0.4 0.1 0.2
v 0.4 0.1 0.1
v 0.4 0.1 -0.2
v 0.4 0.1 -0.3
v 0.4 0.2 0.2
v 0.4 0.2 0.1
v 0.4 0.3 0.2
v 0.4 0.3 0.1
v 0.4 0.4 0.1
v 0.4 0.4 -0.1
v 0.4 0.5 0.1
v 0.4 0.5 -0.2
v 0.4 0.5 -0.3
v 0.4 0.6 0.3
v 0.4 0.6 0.2
v 0.4 0.6 0.1
v 0.4 0.6 5.96046e-008
v 0.4 0.6 -0.1
v 0.4 0.6 -0.2
v 0.4 0.6 -0.3
v 0.4 0.7 0.3
v 0.4 0.7 0.2
v 0.4 0.7 -0.3
v 0.6 0.4 0.1
v 0.6 0.4 -0.1
v 0.6 0.5 0.1
v 0.6 0.5 5.96046e-008
v 0.6 0.6 0.1
v 0.6 0.6 5.96046e-008
v 0.6 0.6 -0.1
v -0.2 0.3 0.6
v -0.2 0.4 0.6
v -0.2 0.5 0.6
v -0.1 0.4 0.6
v -0.1 0.5 0.6
v -5.96046e-008 0.1 0.6
v -5.96046e-008 0.3 0.6
v 0.1 0.2 0.6
v 0.1 0.3 0.6
v 0.1 0.4 0.6
v 0.1 0.5 0.6
v 0.2 0.1 0.6
v 0.2 0.2 0.6
v 0.2 0.3 0.6
v 0.2 0.4 0.6
v 0.2 0.5 0.6
v -5.96046e-008 0 0.5
v -5.96046e-008 0.1 0.5
v 0.1 0 0.5
v 0.1 0.1 0.5
v 0.2 0 0.5
v 0.2 0.1 0.5
v -0.3 0 0.4
v -0.3 0.1 0.4
v -0.3 0.2 0.4
v -0.3 0.6 0.4
v -0.3 0.7 0.4
v -0.2 0 0.4
v -0.2 0.1 0.4
v -0.2 0.2 0.4
v -0.2 0.3 0.4
v -0.2 0.4 0.4
v -0.2 0.5 0.4
v -0.2 0.6 0.4
v -0.2 0.7 0.4
v -0.1 0 0.4
v -0.1 0.1 0.4
v -0.1 0.5 0.4
v -5.96046e-008 0 0.4
v -5.96046e-008 0.1 0.4
v -5.96046e-008 0.3 0.4
v 0.1 0.6 0.4
v 0.1 0.7 0.4
v 0.2 0 0.4
v 0.2 0.5 0.4
v 0.2 0.6 0.4
v 0.2 0.7 0.4
v 0.3 0 0.4
v 0.3 0.7 0.4
v -0.4 0 0.3
v -0.4 0.1 0.3
v -0.4 0.2 0.3
v -0.4 0.6 0.3
v -0.4 0.7 0.3
v -0.3 0 0.3
v -0.3 0.1 0.3
v -0.3 0.2 0.3
v -0.3 0.6 0.3
v -0.3 0.7 0.3
v 0.3 0 0.3
v 0.3 0.6 0.3
v 0.3 0.7 0.3
v 0.4 0 0.3
v 0.4 0.6 0.3
v 0.4 0.7 0.3
v -0.2 0.7 0.2
v -0.2 0.8 0.2
v 0.2 0.7 0.2
v 0.2 0.8 0.2
v -0.6 0.4 0.1
v -0.6 0.6 0.1
v -0.4 0.4 0.1
v -0.4 0.6 0.1
v 0.4 0.4 0.1
v 0.4 0.5 0.1
v 0.4 0.6 0.1
v 0.6 0.4 0.1
v 0.6 0.5 0.1
v 0.6 0.6 0.1
v -0.6 0.4 -0.1
v -0.6 0.6 -0.1
v -0.5 0.4 -0.1
v -0.5 0.6 -0.1
v -0.4 0.4 -0.1
v -0.4 0.6 -0.1
v 0.4 0.4 -0.1
v 0.4 0.6 -0.1
v 0.6 0.4 -0.1
v 0.6 0.6 -0.1
v -0.2 0.7 -0.2
v -0.2 0.8 -0.2
v 0.2 0.7 -0.2
v 0.2 0.8 -0.2
v -0.4 0 -0.3
v -0.4 0.1 -0.3
v -0.4 0.2 -0.3
v -0.4 0.5 -0.3
v -0.4 0.6 -0.3
v -0.4 0.7 -0.3
v -0.3 0 -0.3
v -0.3 0.1 -0.3
v -0.3 0.2 -0.3
v -0.3 0.5 -0.3
v -0.3 0.6 -0.3
v -0.3 0.7 -0.3
v 0.3 0 -0.3
v 0.3 0.1 -0.3
v 0.3 0.2 -0.3
v 0.3 0.3 -0.3
v 0.3 0.5 -0.3
v 0.3 0.6 -0.3
v 0.3 0.7 -0.3
v 0.4 0 -0.3
v 0.4 0.1 -0.3
v 0.4 0.5 -0.3
v 0.4 0.6 -0.3
v 0.4 0.7 -0.3
v -0.3 0 -0.4
v -0.3 0.7 -0.4
v -0.2 0.2 -0.4
v -0.2 0.3 -0.4
v -0.2 0.5 -0.4
v -0.2 0.6 -0.4
v -0.1 0 -0.4
v -0.1 0.1 -0.4
v -0.1 0.2 -0.4
v -0.1 0.3 -0.4
v -0.1 0.4 -0.4
v -0.1 0.5 -0.4
v -0.1 0.6 -0.4
v -5.96046e-008 0 -0.4
v -5.96046e-008 0.1 -0.4
v -5.96046e-008 0.3 -0.4
v -5.96046e-008 0.4 -0.4
v -5.96046e-008 0.5 -0.4
v -5.96046e-008 0.7 -0.4
v 0.1 0.5 -0.4
v 0.1 0.7 -0.4
v 0.2 0 -0.4
v 0.2 0.1 -0.4
v 0.2 0.2 -0.4
v 0.2 0.3 -0.4
v 0.2 0.5 -0.4
v 0.2 0.6 -0.4
v 0.3 0 -0.4
v 0.3 0.1 -0.4
v 0.3 0.2 -0.4
v 0.3 0.3 -0.4
v 0.3 0.5 -0.4
v 0.3 0.6 -0.4
v 0.3 0.7 -0.4
v -5.96046e-008 0 0.5
v 0.1 0 0.5
v 0.2 0 0.5
v -0.3 0 0.4
v -0.2 0 0.4
v -0.1 0 0.4
v -5.96046e-008 0 0.4
v 0.1 0 0.4
v 0.2 0 0.4
v 0.3 0 0.4
v -0.4 0 0.3
v -0.3 0 0.3
v 0.3 0 0.3
v 0.4 0 0.3
v -0.2 0 0.2
v -0.1 0 0.2
v -5.96046e-008 0 0.2
v 0.1 0 0.2
v 0.3 0 0.2
v 0.4 0 0.2
v -5.96046e-008 0 0.1
v 0.1 0 0.1
v 0.3 0 0.1
v 0.4 0 0.1
v -0.4 0 5.96046e-008
v -0.3 0 5.96046e-008
v 0.1 0 5.96046e-008
v 0.3 0 5.96046e-008
v -0.4 0 -0.1
v -0.3 0 -0.1
v 0.1 0 -0.1
v 0.3 0 -0.1
v 0.3 0 -0.2
v 0.4 0 -0.2
v -0.4 0 -0.3
v -0.3 0 -0.3
v -0.1 0 -0.3
v -5.96046e-008 0 -0.3
v 0.2 0 -0.3
v 0.3 0 -0.3
v 0.4 0 -0.3
v -0.3 0 -0.4
v -0.1 0 -0.4
v -5.96046e-008 0 -0.4
v 0.2 0 -0.4
v 0.3 0 -0.4
v -5.96046e-008 0.1 0.6
v 0.2 0.1 0.6
v -5.96046e-008 0.1 0.5
v 0.1 0.1 0.5
v 0.2 0.1 0.5
v -0.2 0.3 0.6
v -5.96046e-008 0.3 0.6
v -0.2 0.3 0.4
v -5.96046e-008 0.3 0.4
v -0.6 0.4 0.1
v -0.4 0.4 0.1
v 0.4 0.4 0.1
v 0.6 0.4 0.1
v -0.6 0.4 5.96046e-008
v -0.5 0.4 5.96046e-008
v -0.6 0.4 -0.1
v -0.5 0.4 -0.1
v -0.4 0.4 -0.1
v 0.4 0.4 -0.1
v 0.6 0.4 -0.1
v -0.2 0.5 0.6
v -0.1 0.5 0.6
v 0.1 0.5 0.6
v 0.2 0.5 0.6
v 0.1 0.5 0.5
v 0.2 0.5 0.5
v -0.2 0.5 0.4
v -0.1 0.5 0.4
v 0.2 0.5 0.4
v -0.6 0.6 0.1
v -0.4 0.6 0.1
v 0.4 0.6 0.1
v 0.6 0.6 0.1
v -0.6 0.6 5.96046e-008
v -0.5 0.6 5.96046e-008
v 0.4 0.6 5.96046e-008
v 0.6 0.6 5.96046e-008
v -0.6 0.6 -0.1
v -0.5 0.6 -0.1
v -0.4 0.6 -0.1
v 0.4 0.6 -0.1
v 0.6 0.6 -0.1
v -0.3 0.7 0.4
v -0.2 0.7 0.4
v 0.1 0.7 0.4
v 0.2 0.7 0.4
v 0.3 0.7 0.4
v -0.4 0.7 0.3
v -0.3 0.7 0.3
v 0.1 0.7 0.3
v 0.2 0.7 0.3
v 0.3 0.7 0.3
v 0.4 0.7 0.3
v -0.4 0.7 0.2
v -0.2 0.7 0.2
v 0.2 0.7 0.2
v 0.3 0.7 0.2
v 0.4 0.7 0.2
v -0.3 0.7 0.1
v -0.2 0.7 0.1
v -0.3 0.7 5.96046e-008
v -0.2 0.7 5.96046e-008
v 0.2 0.7 5.96046e-008
v 0.3 0.7 5.96046e-008
v 0.2 0.7 -0.1
v 0.3 0.7 -0.1
v -0.2 0.7 -0.2
v 0.2 0.7 -0.2
v -0.4 0.7 -0.3
v -0.3 0.7 -0.3
v -5.96046e-008 0.7 -0.3
v 0.1 0.7 -0.3
v 0.3 0.7 -0.3
v 0.4 0.7 -0.3
v -0.3 0.7 -0.4
v -5.96046e-008 0.7 -0.4
v 0.1 0.7 -0.4
v 0.3 0.7 -0.4
v -0.2 0.8 0.2
v 0.2 0.8 0.2
v -0.1 0.8 0.1
v 0.1 0.8 0.1
v -0.1 0.8 -0.1
v 0.1 0.8 -0.1
v -0.2 0.8 -0.2
v 0.2 0.8 -0.2

# faces
f 4/3/1 2/3/1 1/3/1
f 5/2/1 3/2/1 2/2/1
f 5/3/1 2/3/1 4/3/1
f 6/2/1 3/2/1 5/2/1
f 11/3/1 8/3/1 7/3/1
f 12/3/1 8/3/1 11/3/1
f 13/2/1 9/2/1 8/2/1
f 13/3/1 8/3/1 12/3/1
f 14/3/1 10/3/1 9/3/1
f 14/2/1 9/2/1 13/2/1
f 15/3/1 10/3/1 14/3/1
f 16/3/1 10/3/1 15/3/1
f 17/2/1 12/2/1 11/2/1
f 18/3/1 13/3/1 12/3/1
f 18/2/1 12/2/1 17/2/1
f 18/3/1 14/3/1 13/3/1
f 18/3/1 15/3/1 14/3/1
f 19/2/1 16/2/1 15/2/1
f 19/3/1 15/3/1 18/3/1
f 20/2/1 16/2/1 19/2/1
f 21/3/1 18/3/1 17/3/1
f 21/3/1 19/3/1 18/3/1
f 21/3/1 20/3/1 19/3/1
f 22/3/1 20/3/1 21/3/1
f 23/3/1 21/3/1 17/3/1
f 23/2/1 22/2/1 21/2/1
f 24/3/1 20/3/1 22/3/1
f 24/2/1 22/2/1 23/2/1
f 25/3/1 20/3/1 24/3/1
f 26/3/1 20/3/1 25/3/1
f 27/3/1 20/3/1 26/3/1
f 28/3/1 23/3/1 17/3/1
f 28/3/1 24/3/1 23/3/1
f 29/3/1 24/3/1 28/3/1
f 30/3/1 24/3/1 29/3/1
f 31/3/1 26/3/1 25/3/1
f 32/2/1 27/2/1 26/2/1
f 32/3/1 26/3/1 31/3/1
f 33/2/1 27/2/1 32/2/1
f 34/2/1 29/2/1 28/2/1
f 35/3/1 31/3/1 30/3/1
f 35/2/1 29/2/1 34/2/1
f 35/3/1 30/3/1 29/3/1
f 35/3/1 33/3/1 32/3/1
f 35/3/1 32/3/1 31/3/1
f 36/3/1 33/3/1 35/3/1
f 41/3/1 38/3/1 37/3/1
f 42/3/1 38/3/1 41/3/1
f 43/3/1 40/3/1 39/3/1
f 44/2/1 42/2/1 41/2/1
f 45/2/1 42/2/1 44/2/1
f 46/3/1 40/3/1 43/3/1
f 47/3/1 40/3/1 46/3/1
f 48/3/1 45/3/1 44/3/1
f 49/3/1 45/3/1 48/3/1
f 50/3/1 40/3/1 47/3/1
f 51/2/1 49/2/1 48/2/1
f 52/2/1 49/2/1 51/2/1
f 53/3/1 40/3/1 50/3/1
f 54/3/1 40/3/1 53/3/1
f 57/3/1 56/3/1 55/3/1
f 58/3/1 56/3/1 57/3/1
f 59/2/1 58/2/1 57/2/1
f 60/2/1 58/2/1 59/2/1
f 65/3/1 62/3/1 61/3/1
f 65/3/1 64/3/1 63/3/1
f 65/3/1 63/3/1 62/3/1
f 66/3/1 64/3/1 65/3/1
f 70/2/1 68/2/1 67/2/1
f 71/2/1 68/2/1 70/2/1
f 72/3/1 70/3/1 69/3/1
f 72/3/1 71/3/1 70/3/1
f 73/3/1 71/3/1 72/3/1
f 74/3/2 75/3/2 77/3/2
f 76/3/2 77/3/2 78/3/2
f 77/3/2 75/3/2 79/3/2
f 78/3/2 77/3/2 79/3/2
f 78/2/2 79/2/2 80/2/2
f 79/3/2 75/3/2 81/3/2
f 80/2/2 79/2/2 81/2/2
f 80/3/2 81/3/2 82/3/2
f 81/3/2 75/3/2 83/3/2
f 82/3/2 81/3/2 83/3/2
f 82/2/2 83/2/2 84/2/2
f 83/3/2 75/3/2 85/3/2
f 84/2/2 83/2/2 85/2/2
f 85/3/2 75/3/2 86/3/2
f 87/3/2 88/3/2 91/3/2
f 89/3/2 90/3/2 91/3/2
f 88/3/2 89/3/2 91/3/2
f 91/3/2 90/3/2 92/3/2
f 95/2/2 96/2/2 97/2/2
f 97/2/2 96/2/2 98/2/2
f 97/3/2 98/3/2 99/3/2
f 99/3/2 98/3/2 100/3/2
f 99/2/2 100/2/2 101/2/2
f 101/2/2 100/2/2 102/2/2
f 101/3/2 102/3/2 103/3/2
f 103/3/2 102/3/2 104/3/2
f 93/3/2 94/3/2 105/3/2
f 103/2/2 104/2/2 106/2/2
f 106/2/2 104/2/2 107/2/2
f 93/3/2 105/3/2 108/3/2
f 108/3/2 105/3/2 109/3/2
f 106/3/2 107/3/2 110/3/2
f 110/3/2 107/3/2 111/3/2
f 112/3/2 113/3/2 117/3/2
f 113/2/2 114/2/2 117/2/2
f 114/3/2 115/3/2 118/3/2
f 117/2/2 114/2/2 118/2/2
f 115/2/2 116/2/2 119/2/2
f 118/3/2 115/3/2 119/3/2
f 119/2/2 116/2/2 120/2/2
f 117/3/2 118/3/2 121/3/2
f 112/3/2 117/3/2 121/3/2
f 119/3/2 120/3/2 121/3/2
f 118/3/2 119/3/2 121/3/2
f 121/3/2 120/3/2 122/3/2
f 112/3/2 121/3/2 123/3/2
f 121/2/2 122/2/2 123/2/2
f 122/3/2 120/3/2 124/3/2
f 123/2/2 122/2/2 124/2/2
f 123/3/2 124/3/2 125/3/2
f 124/3/2 120/3/2 125/3/2
f 125/3/2 120/3/2 126/3/2
f 123/3/2 125/3/2 127/3/2
f 126/3/2 120/3/2 128/3/2
f 128/3/2 120/3/2 129/3/2
f 112/3/2 123/3/2 130/3/2
f 123/3/2 127/3/2 130/3/2
f 130/3/2 127/3/2 131/3/2
f 131/3/2 127/3/2 132/3/2
f 126/3/2 128/3/2 134/3/2
f 128/2/2 129/2/2 135/2/2
f 134/3/2 128/3/2 135/3/2
f 135/2/2 129/2/2 136/2/2
f 130/2/2 131/2/2 137/2/2
f 133/3/2 134/3/2 138/3/2
f 137/2/2 131/2/2 138/2/2
f 132/3/2 133/3/2 138/3/2
f 135/3/2 136/3/2 138/3/2
f 134/3/2 135/3/2 138/3/2
f 131/3/2 132/3/2 138/3/2
f 138/3/2 136/3/2 139/3/2
f 140/3/2 141/3/2 142/3/2
f 142/3/2 141/3/2 143/3/2
f 142/2/2 143/2/2 144/2/2
f 143/3/2 141/3/2 145/3/2
f 144/2/2 143/2/2 145/2/2
f 145/3/2 141/3/2 146/3/2
f 150/3/3 148/3/3 147/3/3
f 150/2/3 149/2/3 148/2/3
f 151/2/3 149/2/3 150/2/3
f 153/3/3 150/3/3 147/3/3
f 153/3/3 151/3/3 150/3/3
f 154/3/3 153/3/3 152/3/3
f 155/3/3 151/3/3 153/3/3
f 155/3/3 153/3/3 154/3/3
f 156/3/3 151/3/3 155/3/3
f 157/3/3 151/3/3 156/3/3
f 158/3/3 154/3/3 152/3/3
f 159/2/3 155/2/3 154/2/3
f 159/3/3 154/3/3 158/3/3
f 160/3/3 156/3/3 155/3/3
f 160/2/3 155/2/3 159/2/3
f 161/2/3 157/2/3 156/2/3
f 161/3/3 156/3/3 160/3/3
f 162/2/3 157/2/3 161/2/3
f 165/2/3 164/2/3 163/2/3
f 166/2/3 164/2/3 165/2/3
f 167/3/3 166/3/3 165/3/3
f 168/3/3 166/3/3 167/3/3
f 174/3/3 170/3/3 169/3/3
f 175/2/3 171/2/3 170/2/3
f 175/3/3 170/3/3 174/3/3
f 176/3/3 172/3/3 171/3/3
f 176/2/3 171/2/3 175/2/3
f 177/3/3 172/3/3 176/3/3
f 178/3/3 172/3/3 177/3/3
f 179/3/3 172/3/3 178/3/3
f 180/2/3 173/2/3 172/2/3
f 180/3/3 172/3/3 179/3/3
f 181/2/3 173/2/3 180/2/3
f 182/2/3 175/2/3 174/2/3
f 183/3/3 176/3/3 175/3/3
f 183/2/3 175/2/3 182/2/3
f 183/3/3 177/3/3 176/3/3
f 184/3/3 181/3/3 180/3/3
f 184/3/3 180/3/3 179/3/3
f 185/3/3 183/3/3 182/3/3
f 186/3/3 177/3/3 183/3/3
f 186/3/3 183/3/3 185/3/3
f 187/3/3 177/3/3 186/3/3
f 188/3/3 181/3/3 184/3/3
f 189/3/3 181/3/3 188/3/3
f 191/3/3 188/3/3 184/3/3
f 192/2/3 189/2/3 188/2/3
f 192/3/3 188/3/3 191/3/3
f 193/2/3 189/2/3 192/2/3
f 194/3/3 191/3/3 190/3/3
f 194/3/3 192/3/3 191/3/3
f 194/3/3 193/3/3 192/3/3
f 195/3/3 193/3/3 194/3/3
f 201/3/3 197/3/3 196/3/3
f 202/2/3 198/2/3 197/2/3
f 202/3/3 197/3/3 201/3/3
f 203/3/3 199/3/3 198/3/3
f 203/2/3 198/2/3 202/2/3
f 204/2/3 200/2/3 199/2/3
f 204/3/3 199/3/3 203/3/3
f 205/2/3 200/2/3 204/2/3
f 209/3/3 207/3/3 206/3/3
f 210/2/3 208/2/3 207/2/3
f 210/3/3 207/3/3 209/3/3
f 211/2/3 208/2/3 210/2/3
f 214/3/3 213/3/3 212/3/3
f 215/3/3 213/3/3 214/3/3
f 218/3/3 217/3/3 216/3/3
f 219/3/3 217/3/3 218/3/3
f 223/3/3 221/3/3 220/3/3
f 224/2/3 222/2/3 221/2/3
f 224/3/3 221/3/3 223/3/3
f 225/2/3 222/2/3 224/2/3
f 226/2/4 227/2/4 228/2/4
f 228/2/4 227/2/4 229/2/4
f 228/3/4 229/3/4 230/3/4
f 230/3/4 229/3/4 231/3/4
f 232/3/4 233/3/4 234/3/4
f 234/3/4 233/3/4 235/3/4
f 236/3/4 237/3/4 238/3/4
f 238/3/4 237/3/4 239/3/4
f 240/3/4 241/3/4 246/3/4
f 241/2/4 242/2/4 247/2/4
f 246/3/4 241/3/4 247/3/4
f 242/3/4 243/3/4 248/3/4
f 247/2/4 242/2/4 248/2/4
f 243/2/4 244/2/4 249/2/4
f 248/3/4 243/3/4 249/3/4
f 244/3/4 245/3/4 250/3/4
f 249/2/4 244/2/4 250/2/4
f 250/3/4 245/3/4 251/3/4
f 252/2/4 253/2/4 259/2/4
f 253/3/4 254/3/4 260/3/4
f 259/2/4 253/2/4 260/2/4
f 254/3/4 255/3/4 260/3/4
f 255/3/4 256/3/4 260/3/4
f 256/2/4 257/2/4 261/2/4
f 260/3/4 256/3/4 261/3/4
f 257/3/4 258/3/4 262/3/4
f 261/2/4 257/2/4 262/2/4
f 262/3/4 258/3/4 263/3/4
f 264/3/4 265/3/4 266/3/4
f 266/3/4 265/3/4 267/3/4
f 267/3/4 265/3/4 268/3/4
f 268/3/4 265/3/4 269/3/4
f 264/3/4 266/3/4 270/3/4
f 270/3/4 266/3/4 271/3/4
f 266/2/4 267/2/4 272/2/4
f 271/3/4 266/3/4 272/3/4
f 267/3/4 268/3/4 273/3/4
f 272/2/4 267/2/4 273/2/4
f 273/3/4 268/3/4 274/3/4
f 268/2/4 269/2/4 275/2/4
f 274/3/4 268/3/4 275/3/4
f 269/3/4 265/3/4 276/3/4
f 275/2/4 269/2/4 276/2/4
f 270/2/4 271/2/4 277/2/4
f 271/3/4 272/3/4 278/3/4
f 277/2/4 271/2/4 278/2/4
f 272/3/4 273/3/4 278/3/4
f 273/2/4 274/2/4 279/2/4
f 278/3/4 273/3/4 279/3/4
f 274/3/4 275/3/4 280/3/4
f 279/2/4 274/2/4 280/2/4
f 275/3/4 276/3/4 280/3/4
f 280/3/4 276/3/4 281/3/4
f 276/3/4 265/3/4 282/3/4
f 281/3/4 276/3/4 282/3/4
f 278/3/4 279/3/4 283/3/4
f 280/3/4 281/3/4 283/3/4
f 281/2/4 282/2/4 283/2/4
f 279/3/4 280/3/4 283/3/4
f 277/3/4 278/3/4 283/3/4
f 283/2/4 282/2/4 284/2/4
f 277/3/4 283/3/4 285/3/4
f 283/3/4 284/3/4 285/3/4
f 285/3/4 284/3/4 286/3/4
f 286/3/4 284/3/4 287/3/4
f 287/3/4 284/3/4 288/3/4
f 288/3/4 284/3/4 289/3/4
f 289/3/4 284/3/4 290/3/4
f 285/2/4 286/2/4 291/2/4
f 286/3/4 287/3/4 292/3/4
f 291/2/4 286/2/4 292/2/4
f 287/2/4 288/2/4 293/2/4
f 292/3/4 287/3/4 293/3/4
f 288/3/4 289/3/4 294/3/4
f 293/2/4 288/2/4 294/2/4
f 289/2/4 290/2/4 295/2/4
f 294/3/4 289/3/4 295/3/4
f 290/3/4 284/3/4 296/3/4
f 295/2/4 290/2/4 296/2/4
f 296/3/4 284/3/4 297/3/4
f 304/2/5 299/2/5 298/2/5
f 305/3/5 300/3/5 299/3/5
f 305/2/5 299/2/5 304/2/5
f 306/3/5 300/3/5 305/3/5
f 309/3/5 302/3/5 301/3/5
f 310/3/5 304/3/5 303/3/5
f 310/3/5 307/3/5 306/3/5
f 310/3/5 305/3/5 304/3/5
f 310/3/5 306/3/5 305/3/5
f 312/2/5 303/2/5 302/2/5
f 312/3/5 309/3/5 308/3/5
f 312/3/5 302/3/5 309/3/5
f 313/3/5 311/3/5 310/3/5
f 313/2/5 303/2/5 312/2/5
f 313/3/5 310/3/5 303/3/5
f 314/3/5 311/3/5 313/3/5
f 315/3/5 311/3/5 314/3/5
f 316/3/5 311/3/5 315/3/5
f 317/3/5 311/3/5 316/3/5
f 318/3/5 313/3/5 312/3/5
f 318/3/5 314/3/5 313/3/5
f 318/2/5 315/2/5 314/2/5
f 319/3/5 316/3/5 315/3/5
f 319/2/5 315/2/5 318/2/5
f 320/2/5 317/2/5 316/2/5
f 320/3/5 316/3/5 319/3/5
f 321/2/5 317/2/5 320/2/5
f 322/3/5 312/3/5 308/3/5
f 322/3/5 319/3/5 318/3/5
f 322/3/5 321/3/5 320/3/5
f 322/3/5 320/3/5 319/3/5
f 322/3/5 318/3/5 312/3/5
f 323/3/5 321/3/5 322/3/5
f 324/3/5 321/3/5 323/3/5
f 325/3/5 321/3/5 324/3/5
f 326/2/5 323/2/5 322/2/5
f 327/3/5 324/3/5 323/3/5
f 327/2/5 323/2/5 326/2/5
f 328/2/5 325/2/5 324/2/5
f 328/3/5 324/3/5 327/3/5
f 329/3/5 321/3/5 325/3/5
f 329/2/5 325/2/5 328/2/5
f 330/3/5 328/3/5 327/3/5
f 330/3/5 321/3/5 329/3/5
f 330/3/5 329/3/5 328/3/5
f 330/3/5 327/3/5 326/3/5
f 331/3/5 321/3/5 330/3/5
f 332/3/5 330/3/5 326/3/5
f 333/3/5 330/3/5 332/3/5
f 334/3/5 330/3/5 333/3/5
f 335/3/5 330/3/5 334/3/5
f 336/3/5 330/3/5 335/3/5
f 337/2/5 331/2/5 330/2/5
f 337/3/5 330/3/5 336/3/5
f 338/2/5 331/2/5 337/2/5
f 339/3/5 334/3/5 333/3/5
f 340/2/5 335/2/5 334/2/5
f 340/3/5 334/3/5 339/3/5
f 341/3/5 336/3/5 335/3/5
f 341/2/5 335/2/5 340/2/5
f 342/2/5 337/2/5 336/2/5
f 342/3/5 336/3/5 341/3/5
f 343/2/5 337/2/5 342/2/5
f 346/3/5 345/3/5 344/3/5
f 347/3/5 345/3/5 346/3/5
f 348/3/5 345/3/5 347/3/5
f 351/3/5 350/3/5 349/3/5
f 352/3/5 350/3/5 351/3/5
f 357/3/5 354/3/5 353/3/5
f 358/3/5 354/3/5 357/3/5
f 359/2/5 358/2/5 357/2/5
f 360/3/5 354/3/5 358/3/5
f 360/2/5 358/2/5 359/2/5
f 361/3/5 354/3/5 360/3/5
f 362/3/5 356/3/5 355/3/5
f 363/3/5 356/3/5 362/3/5
f 365/3/6 366/3/6 368/3/6
f 366/2/6 367/2/6 368/2/6
f 368/2/6 367/2/6 369/2/6
f 364/2/6 365/2/6 370/2/6
f 365/3/6 368/3/6 371/3/6
f 370/2/6 365/2/6 371/2/6
f 368/3/6 369/3/6 371/3/6
f 371/3/6 369/3/6 372/3/6
f 373/3/6 374/3/6 377/3/6
f 377/3/6 374/3/6 378/3/6
f 375/2/6 376/2/6 379/2/6
f 379/2/6 376/2/6 380/2/6
f 377/2/6 378/2/6 381/2/6
f 378/3/6 374/3/6 382/3/6
f 381/2/6 378/2/6 382/2/6
f 382/3/6 374/3/6 383/3/6
f 379/3/6 380/3/6 384/3/6
f 384/3/6 380/3/6 385/3/6
f 386/2/6 387/2/6 392/2/6
f 387/3/6 388/3/6 393/3/6
f 388/2/6 389/2/6 393/2/6
f 389/3/6 390/3/6 394/3/6
f 393/2/6 389/2/6 394/2/6
f 394/3/6 390/3/6 395/3/6
f 391/2/6 392/2/6 397/2/6
f 387/3/6 393/3/6 398/3/6
f 397/2/6 392/2/6 398/2/6
f 392/2/6 387/2/6 398/2/6
f 394/3/6 395/3/6 398/3/6
f 393/3/6 394/3/6 398/3/6
f 398/3/6 395/3/6 399/3/6
f 395/2/6 396/2/6 400/2/6
f 399/3/6 395/3/6 400/3/6
f 400/2/6 396/2/6 401/2/6
f 397/3/6 398/3/6 402/3/6
f 402/3/6 398/3/6 403/3/6
f 397/3/6 402/3/6 404/3/6
f 402/2/6 403/2/6 404/2/6
f 404/2/6 403/2/6 405/2/6
f 400/3/6 401/3/6 406/3/6
f 399/3/6 400/3/6 406/3/6
f 406/3/6 401/3/6 407/3/6
f 406/2/6 407/2/6 408/2/6
f 407/3/6 401/3/6 409/3/6
f 408/2/6 407/2/6 409/2/6
f 404/3/6 405/3/6 410/3/6
f 408/3/6 409/3/6 411/3/6
f 397/3/6 404/3/6 412/3/6
f 410/3/6 411/3/6 412/3/6
f 404/3/6 410/3/6 412/3/6
f 412/3/6 411/3/6 413/3/6
f 413/3/6 411/3/6 414/3/6
f 414/3/6 411/3/6 415/3/6
f 409/3/6 401/3/6 416/3/6
f 415/3/6 411/3/6 416/3/6
f 411/3/6 409/3/6 416/3/6
f 416/3/6 401/3/6 417/3/6
f 413/3/6 414/3/6 418/3/6
f 414/2/6 415/2/6 419/2/6
f 418/3/6 414/3/6 419/3/6
f 415/3/6 416/3/6 420/3/6
f 419/2/6 415/2/6 420/2/6
f 420/3/6 416/3/6 421/3/6
f 422/3/6 423/3/6 424/3/6
f 424/3/6 423/3/6 425/3/6
f 422/3/6 424/3/6 426/3/6
f 424/2/6 425/2/6 426/2/6
f 425/3/6 423/3/6 427/3/6
f 426/2/6 425/2/6 427/2/6
f 422/3/6 426/3/6 428/3/6
f 426/3/6 427/3/6 428/3/6
f 427/3/6 423/3/6 429/3/6
f 428/3/6 427/3/6 429/3/6
