# MagicaVoxel @ Ephtracy

# group
o 

# material
mtllib Hair4.mtl
usemtl palette

# normals
vn -1 0 0
vn 1 0 0
vn 0 0 1
vn 0 0 -1
vn 0 -1 0
vn 0 1 0

# texcoords
vt 0.474609 0.5
vt 0.478516 0.5

# verts
v -0.4 -0.1 0.4
v -0.4 -0.1 0.3
v -0.4 -0.1 -0.1
v -0.4 -0.1 -0.2
v -0.4 -0.1 -0.5
v -0.4 0 0.4
v -0.4 0 0.3
v -0.4 0 0
v -0.4 0 -0.1
v -0.4 0.1 0.3
v -0.4 0.1 0
v -0.4 0.1 -0.2
v -0.4 0.1 -0.5
v -0.3 0 0.4
v -0.3 0 0.3
v -0.3 0.1 0.4
v -0.3 0.1 0.3
v -0.3 0.1 0
v -0.3 0.1 -0.2
v -0.3 0.1 -0.4
v -0.3 0.2 0.3
v -0.3 0.2 -0.4
v -0.2 0 0.5
v -0.2 0 0.4
v -0.2 0.1 0.7
v -0.2 0.1 0.6
v -0.2 0.1 0.5
v -0.2 0.1 0.4
v -0.2 0.1 0.3
v -0.2 0.2 0.6
v -0.2 0.2 0.5
v -0.2 0.2 0.4
v -0.2 0.2 0.3
v -0.2 0.3 0.7
v -0.2 0.3 0.5
v -0.1 -0.1 0.5
v -0.1 -0.1 0.4
v -0.1 0 0.7
v -0.1 0 0.5
v -0.1 0 0.4
v -0.1 0.1 0.8
v -0.1 0.1 0.7
v -0.1 0.1 0.6
v -0.1 0.1 0.5
v -0.1 0.1 0.4
v -0.1 0.2 0.5
v -0.1 0.2 0.4
v -0.1 0.3 0.8
v -0.1 0.3 0.7
v -0.1 0.3 0.5
v -0.1 0.3 0.4
v -0.1 0.4 0.7
v -0.1 0.4 0.5
v 0.1 -0.1 0.4
v 0.1 -0.1 0.3
v 0.1 0 0.4
v 0.1 0 0.3
v 0.3 -0.1 0.3
v 0.3 -0.1 -0.1
v 0.3 -0.1 -0.2
v 0.3 -0.1 -0.5
v 0.3 0 0.3
v 0.3 0 0.2
v 0.3 0 -0.1
v 0.3 0 -0.2
v 0.3 0 -0.5
v -0.3 -0.1 0.3
v -0.3 -0.1 -0.1
v -0.3 -0.1 -0.2
v -0.3 -0.1 -0.5
v -0.3 0 0.3
v -0.3 0 -0.1
v -0.3 0 -0.2
v -0.3 0 -0.5
v -0.1 -0.1 0.4
v -0.1 -0.1 0.3
v -0.1 0 0.4
v -0.1 0 0.3
v 0.1 -0.1 0.5
v 0.1 -0.1 0.4
v 0.1 0 0.7
v 0.1 0 0.5
v 0.1 0 0.4
v 0.1 0.1 0.8
v 0.1 0.1 0.7
v 0.1 0.1 0.5
v 0.1 0.1 0.4
v 0.1 0.2 0.7
v 0.1 0.2 0.4
v 0.1 0.3 0.8
v 0.1 0.3 0.7
v 0.1 0.3 0.6
v 0.1 0.3 0.5
v 0.1 0.3 0.4
v 0.1 0.4 0.7
v 0.1 0.4 0.6
v 0.1 0.4 0.5
v 0.2 0 0.5
v 0.2 0 0.4
v 0.2 0.1 0.7
v 0.2 0.1 0.5
v 0.2 0.1 0.4
v 0.2 0.1 0.3
v 0.2 0.2 0.7
v 0.2 0.2 0.6
v 0.2 0.2 0.4
v 0.2 0.2 0.3
v 0.2 0.3 0.7
v 0.2 0.3 0.6
v 0.2 0.3 0.5
v 0.3 0 0.4
v 0.3 0 0.3
v 0.3 0.1 0.4
v 0.3 0.1 0.3
v 0.3 0.1 0.2
v 0.3 0.1 0
v 0.3 0.1 -0.1
v 0.3 0.1 -0.4
v 0.3 0.2 0.3
v 0.3 0.2 0.2
v 0.3 0.2 0
v 0.3 0.2 -0.4
v 0.4 -0.1 0.4
v 0.4 -0.1 0.3
v 0.4 -0.1 -0.1
v 0.4 -0.1 -0.2
v 0.4 -0.1 -0.5
v 0.4 0 0.4
v 0.4 0 0.3
v 0.4 0 0
v 0.4 0 -0.1
v 0.4 0 -0.2
v 0.4 0 -0.4
v 0.4 0 -0.5
v 0.4 0.1 0.3
v 0.4 0.1 0
v 0.4 0.1 -0.1
v 0.4 0.1 -0.4
v 0.4 0.1 -0.5
v -0.1 0.1 0.8
v -0.1 0.3 0.8
v 0.1 0.1 0.8
v 0.1 0.3 0.8
v -0.2 0.1 0.7
v -0.2 0.3 0.7
v -0.1 0 0.7
v -0.1 0.1 0.7
v -0.1 0.3 0.7
v -0.1 0.4 0.7
v 0 0.3 0.7
v 0 0.4 0.7
v 0.1 0 0.7
v 0.1 0.1 0.7
v 0.1 0.2 0.7
v 0.1 0.3 0.7
v 0.1 0.4 0.7
v 0.2 0.1 0.7
v 0.2 0.2 0.7
v 0.2 0.3 0.7
v -0.2 0 0.5
v -0.2 0.1 0.5
v -0.1 -0.1 0.5
v -0.1 0 0.5
v -0.1 0.1 0.5
v 0.1 -0.1 0.5
v 0.1 0 0.5
v 0.1 0.1 0.5
v 0.2 0 0.5
v 0.2 0.1 0.5
v -0.4 -0.1 0.4
v -0.4 0 0.4
v -0.3 -0.1 0.4
v -0.3 0 0.4
v -0.3 0.1 0.4
v -0.2 0 0.4
v -0.2 0.1 0.4
v -0.2 0.2 0.4
v -0.1 -0.1 0.4
v -0.1 0 0.4
v -0.1 0.1 0.4
v -0.1 0.2 0.4
v 0.1 -0.1 0.4
v 0.1 0 0.4
v 0.1 0.1 0.4
v 0.1 0.2 0.4
v 0.2 0 0.4
v 0.2 0.1 0.4
v 0.2 0.2 0.4
v 0.3 -0.1 0.4
v 0.3 0 0.4
v 0.3 0.1 0.4
v 0.4 -0.1 0.4
v 0.4 0 0.4
v -0.4 0 0.3
v -0.4 0.1 0.3
v -0.3 0 0.3
v -0.3 0.1 0.3
v -0.3 0.2 0.3
v -0.2 0.1 0.3
v -0.2 0.2 0.3
v 0.2 0.1 0.3
v 0.2 0.2 0.3
v 0.3 0 0.3
v 0.3 0.1 0.3
v 0.3 0.2 0.3
v 0.4 0 0.3
v 0.4 0.1 0.3
v -0.2 0.1 0.5
v -0.2 0.2 0.5
v -0.2 0.3 0.5
v -0.1 0.1 0.5
v -0.1 0.2 0.5
v -0.1 0.3 0.5
v -0.1 0.4 0.5
v 0 0.3 0.5
v 0.1 0.1 0.5
v 0.1 0.3 0.5
v 0.1 0.4 0.5
v 0.2 0.1 0.5
v 0.2 0.3 0.5
v -0.1 -0.1 0.4
v -0.1 0 0.4
v -0.1 0.2 0.4
v -0.1 0.3 0.4
v 0 0.2 0.4
v 0 0.3 0.4
v 0.1 -0.1 0.4
v 0.1 0 0.4
v 0.1 0.2 0.4
v 0.1 0.3 0.4
v -0.3 -0.1 0.3
v -0.3 0 0.3
v -0.1 -0.1 0.3
v -0.1 0 0.3
v 0.1 -0.1 0.3
v 0.1 0 0.3
v 0.2 0 0.3
v 0.3 -0.1 0.3
v 0.3 0 0.3
v -0.3 0.1 -0.4
v -0.3 0.2 -0.4
v -0.2 0.1 -0.4
v -0.2 0.2 -0.4
v -0.1 0.1 -0.4
v -0.1 0.2 -0.4
v 0.1 0.1 -0.4
v 0.2 0.1 -0.4
v 0.3 0.1 -0.4
v 0.3 0.2 -0.4
v -0.4 -0.1 -0.5
v -0.4 0.1 -0.5
v -0.3 -0.1 -0.5
v -0.3 0 -0.5
v -0.2 0 -0.5
v -0.2 0.1 -0.5
v -0.1 0 -0.5
v -0.1 0.1 -0.5
v 0.1 0 -0.5
v 0.1 0.1 -0.5
v 0.2 0 -0.5
v 0.2 0.1 -0.5
v 0.3 -0.1 -0.5
v 0.3 0 -0.5
v 0.3 0.1 -0.5
v 0.4 -0.1 -0.5
v 0.4 0 -0.5
v 0.4 0.1 -0.5
v -0.1 -0.1 0.5
v 0.1 -0.1 0.5
v -0.4 -0.1 0.4
v -0.3 -0.1 0.4
v -0.1 -0.1 0.4
v 0.1 -0.1 0.4
v 0.3 -0.1 0.4
v 0.4 -0.1 0.4
v -0.4 -0.1 0.3
v -0.3 -0.1 0.3
v -0.1 -0.1 0.3
v 0.1 -0.1 0.3
v 0.3 -0.1 0.3
v 0.4 -0.1 0.3
v -0.4 -0.1 -0.1
v -0.3 -0.1 -0.1
v 0.3 -0.1 -0.1
v 0.4 -0.1 -0.1
v -0.4 -0.1 -0.2
v -0.3 -0.1 -0.2
v 0.3 -0.1 -0.2
v 0.4 -0.1 -0.2
v -0.4 -0.1 -0.5
v -0.3 -0.1 -0.5
v 0.3 -0.1 -0.5
v 0.4 -0.1 -0.5
v -0.1 0 0.7
v 0.1 0 0.7
v -0.2 0 0.5
v -0.1 0 0.5
v 0.1 0 0.5
v 0.2 0 0.5
v -0.2 0 0.4
v -0.1 0 0.4
v 0.1 0 0.4
v 0.2 0 0.4
v -0.3 0 0.3
v -0.1 0 0.3
v 0 0 0.3
v 0.1 0 0.3
v 0.2 0 0.3
v 0.3 0 0.3
v -0.2 0 0.2
v -0.1 0 0.2
v 0 0 0.2
v 0.1 0 0.2
v 0.2 0 0.2
v 0.3 0 0.2
v -0.2 0 0.1
v -0.1 0 0.1
v 0.1 0 0
v 0.2 0 0
v -0.3 0 -0.1
v 0.1 0 -0.1
v 0.2 0 -0.1
v 0.3 0 -0.1
v -0.3 0 -0.2
v -0.2 0 -0.2
v -0.1 0 -0.2
v 0.3 0 -0.2
v 0.1 0 -0.3
v 0.2 0 -0.3
v -0.3 0 -0.5
v -0.2 0 -0.5
v -0.1 0 -0.5
v 0.1 0 -0.5
v 0.2 0 -0.5
v 0.3 0 -0.5
v -0.1 0.1 0.8
v 0.1 0.1 0.8
v -0.2 0.1 0.7
v -0.1 0.1 0.7
v 0.1 0.1 0.7
v 0.2 0.1 0.7
v -0.2 0.1 0.6
v -0.1 0.1 0.6
v -0.2 0.1 0.5
v -0.1 0.1 0.5
v 0.1 0.1 0.5
v 0.2 0.1 0.5
v -0.4 0 0.4
v -0.3 0 0.4
v 0.3 0 0.4
v 0.4 0 0.4
v -0.4 0 0.3
v -0.3 0 0.3
v 0.3 0 0.3
v 0.4 0 0.3
v -0.2 0.1 0.5
v -0.1 0.1 0.5
v 0.1 0.1 0.5
v 0.2 0.1 0.5
v -0.3 0.1 0.4
v -0.2 0.1 0.4
v -0.1 0.1 0.4
v 0.1 0.1 0.4
v 0.2 0.1 0.4
v 0.3 0.1 0.4
v -0.4 0.1 0.3
v -0.3 0.1 0.3
v -0.2 0.1 0.3
v 0.2 0.1 0.3
v 0.3 0.1 0.3
v 0.4 0.1 0.3
v 0.3 0.1 0.2
v -0.4 0.1 0
v -0.3 0.1 0
v 0.3 0.1 0
v 0.4 0.1 0
v 0.3 0.1 -0.1
v 0.4 0.1 -0.1
v -0.4 0.1 -0.2
v -0.3 0.1 -0.2
v -0.3 0.1 -0.4
v -0.2 0.1 -0.4
v -0.1 0.1 -0.4
v 0.1 0.1 -0.4
v 0.2 0.1 -0.4
v 0.3 0.1 -0.4
v 0.4 0.1 -0.4
v -0.4 0.1 -0.5
v -0.2 0.1 -0.5
v -0.1 0.1 -0.5
v 0.1 0.1 -0.5
v 0.2 0.1 -0.5
v 0.3 0.1 -0.5
v 0.4 0.1 -0.5
v -0.2 0.2 0.4
v -0.1 0.2 0.4
v 0 0.2 0.4
v 0.1 0.2 0.4
v 0.2 0.2 0.4
v -0.3 0.2 0.3
v -0.2 0.2 0.3
v 0.2 0.2 0.3
v 0.3 0.2 0.3
v -0.2 0.2 0.2
v -0.1 0.2 0.2
v 0.1 0.2 0.2
v 0.3 0.2 0.2
v -0.2 0.2 0.1
v -0.1 0.2 0.1
v 0.1 0.2 0
v 0.3 0.2 0
v 0 0.2 -0.1
v 0.1 0.2 -0.1
v -0.2 0.2 -0.2
v -0.1 0.2 -0.2
v 0 0.2 -0.2
v 0.1 0.2 -0.2
v -0.3 0.2 -0.4
v -0.2 0.2 -0.4
v -0.1 0.2 -0.4
v 0.3 0.2 -0.4
v -0.1 0.3 0.8
v 0.1 0.3 0.8
v -0.2 0.3 0.7
v -0.1 0.3 0.7
v 0 0.3 0.7
v 0.1 0.3 0.7
v 0.2 0.3 0.7
v 0.1 0.3 0.6
v 0.2 0.3 0.6
v -0.2 0.3 0.5
v -0.1 0.3 0.5
v 0 0.3 0.5
v 0.1 0.3 0.5
v 0.2 0.3 0.5
v -0.1 0.3 0.4
v 0 0.3 0.4
v 0.1 0.3 0.4
v -0.1 0.4 0.7
v 0 0.4 0.7
v 0.1 0.4 0.7
v 0 0.4 0.6
v 0.1 0.4 0.6
v -0.1 0.4 0.5
v 0.1 0.4 0.5

# faces
f 6/2/1 2/2/1 1/2/1
f 7/1/1 3/1/1 2/1/1
f 7/2/1 2/2/1 6/2/1
f 8/1/1 3/1/1 7/1/1
f 9/2/1 4/2/1 3/2/1
f 9/1/1 3/1/1 8/1/1
f 10/1/1 8/1/1 7/1/1
f 11/2/1 9/2/1 8/2/1
f 11/1/1 8/1/1 10/1/1
f 12/1/1 5/1/1 4/1/1
f 12/2/1 9/2/1 11/2/1
f 12/2/1 4/2/1 9/2/1
f 13/1/1 5/1/1 12/1/1
f 16/1/1 15/1/1 14/1/1
f 17/1/1 15/1/1 16/1/1
f 21/1/1 20/1/1 19/1/1
f 21/1/1 19/1/1 18/1/1
f 21/1/1 18/1/1 17/1/1
f 22/1/1 20/1/1 21/1/1
f 27/1/1 24/1/1 23/1/1
f 28/1/1 24/1/1 27/1/1
f 30/1/1 26/1/1 25/1/1
f 30/2/1 27/2/1 26/2/1
f 31/2/1 27/2/1 30/2/1
f 32/1/1 29/1/1 28/1/1
f 33/1/1 29/1/1 32/1/1
f 34/1/1 31/1/1 30/1/1
f 34/1/1 30/1/1 25/1/1
f 35/1/1 31/1/1 34/1/1
f 39/1/1 37/1/1 36/1/1
f 40/1/1 37/1/1 39/1/1
f 42/1/1 39/1/1 38/1/1
f 43/1/1 39/1/1 42/1/1
f 44/1/1 39/1/1 43/1/1
f 46/1/1 45/1/1 44/1/1
f 47/1/1 45/1/1 46/1/1
f 48/1/1 42/1/1 41/1/1
f 49/1/1 42/1/1 48/1/1
f 50/2/1 47/2/1 46/2/1
f 51/2/1 47/2/1 50/2/1
f 52/1/1 50/1/1 49/1/1
f 53/1/1 50/1/1 52/1/1
f 56/1/1 55/1/1 54/1/1
f 57/1/1 55/1/1 56/1/1
f 62/1/1 59/1/1 58/1/1
f 63/1/1 59/1/1 62/1/1
f 64/2/1 60/2/1 59/2/1
f 64/1/1 59/1/1 63/1/1
f 65/1/1 61/1/1 60/1/1
f 65/2/1 60/2/1 64/2/1
f 66/1/1 61/1/1 65/1/1
f 67/1/2 68/1/2 71/1/2
f 68/2/2 69/2/2 72/2/2
f 71/1/2 68/1/2 72/1/2
f 69/1/2 70/1/2 73/1/2
f 72/2/2 69/2/2 73/2/2
f 73/1/2 70/1/2 74/1/2
f 75/1/2 76/1/2 77/1/2
f 77/1/2 76/1/2 78/1/2
f 79/1/2 80/1/2 82/1/2
f 82/1/2 80/1/2 83/1/2
f 81/1/2 82/1/2 85/1/2
f 85/1/2 82/1/2 86/1/2
f 84/1/2 85/1/2 88/1/2
f 86/1/2 87/1/2 89/1/2
f 84/1/2 88/1/2 90/1/2
f 90/1/2 88/1/2 91/1/2
f 86/1/2 89/1/2 93/1/2
f 93/1/2 89/1/2 94/1/2
f 91/2/2 92/2/2 95/2/2
f 92/1/2 93/1/2 96/1/2
f 95/2/2 92/2/2 96/2/2
f 96/1/2 93/1/2 97/1/2
f 98/1/2 99/1/2 101/1/2
f 101/1/2 99/1/2 102/1/2
f 100/1/2 101/1/2 104/1/2
f 104/1/2 101/1/2 105/1/2
f 102/1/2 103/1/2 106/1/2
f 106/1/2 103/1/2 107/1/2
f 104/2/2 105/2/2 108/2/2
f 105/1/2 101/1/2 109/1/2
f 108/2/2 105/2/2 109/2/2
f 109/1/2 101/1/2 110/1/2
f 111/1/2 112/1/2 113/1/2
f 113/1/2 112/1/2 114/1/2
f 114/1/2 115/1/2 119/1/2
f 115/2/2 116/2/2 120/2/2
f 119/1/2 115/1/2 120/1/2
f 117/1/2 118/1/2 121/1/2
f 120/2/2 116/2/2 121/2/2
f 116/1/2 117/1/2 121/1/2
f 121/1/2 118/1/2 122/1/2
f 123/2/2 124/2/2 128/2/2
f 124/1/2 125/1/2 129/1/2
f 128/2/2 124/2/2 129/2/2
f 129/1/2 125/1/2 130/1/2
f 125/2/2 126/2/2 131/2/2
f 130/1/2 125/1/2 131/1/2
f 126/1/2 127/1/2 132/1/2
f 131/2/2 126/2/2 132/2/2
f 132/1/2 127/1/2 133/1/2
f 133/1/2 127/1/2 134/1/2
f 129/1/2 130/1/2 135/1/2
f 130/2/2 131/2/2 136/2/2
f 135/1/2 130/1/2 136/1/2
f 131/1/2 132/1/2 137/1/2
f 136/2/2 131/2/2 137/2/2
f 132/1/2 133/1/2 137/1/2
f 133/2/2 134/2/2 138/2/2
f 137/1/2 133/1/2 138/1/2
f 138/2/2 134/2/2 139/2/2
f 142/1/3 141/1/3 140/1/3
f 143/1/3 141/1/3 142/1/3
f 147/1/3 145/1/3 144/1/3
f 148/1/3 145/1/3 147/1/3
f 150/1/3 149/1/3 148/1/3
f 151/1/3 149/1/3 150/1/3
f 152/1/3 147/1/3 146/1/3
f 153/1/3 147/1/3 152/1/3
f 155/2/3 151/2/3 150/2/3
f 156/2/3 151/2/3 155/2/3
f 157/1/3 154/1/3 153/1/3
f 158/2/3 155/2/3 154/2/3
f 158/1/3 154/1/3 157/1/3
f 159/2/3 155/2/3 158/2/3
f 163/1/3 161/1/3 160/1/3
f 164/1/3 161/1/3 163/1/3
f 165/1/3 163/1/3 162/1/3
f 166/1/3 163/1/3 165/1/3
f 168/1/3 167/1/3 166/1/3
f 169/1/3 167/1/3 168/1/3
f 172/2/3 171/2/3 170/2/3
f 173/2/3 171/2/3 172/2/3
f 175/1/3 173/1/3 172/1/3
f 175/1/3 174/1/3 173/1/3
f 176/1/3 174/1/3 175/1/3
f 178/1/3 175/1/3 172/1/3
f 179/1/3 175/1/3 178/1/3
f 180/1/3 177/1/3 176/1/3
f 181/1/3 177/1/3 180/1/3
f 186/1/3 183/1/3 182/1/3
f 187/1/3 185/1/3 184/1/3
f 188/1/3 185/1/3 187/1/3
f 189/1/3 186/1/3 182/1/3
f 189/1/3 187/1/3 186/1/3
f 190/1/3 187/1/3 189/1/3
f 191/1/3 187/1/3 190/1/3
f 192/2/3 190/2/3 189/2/3
f 193/2/3 190/2/3 192/2/3
f 196/1/3 195/1/3 194/1/3
f 197/1/3 195/1/3 196/1/3
f 199/1/3 198/1/3 197/1/3
f 200/1/3 198/1/3 199/1/3
f 204/1/3 202/1/3 201/1/3
f 205/1/3 202/1/3 204/1/3
f 206/1/3 204/1/3 203/1/3
f 207/1/3 204/1/3 206/1/3
f 208/2/4 209/2/4 211/2/4
f 209/1/4 210/1/4 212/1/4
f 211/2/4 209/2/4 212/2/4
f 212/1/4 210/1/4 213/1/4
f 213/1/4 214/1/4 215/1/4
f 215/1/4 214/1/4 217/1/4
f 217/1/4 214/1/4 218/1/4
f 216/1/4 217/1/4 219/1/4
f 219/1/4 217/1/4 220/1/4
f 223/2/4 224/2/4 225/2/4
f 225/2/4 224/2/4 226/2/4
f 221/1/4 222/1/4 227/1/4
f 227/1/4 222/1/4 228/1/4
f 225/1/4 226/1/4 229/1/4
f 229/1/4 226/1/4 230/1/4
f 231/1/4 232/1/4 233/1/4
f 233/1/4 232/1/4 234/1/4
f 235/1/4 236/1/4 237/1/4
f 235/1/4 237/1/4 238/1/4
f 238/1/4 237/1/4 239/1/4
f 240/1/4 241/1/4 242/1/4
f 242/1/4 241/1/4 243/1/4
f 242/2/4 243/2/4 244/2/4
f 244/2/4 243/2/4 245/2/4
f 244/1/4 245/1/4 246/1/4
f 246/1/4 245/1/4 247/1/4
f 247/1/4 245/1/4 248/1/4
f 248/1/4 245/1/4 249/1/4
f 250/1/4 251/1/4 252/1/4
f 252/1/4 251/1/4 253/1/4
f 253/1/4 251/1/4 254/1/4
f 254/1/4 251/1/4 255/1/4
f 254/2/4 255/2/4 256/2/4
f 256/2/4 255/2/4 257/2/4
f 256/1/4 257/1/4 258/1/4
f 258/1/4 257/1/4 259/1/4
f 258/2/4 259/2/4 260/2/4
f 260/2/4 259/2/4 261/2/4
f 260/1/4 261/1/4 263/1/4
f 263/1/4 261/1/4 264/1/4
f 262/1/4 263/1/4 265/1/4
f 263/2/4 264/2/4 266/2/4
f 265/1/4 263/1/4 266/1/4
f 266/2/4 264/2/4 267/2/4
f 272/1/5 269/1/5 268/1/5
f 273/1/5 269/1/5 272/1/5
f 276/2/5 271/2/5 270/2/5
f 277/1/5 272/1/5 271/1/5
f 277/2/5 271/2/5 276/2/5
f 278/1/5 272/1/5 277/1/5
f 279/1/5 274/1/5 273/1/5
f 280/2/5 275/2/5 274/2/5
f 280/1/5 274/1/5 279/1/5
f 281/2/5 275/2/5 280/2/5
f 282/1/5 277/1/5 276/1/5
f 283/1/5 277/1/5 282/1/5
f 284/1/5 281/1/5 280/1/5
f 285/1/5 281/1/5 284/1/5
f 286/2/5 283/2/5 282/2/5
f 287/2/5 283/2/5 286/2/5
f 288/2/5 285/2/5 284/2/5
f 289/2/5 285/2/5 288/2/5
f 290/1/5 287/1/5 286/1/5
f 291/1/5 287/1/5 290/1/5
f 292/1/5 289/1/5 288/1/5
f 293/1/5 289/1/5 292/1/5
f 297/1/5 295/1/5 294/1/5
f 298/1/5 295/1/5 297/1/5
f 300/1/5 297/1/5 296/1/5
f 301/1/5 297/1/5 300/1/5
f 302/1/5 299/1/5 298/1/5
f 303/1/5 299/1/5 302/1/5
f 305/1/5 302/1/5 301/1/5
f 306/1/5 302/1/5 305/1/5
f 307/1/5 302/1/5 306/1/5
f 310/1/5 305/1/5 304/1/5
f 310/1/5 306/1/5 305/1/5
f 311/1/5 306/1/5 310/1/5
f 312/2/5 307/2/5 306/2/5
f 312/1/5 306/1/5 311/1/5
f 313/1/5 308/1/5 307/1/5
f 313/2/5 307/2/5 312/2/5
f 314/2/5 309/2/5 308/2/5
f 314/1/5 308/1/5 313/1/5
f 315/2/5 309/2/5 314/2/5
f 316/2/5 311/2/5 310/2/5
f 316/1/5 310/1/5 304/1/5
f 317/1/5 312/1/5 311/1/5
f 317/2/5 311/2/5 316/2/5
f 317/1/5 313/1/5 312/1/5
f 317/1/5 314/1/5 313/1/5
f 317/1/5 315/1/5 314/1/5
f 318/1/5 317/1/5 316/1/5
f 318/1/5 315/1/5 317/1/5
f 319/1/5 315/1/5 318/1/5
f 320/1/5 316/1/5 304/1/5
f 320/1/5 318/1/5 316/1/5
f 321/2/5 319/2/5 318/2/5
f 321/1/5 318/1/5 320/1/5
f 322/1/5 315/1/5 319/1/5
f 322/2/5 319/2/5 321/2/5
f 323/1/5 315/1/5 322/1/5
f 324/1/5 321/1/5 320/1/5
f 324/1/5 322/1/5 321/1/5
f 324/1/5 323/1/5 322/1/5
f 325/1/5 323/1/5 324/1/5
f 326/1/5 323/1/5 325/1/5
f 327/1/5 323/1/5 326/1/5
f 328/1/5 327/1/5 326/1/5
f 329/1/5 327/1/5 328/1/5
f 330/1/5 325/1/5 324/1/5
f 331/2/5 326/2/5 325/2/5
f 331/1/5 325/1/5 330/1/5
f 332/1/5 328/1/5 326/1/5
f 332/2/5 326/2/5 331/2/5
f 333/2/5 329/2/5 328/2/5
f 333/1/5 328/1/5 332/1/5
f 334/1/5 327/1/5 329/1/5
f 334/2/5 329/2/5 333/2/5
f 335/1/5 327/1/5 334/1/5
f 339/1/5 337/1/5 336/1/5
f 340/1/5 337/1/5 339/1/5
f 342/1/5 339/1/5 338/1/5
f 343/1/5 339/1/5 342/1/5
f 344/2/5 343/2/5 342/2/5
f 345/2/5 343/2/5 344/2/5
f 346/1/5 341/1/5 340/1/5
f 347/1/5 341/1/5 346/1/5
f 348/2/6 349/2/6 352/2/6
f 352/2/6 349/2/6 353/2/6
f 350/2/6 351/2/6 354/2/6
f 354/2/6 351/2/6 355/2/6
f 356/1/6 357/1/6 361/1/6
f 361/1/6 357/1/6 362/1/6
f 358/1/6 359/1/6 363/1/6
f 363/1/6 359/1/6 364/1/6
f 360/1/6 361/1/6 367/1/6
f 367/1/6 361/1/6 368/1/6
f 364/1/6 365/1/6 369/1/6
f 369/1/6 365/1/6 370/1/6
f 370/1/6 371/1/6 372/1/6
f 366/1/6 367/1/6 373/1/6
f 373/1/6 367/1/6 374/1/6
f 372/1/6 371/1/6 375/1/6
f 375/1/6 371/1/6 376/1/6
f 375/2/6 376/2/6 377/2/6
f 377/2/6 376/2/6 378/2/6
f 373/2/6 374/2/6 379/2/6
f 379/2/6 374/2/6 380/2/6
f 379/1/6 380/1/6 381/1/6
f 377/1/6 378/1/6 386/1/6
f 386/1/6 378/1/6 387/1/6
f 379/1/6 381/1/6 388/1/6
f 381/1/6 382/1/6 388/1/6
f 382/2/6 383/2/6 389/2/6
f 388/1/6 382/1/6 389/1/6
f 383/1/6 384/1/6 390/1/6
f 389/2/6 383/2/6 390/2/6
f 384/2/6 385/2/6 391/2/6
f 390/1/6 384/1/6 391/1/6
f 385/1/6 386/1/6 392/1/6
f 391/2/6 385/2/6 392/2/6
f 386/2/6 387/2/6 393/2/6
f 392/1/6 386/1/6 393/1/6
f 393/2/6 387/2/6 394/2/6
f 395/1/6 396/1/6 401/1/6
f 398/1/6 399/1/6 401/1/6
f 397/1/6 398/1/6 401/1/6
f 396/1/6 397/1/6 401/1/6
f 401/1/6 399/1/6 402/1/6
f 400/1/6 401/1/6 404/1/6
f 402/1/6 403/1/6 404/1/6
f 401/1/6 402/1/6 404/1/6
f 404/1/6 403/1/6 405/1/6
f 405/1/6 403/1/6 406/1/6
f 406/1/6 403/1/6 407/1/6
f 400/1/6 404/1/6 408/1/6
f 404/2/6 405/2/6 408/2/6
f 405/1/6 406/1/6 409/1/6
f 408/2/6 405/2/6 409/2/6
f 406/2/6 407/2/6 410/2/6
f 409/1/6 406/1/6 410/1/6
f 408/1/6 409/1/6 410/1/6
f 410/2/6 407/2/6 411/2/6
f 408/1/6 410/1/6 412/1/6
f 410/1/6 411/1/6 412/1/6
f 412/1/6 411/1/6 413/1/6
f 400/1/6 408/1/6 414/1/6
f 408/1/6 412/1/6 414/1/6
f 414/1/6 412/1/6 415/1/6
f 412/2/6 413/2/6 416/2/6
f 415/1/6 412/1/6 416/1/6
f 413/1/6 411/1/6 417/1/6
f 416/2/6 413/2/6 417/2/6
f 400/1/6 414/1/6 418/1/6
f 414/2/6 415/2/6 419/2/6
f 418/1/6 414/1/6 419/1/6
f 415/1/6 416/1/6 420/1/6
f 419/2/6 415/2/6 420/2/6
f 416/1/6 417/1/6 420/1/6
f 417/1/6 411/1/6 421/1/6
f 420/1/6 417/1/6 421/1/6
f 422/1/6 423/1/6 425/1/6
f 425/1/6 423/1/6 426/1/6
f 426/1/6 423/1/6 427/1/6
f 427/2/6 428/2/6 429/2/6
f 429/2/6 428/2/6 430/2/6
f 424/1/6 425/1/6 431/1/6
f 431/1/6 425/1/6 432/1/6
f 429/1/6 430/1/6 434/1/6
f 434/1/6 430/1/6 435/1/6
f 432/2/6 433/2/6 436/2/6
f 433/1/6 434/1/6 437/1/6
f 436/2/6 433/2/6 437/2/6
f 437/1/6 434/1/6 438/1/6
f 439/1/6 440/1/6 442/1/6
f 440/2/6 441/2/6 442/2/6
f 442/2/6 441/2/6 443/2/6
f 439/1/6 442/1/6 444/1/6
f 442/1/6 443/1/6 444/1/6
f 444/1/6 443/1/6 445/1/6
