# MagicaVoxel @ Ephtracy

# group
o 

# material
mtllib Hair1.mtl
usemtl palette

# normals
vn -1 0 0
vn 1 0 0
vn 0 0 1
vn 0 0 -1
vn 0 -1 0
vn 0 1 0

# texcoords
vt 0.474609 0.5
vt 0.478516 0.5

# verts
v -0.4 -0.1 0.4
v -0.4 -0.1 0.3
v -0.4 -0.1 0
v -0.4 -0.1 -0.1
v -0.4 -0.1 -0.3
v -0.4 0 0.4
v -0.4 0 0.3
v -0.4 0 0.2
v -0.4 0 0
v -0.4 0 -0.1
v -0.4 0 -0.2
v -0.4 0.1 0.4
v -0.4 0.1 0.3
v -0.4 0.1 0.2
v -0.4 0.1 0
v -0.4 0.1 -0.1
v -0.4 0.1 -0.2
v -0.4 0.1 -0.3
v -0.4 0.1 -0.4
v -0.4 0.2 0.3
v -0.4 0.2 0.2
v -0.4 0.2 0.1
v -0.4 0.2 0
v -0.4 0.2 -0.1
v -0.4 0.2 -0.2
v -0.4 0.2 -0.3
v -0.4 0.2 -0.4
v -0.4 0.3 0.1
v -0.4 0.3 0
v -0.4 0.3 -0.1
v -0.4 0.3 -0.3
v -0.4 0.3 -0.4
v 0.1 0 -0.3
v 0.1 0 -0.4
v 0.1 0.1 -0.3
v 0.1 0.1 -0.4
v 0.3 -0.1 0.3
v 0.3 -0.1 0.1
v 0.3 -0.1 0
v 0.3 -0.1 -0.3
v 0.3 -0.1 -0.4
v 0.3 0 0.3
v 0.3 0 0.1
v 0.3 0 0
v 0.3 0 -0.1
v 0.3 0 -0.3
v 0.3 0 -0.4
v -0.3 -0.1 0.3
v -0.3 -0.1 0
v -0.3 -0.1 -0.1
v -0.3 -0.1 -0.3
v -0.3 0 0.3
v -0.3 0 0.2
v -0.3 0 0
v -0.3 0 -0.1
v -0.3 0 -0.2
v -0.3 0 -0.3
v 0.1 0.2 0.1
v 0.1 0.2 0
v 0.1 0.2 -0.1
v 0.1 0.2 -0.3
v 0.1 0.2 -0.4
v 0.1 0.3 0.1
v 0.1 0.3 -0.1
v 0.1 0.3 -0.3
v 0.1 0.3 -0.4
v 0.3 0.1 0.3
v 0.3 0.1 0.2
v 0.3 0.1 0.1
v 0.3 0.1 0
v 0.3 0.1 -0.1
v 0.3 0.1 -0.3
v 0.3 0.1 -0.4
v 0.3 0.2 0.3
v 0.3 0.2 0.2
v 0.3 0.2 0
v 0.3 0.2 -0.1
v 0.3 0.2 -0.4
v 0.4 -0.1 0.4
v 0.4 -0.1 0.1
v 0.4 -0.1 0
v 0.4 -0.1 -0.3
v 0.4 -0.1 -0.4
v 0.4 0 0.2
v 0.4 0 0.1
v 0.4 0 0
v 0.4 0 -0.1
v 0.4 0 -0.3
v 0.4 0 -0.4
v 0.4 0.1 0.4
v 0.4 0.1 0.2
v 0.4 0.1 0.1
v 0.4 0.1 -0.1
v 0.4 0.1 -0.3
v 0.4 0.1 -0.4
v -0.4 -0.1 0.4
v -0.4 0 0.4
v -0.4 0.1 0.4
v -0.3 -0.1 0.4
v -0.3 0 0.4
v -0.3 0.1 0.4
v -0.2 0 0.4
v -0.2 0.1 0.4
v 0 -0.1 0.4
v 0 0.1 0.4
v 0.1 -0.1 0.4
v 0.1 0 0.4
v 0.2 0 0.4
v 0.2 0.1 0.4
v 0.4 -0.1 0.4
v 0.4 0.1 0.4
v -0.4 0.1 0.3
v -0.4 0.2 0.3
v -0.3 0.1 0.3
v -0.2 0.1 0.3
v -0.2 0.2 0.3
v -0.1 0.1 0.3
v -0.1 0.2 0.3
v 0 0.1 0.3
v 0.2 0.1 0.3
v 0.2 0.2 0.3
v 0.3 0.1 0.3
v 0.3 0.2 0.3
v -0.4 0.2 0.1
v -0.4 0.3 0.1
v -0.3 0.2 0.1
v -0.1 0.2 0.1
v 0 0.2 0.1
v 0 0.3 0.1
v 0.1 0.2 0.1
v 0.1 0.3 0.1
v -0.3 -0.1 0.3
v -0.3 0 0.3
v -0.1 0 0.3
v 0 -0.1 0.3
v 0 0 0.3
v 0.1 -0.1 0.3
v 0.1 0 0.3
v 0.3 -0.1 0.3
v 0.3 0 0.3
v -0.4 -0.1 -0.3
v -0.4 0.1 -0.3
v -0.3 -0.1 -0.3
v -0.3 0 -0.3
v -0.3 0.1 -0.3
v -0.2 0 -0.3
v -0.2 0.1 -0.3
v 0.1 0 -0.3
v 0.1 0.1 -0.3
v -0.4 0.1 -0.4
v -0.4 0.2 -0.4
v -0.4 0.3 -0.4
v -0.3 0.1 -0.4
v -0.3 0.2 -0.4
v -0.3 0.3 -0.4
v -0.2 0.1 -0.4
v -0.2 0.2 -0.4
v -0.1 0.2 -0.4
v -0.1 0.3 -0.4
v 0.1 0 -0.4
v 0.1 0.1 -0.4
v 0.1 0.2 -0.4
v 0.1 0.3 -0.4
v 0.2 0 -0.4
v 0.2 0.1 -0.4
v 0.2 0.2 -0.4
v 0.3 -0.1 -0.4
v 0.3 0 -0.4
v 0.3 0.1 -0.4
v 0.3 0.2 -0.4
v 0.4 -0.1 -0.4
v 0.4 0 -0.4
v 0.4 0.1 -0.4
v -0.4 -0.1 0.4
v -0.3 -0.1 0.4
v 0 -0.1 0.4
v 0.1 -0.1 0.4
v 0.4 -0.1 0.4
v -0.4 -0.1 0.3
v -0.3 -0.1 0.3
v 0 -0.1 0.3
v 0.1 -0.1 0.3
v 0.3 -0.1 0.3
v 0.3 -0.1 0.1
v 0.4 -0.1 0.1
v -0.4 -0.1 0
v -0.3 -0.1 0
v 0.3 -0.1 0
v 0.4 -0.1 0
v -0.4 -0.1 -0.1
v -0.3 -0.1 -0.1
v -0.4 -0.1 -0.3
v -0.3 -0.1 -0.3
v 0.3 -0.1 -0.3
v 0.4 -0.1 -0.3
v 0.3 -0.1 -0.4
v 0.4 -0.1 -0.4
v -0.3 0 0.3
v -0.1 0 0.3
v 0 0 0.3
v 0.1 0 0.3
v 0.3 0 0.3
v -0.3 0 0.2
v -0.1 0 0.2
v 0 0 0.2
v -0.2 0 0.1
v -0.1 0 0.1
v 0.3 0 0.1
v -0.3 0 0
v -0.2 0 0
v -0.1 0 0
v 0.3 0 0
v -0.3 0 -0.1
v -0.2 0 -0.1
v -0.1 0 -0.1
v 0.3 0 -0.1
v -0.3 0 -0.2
v -0.2 0 -0.2
v -0.1 0 -0.2
v -0.3 0 -0.3
v -0.2 0 -0.3
v 0.1 0 -0.3
v 0.2 0 -0.3
v 0.3 0 -0.3
v 0.1 0 -0.4
v 0.2 0 -0.4
v 0.3 0 -0.4
v -0.4 0.1 -0.3
v -0.3 0.1 -0.3
v -0.2 0.1 -0.3
v 0.1 0.1 -0.3
v -0.4 0.1 -0.4
v -0.3 0.1 -0.4
v -0.2 0.1 -0.4
v 0.1 0.1 -0.4
v -0.4 0.1 0.4
v -0.3 0.1 0.4
v -0.2 0.1 0.4
v 0 0.1 0.4
v 0.2 0.1 0.4
v 0.4 0.1 0.4
v -0.4 0.1 0.3
v -0.3 0.1 0.3
v -0.2 0.1 0.3
v -0.1 0.1 0.3
v 0 0.1 0.3
v 0.2 0.1 0.3
v 0.3 0.1 0.3
v 0.3 0.1 0.2
v 0.4 0.1 0.2
v 0.3 0.1 0.1
v 0.4 0.1 0.1
v 0.3 0.1 0
v 0.3 0.1 -0.1
v 0.4 0.1 -0.1
v 0.3 0.1 -0.3
v 0.4 0.1 -0.3
v 0.3 0.1 -0.4
v 0.4 0.1 -0.4
v -0.4 0.2 0.3
v -0.2 0.2 0.3
v -0.1 0.2 0.3
v 0.2 0.2 0.3
v 0.3 0.2 0.3
v -0.4 0.2 0.2
v -0.3 0.2 0.2
v -0.2 0.2 0.2
v -0.1 0.2 0.2
v 0 0.2 0.2
v 0.2 0.2 0.2
v 0.3 0.2 0.2
v -0.4 0.2 0.1
v -0.3 0.2 0.1
v -0.1 0.2 0.1
v 0 0.2 0.1
v 0.1 0.2 0.1
v 0.1 0.2 0
v 0.3 0.2 0
v 0.1 0.2 -0.1
v 0.3 0.2 -0.1
v 0.1 0.2 -0.3
v 0.2 0.2 -0.3
v 0.1 0.2 -0.4
v 0.2 0.2 -0.4
v 0.3 0.2 -0.4
v -0.4 0.3 0.1
v 0 0.3 0.1
v 0.1 0.3 0.1
v -0.4 0.3 0
v -0.3 0.3 0
v -0.4 0.3 -0.1
v -0.3 0.3 -0.1
v -0.2 0.3 -0.1
v 0 0.3 -0.1
v 0.1 0.3 -0.1
v -0.3 0.3 -0.2
v -0.2 0.3 -0.2
v -0.1 0.3 -0.2
v -0.4 0.3 -0.3
v -0.3 0.3 -0.3
v -0.2 0.3 -0.3
v -0.1 0.3 -0.3
v 0.1 0.3 -0.3
v -0.4 0.3 -0.4
v -0.3 0.3 -0.4
v -0.1 0.3 -0.4
v 0.1 0.3 -0.4

# faces
f 6/2/1 2/2/1 1/2/1
f 7/1/1 3/1/1 2/1/1
f 7/2/1 2/2/1 6/2/1
f 8/1/1 3/1/1 7/1/1
f 9/2/1 4/2/1 3/2/1
f 9/1/1 3/1/1 8/1/1
f 10/1/1 5/1/1 4/1/1
f 10/2/1 4/2/1 9/2/1
f 11/1/1 5/1/1 10/1/1
f 12/1/1 7/1/1 6/1/1
f 13/2/1 8/2/1 7/2/1
f 13/1/1 7/1/1 12/1/1
f 14/1/1 9/1/1 8/1/1
f 14/2/1 8/2/1 13/2/1
f 14/1/1 10/1/1 9/1/1
f 15/1/1 10/1/1 14/1/1
f 16/2/1 11/2/1 10/2/1
f 16/1/1 10/1/1 15/1/1
f 17/1/1 5/1/1 11/1/1
f 17/2/1 11/2/1 16/2/1
f 18/1/1 5/1/1 17/1/1
f 20/1/1 14/1/1 13/1/1
f 21/2/1 15/2/1 14/2/1
f 21/1/1 14/1/1 20/1/1
f 22/2/1 15/2/1 21/2/1
f 23/1/1 16/1/1 15/1/1
f 23/2/1 15/2/1 22/2/1
f 23/1/1 17/1/1 16/1/1
f 24/1/1 17/1/1 23/1/1
f 25/2/1 18/2/1 17/2/1
f 25/1/1 17/1/1 24/1/1
f 26/1/1 19/1/1 18/1/1
f 26/2/1 18/2/1 25/2/1
f 27/1/1 19/1/1 26/1/1
f 28/1/1 23/1/1 22/1/1
f 29/2/1 24/2/1 23/2/1
f 29/1/1 23/1/1 28/1/1
f 30/1/1 25/1/1 24/1/1
f 30/2/1 24/2/1 29/2/1
f 30/1/1 26/1/1 25/1/1
f 31/2/1 27/2/1 26/2/1
f 31/1/1 26/1/1 30/1/1
f 32/2/1 27/2/1 31/2/1
f 35/1/1 34/1/1 33/1/1
f 36/1/1 34/1/1 35/1/1
f 42/1/1 38/1/1 37/1/1
f 43/2/1 39/2/1 38/2/1
f 43/1/1 38/1/1 42/1/1
f 44/1/1 40/1/1 39/1/1
f 44/2/1 39/2/1 43/2/1
f 45/1/1 40/1/1 44/1/1
f 46/2/1 41/2/1 40/2/1
f 46/1/1 40/1/1 45/1/1
f 47/2/1 41/2/1 46/2/1
f 48/1/2 49/1/2 52/1/2
f 52/1/2 49/1/2 53/1/2
f 49/2/2 50/2/2 54/2/2
f 53/1/2 49/1/2 54/1/2
f 50/1/2 51/1/2 55/1/2
f 54/2/2 50/2/2 55/2/2
f 55/1/2 51/1/2 56/1/2
f 56/1/2 51/1/2 57/1/2
f 58/2/2 59/2/2 63/2/2
f 59/2/2 60/2/2 63/2/2
f 60/1/2 61/1/2 64/1/2
f 63/2/2 60/2/2 64/2/2
f 61/2/2 62/2/2 65/2/2
f 64/1/2 61/1/2 65/1/2
f 65/2/2 62/2/2 66/2/2
f 67/2/2 68/2/2 74/2/2
f 68/1/2 69/1/2 75/1/2
f 74/2/2 68/2/2 75/2/2
f 69/1/2 70/1/2 75/1/2
f 70/2/2 71/2/2 76/2/2
f 75/1/2 70/1/2 76/1/2
f 72/1/2 73/1/2 77/1/2
f 76/2/2 71/2/2 77/2/2
f 71/1/2 72/1/2 77/1/2
f 77/1/2 73/1/2 78/1/2
f 79/1/2 80/1/2 84/1/2
f 80/2/2 81/2/2 85/2/2
f 84/1/2 80/1/2 85/1/2
f 81/1/2 82/1/2 86/1/2
f 85/2/2 81/2/2 86/2/2
f 86/1/2 82/1/2 87/1/2
f 82/2/2 83/2/2 88/2/2
f 87/1/2 82/1/2 88/1/2
f 88/2/2 83/2/2 89/2/2
f 79/1/2 84/1/2 90/1/2
f 84/2/2 85/2/2 91/2/2
f 90/1/2 84/1/2 91/1/2
f 86/1/2 87/1/2 92/1/2
f 91/2/2 85/2/2 92/2/2
f 85/1/2 86/1/2 92/1/2
f 87/2/2 88/2/2 93/2/2
f 92/1/2 87/1/2 93/1/2
f 88/1/2 89/1/2 94/1/2
f 93/2/2 88/2/2 94/2/2
f 94/1/2 89/1/2 95/1/2
f 99/2/3 97/2/3 96/2/3
f 100/1/3 98/1/3 97/1/3
f 100/2/3 97/2/3 99/2/3
f 101/1/3 98/1/3 100/1/3
f 102/1/3 100/1/3 99/1/3
f 102/2/3 101/2/3 100/2/3
f 103/2/3 101/2/3 102/2/3
f 104/1/3 102/1/3 99/1/3
f 104/1/3 103/1/3 102/1/3
f 105/1/3 103/1/3 104/1/3
f 106/2/3 105/2/3 104/2/3
f 107/2/3 105/2/3 106/2/3
f 108/1/3 107/1/3 106/1/3
f 108/2/3 105/2/3 107/2/3
f 109/2/3 105/2/3 108/2/3
f 110/1/3 108/1/3 106/1/3
f 110/1/3 109/1/3 108/1/3
f 111/1/3 109/1/3 110/1/3
f 114/1/3 113/1/3 112/1/3
f 115/1/3 113/1/3 114/1/3
f 116/1/3 113/1/3 115/1/3
f 117/2/3 116/2/3 115/2/3
f 118/2/3 116/2/3 117/2/3
f 119/1/3 118/1/3 117/1/3
f 120/1/3 118/1/3 119/1/3
f 121/1/3 118/1/3 120/1/3
f 122/2/3 121/2/3 120/2/3
f 123/2/3 121/2/3 122/2/3
f 126/1/3 125/1/3 124/1/3
f 127/1/3 125/1/3 126/1/3
f 128/1/3 125/1/3 127/1/3
f 129/1/3 125/1/3 128/1/3
f 130/2/3 129/2/3 128/2/3
f 131/2/3 129/2/3 130/2/3
f 132/1/4 133/1/4 134/1/4
f 132/1/4 134/1/4 135/1/4
f 135/1/4 134/1/4 136/1/4
f 135/2/4 136/2/4 137/2/4
f 137/2/4 136/2/4 138/2/4
f 137/1/4 138/1/4 139/1/4
f 139/1/4 138/1/4 140/1/4
f 141/1/4 142/1/4 143/1/4
f 143/1/4 142/1/4 144/1/4
f 144/1/4 142/1/4 145/1/4
f 144/2/4 145/2/4 146/2/4
f 146/2/4 145/2/4 147/2/4
f 146/1/4 147/1/4 148/1/4
f 148/1/4 147/1/4 149/1/4
f 150/1/4 151/1/4 153/1/4
f 151/2/4 152/2/4 154/2/4
f 153/1/4 151/1/4 154/1/4
f 154/2/4 152/2/4 155/2/4
f 153/2/4 154/2/4 156/2/4
f 154/1/4 155/1/4 157/1/4
f 156/2/4 154/2/4 157/2/4
f 156/1/4 157/1/4 158/1/4
f 157/1/4 155/1/4 158/1/4
f 158/1/4 155/1/4 159/1/4
f 156/1/4 158/1/4 161/1/4
f 158/2/4 159/2/4 162/2/4
f 161/1/4 158/1/4 162/1/4
f 162/2/4 159/2/4 163/2/4
f 160/1/4 161/1/4 164/1/4
f 161/2/4 162/2/4 165/2/4
f 164/1/4 161/1/4 165/1/4
f 165/2/4 162/2/4 166/2/4
f 164/2/4 165/2/4 168/2/4
f 165/1/4 166/1/4 169/1/4
f 168/2/4 165/2/4 169/2/4
f 169/1/4 166/1/4 170/1/4
f 167/2/4 168/2/4 171/2/4
f 168/1/4 169/1/4 172/1/4
f 171/2/4 168/2/4 172/2/4
f 172/1/4 169/1/4 173/1/4
f 179/2/5 175/2/5 174/2/5
f 180/1/5 176/1/5 175/1/5
f 180/2/5 175/2/5 179/2/5
f 181/2/5 177/2/5 176/2/5
f 181/1/5 176/1/5 180/1/5
f 182/1/5 178/1/5 177/1/5
f 182/2/5 177/2/5 181/2/5
f 183/1/5 178/1/5 182/1/5
f 184/1/5 178/1/5 183/1/5
f 185/1/5 178/1/5 184/1/5
f 186/1/5 180/1/5 179/1/5
f 187/1/5 180/1/5 186/1/5
f 188/2/5 185/2/5 184/2/5
f 189/2/5 185/2/5 188/2/5
f 190/2/5 187/2/5 186/2/5
f 191/2/5 187/2/5 190/2/5
f 192/1/5 191/1/5 190/1/5
f 193/1/5 191/1/5 192/1/5
f 194/1/5 189/1/5 188/1/5
f 195/1/5 189/1/5 194/1/5
f 196/2/5 195/2/5 194/2/5
f 197/2/5 195/2/5 196/2/5
f 203/1/5 199/1/5 198/1/5
f 204/2/5 200/2/5 199/2/5
f 204/1/5 199/1/5 203/1/5
f 205/1/5 202/1/5 201/1/5
f 205/2/5 200/2/5 204/2/5
f 205/1/5 201/1/5 200/1/5
f 206/2/5 204/2/5 203/2/5
f 207/1/5 205/1/5 204/1/5
f 207/2/5 204/2/5 206/2/5
f 208/1/5 202/1/5 205/1/5
f 208/1/5 205/1/5 207/1/5
f 209/2/5 206/2/5 203/2/5
f 210/1/5 207/1/5 206/1/5
f 210/2/5 206/2/5 209/2/5
f 210/1/5 208/1/5 207/1/5
f 211/1/5 208/1/5 210/1/5
f 212/1/5 208/1/5 211/1/5
f 213/1/5 210/1/5 209/1/5
f 213/1/5 211/1/5 210/1/5
f 214/1/5 211/1/5 213/1/5
f 215/2/5 212/2/5 211/2/5
f 215/1/5 211/1/5 214/1/5
f 216/2/5 212/2/5 215/2/5
f 217/1/5 214/1/5 213/1/5
f 218/2/5 215/2/5 214/2/5
f 218/1/5 214/1/5 217/1/5
f 219/1/5 216/1/5 215/1/5
f 219/2/5 215/2/5 218/2/5
f 220/2/5 218/2/5 217/2/5
f 221/1/5 219/1/5 218/1/5
f 221/2/5 218/2/5 220/2/5
f 222/1/5 216/1/5 219/1/5
f 222/1/5 219/1/5 221/1/5
f 223/1/5 216/1/5 222/1/5
f 224/1/5 216/1/5 223/1/5
f 225/1/5 223/1/5 222/1/5
f 226/2/5 224/2/5 223/2/5
f 226/1/5 223/1/5 225/1/5
f 227/2/5 224/2/5 226/2/5
f 232/1/5 229/1/5 228/1/5
f 233/2/5 230/2/5 229/2/5
f 233/1/5 229/1/5 232/1/5
f 234/1/5 231/1/5 230/1/5
f 234/2/5 230/2/5 233/2/5
f 235/1/5 231/1/5 234/1/5
f 236/1/6 237/1/6 242/1/6
f 237/2/6 238/2/6 243/2/6
f 242/1/6 237/1/6 243/1/6
f 238/1/6 239/1/6 244/1/6
f 243/2/6 238/2/6 244/2/6
f 244/1/6 239/1/6 245/1/6
f 239/2/6 240/2/6 246/2/6
f 245/1/6 239/1/6 246/1/6
f 240/1/6 241/1/6 247/1/6
f 246/2/6 240/2/6 247/2/6
f 247/1/6 241/1/6 248/1/6
f 248/1/6 241/1/6 249/1/6
f 249/1/6 241/1/6 250/1/6
f 249/2/6 250/2/6 251/2/6
f 251/2/6 250/2/6 252/2/6
f 251/1/6 252/1/6 253/1/6
f 253/1/6 252/1/6 254/1/6
f 254/1/6 252/1/6 255/1/6
f 254/2/6 255/2/6 256/2/6
f 256/2/6 255/2/6 257/2/6
f 256/1/6 257/1/6 258/1/6
f 258/1/6 257/1/6 259/1/6
f 260/1/6 261/1/6 265/1/6
f 265/1/6 261/1/6 266/1/6
f 261/2/6 262/2/6 267/2/6
f 266/1/6 261/1/6 267/1/6
f 262/1/6 263/1/6 268/1/6
f 267/2/6 262/2/6 268/2/6
f 268/1/6 263/1/6 269/1/6
f 263/2/6 264/2/6 270/2/6
f 269/1/6 263/1/6 270/1/6
f 270/2/6 264/2/6 271/2/6
f 265/2/6 266/2/6 272/2/6
f 266/1/6 267/1/6 273/1/6
f 272/2/6 266/2/6 273/2/6
f 267/1/6 268/1/6 273/1/6
f 268/2/6 269/2/6 274/2/6
f 273/1/6 268/1/6 274/1/6
f 270/1/6 271/1/6 275/1/6
f 274/2/6 269/2/6 275/2/6
f 269/1/6 270/1/6 275/1/6
f 275/1/6 271/1/6 276/1/6
f 276/1/6 271/1/6 277/1/6
f 277/1/6 271/1/6 278/1/6
f 277/2/6 278/2/6 279/2/6
f 279/2/6 278/2/6 280/2/6
f 279/1/6 280/1/6 281/1/6
f 281/1/6 280/1/6 282/1/6
f 281/2/6 282/2/6 283/2/6
f 282/1/6 280/1/6 284/1/6
f 283/2/6 282/2/6 284/2/6
f 284/1/6 280/1/6 285/1/6
f 286/1/6 287/1/6 289/1/6
f 289/1/6 287/1/6 290/1/6
f 289/2/6 290/2/6 291/2/6
f 290/1/6 287/1/6 292/1/6
f 291/2/6 290/2/6 292/2/6
f 292/1/6 287/1/6 293/1/6
f 287/2/6 288/2/6 294/2/6
f 293/1/6 287/1/6 294/1/6
f 294/2/6 288/2/6 295/2/6
f 292/2/6 293/2/6 296/2/6
f 291/1/6 292/1/6 296/1/6
f 294/1/6 295/1/6 297/1/6
f 296/2/6 293/2/6 297/2/6
f 293/1/6 294/1/6 297/1/6
f 297/1/6 295/1/6 298/1/6
f 291/1/6 296/1/6 299/1/6
f 296/1/6 297/1/6 299/1/6
f 299/1/6 297/1/6 300/1/6
f 297/2/6 298/2/6 301/2/6
f 300/1/6 297/1/6 301/1/6
f 298/1/6 295/1/6 302/1/6
f 301/2/6 298/2/6 302/2/6
f 302/1/6 295/1/6 303/1/6
f 299/2/6 300/2/6 304/2/6
f 300/1/6 301/1/6 305/1/6
f 304/2/6 300/2/6 305/2/6
f 301/1/6 302/1/6 305/1/6
f 302/2/6 303/2/6 306/2/6
f 305/1/6 302/1/6 306/1/6
f 306/2/6 303/2/6 307/2/6
