# MagicaVoxel @ Ephtracy

# group
o 

# material
mtllib Hair10.mtl
usemtl palette

# normals
vn -1 0 0
vn 1 0 0
vn 0 0 1
vn 0 0 -1
vn 0 -1 0
vn 0 1 0

# texcoords
vt 0.474609 0.5
vt 0.478516 0.5

# verts
v -0.5 -0.4 0.5
v -0.5 -0.4 0.2
v -0.5 -0.3 0.4
v -0.5 -0.3 0.3
v -0.5 -0.3 0.2
v -0.5 -0.3 0.1
v -0.5 -0.3 0
v -0.5 -0.3 -0.2
v -0.5 -0.2 0.4
v -0.5 -0.2 0.3
v -0.5 -0.2 0.1
v -0.5 -0.2 0
v -0.5 -0.2 -0.2
v -0.5 -0.2 -0.5
v -0.5 -0.1 0.5
v -0.5 -0.1 0.4
v -0.5 -0.1 -0.3
v -0.5 -0.1 -0.4
v -0.5 0 0.5
v -0.5 0 0.4
v -0.5 0 0.3
v -0.5 0 0
v -0.5 0 -0.1
v -0.5 0 -0.3
v -0.5 0 -0.4
v -0.5 0.1 0.4
v -0.5 0.1 0.3
v -0.5 0.1 0
v -0.5 0.1 -0.1
v -0.5 0.1 -0.5
v -0.4 -0.5 0.5
v -0.4 -0.5 0.4
v -0.4 -0.4 0.5
v -0.4 -0.4 0.4
v -0.4 0.1 0.3
v -0.4 0.1 0
v -0.4 0.1 -0.1
v -0.4 0.1 -0.2
v -0.4 0.1 -0.4
v -0.4 0.2 0.3
v -0.4 0.2 -0.1
v -0.4 0.2 -0.2
v -0.4 0.2 -0.4
v -0.3 -0.6 0.5
v -0.3 -0.6 0.4
v -0.3 -0.5 0.5
v -0.3 -0.5 0.4
v -0.3 0 0.5
v -0.3 0 0.4
v -0.3 0.1 0.5
v -0.3 0.1 0.4
v -0.3 0.1 0.3
v -0.3 0.2 0.4
v -0.3 0.2 0.3
v -0.2 -0.7 0.5
v -0.2 -0.7 0.4
v -0.2 -0.6 0.5
v -0.2 -0.6 0.4
v -0.1 -0.8 0.5
v -0.1 -0.8 0.4
v -0.1 -0.7 0.5
v -0.1 -0.7 0.4
v -0.1 0.1 0.5
v -0.1 0.1 0.4
v -0.1 0.2 0.5
v -0.1 0.2 0.4
v 0 -0.2 -0.4
v 0 -0.2 -0.5
v 0 -0.1 -0.4
v 0 -0.1 -0.5
v 0.1 -0.3 -0.4
v 0.1 -0.3 -0.5
v 0.1 -0.2 -0.4
v 0.1 -0.2 -0.5
v 0.2 -0.4 -0.4
v 0.2 -0.4 -0.5
v 0.2 -0.3 -0.4
v 0.2 -0.3 -0.5
v 0.3 -0.5 -0.4
v 0.3 -0.5 -0.5
v 0.3 -0.4 -0.4
v 0.3 -0.4 -0.5
v 0.4 -0.6 -0.4
v 0.4 -0.6 -0.5
v 0.4 -0.5 0.4
v 0.4 -0.5 0.2
v 0.4 -0.5 -0.3
v 0.4 -0.5 -0.4
v 0.4 -0.5 -0.5
v 0.4 -0.4 0.4
v 0.4 -0.4 0.3
v 0.4 -0.4 0.2
v 0.4 -0.4 -0.3
v 0.4 -0.3 0.4
v 0.4 -0.3 0.3
v 0.4 -0.3 0.1
v 0.4 -0.3 0
v 0.4 -0.2 0.1
v 0.4 -0.2 0
v 0.4 -0.1 0.2
v 0.4 -0.1 0.1
v 0.4 -0.1 -0.2
v 0.4 -0.1 -0.3
v 0.4 0 0.4
v 0.4 0 0.2
v 0.4 0 0.1
v 0.4 0 -0.2
v 0.4 0 -0.3
v 0.4 0 -0.4
v -0.4 -0.4 0.4
v -0.4 -0.4 0.2
v -0.4 -0.3 0.4
v -0.4 -0.3 0.3
v -0.4 -0.3 0.2
v -0.4 -0.3 0.1
v -0.4 -0.3 0
v -0.4 -0.3 -0.2
v -0.4 -0.2 0.4
v -0.4 -0.2 0.3
v -0.4 -0.2 0.1
v -0.4 -0.2 0
v -0.4 -0.2 -0.2
v -0.4 -0.2 -0.5
v -0.4 -0.1 -0.3
v -0.4 -0.1 -0.4
v -0.4 -0.1 -0.5
v -0.4 0 0.4
v -0.4 0 -0.3
v -0.4 0 -0.4
v 0.1 0.1 0.5
v 0.1 0.1 0.4
v 0.1 0.2 0.5
v 0.1 0.2 0.4
v 0.3 -0.8 0.5
v 0.3 -0.8 0.4
v 0.3 -0.7 0.5
v 0.3 -0.7 0.4
v 0.3 0 0.5
v 0.3 0 0.4
v 0.3 0.1 0.5
v 0.3 0.1 0.4
v 0.3 0.1 0.3
v 0.3 0.2 0.4
v 0.3 0.2 0.3
v 0.4 -0.7 0.5
v 0.4 -0.7 0.4
v 0.4 -0.6 0.5
v 0.4 -0.6 0.4
v 0.4 0.1 0.3
v 0.4 0.1 -0.4
v 0.4 0.2 0.3
v 0.4 0.2 -0.4
v 0.5 -0.6 0.5
v 0.5 -0.6 0.4
v 0.5 -0.6 -0.4
v 0.5 -0.6 -0.5
v 0.5 -0.5 0.4
v 0.5 -0.5 0.2
v 0.5 -0.5 -0.3
v 0.5 -0.5 -0.4
v 0.5 -0.5 -0.5
v 0.5 -0.4 0.4
v 0.5 -0.4 0.3
v 0.5 -0.4 0.2
v 0.5 -0.4 -0.3
v 0.5 -0.4 -0.4
v 0.5 -0.4 -0.5
v 0.5 -0.3 0.4
v 0.5 -0.3 0.3
v 0.5 -0.3 0.1
v 0.5 -0.3 0
v 0.5 -0.3 -0.4
v 0.5 -0.3 -0.5
v 0.5 -0.2 0.5
v 0.5 -0.2 0.4
v 0.5 -0.2 0.1
v 0.5 -0.2 0
v 0.5 -0.2 -0.4
v 0.5 -0.2 -0.5
v 0.5 -0.1 0.5
v 0.5 -0.1 0.4
v 0.5 -0.1 0.2
v 0.5 -0.1 0.1
v 0.5 -0.1 -0.2
v 0.5 -0.1 -0.3
v 0.5 0 0.5
v 0.5 0 0.4
v 0.5 0 0.2
v 0.5 0 0.1
v 0.5 0 -0.2
v 0.5 0 -0.3
v 0.5 0 -0.4
v 0.5 0 -0.5
v 0.5 0.1 0.4
v 0.5 0.1 -0.4
v 0.5 0.1 -0.5
v -0.5 -0.4 0.5
v -0.5 -0.1 0.5
v -0.5 0 0.5
v -0.4 -0.5 0.5
v -0.4 -0.4 0.5
v -0.4 -0.3 0.5
v -0.4 -0.2 0.5
v -0.4 -0.1 0.5
v -0.4 0 0.5
v -0.3 -0.6 0.5
v -0.3 -0.5 0.5
v -0.3 -0.3 0.5
v -0.3 -0.2 0.5
v -0.3 0 0.5
v -0.3 0.1 0.5
v -0.2 -0.7 0.5
v -0.2 -0.6 0.5
v -0.2 -0.5 0.5
v -0.2 -0.4 0.5
v -0.1 -0.8 0.5
v -0.1 -0.7 0.5
v -0.1 -0.5 0.5
v -0.1 -0.4 0.5
v -0.1 -0.2 0.5
v -0.1 -0.1 0.5
v -0.1 0.1 0.5
v -0.1 0.2 0.5
v 0 -0.5 0.5
v 0 -0.4 0.5
v 0 -0.2 0.5
v 0 -0.1 0.5
v 0 0.1 0.5
v 0.1 -0.5 0.5
v 0.1 -0.4 0.5
v 0.1 -0.3 0.5
v 0.1 -0.1 0.5
v 0.1 0.1 0.5
v 0.1 0.2 0.5
v 0.2 -0.4 0.5
v 0.2 -0.3 0.5
v 0.3 -0.8 0.5
v 0.3 -0.7 0.5
v 0.3 0 0.5
v 0.3 0.1 0.5
v 0.4 -0.7 0.5
v 0.4 -0.6 0.5
v 0.4 -0.2 0.5
v 0.4 -0.1 0.5
v 0.5 -0.6 0.5
v 0.5 -0.2 0.5
v 0.5 -0.1 0.5
v 0.5 0 0.5
v -0.5 0 0.4
v -0.5 0.1 0.4
v -0.4 0 0.4
v -0.4 0.1 0.4
v -0.3 0 0.4
v -0.3 0.1 0.4
v -0.3 0.2 0.4
v -0.1 0.1 0.4
v -0.1 0.2 0.4
v 0.1 0.1 0.4
v 0.1 0.2 0.4
v 0.3 0 0.4
v 0.3 0.1 0.4
v 0.3 0.2 0.4
v 0.5 0 0.4
v 0.5 0.1 0.4
v -0.4 0.1 0.3
v -0.4 0.2 0.3
v -0.3 0.1 0.3
v -0.3 0.2 0.3
v 0.3 0.1 0.3
v 0.3 0.2 0.3
v 0.4 0.1 0.3
v 0.4 0.2 0.3
v 0.4 -0.5 -0.3
v 0.4 -0.4 -0.3
v 0.5 -0.5 -0.3
v 0.5 -0.4 -0.3
v -0.4 -0.1 -0.4
v -0.4 0 -0.4
v 0 -0.2 -0.4
v 0 -0.1 -0.4
v 0.1 -0.3 -0.4
v 0.1 -0.2 -0.4
v 0.1 -0.1 -0.4
v 0.2 -0.4 -0.4
v 0.2 -0.3 -0.4
v 0.3 -0.5 -0.4
v 0.3 -0.4 -0.4
v 0.3 -0.2 -0.4
v 0.3 -0.1 -0.4
v 0.4 -0.6 -0.4
v 0.4 -0.5 -0.4
v 0.4 0 -0.4
v 0.5 -0.6 -0.4
v 0.5 -0.5 -0.4
v -0.4 -0.5 0.4
v -0.4 -0.4 0.4
v -0.4 -0.3 0.4
v -0.4 -0.2 0.4
v -0.4 0 0.4
v -0.3 -0.6 0.4
v -0.3 -0.5 0.4
v -0.3 -0.3 0.4
v -0.3 -0.2 0.4
v -0.2 -0.7 0.4
v -0.2 -0.6 0.4
v -0.2 -0.5 0.4
v -0.2 -0.4 0.4
v -0.1 -0.8 0.4
v -0.1 -0.7 0.4
v -0.1 -0.5 0.4
v -0.1 -0.4 0.4
v -0.1 -0.2 0.4
v -0.1 -0.1 0.4
v 0 -0.5 0.4
v 0 -0.4 0.4
v 0 -0.2 0.4
v 0 -0.1 0.4
v 0 0 0.4
v 0.1 -0.5 0.4
v 0.1 -0.4 0.4
v 0.1 -0.3 0.4
v 0.1 -0.1 0.4
v 0.1 0 0.4
v 0.2 -0.4 0.4
v 0.2 -0.3 0.4
v 0.3 -0.8 0.4
v 0.3 -0.7 0.4
v 0.4 -0.7 0.4
v 0.4 -0.6 0.4
v 0.4 -0.5 0.4
v 0.4 -0.4 0.4
v 0.4 -0.3 0.4
v 0.4 0 0.4
v 0.5 -0.6 0.4
v 0.5 -0.5 0.4
v -0.5 -0.4 0.2
v -0.5 -0.3 0.2
v -0.4 -0.4 0.2
v -0.4 -0.3 0.2
v 0.4 -0.5 0.2
v 0.4 -0.4 0.2
v 0.5 -0.5 0.2
v 0.5 -0.4 0.2
v -0.5 -0.3 -0.2
v -0.5 -0.2 -0.2
v -0.4 -0.3 -0.2
v -0.4 -0.2 -0.2
v -0.4 0.1 -0.4
v -0.4 0.2 -0.4
v -0.2 0.1 -0.4
v -0.1 0.1 -0.4
v -0.1 0.2 -0.4
v 0 0.1 -0.4
v 0 0.2 -0.4
v 0.1 0.1 -0.4
v 0.2 0.1 -0.4
v 0.4 0.1 -0.4
v 0.4 0.2 -0.4
v -0.5 -0.2 -0.5
v -0.5 0.1 -0.5
v -0.4 -0.2 -0.5
v -0.4 -0.1 -0.5
v -0.2 0 -0.5
v -0.2 0.1 -0.5
v 0 -0.2 -0.5
v 0 -0.1 -0.5
v 0 0 -0.5
v 0 0.1 -0.5
v 0.1 -0.3 -0.5
v 0.1 -0.2 -0.5
v 0.1 -0.1 -0.5
v 0.1 0 -0.5
v 0.1 0.1 -0.5
v 0.2 -0.4 -0.5
v 0.2 -0.3 -0.5
v 0.2 0 -0.5
v 0.2 0.1 -0.5
v 0.3 -0.5 -0.5
v 0.3 -0.4 -0.5
v 0.3 -0.2 -0.5
v 0.3 -0.1 -0.5
v 0.4 -0.6 -0.5
v 0.4 -0.5 -0.5
v 0.4 -0.4 -0.5
v 0.4 -0.3 -0.5
v 0.4 -0.2 -0.5
v 0.4 0 -0.5
v 0.4 0.1 -0.5
v 0.5 -0.6 -0.5
v 0.5 -0.5 -0.5
v 0.5 -0.4 -0.5
v 0.5 -0.3 -0.5
v 0.5 -0.2 -0.5
v 0.5 0 -0.5
v 0.5 0.1 -0.5
v -0.1 -0.8 0.5
v 0.3 -0.8 0.5
v -0.1 -0.8 0.4
v 0.3 -0.8 0.4
v -0.2 -0.7 0.5
v -0.1 -0.7 0.5
v 0.3 -0.7 0.5
v 0.4 -0.7 0.5
v -0.2 -0.7 0.4
v -0.1 -0.7 0.4
v 0.3 -0.7 0.4
v 0.4 -0.7 0.4
v -0.3 -0.6 0.5
v -0.2 -0.6 0.5
v 0.4 -0.6 0.5
v 0.5 -0.6 0.5
v -0.3 -0.6 0.4
v -0.2 -0.6 0.4
v 0.4 -0.6 0.4
v 0.5 -0.6 0.4
v 0.4 -0.6 -0.4
v 0.5 -0.6 -0.4
v 0.4 -0.6 -0.5
v 0.5 -0.6 -0.5
v -0.4 -0.5 0.5
v -0.3 -0.5 0.5
v -0.4 -0.5 0.4
v -0.3 -0.5 0.4
v 0.4 -0.5 0.4
v 0.5 -0.5 0.4
v 0.4 -0.5 0.2
v 0.5 -0.5 0.2
v 0.4 -0.5 -0.3
v 0.5 -0.5 -0.3
v 0.3 -0.5 -0.4
v 0.4 -0.5 -0.4
v 0.5 -0.5 -0.4
v 0.3 -0.5 -0.5
v 0.4 -0.5 -0.5
v -0.5 -0.4 0.5
v -0.4 -0.4 0.5
v -0.4 -0.4 0.4
v -0.5 -0.4 0.2
v -0.4 -0.4 0.2
v 0.4 -0.4 0.2
v 0.5 -0.4 0.2
v 0.4 -0.4 -0.3
v 0.5 -0.4 -0.3
v 0.2 -0.4 -0.4
v 0.3 -0.4 -0.4
v 0.2 -0.4 -0.5
v 0.3 -0.4 -0.5
v -0.5 -0.3 0.2
v -0.4 -0.3 0.2
v -0.5 -0.3 0.1
v -0.4 -0.3 0.1
v -0.5 -0.3 0
v -0.4 -0.3 0
v -0.5 -0.3 -0.2
v -0.4 -0.3 -0.2
v 0.1 -0.3 -0.4
v 0.2 -0.3 -0.4
v 0.1 -0.3 -0.5
v 0.2 -0.3 -0.5
v -0.5 -0.2 -0.2
v -0.4 -0.2 -0.2
v 0 -0.2 -0.4
v 0.1 -0.2 -0.4
v -0.5 -0.2 -0.5
v -0.4 -0.2 -0.5
v 0 -0.2 -0.5
v 0.1 -0.2 -0.5
v -0.4 -0.1 -0.4
v 0 -0.1 -0.4
v -0.4 -0.1 -0.5
v 0 -0.1 -0.5
v -0.4 0 0.4
v 0 0 0.4
v 0.1 0 0.4
v 0.4 0 0.4
v 0.4 0 0.2
v 0.4 0 0.1
v 0.4 0 -0.2
v -0.4 0 -0.3
v 0.4 0 -0.3
v -0.4 0 -0.4
v 0.4 0 -0.4
v -0.5 0 0.5
v -0.4 0 0.5
v -0.3 0 0.5
v 0.3 0 0.5
v 0.5 0 0.5
v -0.5 0 0.4
v -0.4 0 0.4
v -0.3 0 0.4
v 0.3 0 0.4
v 0.5 0 0.4
v -0.3 0.1 0.5
v -0.1 0.1 0.5
v 0.1 0.1 0.5
v 0.3 0.1 0.5
v -0.5 0.1 0.4
v -0.4 0.1 0.4
v -0.3 0.1 0.4
v -0.1 0.1 0.4
v 0.1 0.1 0.4
v 0.3 0.1 0.4
v 0.5 0.1 0.4
v -0.5 0.1 0.3
v -0.4 0.1 0.3
v -0.3 0.1 0.3
v 0.3 0.1 0.3
v 0.4 0.1 0.3
v -0.5 0.1 0
v -0.4 0.1 0
v -0.5 0.1 -0.1
v -0.4 0.1 -0.1
v -0.4 0.1 -0.2
v -0.4 0.1 -0.4
v -0.2 0.1 -0.4
v -0.1 0.1 -0.4
v 0 0.1 -0.4
v 0.1 0.1 -0.4
v 0.2 0.1 -0.4
v 0.4 0.1 -0.4
v 0.5 0.1 -0.4
v -0.5 0.1 -0.5
v -0.2 0.1 -0.5
v 0 0.1 -0.5
v 0.1 0.1 -0.5
v 0.2 0.1 -0.5
v 0.4 0.1 -0.5
v 0.5 0.1 -0.5
v -0.1 0.2 0.5
v 0.1 0.2 0.5
v -0.3 0.2 0.4
v -0.1 0.2 0.4
v 0.1 0.2 0.4
v 0.3 0.2 0.4
v -0.4 0.2 0.3
v -0.3 0.2 0.3
v 0.3 0.2 0.3
v 0.4 0.2 0.3
v 0 0.2 0.2
v 0.1 0.2 0.2
v -0.1 0.2 0.1
v 0 0.2 0.1
v 0.1 0.2 0.1
v -0.2 0.2 0
v -0.1 0.2 0
v 0 0.2 0
v 0.2 0.2 0
v 0.3 0.2 0
v -0.4 0.2 -0.1
v -0.3 0.2 -0.1
v -0.2 0.2 -0.1
v -0.1 0.2 -0.1
v 0.2 0.2 -0.1
v 0.3 0.2 -0.1
v -0.4 0.2 -0.2
v -0.3 0.2 -0.2
v 0.2 0.2 -0.2
v 0.3 0.2 -0.2
v -0.1 0.2 -0.3
v 0 0.2 -0.3
v 0.2 0.2 -0.3
v 0.3 0.2 -0.3
v -0.4 0.2 -0.4
v -0.1 0.2 -0.4
v 0 0.2 -0.4
v 0.4 0.2 -0.4

# faces
f 3/1/1 2/1/1 1/1/1
f 4/1/1 2/1/1 3/1/1
f 5/1/1 2/1/1 4/1/1
f 9/1/1 3/1/1 1/1/1
f 9/2/1 4/2/1 3/2/1
f 10/1/1 5/1/1 4/1/1
f 10/2/1 4/2/1 9/2/1
f 10/1/1 6/1/1 5/1/1
f 11/2/1 7/2/1 6/2/1
f 11/1/1 6/1/1 10/1/1
f 12/1/1 8/1/1 7/1/1
f 12/2/1 7/2/1 11/2/1
f 13/1/1 8/1/1 12/1/1
f 15/1/1 11/1/1 10/1/1
f 15/1/1 14/1/1 13/1/1
f 15/1/1 13/1/1 12/1/1
f 15/1/1 12/1/1 11/1/1
f 15/1/1 9/1/1 1/1/1
f 15/1/1 10/1/1 9/1/1
f 16/1/1 14/1/1 15/1/1
f 17/1/1 14/1/1 16/1/1
f 18/1/1 14/1/1 17/1/1
f 19/2/1 16/2/1 15/2/1
f 20/1/1 17/1/1 16/1/1
f 20/2/1 16/2/1 19/2/1
f 21/1/1 17/1/1 20/1/1
f 22/1/1 17/1/1 21/1/1
f 23/1/1 17/1/1 22/1/1
f 24/2/1 18/2/1 17/2/1
f 24/1/1 17/1/1 23/1/1
f 25/1/1 14/1/1 18/1/1
f 25/2/1 18/2/1 24/2/1
f 26/2/1 21/2/1 20/2/1
f 27/1/1 22/1/1 21/1/1
f 27/2/1 21/2/1 26/2/1
f 28/2/1 23/2/1 22/2/1
f 28/1/1 22/1/1 27/1/1
f 29/1/1 24/1/1 23/1/1
f 29/2/1 23/2/1 28/2/1
f 29/1/1 25/1/1 24/1/1
f 30/1/1 14/1/1 25/1/1
f 30/1/1 25/1/1 29/1/1
f 33/1/1 32/1/1 31/1/1
f 34/1/1 32/1/1 33/1/1
f 40/1/1 36/1/1 35/1/1
f 40/1/1 37/1/1 36/1/1
f 41/2/1 38/2/1 37/2/1
f 41/1/1 37/1/1 40/1/1
f 42/1/1 39/1/1 38/1/1
f 42/2/1 38/2/1 41/2/1
f 43/1/1 39/1/1 42/1/1
f 46/1/1 45/1/1 44/1/1
f 47/1/1 45/1/1 46/1/1
f 50/1/1 49/1/1 48/1/1
f 51/1/1 49/1/1 50/1/1
f 53/1/1 52/1/1 51/1/1
f 54/1/1 52/1/1 53/1/1
f 57/1/1 56/1/1 55/1/1
f 58/1/1 56/1/1 57/1/1
f 61/1/1 60/1/1 59/1/1
f 62/1/1 60/1/1 61/1/1
f 65/1/1 64/1/1 63/1/1
f 66/1/1 64/1/1 65/1/1
f 69/1/1 68/1/1 67/1/1
f 70/1/1 68/1/1 69/1/1
f 73/1/1 72/1/1 71/1/1
f 74/1/1 72/1/1 73/1/1
f 77/1/1 76/1/1 75/1/1
f 78/1/1 76/1/1 77/1/1
f 81/1/1 80/1/1 79/1/1
f 82/1/1 80/1/1 81/1/1
f 88/1/1 84/1/1 83/1/1
f 89/1/1 84/1/1 88/1/1
f 90/1/1 86/1/1 85/1/1
f 91/1/1 86/1/1 90/1/1
f 92/1/1 86/1/1 91/1/1
f 93/1/1 88/1/1 87/1/1
f 94/2/1 91/2/1 90/2/1
f 95/1/1 92/1/1 91/1/1
f 95/2/1 91/2/1 94/2/1
f 95/1/1 93/1/1 92/1/1
f 96/1/1 93/1/1 95/1/1
f 97/1/1 93/1/1 96/1/1
f 98/1/1 95/1/1 94/1/1
f 98/1/1 96/1/1 95/1/1
f 98/2/1 97/2/1 96/2/1
f 99/1/1 93/1/1 97/1/1
f 99/2/1 97/2/1 98/2/1
f 100/1/1 98/1/1 94/1/1
f 100/1/1 99/1/1 98/1/1
f 101/1/1 99/1/1 100/1/1
f 102/1/1 93/1/1 99/1/1
f 102/1/1 99/1/1 101/1/1
f 103/1/1 88/1/1 93/1/1
f 103/1/1 93/1/1 102/1/1
f 104/1/1 100/1/1 94/1/1
f 105/2/1 101/2/1 100/2/1
f 105/1/1 100/1/1 104/1/1
f 106/1/1 102/1/1 101/1/1
f 106/2/1 101/2/1 105/2/1
f 107/2/1 103/2/1 102/2/1
f 107/1/1 102/1/1 106/1/1
f 108/1/1 88/1/1 103/1/1
f 108/2/1 103/2/1 107/2/1
f 109/1/1 88/1/1 108/1/1
f 110/1/2 111/1/2 112/1/2
f 112/1/2 111/1/2 113/1/2
f 113/1/2 111/1/2 114/1/2
f 112/2/2 113/2/2 118/2/2
f 113/1/2 114/1/2 119/1/2
f 118/2/2 113/2/2 119/2/2
f 114/1/2 115/1/2 119/1/2
f 115/2/2 116/2/2 120/2/2
f 119/1/2 115/1/2 120/1/2
f 116/1/2 117/1/2 121/1/2
f 120/2/2 116/2/2 121/2/2
f 121/1/2 117/1/2 122/1/2
f 119/1/2 120/1/2 124/1/2
f 122/1/2 123/1/2 124/1/2
f 121/1/2 122/1/2 124/1/2
f 120/1/2 121/1/2 124/1/2
f 118/1/2 119/1/2 124/1/2
f 124/1/2 123/1/2 125/1/2
f 125/1/2 123/1/2 126/1/2
f 118/1/2 124/1/2 127/1/2
f 124/2/2 125/2/2 128/2/2
f 127/1/2 124/1/2 128/1/2
f 128/2/2 125/2/2 129/2/2
f 130/1/2 131/1/2 132/1/2
f 132/1/2 131/1/2 133/1/2
f 134/1/2 135/1/2 136/1/2
f 136/1/2 135/1/2 137/1/2
f 138/1/2 139/1/2 140/1/2
f 140/1/2 139/1/2 141/1/2
f 141/1/2 142/1/2 143/1/2
f 143/1/2 142/1/2 144/1/2
f 145/1/2 146/1/2 147/1/2
f 147/1/2 146/1/2 148/1/2
f 149/1/2 150/1/2 151/1/2
f 151/1/2 150/1/2 152/1/2
f 153/1/2 154/1/2 157/1/2
f 155/1/2 156/1/2 160/1/2
f 160/1/2 156/1/2 161/1/2
f 157/1/2 158/1/2 162/1/2
f 153/1/2 157/1/2 162/1/2
f 162/1/2 158/1/2 163/1/2
f 163/1/2 158/1/2 164/1/2
f 159/1/2 160/1/2 165/1/2
f 160/2/2 161/2/2 166/2/2
f 165/1/2 160/1/2 166/1/2
f 166/2/2 161/2/2 167/2/2
f 153/1/2 162/1/2 168/1/2
f 162/2/2 163/2/2 168/2/2
f 164/1/2 165/1/2 169/1/2
f 168/2/2 163/2/2 169/2/2
f 163/1/2 164/1/2 169/1/2
f 165/1/2 166/1/2 169/1/2
f 166/1/2 167/1/2 169/1/2
f 169/1/2 167/1/2 170/1/2
f 170/1/2 167/1/2 171/1/2
f 171/1/2 167/1/2 172/1/2
f 172/1/2 167/1/2 173/1/2
f 153/1/2 168/1/2 174/1/2
f 168/1/2 169/1/2 174/1/2
f 169/1/2 170/1/2 174/1/2
f 174/1/2 170/1/2 175/1/2
f 170/2/2 171/2/2 176/2/2
f 175/1/2 170/1/2 176/1/2
f 171/1/2 172/1/2 177/1/2
f 176/2/2 171/2/2 177/2/2
f 172/2/2 173/2/2 178/2/2
f 177/1/2 172/1/2 178/1/2
f 178/2/2 173/2/2 179/2/2
f 174/2/2 175/2/2 180/2/2
f 176/1/2 177/1/2 181/1/2
f 180/2/2 175/2/2 181/2/2
f 175/1/2 176/1/2 181/1/2
f 178/1/2 179/1/2 181/1/2
f 177/1/2 178/1/2 181/1/2
f 181/1/2 179/1/2 182/1/2
f 182/1/2 179/1/2 183/1/2
f 183/1/2 179/1/2 184/1/2
f 184/1/2 179/1/2 185/1/2
f 180/1/2 181/1/2 186/1/2
f 181/1/2 182/1/2 186/1/2
f 186/1/2 182/1/2 187/1/2
f 182/2/2 183/2/2 188/2/2
f 187/1/2 182/1/2 188/1/2
f 183/1/2 184/1/2 189/1/2
f 188/2/2 183/2/2 189/2/2
f 184/2/2 185/2/2 190/2/2
f 189/1/2 184/1/2 190/1/2
f 185/1/2 179/1/2 191/1/2
f 190/2/2 185/2/2 191/2/2
f 191/1/2 179/1/2 192/1/2
f 192/1/2 179/1/2 193/1/2
f 189/1/2 190/1/2 194/1/2
f 188/1/2 189/1/2 194/1/2
f 191/1/2 192/1/2 194/1/2
f 190/1/2 191/1/2 194/1/2
f 187/1/2 188/1/2 194/1/2
f 192/2/2 193/2/2 195/2/2
f 194/1/2 192/1/2 195/1/2
f 195/2/2 193/2/2 196/2/2
f 201/1/3 198/1/3 197/1/3
f 202/1/3 198/1/3 201/1/3
f 203/1/3 198/1/3 202/1/3
f 204/2/3 199/2/3 198/2/3
f 204/1/3 198/1/3 203/1/3
f 205/2/3 199/2/3 204/2/3
f 207/1/3 201/1/3 200/1/3
f 207/1/3 202/1/3 201/1/3
f 208/2/3 203/2/3 202/2/3
f 208/1/3 202/1/3 207/1/3
f 209/1/3 205/1/3 204/1/3
f 209/2/3 203/2/3 208/2/3
f 209/1/3 204/1/3 203/1/3
f 210/1/3 205/1/3 209/1/3
f 213/1/3 207/1/3 206/1/3
f 213/1/3 211/1/3 210/1/3
f 213/1/3 209/1/3 208/1/3
f 213/1/3 210/1/3 209/1/3
f 213/1/3 208/1/3 207/1/3
f 214/1/3 211/1/3 213/1/3
f 215/1/3 211/1/3 214/1/3
f 217/1/3 213/1/3 212/1/3
f 217/1/3 214/1/3 213/1/3
f 218/2/3 215/2/3 214/2/3
f 218/1/3 214/1/3 217/1/3
f 219/1/3 211/1/3 215/1/3
f 219/2/3 215/2/3 218/2/3
f 220/1/3 211/1/3 219/1/3
f 221/1/3 211/1/3 220/1/3
f 222/1/3 211/1/3 221/1/3
f 224/1/3 218/1/3 217/1/3
f 224/1/3 217/1/3 216/1/3
f 224/1/3 219/1/3 218/1/3
f 224/1/3 220/1/3 219/1/3
f 225/1/3 220/1/3 224/1/3
f 226/2/3 221/2/3 220/2/3
f 226/1/3 220/1/3 225/1/3
f 227/1/3 223/1/3 222/1/3
f 227/2/3 221/2/3 226/2/3
f 227/1/3 222/1/3 221/1/3
f 228/1/3 223/1/3 227/1/3
f 229/1/3 224/1/3 216/1/3
f 229/2/3 225/2/3 224/2/3
f 230/1/3 226/1/3 225/1/3
f 230/2/3 225/2/3 229/2/3
f 230/1/3 227/1/3 226/1/3
f 231/1/3 227/1/3 230/1/3
f 232/2/3 228/2/3 227/2/3
f 232/1/3 227/1/3 231/1/3
f 233/1/3 223/1/3 228/1/3
f 233/2/3 228/2/3 232/2/3
f 234/1/3 223/1/3 233/1/3
f 235/2/3 231/2/3 230/2/3
f 235/1/3 230/1/3 229/1/3
f 236/1/3 232/1/3 231/1/3
f 236/2/3 231/2/3 235/2/3
f 236/1/3 233/1/3 232/1/3
f 237/1/3 229/1/3 216/1/3
f 237/1/3 235/1/3 229/1/3
f 237/1/3 236/1/3 235/1/3
f 238/1/3 236/1/3 237/1/3
f 239/1/3 233/1/3 236/1/3
f 239/1/3 236/1/3 238/1/3
f 240/1/3 233/1/3 239/1/3
f 241/1/3 239/1/3 238/1/3
f 242/1/3 239/1/3 241/1/3
f 243/1/3 239/1/3 242/1/3
f 244/1/3 239/1/3 243/1/3
f 245/1/3 243/1/3 242/1/3
f 246/2/3 244/2/3 243/2/3
f 246/1/3 243/1/3 245/1/3
f 247/1/3 239/1/3 244/1/3
f 247/2/3 244/2/3 246/2/3
f 248/1/3 239/1/3 247/1/3
f 251/2/3 250/2/3 249/2/3
f 252/2/3 250/2/3 251/2/3
f 253/1/3 252/1/3 251/1/3
f 254/1/3 252/1/3 253/1/3
f 256/1/3 255/1/3 254/1/3
f 257/1/3 255/1/3 256/1/3
f 261/1/3 259/1/3 258/1/3
f 262/1/3 259/1/3 261/1/3
f 263/1/3 261/1/3 260/1/3
f 264/1/3 261/1/3 263/1/3
f 267/1/3 266/1/3 265/1/3
f 268/1/3 266/1/3 267/1/3
f 271/1/3 270/1/3 269/1/3
f 272/1/3 270/1/3 271/1/3
f 275/1/3 274/1/3 273/1/3
f 276/1/3 274/1/3 275/1/3
f 280/1/3 278/1/3 277/1/3
f 282/1/3 280/1/3 279/1/3
f 283/1/3 278/1/3 280/1/3
f 283/1/3 280/1/3 282/1/3
f 285/1/3 282/1/3 281/1/3
f 287/1/3 285/1/3 284/1/3
f 288/2/3 283/2/3 282/2/3
f 288/1/3 282/1/3 285/1/3
f 288/1/3 285/1/3 287/1/3
f 289/1/3 278/1/3 283/1/3
f 289/2/3 283/2/3 288/2/3
f 291/1/3 288/1/3 287/1/3
f 291/1/3 287/1/3 286/1/3
f 291/1/3 289/1/3 288/1/3
f 292/1/3 278/1/3 289/1/3
f 292/1/3 289/1/3 291/1/3
f 293/1/3 291/1/3 290/1/3
f 294/1/3 291/1/3 293/1/3
f 295/1/4 296/1/4 301/1/4
f 296/1/4 297/1/4 301/1/4
f 297/2/4 298/2/4 302/2/4
f 301/1/4 297/1/4 302/1/4
f 298/1/4 299/1/4 303/1/4
f 302/2/4 298/2/4 303/2/4
f 301/1/4 302/1/4 305/1/4
f 300/1/4 301/1/4 305/1/4
f 302/1/4 303/1/4 305/1/4
f 305/1/4 303/1/4 306/1/4
f 306/1/4 303/1/4 307/1/4
f 304/1/4 305/1/4 309/1/4
f 305/1/4 306/1/4 309/1/4
f 306/2/4 307/2/4 310/2/4
f 309/1/4 306/1/4 310/1/4
f 307/1/4 303/1/4 311/1/4
f 310/2/4 307/2/4 311/2/4
f 303/1/4 299/1/4 312/1/4
f 311/1/4 303/1/4 312/1/4
f 312/1/4 299/1/4 313/1/4
f 310/1/4 311/1/4 314/1/4
f 309/1/4 310/1/4 314/1/4
f 308/1/4 309/1/4 314/1/4
f 311/1/4 312/1/4 314/1/4
f 314/1/4 312/1/4 315/1/4
f 312/2/4 313/2/4 316/2/4
f 315/1/4 312/1/4 316/1/4
f 313/1/4 299/1/4 317/1/4
f 316/2/4 313/2/4 317/2/4
f 317/1/4 299/1/4 318/1/4
f 314/2/4 315/2/4 319/2/4
f 308/1/4 314/1/4 319/1/4
f 315/1/4 316/1/4 320/1/4
f 319/2/4 315/2/4 320/2/4
f 316/1/4 317/1/4 320/1/4
f 320/1/4 317/1/4 321/1/4
f 317/2/4 318/2/4 322/2/4
f 321/1/4 317/1/4 322/1/4
f 322/2/4 318/2/4 323/2/4
f 320/2/4 321/2/4 324/2/4
f 319/1/4 320/1/4 324/1/4
f 322/1/4 323/1/4 325/1/4
f 324/2/4 321/2/4 325/2/4
f 321/1/4 322/1/4 325/1/4
f 308/1/4 319/1/4 326/1/4
f 319/1/4 324/1/4 326/1/4
f 324/1/4 325/1/4 326/1/4
f 326/1/4 325/1/4 327/1/4
f 327/1/4 325/1/4 328/1/4
f 328/1/4 325/1/4 329/1/4
f 329/1/4 325/1/4 330/1/4
f 330/1/4 325/1/4 331/1/4
f 325/1/4 323/1/4 332/1/4
f 331/1/4 325/1/4 332/1/4
f 332/1/4 323/1/4 333/1/4
f 329/1/4 330/1/4 334/1/4
f 334/1/4 330/1/4 335/1/4
f 336/1/4 337/1/4 338/1/4
f 338/1/4 337/1/4 339/1/4
f 340/1/4 341/1/4 342/1/4
f 342/1/4 341/1/4 343/1/4
f 344/1/4 345/1/4 346/1/4
f 346/1/4 345/1/4 347/1/4
f 348/1/4 349/1/4 350/1/4
f 350/1/4 349/1/4 351/1/4
f 351/1/4 349/1/4 352/1/4
f 351/2/4 352/2/4 353/2/4
f 353/2/4 352/2/4 354/2/4
f 353/1/4 354/1/4 355/1/4
f 355/1/4 354/1/4 356/1/4
f 356/1/4 354/1/4 357/1/4
f 357/1/4 354/1/4 358/1/4
f 359/1/4 360/1/4 361/1/4
f 361/1/4 360/1/4 362/1/4
f 362/1/4 360/1/4 363/1/4
f 363/1/4 360/1/4 364/1/4
f 362/1/4 363/1/4 366/1/4
f 363/2/4 364/2/4 367/2/4
f 366/1/4 363/1/4 367/1/4
f 367/2/4 364/2/4 368/2/4
f 365/1/4 366/1/4 370/1/4
f 366/1/4 367/1/4 370/1/4
f 367/1/4 368/1/4 370/1/4
f 370/1/4 368/1/4 371/1/4
f 371/1/4 368/1/4 372/1/4
f 372/1/4 368/1/4 373/1/4
f 369/1/4 370/1/4 375/1/4
f 371/1/4 372/1/4 376/1/4
f 372/2/4 373/2/4 376/2/4
f 376/2/4 373/2/4 377/2/4
f 374/1/4 375/1/4 379/1/4
f 370/2/4 371/2/4 380/2/4
f 375/1/4 370/1/4 380/1/4
f 379/1/4 375/1/4 380/1/4
f 371/1/4 376/1/4 381/1/4
f 380/2/4 371/2/4 381/2/4
f 376/1/4 377/1/4 381/1/4
f 378/1/4 379/1/4 383/1/4
f 379/1/4 380/1/4 383/1/4
f 380/1/4 381/1/4 383/1/4
f 383/1/4 381/1/4 384/1/4
f 384/1/4 381/1/4 385/1/4
f 385/1/4 381/1/4 386/1/4
f 381/1/4 377/1/4 387/1/4
f 386/1/4 381/1/4 387/1/4
f 387/1/4 377/1/4 388/1/4
f 382/1/4 383/1/4 389/1/4
f 383/2/4 384/2/4 390/2/4
f 389/1/4 383/1/4 390/1/4
f 384/1/4 385/1/4 391/1/4
f 390/2/4 384/2/4 391/2/4
f 385/2/4 386/2/4 392/2/4
f 391/1/4 385/1/4 392/1/4
f 386/1/4 387/1/4 393/1/4
f 392/2/4 386/2/4 393/2/4
f 387/2/4 388/2/4 394/2/4
f 393/1/4 387/1/4 394/1/4
f 394/2/4 388/2/4 395/2/4
f 398/1/5 397/1/5 396/1/5
f 399/1/5 397/1/5 398/1/5
f 404/1/5 401/1/5 400/1/5
f 405/1/5 401/1/5 404/1/5
f 406/1/5 403/1/5 402/1/5
f 407/1/5 403/1/5 406/1/5
f 412/1/5 409/1/5 408/1/5
f 413/1/5 409/1/5 412/1/5
f 414/1/5 411/1/5 410/1/5
f 415/1/5 411/1/5 414/1/5
f 418/1/5 417/1/5 416/1/5
f 419/1/5 417/1/5 418/1/5
f 422/1/5 421/1/5 420/1/5
f 423/1/5 421/1/5 422/1/5
f 426/1/5 425/1/5 424/1/5
f 427/1/5 425/1/5 426/1/5
f 431/1/5 429/1/5 428/1/5
f 432/1/5 429/1/5 431/1/5
f 433/1/5 431/1/5 430/1/5
f 434/1/5 431/1/5 433/1/5
f 437/1/5 436/1/5 435/1/5
f 438/1/5 437/1/5 435/1/5
f 439/1/5 437/1/5 438/1/5
f 442/1/5 441/1/5 440/1/5
f 443/1/5 441/1/5 442/1/5
f 446/1/5 445/1/5 444/1/5
f 447/1/5 445/1/5 446/1/5
f 450/1/5 449/1/5 448/1/5
f 451/1/5 449/1/5 450/1/5
f 452/2/5 451/2/5 450/2/5
f 453/2/5 451/2/5 452/2/5
f 454/1/5 453/1/5 452/1/5
f 455/1/5 453/1/5 454/1/5
f 458/1/5 457/1/5 456/1/5
f 459/1/5 457/1/5 458/1/5
f 464/1/5 461/1/5 460/1/5
f 465/1/5 461/1/5 464/1/5
f 466/1/5 463/1/5 462/1/5
f 467/1/5 463/1/5 466/1/5
f 470/1/5 469/1/5 468/1/5
f 471/1/5 469/1/5 470/1/5
f 476/1/5 473/1/5 472/1/5
f 476/1/5 475/1/5 474/1/5
f 476/1/5 474/1/5 473/1/5
f 477/1/5 476/1/5 472/1/5
f 478/1/5 477/1/5 472/1/5
f 479/1/5 478/1/5 472/1/5
f 480/1/5 478/1/5 479/1/5
f 481/1/5 480/1/5 479/1/5
f 482/1/5 480/1/5 481/1/5
f 483/2/6 484/2/6 488/2/6
f 484/1/6 485/1/6 489/1/6
f 488/2/6 484/2/6 489/2/6
f 489/1/6 485/1/6 490/1/6
f 486/1/6 487/1/6 491/1/6
f 491/1/6 487/1/6 492/1/6
f 493/1/6 494/1/6 499/1/6
f 499/1/6 494/1/6 500/1/6
f 495/1/6 496/1/6 501/1/6
f 501/1/6 496/1/6 502/1/6
f 497/2/6 498/2/6 504/2/6
f 498/1/6 499/1/6 505/1/6
f 504/2/6 498/2/6 505/2/6
f 505/1/6 499/1/6 506/1/6
f 502/1/6 503/1/6 507/1/6
f 507/1/6 503/1/6 508/1/6
f 504/1/6 505/1/6 509/1/6
f 509/1/6 505/1/6 510/1/6
f 509/2/6 510/2/6 511/2/6
f 511/2/6 510/2/6 512/2/6
f 511/1/6 512/1/6 513/1/6
f 511/1/6 513/1/6 514/1/6
f 508/1/6 503/1/6 520/1/6
f 520/1/6 503/1/6 521/1/6
f 511/1/6 514/1/6 522/1/6
f 514/1/6 515/1/6 522/1/6
f 515/2/6 516/2/6 523/2/6
f 522/1/6 515/1/6 523/1/6
f 516/2/6 517/2/6 523/2/6
f 517/1/6 518/1/6 524/1/6
f 523/2/6 517/2/6 524/2/6
f 518/2/6 519/2/6 525/2/6
f 524/1/6 518/1/6 525/1/6
f 519/1/6 520/1/6 526/1/6
f 525/2/6 519/2/6 526/2/6
f 520/2/6 521/2/6 527/2/6
f 526/1/6 520/1/6 527/1/6
f 527/2/6 521/2/6 528/2/6
f 529/1/6 530/1/6 532/1/6
f 532/1/6 530/1/6 533/1/6
f 531/1/6 532/1/6 536/1/6
f 533/1/6 534/1/6 536/1/6
f 532/1/6 533/1/6 536/1/6
f 536/1/6 534/1/6 537/1/6
f 535/1/6 536/1/6 539/1/6
f 537/1/6 538/1/6 539/1/6
f 536/1/6 537/1/6 539/1/6
f 539/1/6 538/1/6 540/1/6
f 535/1/6 539/1/6 541/1/6
f 539/2/6 540/2/6 542/2/6
f 541/1/6 539/1/6 542/1/6
f 540/1/6 538/1/6 543/1/6
f 542/2/6 540/2/6 543/2/6
f 535/1/6 541/1/6 544/1/6
f 541/2/6 542/2/6 545/2/6
f 544/1/6 541/1/6 545/1/6
f 542/1/6 543/1/6 546/1/6
f 545/2/6 542/2/6 546/2/6
f 543/1/6 538/1/6 547/1/6
f 546/1/6 543/1/6 547/1/6
f 547/1/6 538/1/6 548/1/6
f 535/1/6 544/1/6 549/1/6
f 549/1/6 544/1/6 550/1/6
f 544/2/6 545/2/6 551/2/6
f 550/1/6 544/1/6 551/1/6
f 545/1/6 546/1/6 552/1/6
f 551/2/6 545/2/6 552/2/6
f 546/1/6 547/1/6 552/1/6
f 547/2/6 548/2/6 553/2/6
f 552/1/6 547/1/6 553/1/6
f 548/1/6 538/1/6 554/1/6
f 553/2/6 548/2/6 554/2/6
f 549/2/6 550/2/6 555/2/6
f 552/1/6 553/1/6 556/1/6
f 555/2/6 550/2/6 556/2/6
f 550/1/6 551/1/6 556/1/6
f 553/1/6 554/1/6 556/1/6
f 551/1/6 552/1/6 556/1/6
f 556/1/6 554/1/6 557/1/6
f 554/1/6 538/1/6 558/1/6
f 557/1/6 554/1/6 558/1/6
f 556/1/6 557/1/6 559/1/6
f 555/1/6 556/1/6 559/1/6
f 559/1/6 557/1/6 560/1/6
f 557/2/6 558/2/6 561/2/6
f 560/1/6 557/1/6 561/1/6
f 558/1/6 538/1/6 562/1/6
f 561/2/6 558/2/6 562/2/6
f 555/1/6 559/1/6 563/1/6
f 559/2/6 560/2/6 564/2/6
f 563/1/6 559/1/6 564/1/6
f 560/1/6 561/1/6 565/1/6
f 564/2/6 560/2/6 565/2/6
f 561/1/6 562/1/6 565/1/6
f 562/1/6 538/1/6 566/1/6
f 565/1/6 562/1/6 566/1/6
