# MagicaVoxel @ Ephtracy

# group
o 

# material
mtllib BasiliskFang.mtl
usemtl palette

# normals
vn -1 0 0
vn 1 0 0
vn 0 0 1
vn 0 0 -1
vn 0 -1 0
vn 0 1 0

# texcoords
vt 0.958984 0.5
vt 0.962891 0.5
vt 0.966797 0.5

# verts
v -0.4 0 0.3
v -0.4 0 -0.3
v -0.4 0.1 0.3
v -0.4 0.1 0.2
v -0.4 0.1 0
v -0.4 0.1 -0.3
v -0.4 0.2 0.3
v -0.4 0.2 0.2
v -0.4 0.2 0
v -0.3 0 0.4
v -0.3 0 0.3
v -0.3 0 -0.3
v -0.3 0 -0.4
v -0.3 0.1 0.4
v -0.3 0.1 0.3
v -0.3 0.1 -0.3
v -0.3 0.1 -0.4
v -0.2 0.1 0.4
v -0.2 0.1 0.3
v -0.2 0.1 0.1
v -0.2 0.1 0
v -0.2 0.1 -0.2
v -0.2 0.2 0.4
v -0.2 0.2 0.3
v -0.2 0.2 0.1
v -0.2 0.2 0
v -0.2 0.2 -0.2
v 0 0.1 0.2
v 0 0.1 0.1
v 0 0.1 0
v 0 0.1 -0.1
v 0 0.1 -0.3
v 0 0.2 0.2
v 0 0.2 0.1
v 0 0.2 0
v 0 0.2 -0.1
v 0 0.2 -0.3
v 0.2 0.1 0
v 0.2 0.1 -0.1
v 0.2 0.1 -0.3
v 0.2 0.2 0
v 0.2 0.2 -0.1
v 0.2 0.2 -0.3
v -0.3 0.1 0.3
v -0.3 0.1 0.2
v -0.3 0.1 0
v -0.3 0.2 0.3
v -0.3 0.2 0.2
v -0.3 0.2 0
v -0.1 0.1 0.1
v -0.1 0.1 0
v -0.1 0.1 -0.2
v -0.1 0.2 0.1
v -0.1 0.2 0
v -0.1 0.2 -0.2
v 0.1 0.1 0.4
v 0.1 0.1 0.3
v 0.1 0.1 0
v 0.1 0.1 -0.1
v 0.1 0.1 -0.3
v 0.1 0.2 0.4
v 0.1 0.2 0.3
v 0.1 0.2 0
v 0.1 0.2 -0.1
v 0.1 0.2 -0.3
v 0.3 0 0.4
v 0.3 0 0.3
v 0.3 0 -0.3
v 0.3 0 -0.4
v 0.3 0.1 0.4
v 0.3 0.1 0.3
v 0.3 0.1 0.2
v 0.3 0.1 0.1
v 0.3 0.1 0
v 0.3 0.1 -0.1
v 0.3 0.1 -0.3
v 0.3 0.1 -0.4
v 0.3 0.2 0.2
v 0.3 0.2 0.1
v 0.3 0.2 0
v 0.3 0.2 -0.1
v 0.3 0.2 -0.3
v 0.4 0 0.3
v 0.4 0 -0.3
v 0.4 0.1 0.3
v 0.4 0.1 -0.3
v -0.3 0 0.4
v -0.3 0.1 0.4
v -0.2 0.1 0.4
v -0.2 0.2 0.4
v -0.1 0.1 0.4
v -0.1 0.2 0.4
v 0.1 0.1 0.4
v 0.1 0.2 0.4
v 0.3 0 0.4
v 0.3 0.1 0.4
v -0.4 0 0.3
v -0.4 0.1 0.3
v -0.4 0.2 0.3
v -0.3 0 0.3
v -0.3 0.1 0.3
v -0.3 0.2 0.3
v 0.3 0 0.3
v 0.3 0.1 0.3
v 0.4 0 0.3
v 0.4 0.1 0.3
v 0 0.1 0.2
v 0 0.2 0.2
v 0.1 0.1 0.2
v 0.1 0.2 0.2
v 0.3 0.1 0.2
v 0.3 0.2 0.2
v -0.2 0.1 0.1
v -0.2 0.2 0.1
v -0.1 0.1 0.1
v -0.1 0.2 0.1
v 0 0.1 0
v 0 0.2 0
v 0.1 0.1 0
v 0.1 0.2 0
v 0.2 0.1 0
v 0.2 0.2 0
v 0.3 0.1 0
v 0.3 0.2 0
v -0.2 0.1 0.3
v -0.2 0.2 0.3
v -0.1 0.1 0.3
v -0.1 0.2 0.3
v 0.1 0.1 0.3
v 0.1 0.2 0.3
v 0 0.1 0.1
v 0 0.2 0.1
v 0.1 0.1 0.1
v 0.1 0.2 0.1
v 0.3 0.1 0.1
v 0.3 0.2 0.1
v -0.4 0.1 0
v -0.4 0.2 0
v -0.3 0.1 0
v -0.3 0.2 0
v -0.2 0.1 -0.2
v -0.2 0.2 -0.2
v -0.1 0.1 -0.2
v -0.1 0.2 -0.2
v -0.4 0 -0.3
v -0.4 0.1 -0.3
v -0.3 0 -0.3
v -0.3 0.1 -0.3
v 0 0.1 -0.3
v 0 0.2 -0.3
v 0.1 0.1 -0.3
v 0.1 0.2 -0.3
v 0.2 0.1 -0.3
v 0.2 0.2 -0.3
v 0.3 0 -0.3
v 0.3 0.1 -0.3
v 0.3 0.2 -0.3
v 0.4 0 -0.3
v 0.4 0.1 -0.3
v -0.3 0 -0.4
v -0.3 0.1 -0.4
v 0.3 0 -0.4
v 0.3 0.1 -0.4
v -0.3 0 0.4
v 0.3 0 0.4
v -0.4 0 0.3
v -0.3 0 0.3
v 0.3 0 0.3
v 0.4 0 0.3
v -0.4 0 -0.3
v -0.3 0 -0.3
v 0.3 0 -0.3
v 0.4 0 -0.3
v -0.3 0 -0.4
v 0.3 0 -0.4
v -0.3 0.1 0.4
v -0.2 0.1 0.4
v 0.1 0.1 0.4
v 0.3 0.1 0.4
v -0.3 0.1 0.3
v -0.2 0.1 0.3
v -0.1 0.1 0.3
v 0.1 0.1 0.3
v 0.3 0.1 0.3
v 0.4 0.1 0.3
v -0.3 0.1 0.2
v 0 0.1 0.2
v 0.1 0.1 0.2
v 0.3 0.1 0.2
v -0.2 0.1 0.1
v -0.1 0.1 0.1
v 0 0.1 0.1
v 0.1 0.1 0.1
v 0.3 0.1 0.1
v -0.4 0.1 0
v -0.3 0.1 0
v -0.2 0.1 0
v -0.1 0.1 0
v 0 0.1 0
v 0.1 0.1 0
v 0.2 0.1 0
v 0.3 0.1 0
v 0 0.1 -0.1
v 0.1 0.1 -0.1
v 0.2 0.1 -0.1
v 0.3 0.1 -0.1
v -0.2 0.1 -0.2
v -0.1 0.1 -0.2
v -0.4 0.1 -0.3
v -0.3 0.1 -0.3
v 0 0.1 -0.3
v 0.1 0.1 -0.3
v 0.2 0.1 -0.3
v 0.3 0.1 -0.3
v 0.4 0.1 -0.3
v -0.3 0.1 -0.4
v 0.3 0.1 -0.4
v -0.2 0.2 0.4
v -0.1 0.2 0.4
v 0.1 0.2 0.4
v -0.4 0.2 0.3
v -0.3 0.2 0.3
v -0.2 0.2 0.3
v -0.1 0.2 0.3
v 0.1 0.2 0.3
v -0.4 0.2 0.2
v -0.3 0.2 0.2
v 0 0.2 0.2
v 0.1 0.2 0.2
v 0.3 0.2 0.2
v -0.2 0.2 0.1
v -0.1 0.2 0.1
v 0 0.2 0.1
v 0.1 0.2 0.1
v 0.3 0.2 0.1
v -0.4 0.2 0
v -0.3 0.2 0
v -0.2 0.2 0
v -0.1 0.2 0
v 0 0.2 0
v 0.1 0.2 0
v 0.2 0.2 0
v 0.3 0.2 0
v 0 0.2 -0.1
v 0.1 0.2 -0.1
v 0.2 0.2 -0.1
v 0.3 0.2 -0.1
v -0.2 0.2 -0.2
v -0.1 0.2 -0.2
v 0 0.2 -0.3
v 0.1 0.2 -0.3
v 0.2 0.2 -0.3
v 0.3 0.2 -0.3

# faces
f 3/3/1 2/3/1 1/3/1
f 4/3/1 2/3/1 3/3/1
f 5/3/1 2/3/1 4/3/1
f 6/3/1 2/3/1 5/3/1
f 7/2/1 4/2/1 3/2/1
f 8/1/1 5/1/1 4/1/1
f 8/2/1 4/2/1 7/2/1
f 9/1/1 5/1/1 8/1/1
f 14/3/1 11/3/1 10/3/1
f 15/3/1 11/3/1 14/3/1
f 16/3/1 13/3/1 12/3/1
f 17/3/1 13/3/1 16/3/1
f 23/2/1 19/2/1 18/2/1
f 24/2/1 19/2/1 23/2/1
f 25/2/1 21/2/1 20/2/1
f 26/1/1 22/1/1 21/1/1
f 26/2/1 21/2/1 25/2/1
f 27/1/1 22/1/1 26/1/1
f 33/2/1 29/2/1 28/2/1
f 34/2/1 29/2/1 33/2/1
f 35/2/1 31/2/1 30/2/1
f 36/1/1 32/1/1 31/1/1
f 36/2/1 31/2/1 35/2/1
f 37/1/1 32/1/1 36/1/1
f 41/2/1 39/2/1 38/2/1
f 42/1/1 40/1/1 39/1/1
f 42/2/1 39/2/1 41/2/1
f 43/1/1 40/1/1 42/1/1
f 44/2/2 45/2/2 47/2/2
f 45/1/2 46/1/2 48/1/2
f 47/2/2 45/2/2 48/2/2
f 48/1/2 46/1/2 49/1/2
f 50/2/2 51/2/2 53/2/2
f 51/1/2 52/1/2 54/1/2
f 53/2/2 51/2/2 54/2/2
f 54/1/2 52/1/2 55/1/2
f 56/1/2 57/1/2 61/1/2
f 61/1/2 57/1/2 62/1/2
f 58/2/2 59/2/2 63/2/2
f 59/1/2 60/1/2 64/1/2
f 63/2/2 59/2/2 64/2/2
f 64/1/2 60/1/2 65/1/2
f 66/3/2 67/3/2 70/3/2
f 70/3/2 67/3/2 71/3/2
f 68/3/2 69/3/2 76/3/2
f 76/3/2 69/3/2 77/3/2
f 72/1/2 73/1/2 78/1/2
f 78/1/2 73/1/2 79/1/2
f 74/2/2 75/2/2 80/2/2
f 75/1/2 76/1/2 81/1/2
f 80/2/2 75/2/2 81/2/2
f 81/1/2 76/1/2 82/1/2
f 83/3/2 84/3/2 85/3/2
f 85/3/2 84/3/2 86/3/2
f 89/3/3 88/3/3 87/3/3
f 91/3/3 89/3/3 87/3/3
f 91/2/3 90/2/3 89/2/3
f 92/2/3 90/2/3 91/2/3
f 93/3/3 91/3/3 87/3/3
f 93/1/3 92/1/3 91/1/3
f 94/1/3 92/1/3 93/1/3
f 95/3/3 93/3/3 87/3/3
f 96/3/3 93/3/3 95/3/3
f 100/3/3 98/3/3 97/3/3
f 101/2/3 99/2/3 98/2/3
f 101/3/3 98/3/3 100/3/3
f 102/2/3 99/2/3 101/2/3
f 105/3/3 104/3/3 103/3/3
f 106/3/3 104/3/3 105/3/3
f 109/2/3 108/2/3 107/2/3
f 110/2/3 108/2/3 109/2/3
f 111/1/3 110/1/3 109/1/3
f 112/1/3 110/1/3 111/1/3
f 115/2/3 114/2/3 113/2/3
f 116/2/3 114/2/3 115/2/3
f 119/2/3 118/2/3 117/2/3
f 120/2/3 118/2/3 119/2/3
f 123/2/3 122/2/3 121/2/3
f 124/2/3 122/2/3 123/2/3
f 125/2/4 126/2/4 127/2/4
f 127/2/4 126/2/4 128/2/4
f 127/1/4 128/1/4 129/1/4
f 129/1/4 128/1/4 130/1/4
f 131/2/4 132/2/4 133/2/4
f 133/2/4 132/2/4 134/2/4
f 133/1/4 134/1/4 135/1/4
f 135/1/4 134/1/4 136/1/4
f 137/1/4 138/1/4 139/1/4
f 139/1/4 138/1/4 140/1/4
f 141/1/4 142/1/4 143/1/4
f 143/1/4 142/1/4 144/1/4
f 145/3/4 146/3/4 147/3/4
f 147/3/4 146/3/4 148/3/4
f 149/1/4 150/1/4 151/1/4
f 151/1/4 150/1/4 152/1/4
f 153/1/4 154/1/4 156/1/4
f 156/1/4 154/1/4 157/1/4
f 155/3/4 156/3/4 158/3/4
f 158/3/4 156/3/4 159/3/4
f 160/3/4 161/3/4 162/3/4
f 162/3/4 161/3/4 163/3/4
f 167/3/5 165/3/5 164/3/5
f 168/3/5 165/3/5 167/3/5
f 170/3/5 167/3/5 166/3/5
f 170/3/5 169/3/5 168/3/5
f 170/3/5 168/3/5 167/3/5
f 171/3/5 169/3/5 170/3/5
f 172/3/5 169/3/5 171/3/5
f 173/3/5 169/3/5 172/3/5
f 174/3/5 172/3/5 171/3/5
f 175/3/5 172/3/5 174/3/5
f 176/3/6 177/3/6 180/3/6
f 180/3/6 177/3/6 181/3/6
f 178/3/6 179/3/6 183/3/6
f 183/3/6 179/3/6 184/3/6
f 181/3/6 182/3/6 186/3/6
f 184/3/6 185/3/6 186/3/6
f 183/3/6 184/3/6 186/3/6
f 182/3/6 183/3/6 186/3/6
f 180/3/6 181/3/6 186/3/6
f 186/3/6 185/3/6 187/3/6
f 187/3/6 185/3/6 188/3/6
f 188/3/6 185/3/6 189/3/6
f 186/3/6 187/3/6 190/3/6
f 190/3/6 187/3/6 191/3/6
f 191/3/6 187/3/6 192/3/6
f 189/3/6 185/3/6 194/3/6
f 186/3/6 190/3/6 196/3/6
f 196/3/6 190/3/6 197/3/6
f 192/3/6 193/3/6 198/3/6
f 193/3/6 194/3/6 198/3/6
f 191/3/6 192/3/6 198/3/6
f 198/3/6 194/3/6 199/3/6
f 199/3/6 194/3/6 200/3/6
f 200/3/6 194/3/6 201/3/6
f 194/3/6 185/3/6 202/3/6
f 201/3/6 194/3/6 202/3/6
f 198/3/6 199/3/6 203/3/6
f 200/3/6 201/3/6 204/3/6
f 204/3/6 201/3/6 205/3/6
f 202/3/6 185/3/6 206/3/6
f 196/3/6 197/3/6 207/3/6
f 195/3/6 196/3/6 207/3/6
f 198/3/6 203/3/6 208/3/6
f 195/3/6 207/3/6 209/3/6
f 207/3/6 208/3/6 209/3/6
f 209/3/6 208/3/6 210/3/6
f 208/3/6 203/3/6 211/3/6
f 210/3/6 208/3/6 211/3/6
f 204/3/6 205/3/6 212/3/6
f 212/3/6 205/3/6 213/3/6
f 206/3/6 185/3/6 214/3/6
f 214/3/6 185/3/6 215/3/6
f 212/3/6 213/3/6 216/3/6
f 213/3/6 214/3/6 216/3/6
f 210/3/6 211/3/6 216/3/6
f 211/3/6 212/3/6 216/3/6
f 216/3/6 214/3/6 217/3/6
f 218/2/6 219/2/6 223/2/6
f 219/1/6 220/1/6 224/1/6
f 223/2/6 219/2/6 224/2/6
f 224/1/6 220/1/6 225/1/6
f 221/2/6 222/2/6 226/2/6
f 226/2/6 222/2/6 227/2/6
f 228/2/6 229/2/6 233/2/6
f 229/1/6 230/1/6 234/1/6
f 233/2/6 229/2/6 234/2/6
f 234/1/6 230/1/6 235/1/6
f 226/1/6 227/1/6 236/1/6
f 236/1/6 227/1/6 237/1/6
f 231/2/6 232/2/6 238/2/6
f 238/2/6 232/2/6 239/2/6
f 240/2/6 241/2/6 244/2/6
f 244/2/6 241/2/6 245/2/6
f 242/2/6 243/2/6 246/2/6
f 246/2/6 243/2/6 247/2/6
f 238/1/6 239/1/6 248/1/6
f 248/1/6 239/1/6 249/1/6
f 244/1/6 245/1/6 250/1/6
f 250/1/6 245/1/6 251/1/6
f 246/1/6 247/1/6 252/1/6
f 252/1/6 247/1/6 253/1/6
