# Blender 3.4.1
# www.blender.org
mtllib BasiliskFang.mtl
o Untitled
v -0.400000 0.000000 0.300000
v -0.400000 0.000000 -0.300000
v -0.400000 0.100000 0.300000
v -0.400000 0.100000 0.200000
v -0.400000 0.100000 0.000000
v -0.400000 0.100000 -0.300000
v -0.400000 0.200000 0.300000
v -0.400000 0.200000 0.200000
v -0.400000 0.200000 0.000000
v -0.300000 0.000000 0.400000
v -0.300000 0.000000 0.300000
v -0.300000 0.000000 -0.300000
v -0.300000 0.000000 -0.400000
v -0.300000 0.100000 0.400000
v -0.300000 0.100000 0.300000
v -0.300000 0.100000 -0.300000
v -0.300000 0.100000 -0.400000
v -0.200000 0.100000 0.400000
v -0.200000 0.100000 0.300000
v -0.200000 0.100000 0.100000
v -0.200000 0.100000 0.000000
v -0.200000 0.100000 -0.200000
v -0.200000 0.200000 0.400000
v -0.200000 0.200000 0.300000
v -0.200000 0.200000 0.100000
v -0.200000 0.200000 0.000000
v -0.200000 0.200000 -0.200000
v 0.000000 0.100000 0.200000
v 0.000000 0.100000 0.100000
v 0.000000 0.100000 0.000000
v 0.000000 0.100000 -0.100000
v 0.000000 0.100000 -0.300000
v 0.000000 0.200000 0.200000
v 0.000000 0.200000 0.100000
v 0.000000 0.200000 0.000000
v 0.000000 0.200000 -0.100000
v 0.000000 0.200000 -0.300000
v 0.200000 0.100000 0.000000
v 0.200000 0.100000 -0.100000
v 0.200000 0.100000 -0.300000
v 0.200000 0.200000 0.000000
v 0.200000 0.200000 -0.100000
v 0.200000 0.200000 -0.300000
v -0.300000 0.100000 0.300000
v -0.300000 0.100000 0.200000
v -0.300000 0.100000 0.000000
v -0.300000 0.200000 0.300000
v -0.300000 0.200000 0.200000
v -0.300000 0.200000 0.000000
v -0.100000 0.100000 0.100000
v -0.100000 0.100000 0.000000
v -0.100000 0.100000 -0.200000
v -0.100000 0.200000 0.100000
v -0.100000 0.200000 0.000000
v -0.100000 0.200000 -0.200000
v 0.100000 0.100000 0.400000
v 0.100000 0.100000 0.300000
v 0.100000 0.100000 0.000000
v 0.100000 0.100000 -0.100000
v 0.100000 0.100000 -0.300000
v 0.100000 0.200000 0.400000
v 0.100000 0.200000 0.300000
v 0.100000 0.200000 0.000000
v 0.100000 0.200000 -0.100000
v 0.100000 0.200000 -0.300000
v 0.300000 0.000000 0.400000
v 0.300000 0.000000 0.300000
v 0.300000 0.000000 -0.300000
v 0.300000 0.000000 -0.400000
v 0.300000 0.100000 0.400000
v 0.300000 0.100000 0.300000
v 0.300000 0.100000 0.200000
v 0.300000 0.100000 0.100000
v 0.300000 0.100000 0.000000
v 0.300000 0.100000 -0.100000
v 0.300000 0.100000 -0.300000
v 0.300000 0.100000 -0.400000
v 0.300000 0.200000 0.200000
v 0.300000 0.200000 0.100000
v 0.300000 0.200000 0.000000
v 0.300000 0.200000 -0.100000
v 0.300000 0.200000 -0.300000
v 0.400000 0.000000 0.300000
v 0.400000 0.000000 -0.300000
v 0.400000 0.100000 0.300000
v 0.400000 0.100000 -0.300000
v -0.300000 0.000000 0.400000
v -0.300000 0.100000 0.400000
v -0.200000 0.100000 0.400000
v -0.200000 0.200000 0.400000
v -0.100000 0.100000 0.400000
v -0.100000 0.200000 0.400000
v 0.100000 0.100000 0.400000
v 0.100000 0.200000 0.400000
v 0.300000 0.000000 0.400000
v 0.300000 0.100000 0.400000
v -0.400000 0.000000 0.300000
v -0.400000 0.100000 0.300000
v -0.400000 0.200000 0.300000
v -0.300000 0.000000 0.300000
v -0.300000 0.100000 0.300000
v -0.300000 0.200000 0.300000
v 0.300000 0.000000 0.300000
v 0.300000 0.100000 0.300000
v 0.400000 0.000000 0.300000
v 0.400000 0.100000 0.300000
v 0.000000 0.100000 0.200000
v 0.000000 0.200000 0.200000
v 0.100000 0.100000 0.200000
v 0.100000 0.200000 0.200000
v 0.300000 0.100000 0.200000
v 0.300000 0.200000 0.200000
v -0.200000 0.100000 0.100000
v -0.200000 0.200000 0.100000
v -0.100000 0.100000 0.100000
v -0.100000 0.200000 0.100000
v 0.000000 0.100000 0.000000
v 0.000000 0.200000 0.000000
v 0.100000 0.100000 0.000000
v 0.100000 0.200000 0.000000
v 0.200000 0.100000 0.000000
v 0.200000 0.200000 0.000000
v 0.300000 0.100000 0.000000
v 0.300000 0.200000 0.000000
v -0.200000 0.100000 0.300000
v -0.200000 0.200000 0.300000
v -0.100000 0.100000 0.300000
v -0.100000 0.200000 0.300000
v 0.100000 0.100000 0.300000
v 0.100000 0.200000 0.300000
v 0.000000 0.100000 0.100000
v 0.000000 0.200000 0.100000
v 0.100000 0.100000 0.100000
v 0.100000 0.200000 0.100000
v 0.300000 0.100000 0.100000
v 0.300000 0.200000 0.100000
v -0.400000 0.100000 0.000000
v -0.400000 0.200000 0.000000
v -0.300000 0.100000 0.000000
v -0.300000 0.200000 0.000000
v -0.200000 0.100000 -0.200000
v -0.200000 0.200000 -0.200000
v -0.100000 0.100000 -0.200000
v -0.100000 0.200000 -0.200000
v -0.400000 0.000000 -0.300000
v -0.400000 0.100000 -0.300000
v -0.300000 0.000000 -0.300000
v -0.300000 0.100000 -0.300000
v 0.000000 0.100000 -0.300000
v 0.000000 0.200000 -0.300000
v 0.100000 0.100000 -0.300000
v 0.100000 0.200000 -0.300000
v 0.200000 0.100000 -0.300000
v 0.200000 0.200000 -0.300000
v 0.300000 0.000000 -0.300000
v 0.300000 0.100000 -0.300000
v 0.300000 0.200000 -0.300000
v 0.400000 0.000000 -0.300000
v 0.400000 0.100000 -0.300000
v -0.300000 0.000000 -0.400000
v -0.300000 0.100000 -0.400000
v 0.300000 0.000000 -0.400000
v 0.300000 0.100000 -0.400000
v -0.300000 0.000000 0.400000
v 0.300000 0.000000 0.400000
v -0.400000 0.000000 0.300000
v -0.300000 0.000000 0.300000
v 0.300000 0.000000 0.300000
v 0.400000 0.000000 0.300000
v -0.400000 0.000000 -0.300000
v -0.300000 0.000000 -0.300000
v 0.300000 0.000000 -0.300000
v 0.400000 0.000000 -0.300000
v -0.300000 0.000000 -0.400000
v 0.300000 0.000000 -0.400000
v -0.300000 0.100000 0.400000
v -0.200000 0.100000 0.400000
v 0.100000 0.100000 0.400000
v 0.300000 0.100000 0.400000
v -0.300000 0.100000 0.300000
v -0.200000 0.100000 0.300000
v -0.100000 0.100000 0.300000
v 0.100000 0.100000 0.300000
v 0.300000 0.100000 0.300000
v 0.400000 0.100000 0.300000
v -0.300000 0.100000 0.200000
v 0.000000 0.100000 0.200000
v 0.100000 0.100000 0.200000
v 0.300000 0.100000 0.200000
v -0.200000 0.100000 0.100000
v -0.100000 0.100000 0.100000
v 0.000000 0.100000 0.100000
v 0.100000 0.100000 0.100000
v 0.300000 0.100000 0.100000
v -0.400000 0.100000 0.000000
v -0.300000 0.100000 0.000000
v -0.200000 0.100000 0.000000
v -0.100000 0.100000 0.000000
v 0.000000 0.100000 0.000000
v 0.100000 0.100000 0.000000
v 0.200000 0.100000 0.000000
v 0.300000 0.100000 0.000000
v 0.000000 0.100000 -0.100000
v 0.100000 0.100000 -0.100000
v 0.200000 0.100000 -0.100000
v 0.300000 0.100000 -0.100000
v -0.200000 0.100000 -0.200000
v -0.100000 0.100000 -0.200000
v -0.400000 0.100000 -0.300000
v -0.300000 0.100000 -0.300000
v 0.000000 0.100000 -0.300000
v 0.100000 0.100000 -0.300000
v 0.200000 0.100000 -0.300000
v 0.300000 0.100000 -0.300000
v 0.400000 0.100000 -0.300000
v -0.300000 0.100000 -0.400000
v 0.300000 0.100000 -0.400000
v -0.200000 0.200000 0.400000
v -0.100000 0.200000 0.400000
v 0.100000 0.200000 0.400000
v -0.400000 0.200000 0.300000
v -0.300000 0.200000 0.300000
v -0.200000 0.200000 0.300000
v -0.100000 0.200000 0.300000
v 0.100000 0.200000 0.300000
v -0.400000 0.200000 0.200000
v -0.300000 0.200000 0.200000
v 0.000000 0.200000 0.200000
v 0.100000 0.200000 0.200000
v 0.300000 0.200000 0.200000
v -0.200000 0.200000 0.100000
v -0.100000 0.200000 0.100000
v 0.000000 0.200000 0.100000
v 0.100000 0.200000 0.100000
v 0.300000 0.200000 0.100000
v -0.400000 0.200000 0.000000
v -0.300000 0.200000 0.000000
v -0.200000 0.200000 0.000000
v -0.100000 0.200000 0.000000
v 0.000000 0.200000 0.000000
v 0.100000 0.200000 0.000000
v 0.200000 0.200000 0.000000
v 0.300000 0.200000 0.000000
v 0.000000 0.200000 -0.100000
v 0.100000 0.200000 -0.100000
v 0.200000 0.200000 -0.100000
v 0.300000 0.200000 -0.100000
v -0.200000 0.200000 -0.200000
v -0.100000 0.200000 -0.200000
v 0.000000 0.200000 -0.300000
v 0.100000 0.200000 -0.300000
v 0.200000 0.200000 -0.300000
v 0.300000 0.200000 -0.300000
vn -1.0000 -0.0000 -0.0000
vn 1.0000 -0.0000 -0.0000
vn -0.0000 -0.0000 1.0000
vn -0.0000 -0.0000 -1.0000
vn -0.0000 -1.0000 -0.0000
vn -0.0000 1.0000 -0.0000
vt 0.966797 0.500000
vt 0.966797 0.500000
vt 0.966797 0.500000
vt 0.962891 0.500000
vt 0.966797 0.500000
vt 0.958984 0.500000
vt 0.962891 0.500000
vt 0.966797 0.500000
vt 0.958984 0.500000
vt 0.966797 0.500000
vt 0.962891 0.500000
vt 0.962891 0.500000
vt 0.958984 0.500000
vt 0.958984 0.500000
vt 0.966797 0.500000
vt 0.966797 0.500000
vt 0.966797 0.500000
vt 0.966797 0.500000
vt 0.966797 0.500000
vt 0.966797 0.500000
vt 0.966797 0.500000
vt 0.966797 0.500000
vt 0.962891 0.500000
vt 0.962891 0.500000
vt 0.962891 0.500000
vt 0.958984 0.500000
vt 0.962891 0.500000
vt 0.958984 0.500000
vt 0.962891 0.500000
vt 0.962891 0.500000
vt 0.962891 0.500000
vt 0.962891 0.500000
vt 0.958984 0.500000
vt 0.958984 0.500000
vt 0.962891 0.500000
vt 0.962891 0.500000
vt 0.962891 0.500000
vt 0.958984 0.500000
vt 0.962891 0.500000
vt 0.958984 0.500000
vt 0.962891 0.500000
vt 0.962891 0.500000
vt 0.962891 0.500000
vt 0.962891 0.500000
vt 0.958984 0.500000
vt 0.958984 0.500000
vt 0.962891 0.500000
vt 0.958984 0.500000
vt 0.962891 0.500000
vt 0.958984 0.500000
vt 0.962891 0.500000
vt 0.962891 0.500000
vt 0.958984 0.500000
vt 0.958984 0.500000
vt 0.962891 0.500000
vt 0.958984 0.500000
vt 0.962891 0.500000
vt 0.958984 0.500000
vt 0.962891 0.500000
vt 0.962891 0.500000
vt 0.958984 0.500000
vt 0.958984 0.500000
vt 0.962891 0.500000
vt 0.958984 0.500000
vt 0.962891 0.500000
vt 0.958984 0.500000
vt 0.962891 0.500000
vt 0.962891 0.500000
vt 0.958984 0.500000
vt 0.958984 0.500000
vt 0.958984 0.500000
vt 0.958984 0.500000
vt 0.962891 0.500000
vt 0.958984 0.500000
vt 0.962891 0.500000
vt 0.958984 0.500000
vt 0.958984 0.500000
vt 0.958984 0.500000
vt 0.962891 0.500000
vt 0.962891 0.500000
vt 0.958984 0.500000
vt 0.958984 0.500000
vt 0.966797 0.500000
vt 0.966797 0.500000
vt 0.966797 0.500000
vt 0.966797 0.500000
vt 0.966797 0.500000
vt 0.966797 0.500000
vt 0.958984 0.500000
vt 0.958984 0.500000
vt 0.962891 0.500000
vt 0.958984 0.500000
vt 0.962891 0.500000
vt 0.966797 0.500000
vt 0.958984 0.500000
vt 0.966797 0.500000
vt 0.958984 0.500000
vt 0.958984 0.500000
vt 0.962891 0.500000
vt 0.962891 0.500000
vt 0.958984 0.500000
vt 0.958984 0.500000
vt 0.966797 0.500000
vt 0.966797 0.500000
vt 0.966797 0.500000
vt 0.966797 0.500000
vt 0.966797 0.500000
vt 0.966797 0.500000
vt 0.966797 0.500000
vt 0.962891 0.500000
vt 0.962891 0.500000
vt 0.962891 0.500000
vt 0.966797 0.500000
vt 0.958984 0.500000
vt 0.962891 0.500000
vt 0.958984 0.500000
vt 0.958984 0.500000
vt 0.966797 0.500000
vt 0.958984 0.500000
vt 0.966797 0.500000
vt 0.966797 0.500000
vt 0.966797 0.500000
vt 0.962891 0.500000
vt 0.966797 0.500000
vt 0.962891 0.500000
vt 0.966797 0.500000
vt 0.966797 0.500000
vt 0.962891 0.500000
vt 0.962891 0.500000
vt 0.966797 0.500000
vt 0.966797 0.500000
vt 0.966797 0.500000
vt 0.966797 0.500000
vt 0.962891 0.500000
vt 0.962891 0.500000
vt 0.962891 0.500000
vt 0.958984 0.500000
vt 0.962891 0.500000
vt 0.958984 0.500000
vt 0.958984 0.500000
vt 0.958984 0.500000
vt 0.962891 0.500000
vt 0.962891 0.500000
vt 0.962891 0.500000
vt 0.962891 0.500000
vt 0.962891 0.500000
vt 0.962891 0.500000
vt 0.962891 0.500000
vt 0.962891 0.500000
vt 0.962891 0.500000
vt 0.962891 0.500000
vt 0.962891 0.500000
vt 0.962891 0.500000
vt 0.962891 0.500000
vt 0.962891 0.500000
vt 0.962891 0.500000
vt 0.958984 0.500000
vt 0.962891 0.500000
vt 0.958984 0.500000
vt 0.958984 0.500000
vt 0.958984 0.500000
vt 0.962891 0.500000
vt 0.962891 0.500000
vt 0.962891 0.500000
vt 0.958984 0.500000
vt 0.962891 0.500000
vt 0.958984 0.500000
vt 0.958984 0.500000
vt 0.958984 0.500000
vt 0.958984 0.500000
vt 0.958984 0.500000
vt 0.958984 0.500000
vt 0.958984 0.500000
vt 0.958984 0.500000
vt 0.958984 0.500000
vt 0.958984 0.500000
vt 0.958984 0.500000
vt 0.966797 0.500000
vt 0.966797 0.500000
vt 0.966797 0.500000
vt 0.966797 0.500000
vt 0.958984 0.500000
vt 0.958984 0.500000
vt 0.958984 0.500000
vt 0.958984 0.500000
vt 0.958984 0.500000
vt 0.958984 0.500000
vt 0.966797 0.500000
vt 0.958984 0.500000
vt 0.966797 0.500000
vt 0.958984 0.500000
vt 0.966797 0.500000
vt 0.966797 0.500000
vt 0.966797 0.500000
vt 0.966797 0.500000
vt 0.966797 0.500000
vt 0.966797 0.500000
vt 0.966797 0.500000
vt 0.966797 0.500000
vt 0.966797 0.500000
vt 0.966797 0.500000
vt 0.966797 0.500000
vt 0.966797 0.500000
vt 0.966797 0.500000
vt 0.966797 0.500000
vt 0.966797 0.500000
vt 0.966797 0.500000
vt 0.966797 0.500000
vt 0.966797 0.500000
vt 0.966797 0.500000
vt 0.966797 0.500000
vt 0.966797 0.500000
vt 0.966797 0.500000
vt 0.966797 0.500000
vt 0.966797 0.500000
vt 0.966797 0.500000
vt 0.966797 0.500000
vt 0.966797 0.500000
vt 0.966797 0.500000
vt 0.966797 0.500000
vt 0.966797 0.500000
vt 0.966797 0.500000
vt 0.966797 0.500000
vt 0.966797 0.500000
vt 0.966797 0.500000
vt 0.966797 0.500000
vt 0.966797 0.500000
vt 0.966797 0.500000
vt 0.966797 0.500000
vt 0.966797 0.500000
vt 0.966797 0.500000
vt 0.966797 0.500000
vt 0.966797 0.500000
vt 0.966797 0.500000
vt 0.966797 0.500000
vt 0.966797 0.500000
vt 0.966797 0.500000
vt 0.966797 0.500000
vt 0.966797 0.500000
vt 0.966797 0.500000
vt 0.966797 0.500000
vt 0.966797 0.500000
vt 0.966797 0.500000
vt 0.966797 0.500000
vt 0.966797 0.500000
vt 0.966797 0.500000
vt 0.966797 0.500000
vt 0.966797 0.500000
vt 0.966797 0.500000
vt 0.966797 0.500000
vt 0.966797 0.500000
vt 0.962891 0.500000
vt 0.958984 0.500000
vt 0.962891 0.500000
vt 0.958984 0.500000
vt 0.962891 0.500000
vt 0.962891 0.500000
vt 0.962891 0.500000
vt 0.962891 0.500000
vt 0.958984 0.500000
vt 0.958984 0.500000
vt 0.962891 0.500000
vt 0.958984 0.500000
vt 0.962891 0.500000
vt 0.958984 0.500000
vt 0.962891 0.500000
vt 0.958984 0.500000
vt 0.962891 0.500000
vt 0.958984 0.500000
vt 0.962891 0.500000
vt 0.962891 0.500000
vt 0.962891 0.500000
vt 0.962891 0.500000
vt 0.958984 0.500000
vt 0.958984 0.500000
vt 0.958984 0.500000
vt 0.958984 0.500000
vt 0.962891 0.500000
vt 0.958984 0.500000
vt 0.962891 0.500000
vt 0.958984 0.500000
vt 0.962891 0.500000
vt 0.962891 0.500000
vt 0.962891 0.500000
vt 0.962891 0.500000
vt 0.962891 0.500000
vt 0.958984 0.500000
vt 0.962891 0.500000
vt 0.958984 0.500000
vt 0.962891 0.500000
vt 0.958984 0.500000
vt 0.962891 0.500000
vt 0.958984 0.500000
vt 0.958984 0.500000
vt 0.958984 0.500000
vt 0.958984 0.500000
vt 0.958984 0.500000
vt 0.958984 0.500000
vt 0.958984 0.500000
s 0
usemtl palette.001
f 3/3/1 2/2/1 1/1/1
f 4/5/1 2/2/1 3/3/1
f 5/8/1 2/2/1 4/5/1
f 6/10/1 2/2/1 5/8/1
f 7/11/1 4/7/1 3/4/1
f 8/13/1 5/9/1 4/6/1
f 8/12/1 4/7/1 7/11/1
f 9/14/1 5/9/1 8/13/1
f 14/19/1 11/16/1 10/15/1
f 15/20/1 11/16/1 14/19/1
f 16/21/1 13/18/1 12/17/1
f 17/22/1 13/18/1 16/21/1
f 23/29/1 19/24/1 18/23/1
f 24/30/1 19/24/1 23/29/1
f 25/31/1 21/27/1 20/25/1
f 26/33/1 22/28/1 21/26/1
f 26/32/1 21/27/1 25/31/1
f 27/34/1 22/28/1 26/33/1
f 33/41/1 29/36/1 28/35/1
f 34/42/1 29/36/1 33/41/1
f 35/43/1 31/39/1 30/37/1
f 36/45/1 32/40/1 31/38/1
f 36/44/1 31/39/1 35/43/1
f 37/46/1 32/40/1 36/45/1
f 41/51/1 39/49/1 38/47/1
f 42/53/1 40/50/1 39/48/1
f 42/52/1 39/49/1 41/51/1
f 43/54/1 40/50/1 42/53/1
f 44/55/2 45/57/2 47/59/2
f 45/56/2 46/58/2 48/61/2
f 47/59/2 45/57/2 48/60/2
f 48/61/2 46/58/2 49/62/2
f 50/63/2 51/65/2 53/67/2
f 51/64/2 52/66/2 54/69/2
f 53/67/2 51/65/2 54/68/2
f 54/69/2 52/66/2 55/70/2
f 56/71/2 57/72/2 61/77/2
f 61/77/2 57/72/2 62/78/2
f 58/73/2 59/75/2 63/79/2
f 59/74/2 60/76/2 64/81/2
f 63/79/2 59/75/2 64/80/2
f 64/81/2 60/76/2 65/82/2
f 66/83/2 67/84/2 70/87/2
f 70/87/2 67/84/2 71/88/2
f 68/85/2 69/86/2 76/94/2
f 76/94/2 69/86/2 77/96/2
f 72/89/2 73/90/2 78/97/2
f 78/97/2 73/90/2 79/98/2
f 74/91/2 75/93/2 80/99/2
f 75/92/2 76/95/2 81/101/2
f 80/99/2 75/93/2 81/100/2
f 81/101/2 76/95/2 82/102/2
f 83/103/2 84/104/2 85/105/2
f 85/105/2 84/104/2 86/106/2
f 89/109/3 88/108/3 87/107/3
f 91/113/3 89/109/3 87/107/3
f 91/112/3 90/111/3 89/110/3
f 92/115/3 90/111/3 91/112/3
f 93/118/3 91/113/3 87/107/3
f 93/117/3 92/116/3 91/114/3
f 94/119/3 92/116/3 93/117/3
f 95/120/3 93/118/3 87/107/3
f 96/121/3 93/118/3 95/120/3
f 100/126/3 98/124/3 97/122/3
f 101/128/3 99/125/3 98/123/3
f 101/127/3 98/124/3 100/126/3
f 102/129/3 99/125/3 101/128/3
f 105/132/3 104/131/3 103/130/3
f 106/133/3 104/131/3 105/132/3
f 109/136/3 108/135/3 107/134/3
f 110/138/3 108/135/3 109/136/3
f 111/140/3 110/139/3 109/137/3
f 112/141/3 110/139/3 111/140/3
f 115/144/3 114/143/3 113/142/3
f 116/145/3 114/143/3 115/144/3
f 119/148/3 118/147/3 117/146/3
f 120/149/3 118/147/3 119/148/3
f 123/152/3 122/151/3 121/150/3
f 124/153/3 122/151/3 123/152/3
f 125/154/4 126/155/4 127/156/4
f 127/156/4 126/155/4 128/158/4
f 127/157/4 128/159/4 129/160/4
f 129/160/4 128/159/4 130/161/4
f 131/162/4 132/163/4 133/164/4
f 133/164/4 132/163/4 134/166/4
f 133/165/4 134/167/4 135/168/4
f 135/168/4 134/167/4 136/169/4
f 137/170/4 138/171/4 139/172/4
f 139/172/4 138/171/4 140/173/4
f 141/174/4 142/175/4 143/176/4
f 143/176/4 142/175/4 144/177/4
f 145/178/4 146/179/4 147/180/4
f 147/180/4 146/179/4 148/181/4
f 149/182/4 150/183/4 151/184/4
f 151/184/4 150/183/4 152/185/4
f 153/186/4 154/187/4 156/189/4
f 156/189/4 154/187/4 157/191/4
f 155/188/4 156/190/4 158/192/4
f 158/192/4 156/190/4 159/193/4
f 160/194/4 161/195/4 162/196/4
f 162/196/4 161/195/4 163/197/4
f 167/201/5 165/199/5 164/198/5
f 168/202/5 165/199/5 167/201/5
f 170/204/5 167/201/5 166/200/5
f 170/204/5 169/203/5 168/202/5
f 170/204/5 168/202/5 167/201/5
f 171/205/5 169/203/5 170/204/5
f 172/206/5 169/203/5 171/205/5
f 173/207/5 169/203/5 172/206/5
f 174/208/5 172/206/5 171/205/5
f 175/209/5 172/206/5 174/208/5
f 176/210/6 177/211/6 180/214/6
f 180/214/6 177/211/6 181/215/6
f 178/212/6 179/213/6 183/217/6
f 183/217/6 179/213/6 184/218/6
f 181/215/6 182/216/6 186/220/6
f 184/218/6 185/219/6 186/220/6
f 183/217/6 184/218/6 186/220/6
f 182/216/6 183/217/6 186/220/6
f 180/214/6 181/215/6 186/220/6
f 186/220/6 185/219/6 187/221/6
f 187/221/6 185/219/6 188/222/6
f 188/222/6 185/219/6 189/223/6
f 186/220/6 187/221/6 190/224/6
f 190/224/6 187/221/6 191/225/6
f 191/225/6 187/221/6 192/226/6
f 189/223/6 185/219/6 194/228/6
f 186/220/6 190/224/6 196/230/6
f 196/230/6 190/224/6 197/231/6
f 192/226/6 193/227/6 198/232/6
f 193/227/6 194/228/6 198/232/6
f 191/225/6 192/226/6 198/232/6
f 198/232/6 194/228/6 199/233/6
f 199/233/6 194/228/6 200/234/6
f 200/234/6 194/228/6 201/235/6
f 194/228/6 185/219/6 202/236/6
f 201/235/6 194/228/6 202/236/6
f 198/232/6 199/233/6 203/237/6
f 200/234/6 201/235/6 204/238/6
f 204/238/6 201/235/6 205/239/6
f 202/236/6 185/219/6 206/240/6
f 196/230/6 197/231/6 207/241/6
f 195/229/6 196/230/6 207/241/6
f 198/232/6 203/237/6 208/242/6
f 195/229/6 207/241/6 209/243/6
f 207/241/6 208/242/6 209/243/6
f 209/243/6 208/242/6 210/244/6
f 208/242/6 203/237/6 211/245/6
f 210/244/6 208/242/6 211/245/6
f 204/238/6 205/239/6 212/246/6
f 212/246/6 205/239/6 213/247/6
f 206/240/6 185/219/6 214/248/6
f 214/248/6 185/219/6 215/249/6
f 212/246/6 213/247/6 216/250/6
f 213/247/6 214/248/6 216/250/6
f 210/244/6 211/245/6 216/250/6
f 211/245/6 212/246/6 216/250/6
f 216/250/6 214/248/6 217/251/6
f 218/252/6 219/254/6 223/258/6
f 219/253/6 220/255/6 224/260/6
f 223/258/6 219/254/6 224/259/6
f 224/260/6 220/255/6 225/261/6
f 221/256/6 222/257/6 226/262/6
f 226/262/6 222/257/6 227/264/6
f 228/266/6 229/268/6 233/272/6
f 229/267/6 230/269/6 234/274/6
f 233/272/6 229/268/6 234/273/6
f 234/274/6 230/269/6 235/275/6
f 226/263/6 227/265/6 236/276/6
f 236/276/6 227/265/6 237/277/6
f 231/270/6 232/271/6 238/278/6
f 238/278/6 232/271/6 239/280/6
f 240/282/6 241/283/6 244/286/6
f 244/286/6 241/283/6 245/288/6
f 242/284/6 243/285/6 246/290/6
f 246/290/6 243/285/6 247/292/6
f 238/279/6 239/281/6 248/294/6
f 248/294/6 239/281/6 249/295/6
f 244/287/6 245/289/6 250/296/6
f 250/296/6 245/289/6 251/297/6
f 246/291/6 247/293/6 252/298/6
f 252/298/6 247/293/6 253/299/6
