# MagicaVoxel @ Ephtracy

# group
o 

# material
mtllib CentaurHoof.mtl
usemtl palette

# normals
vn -1 0 0
vn 1 0 0
vn 0 0 1
vn 0 0 -1
vn 0 -1 0
vn 0 1 0

# texcoords
vt 0.869141 0.5
vt 0.958984 0.5
vt 0.962891 0.5
vt 0.966797 0.5
vt 0.986328 0.5

# verts
v -0.4 0 -0.3
v -0.4 0 -0.4
v -0.4 0.8 -0.3
v -0.4 0.8 -0.4
v -0.3 0.1 -0.1
v -0.3 0.1 -0.3
v -0.3 0.2 -0.1
v -0.3 0.2 -0.3
v -0.2 0.1 -7.45058e-009
v -0.2 0.1 -0.1
v -0.2 0.2 -7.45058e-009
v -0.2 0.2 -0.1
v -0.2 0.2 -0.3
v -0.2 0.3 -0.1
v -0.2 0.3 -0.3
v -0.2 0.5 -0.1
v -0.2 0.5 -0.3
v -0.2 0.6 -0.1
v -0.2 0.6 -0.3
v -0.2 0.7 -0.1
v -0.2 0.7 -0.3
v -0.1 0.2 -7.45058e-009
v -0.1 0.2 -0.1
v -0.1 0.3 -7.45058e-009
v -0.1 0.3 -0.1
v -0.1 0.5 -7.45058e-009
v -0.1 0.5 -0.1
v -0.1 0.6 -7.45058e-009
v -0.1 0.6 -0.1
v -0.1 0.7 -7.45058e-009
v -0.1 0.7 -0.1
v -0.1 0.1 -7.45058e-009
v -0.1 0.1 -0.1
v -0.1 0.2 -7.45058e-009
v -0.1 0.2 -0.1
v 0 0.1 -0.1
v 0 0.1 -0.3
v 0 0.2 -7.45058e-009
v 0 0.2 -0.1
v 0 0.2 -0.3
v 0 0.3 -7.45058e-009
v 0 0.3 -0.1
v 0 0.5 -7.45058e-009
v 0 0.5 -0.1
v 0.1 0.2 -0.1
v 0.1 0.2 -0.3
v 0.1 0.3 -0.1
v 0.1 0.3 -0.3
v 0.1 0.5 -7.45058e-009
v 0.1 0.5 -0.1
v 0.1 0.5 -0.3
v 0.1 0.6 -7.45058e-009
v 0.1 0.6 -0.1
v 0.1 0.7 -7.45058e-009
v 0.1 0.7 -0.1
v 0.2 0.5 -0.1
v 0.2 0.5 -0.3
v 0.2 0.6 -0.1
v 0.2 0.6 -0.3
v 0.2 0.7 -0.1
v 0.2 0.7 -0.3
v 0.4 0 -0.3
v 0.4 0 -0.4
v 0.4 0.8 -0.3
v 0.4 0.8 -0.4
v -0.2 0.1 -7.45058e-009
v -0.2 0.2 -7.45058e-009
v -0.1 0.1 -7.45058e-009
v -0.1 0.2 -7.45058e-009
v -0.1 0.3 -7.45058e-009
v -0.1 0.5 -7.45058e-009
v -0.1 0.6 -7.45058e-009
v -0.1 0.7 -7.45058e-009
v 0 0.2 -7.45058e-009
v 0 0.3 -7.45058e-009
v 0 0.5 -7.45058e-009
v 0.1 0.5 -7.45058e-009
v 0.1 0.6 -7.45058e-009
v 0.1 0.7 -7.45058e-009
v -0.3 0.1 -0.1
v -0.3 0.2 -0.1
v -0.2 0.1 -0.1
v -0.2 0.2 -0.1
v -0.2 0.3 -0.1
v -0.2 0.5 -0.1
v -0.2 0.6 -0.1
v -0.2 0.7 -0.1
v -0.1 0.1 -0.1
v -0.1 0.2 -0.1
v -0.1 0.3 -0.1
v -0.1 0.5 -0.1
v -0.1 0.6 -0.1
v -0.1 0.7 -0.1
v 0 0.1 -0.1
v 0 0.2 -0.1
v 0 0.3 -0.1
v 0 0.5 -0.1
v 0.1 0.2 -0.1
v 0.1 0.3 -0.1
v 0.1 0.5 -0.1
v 0.1 0.6 -0.1
v 0.1 0.7 -0.1
v 0.2 0.5 -0.1
v 0.2 0.6 -0.1
v 0.2 0.7 -0.1
v -0.4 0 -0.3
v -0.4 0.8 -0.3
v -0.3 0.1 -0.3
v -0.3 0.2 -0.3
v -0.2 0.2 -0.3
v -0.2 0.3 -0.3
v -0.2 0.5 -0.3
v -0.2 0.6 -0.3
v -0.2 0.7 -0.3
v 0 0.1 -0.3
v 0 0.2 -0.3
v 0.1 0.2 -0.3
v 0.1 0.3 -0.3
v 0.1 0.5 -0.3
v 0.2 0.5 -0.3
v 0.2 0.6 -0.3
v 0.2 0.7 -0.3
v 0.4 0 -0.3
v 0.4 0.8 -0.3
v -0.4 0 -0.4
v -0.4 0.8 -0.4
v 0.4 0 -0.4
v 0.4 0.8 -0.4
v -0.4 0 -0.3
v 0.4 0 -0.3
v -0.4 0 -0.4
v 0.4 0 -0.4
v -0.2 0.1 -7.45058e-009
v -0.1 0.1 -7.45058e-009
v -0.3 0.1 -0.1
v -0.2 0.1 -0.1
v -0.1 0.1 -0.1
v 0 0.1 -0.1
v -0.3 0.1 -0.3
v 0 0.1 -0.3
v -0.1 0.2 -7.45058e-009
v 0 0.2 -7.45058e-009
v -0.1 0.2 -0.1
v 0 0.2 -0.1
v 0.1 0.2 -0.1
v 0 0.2 -0.3
v 0.1 0.2 -0.3
v 0 0.5 -7.45058e-009
v 0.1 0.5 -7.45058e-009
v 0 0.5 -0.1
v 0.1 0.5 -0.1
v 0.2 0.5 -0.1
v 0.1 0.5 -0.3
v 0.2 0.5 -0.3
v -0.2 0.2 -7.45058e-009
v -0.1 0.2 -7.45058e-009
v -0.3 0.2 -0.1
v -0.2 0.2 -0.1
v -0.1 0.2 -0.1
v -0.3 0.2 -0.3
v -0.2 0.2 -0.3
v -0.1 0.7 -7.45058e-009
v 0.1 0.7 -7.45058e-009
v -0.2 0.7 -0.1
v -0.1 0.7 -0.1
v 0.1 0.7 -0.1
v 0.2 0.7 -0.1
v -0.2 0.7 -0.3
v 0.2 0.7 -0.3
v -0.4 0.8 -0.3
v 0.4 0.8 -0.3
v -0.4 0.8 -0.4
v 0.4 0.8 -0.4

# faces
f 3/1/1 2/1/1 1/1/1
f 4/1/1 2/1/1 3/1/1
f 7/2/1 6/2/1 5/2/1
f 8/2/1 6/2/1 7/2/1
f 11/2/1 10/2/1 9/2/1
f 12/2/1 10/2/1 11/2/1
f 14/2/1 13/2/1 12/2/1
f 15/2/1 13/2/1 14/2/1
f 16/3/1 15/3/1 14/3/1
f 17/3/1 15/3/1 16/3/1
f 18/4/1 17/4/1 16/4/1
f 19/4/1 17/4/1 18/4/1
f 20/5/1 19/5/1 18/5/1
f 21/5/1 19/5/1 20/5/1
f 24/2/1 23/2/1 22/2/1
f 25/2/1 23/2/1 24/2/1
f 26/3/1 25/3/1 24/3/1
f 27/3/1 25/3/1 26/3/1
f 28/4/1 27/4/1 26/4/1
f 29/4/1 27/4/1 28/4/1
f 30/5/1 29/5/1 28/5/1
f 31/5/1 29/5/1 30/5/1
f 32/2/2 33/2/2 34/2/2
f 34/2/2 33/2/2 35/2/2
f 36/2/2 37/2/2 39/2/2
f 39/2/2 37/2/2 40/2/2
f 38/2/2 39/2/2 41/2/2
f 41/2/2 39/2/2 42/2/2
f 41/3/2 42/3/2 43/3/2
f 43/3/2 42/3/2 44/3/2
f 45/2/2 46/2/2 47/2/2
f 47/2/2 46/2/2 48/2/2
f 47/3/2 48/3/2 50/3/2
f 50/3/2 48/3/2 51/3/2
f 49/4/2 50/4/2 52/4/2
f 52/4/2 50/4/2 53/4/2
f 52/5/2 53/5/2 54/5/2
f 54/5/2 53/5/2 55/5/2
f 56/4/2 57/4/2 58/4/2
f 58/4/2 57/4/2 59/4/2
f 58/5/2 59/5/2 60/5/2
f 60/5/2 59/5/2 61/5/2
f 62/1/2 63/1/2 64/1/2
f 64/1/2 63/1/2 65/1/2
f 68/2/3 67/2/3 66/2/3
f 69/2/3 67/2/3 68/2/3
f 74/2/3 70/2/3 69/2/3
f 75/3/3 71/3/3 70/3/3
f 75/2/3 70/2/3 74/2/3
f 76/4/3 72/4/3 71/4/3
f 76/3/3 71/3/3 75/3/3
f 77/4/3 72/4/3 76/4/3
f 78/5/3 73/5/3 72/5/3
f 78/4/3 72/4/3 77/4/3
f 79/5/3 73/5/3 78/5/3
f 82/2/3 81/2/3 80/2/3
f 83/2/3 81/2/3 82/2/3
f 89/2/3 84/2/3 83/2/3
f 90/3/3 85/3/3 84/3/3
f 90/2/3 84/2/3 89/2/3
f 91/4/3 86/4/3 85/4/3
f 91/3/3 85/3/3 90/3/3
f 92/5/3 87/5/3 86/5/3
f 92/4/3 86/4/3 91/4/3
f 93/5/3 87/5/3 92/5/3
f 94/2/3 89/2/3 88/2/3
f 95/2/3 89/2/3 94/2/3
f 98/2/3 96/2/3 95/2/3
f 99/3/3 97/3/3 96/3/3
f 99/2/3 96/2/3 98/2/3
f 100/3/3 97/3/3 99/3/3
f 103/4/3 101/4/3 100/4/3
f 104/5/3 102/5/3 101/5/3
f 104/4/3 101/4/3 103/4/3
f 105/5/3 102/5/3 104/5/3
f 108/1/3 107/1/3 106/1/3
f 109/1/3 107/1/3 108/1/3
f 110/1/3 107/1/3 109/1/3
f 111/1/3 107/1/3 110/1/3
f 112/1/3 107/1/3 111/1/3
f 113/1/3 107/1/3 112/1/3
f 114/1/3 107/1/3 113/1/3
f 115/1/3 108/1/3 106/1/3
f 117/1/3 116/1/3 115/1/3
f 120/1/3 118/1/3 117/1/3
f 120/1/3 119/1/3 118/1/3
f 122/1/3 107/1/3 114/1/3
f 123/1/3 121/1/3 120/1/3
f 123/1/3 122/1/3 121/1/3
f 123/1/3 115/1/3 106/1/3
f 123/1/3 117/1/3 115/1/3
f 123/1/3 120/1/3 117/1/3
f 124/1/3 107/1/3 122/1/3
f 124/1/3 122/1/3 123/1/3
f 125/1/4 126/1/4 127/1/4
f 127/1/4 126/1/4 128/1/4
f 131/1/5 130/1/5 129/1/5
f 132/1/5 130/1/5 131/1/5
f 136/2/5 134/2/5 133/2/5
f 137/2/5 134/2/5 136/2/5
f 139/2/5 136/2/5 135/2/5
f 139/2/5 138/2/5 137/2/5
f 139/2/5 137/2/5 136/2/5
f 140/2/5 138/2/5 139/2/5
f 143/2/5 142/2/5 141/2/5
f 144/2/5 142/2/5 143/2/5
f 146/2/5 145/2/5 144/2/5
f 147/2/5 145/2/5 146/2/5
f 150/4/5 149/4/5 148/4/5
f 151/4/5 149/4/5 150/4/5
f 153/4/5 152/4/5 151/4/5
f 154/4/5 152/4/5 153/4/5
f 155/2/6 156/2/6 158/2/6
f 158/2/6 156/2/6 159/2/6
f 157/2/6 158/2/6 160/2/6
f 160/2/6 158/2/6 161/2/6
f 162/5/6 163/5/6 165/5/6
f 165/5/6 163/5/6 166/5/6
f 164/5/6 165/5/6 168/5/6
f 166/5/6 167/5/6 168/5/6
f 165/5/6 166/5/6 168/5/6
f 168/5/6 167/5/6 169/5/6
f 170/1/6 171/1/6 172/1/6
f 172/1/6 171/1/6 173/1/6
