# MagicaVoxel @ Ephtracy

# group
o 

# material
mtllib ChimeraFlame.mtl
usemtl palette

# normals
vn -1 0 0
vn 1 0 0
vn 0 0 1
vn 0 0 -1
vn 0 -1 0
vn 0 1 0

# texcoords
vt 0.298828 0.5
vt 0.685547 0.5
vt 0.955078 0.5
vt 0.958984 0.5

# verts
v -0.2 0.1 0.2
v -0.2 0.1 -0.2
v -0.2 0.5 0.2
v -0.2 0.5 -0.2
v -0.1 0 0.1
v -0.1 0 -0.1
v -0.1 0.1 0.1
v -0.1 0.1 -0.1
v -0.1 0.5 0.1
v -0.1 0.5 -0.1
v -0.1 0.7 0.1
v -0.1 0.7 -0.1
v 0.1 0.4 0.1
v 0.1 0.4 -0.1
v 0.1 0.5 0.1
v 0.1 0.5 -0.1
v -0.1 0.4 0.1
v -0.1 0.4 -0.1
v -0.1 0.5 0.1
v -0.1 0.5 -0.1
v 0.1 0 0.1
v 0.1 0 -0.1
v 0.1 0.1 0.1
v 0.1 0.1 -0.1
v 0.1 0.5 0.1
v 0.1 0.5 -0.1
v 0.1 0.7 0.1
v 0.1 0.7 -0.1
v 0.2 0.1 0.2
v 0.2 0.1 -0.2
v 0.2 0.5 0.2
v 0.2 0.5 -0.2
v -0.2 0.1 0.2
v -0.2 0.5 0.2
v -0.1 0.2 0.2
v -0.1 0.4 0.2
v 0.1 0.2 0.2
v 0.1 0.4 0.2
v 0.2 0.1 0.2
v 0.2 0.5 0.2
v -0.1 0 0.1
v -0.1 0.1 0.1
v -0.1 0.5 0.1
v -0.1 0.7 0.1
v 0.1 0 0.1
v 0.1 0.1 0.1
v 0.1 0.5 0.1
v 0.1 0.7 0.1
v -0.1 0.4 -0.1
v -0.1 0.5 -0.1
v 0.1 0.4 -0.1
v 0.1 0.5 -0.1
v -0.1 0.4 0.1
v -0.1 0.5 0.1
v 0.1 0.4 0.1
v 0.1 0.5 0.1
v -0.1 0 -0.1
v -0.1 0.1 -0.1
v -0.1 0.5 -0.1
v -0.1 0.7 -0.1
v 0.1 0 -0.1
v 0.1 0.1 -0.1
v 0.1 0.5 -0.1
v 0.1 0.7 -0.1
v -0.2 0.1 -0.2
v -0.2 0.5 -0.2
v 0.2 0.1 -0.2
v 0.2 0.5 -0.2
v -0.1 0 0.1
v 0.1 0 0.1
v -0.1 0 -0.1
v 0.1 0 -0.1
v -0.2 0.1 0.2
v 0.2 0.1 0.2
v -0.1 0.1 0.1
v 0.1 0.1 0.1
v -0.1 0.1 -0.1
v 0.1 0.1 -0.1
v -0.2 0.1 -0.2
v 0.2 0.1 -0.2
v -0.1 0.5 0.1
v 0.1 0.5 0.1
v -0.1 0.5 -0.1
v 0.1 0.5 -0.1
v -0.1 0.4 0.1
v 0.1 0.4 0.1
v -0.1 0.4 -0.1
v 0.1 0.4 -0.1
v -0.2 0.5 0.2
v 0.2 0.5 0.2
v -0.1 0.5 0.1
v 0.1 0.5 0.1
v -0.1 0.5 -0.1
v 0.1 0.5 -0.1
v -0.2 0.5 -0.2
v 0.2 0.5 -0.2
v -0.1 0.7 0.1
v 0.1 0.7 0.1
v -0.1 0.7 -0.1
v 0.1 0.7 -0.1

# faces
f 3/4/1 2/4/1 1/4/1
f 4/4/1 2/4/1 3/4/1
f 7/4/1 6/4/1 5/4/1
f 8/4/1 6/4/1 7/4/1
f 11/3/1 10/3/1 9/3/1
f 12/3/1 10/3/1 11/3/1
f 15/4/1 14/4/1 13/4/1
f 16/4/1 14/4/1 15/4/1
f 17/4/2 18/4/2 19/4/2
f 19/4/2 18/4/2 20/4/2
f 21/4/2 22/4/2 23/4/2
f 23/4/2 22/4/2 24/4/2
f 25/3/2 26/3/2 27/3/2
f 27/3/2 26/3/2 28/3/2
f 29/4/2 30/4/2 31/4/2
f 31/4/2 30/4/2 32/4/2
f 35/4/3 34/4/3 33/4/3
f 36/4/3 34/4/3 35/4/3
f 37/4/3 35/4/3 33/4/3
f 37/1/3 36/1/3 35/1/3
f 38/4/3 34/4/3 36/4/3
f 38/1/3 36/1/3 37/1/3
f 39/4/3 37/4/3 33/4/3
f 39/4/3 38/4/3 37/4/3
f 40/4/3 34/4/3 38/4/3
f 40/4/3 38/4/3 39/4/3
f 45/4/3 42/4/3 41/4/3
f 46/4/3 42/4/3 45/4/3
f 47/3/3 44/3/3 43/3/3
f 48/3/3 44/3/3 47/3/3
f 51/4/3 50/4/3 49/4/3
f 52/4/3 50/4/3 51/4/3
f 53/4/4 54/4/4 55/4/4
f 55/4/4 54/4/4 56/4/4
f 57/4/4 58/4/4 61/4/4
f 61/4/4 58/4/4 62/4/4
f 59/3/4 60/3/4 63/3/4
f 63/3/4 60/3/4 64/3/4
f 65/4/4 66/4/4 67/4/4
f 67/4/4 66/4/4 68/4/4
f 71/4/5 70/4/5 69/4/5
f 72/4/5 70/4/5 71/4/5
f 75/4/5 74/4/5 73/4/5
f 76/4/5 74/4/5 75/4/5
f 77/4/5 75/4/5 73/4/5
f 78/4/5 74/4/5 76/4/5
f 79/4/5 77/4/5 73/4/5
f 79/4/5 78/4/5 77/4/5
f 80/4/5 74/4/5 78/4/5
f 80/4/5 78/4/5 79/4/5
f 83/3/5 82/3/5 81/3/5
f 84/3/5 82/3/5 83/3/5
f 85/2/6 86/2/6 87/2/6
f 87/2/6 86/2/6 88/2/6
f 89/4/6 90/4/6 91/4/6
f 91/4/6 90/4/6 92/4/6
f 89/4/6 91/4/6 93/4/6
f 92/4/6 90/4/6 94/4/6
f 89/4/6 93/4/6 95/4/6
f 93/4/6 94/4/6 95/4/6
f 94/4/6 90/4/6 96/4/6
f 95/4/6 94/4/6 96/4/6
f 97/3/6 98/3/6 99/3/6
f 99/3/6 98/3/6 100/3/6
