# MagicaVoxel @ Ephtracy

# group
o 

# material
mtllib DragonflyWing.mtl
usemtl palette

# normals
vn -1 0 0
vn 1 0 0
vn 0 0 1
vn 0 0 -1
vn 0 -1 0
vn 0 1 0

# texcoords
vt 0.0683594 0.5
vt 0.962891 0.5
vt 0.990234 0.5

# verts
v 0.2 0 -0.1
v 0.2 0 -0.2
v 0.2 0.1 0
v 0.2 0.1 -0.1
v 0.2 0.1 -0.2
v 0.2 0.1 -0.3
v 0.2 0.2 -0.1
v 0.2 0.2 -0.2
v 0.2 0.2 -0.3
v 0.2 0.3 0.3
v 0.2 0.3 0.2
v 0.2 0.3 0.1
v 0.2 0.3 0
v 0.2 0.3 -0.1
v 0.2 0.3 -0.2
v 0.2 0.4 0.4
v 0.2 0.4 0.3
v 0.2 0.4 0.2
v 0.2 0.4 0.1
v 0.2 0.4 0
v 0.2 0.4 -0.1
v 0.2 0.4 -0.2
v 0.2 0.5 0.4
v 0.2 0.5 0.3
v 0.2 0.5 0.2
v 0.2 0.5 0.1
v 0.2 0.5 -0.2
v 0.2 0.5 -0.3
v 0.2 0.6 -0.1
v 0.2 0.6 -0.2
v 0.2 0.6 -0.3
v 0.2 0.6 -0.4
v 0.2 0.7 -0.1
v 0.2 0.7 -0.2
v 0.2 0.7 -0.3
v 0.2 0.7 -0.4
v 0.3 0 0.4
v 0.3 0 -0.1
v 0.3 0 -0.2
v 0.3 0 -0.4
v 0.3 0.1 0
v 0.3 0.1 -0.1
v 0.3 0.1 -0.2
v 0.3 0.1 -0.3
v 0.3 0.2 -0.1
v 0.3 0.2 -0.2
v 0.3 0.2 -0.3
v 0.3 0.3 0.3
v 0.3 0.3 0.2
v 0.3 0.3 0.1
v 0.3 0.3 0
v 0.3 0.3 -0.1
v 0.3 0.3 -0.2
v 0.3 0.4 0.4
v 0.3 0.4 0.3
v 0.3 0.4 0.2
v 0.3 0.4 0.1
v 0.3 0.4 0
v 0.3 0.4 -0.1
v 0.3 0.4 -0.2
v 0.3 0.5 0.4
v 0.3 0.5 0.3
v 0.3 0.5 0.2
v 0.3 0.5 0.1
v 0.3 0.5 -0.2
v 0.3 0.5 -0.3
v 0.3 0.6 -0.1
v 0.3 0.6 -0.2
v 0.3 0.6 -0.3
v 0.3 0.6 -0.4
v 0.3 0.7 -0.1
v 0.3 0.7 -0.2
v 0.3 0.7 -0.3
v 0.3 0.7 -0.4
v 0.3 0.8 0.4
v 0.3 0.8 -0.4
v 0.4 0 0.4
v 0.4 0 -0.4
v 0.4 0.8 0.4
v 0.4 0.8 -0.4
v 0.2 0.4 0.4
v 0.2 0.5 0.4
v 0.3 0 0.4
v 0.3 0.4 0.4
v 0.3 0.5 0.4
v 0.3 0.8 0.4
v 0.4 0 0.4
v 0.4 0.8 0.4
v 0.2 0.3 0.3
v 0.2 0.4 0.3
v 0.3 0.3 0.3
v 0.3 0.4 0.3
v 0.2 0.3 0.1
v 0.2 0.4 0.1
v 0.3 0.3 0.1
v 0.3 0.4 0.1
v 0.2 0.1 0
v 0.2 0.3 0
v 0.3 0.1 0
v 0.3 0.3 0
v 0.2 0 -0.1
v 0.2 0.1 -0.1
v 0.2 0.6 -0.1
v 0.2 0.7 -0.1
v 0.3 0 -0.1
v 0.3 0.1 -0.1
v 0.3 0.6 -0.1
v 0.3 0.7 -0.1
v 0.2 0.5 -0.2
v 0.2 0.6 -0.2
v 0.3 0.5 -0.2
v 0.3 0.6 -0.2
v 0.2 0.3 0.2
v 0.2 0.4 0.2
v 0.3 0.3 0.2
v 0.3 0.4 0.2
v 0.2 0.4 0.1
v 0.2 0.5 0.1
v 0.3 0.4 0.1
v 0.3 0.5 0.1
v 0.2 0.2 -0.1
v 0.2 0.3 -0.1
v 0.3 0.2 -0.1
v 0.3 0.3 -0.1
v 0.2 0 -0.2
v 0.2 0.1 -0.2
v 0.2 0.3 -0.2
v 0.2 0.4 -0.2
v 0.3 0 -0.2
v 0.3 0.1 -0.2
v 0.3 0.3 -0.2
v 0.3 0.4 -0.2
v 0.2 0.1 -0.3
v 0.2 0.2 -0.3
v 0.2 0.5 -0.3
v 0.2 0.6 -0.3
v 0.3 0.1 -0.3
v 0.3 0.2 -0.3
v 0.3 0.5 -0.3
v 0.3 0.6 -0.3
v 0.2 0.6 -0.4
v 0.2 0.7 -0.4
v 0.3 0 -0.4
v 0.3 0.6 -0.4
v 0.3 0.7 -0.4
v 0.3 0.8 -0.4
v 0.4 0 -0.4
v 0.4 0.8 -0.4
v 0.3 0 0.4
v 0.4 0 0.4
v 0.2 0 -0.1
v 0.3 0 -0.1
v 0.2 0 -0.2
v 0.3 0 -0.2
v 0.3 0 -0.4
v 0.4 0 -0.4
v 0.2 0.1 0
v 0.3 0.1 0
v 0.2 0.1 -0.1
v 0.3 0.1 -0.1
v 0.2 0.1 -0.2
v 0.3 0.1 -0.2
v 0.2 0.1 -0.3
v 0.3 0.1 -0.3
v 0.2 0.3 0.3
v 0.3 0.3 0.3
v 0.2 0.3 0.2
v 0.3 0.3 0.2
v 0.2 0.3 0.1
v 0.3 0.3 0.1
v 0.2 0.3 0
v 0.3 0.3 0
v 0.2 0.3 -0.1
v 0.3 0.3 -0.1
v 0.2 0.3 -0.2
v 0.3 0.3 -0.2
v 0.2 0.4 0.4
v 0.3 0.4 0.4
v 0.2 0.4 0.3
v 0.3 0.4 0.3
v 0.2 0.4 0.2
v 0.3 0.4 0.2
v 0.2 0.4 0.1
v 0.3 0.4 0.1
v 0.2 0.5 -0.2
v 0.3 0.5 -0.2
v 0.2 0.5 -0.3
v 0.3 0.5 -0.3
v 0.2 0.6 -0.1
v 0.3 0.6 -0.1
v 0.2 0.6 -0.2
v 0.3 0.6 -0.2
v 0.2 0.6 -0.3
v 0.3 0.6 -0.3
v 0.2 0.6 -0.4
v 0.3 0.6 -0.4
v 0.2 0.2 -0.1
v 0.3 0.2 -0.1
v 0.2 0.2 -0.2
v 0.3 0.2 -0.2
v 0.2 0.2 -0.3
v 0.3 0.2 -0.3
v 0.2 0.4 0.1
v 0.3 0.4 0.1
v 0.2 0.4 0
v 0.3 0.4 0
v 0.2 0.4 -0.1
v 0.3 0.4 -0.1
v 0.2 0.4 -0.2
v 0.3 0.4 -0.2
v 0.2 0.5 0.4
v 0.3 0.5 0.4
v 0.2 0.5 0.3
v 0.3 0.5 0.3
v 0.2 0.5 0.2
v 0.3 0.5 0.2
v 0.2 0.5 0.1
v 0.3 0.5 0.1
v 0.2 0.7 -0.1
v 0.3 0.7 -0.1
v 0.2 0.7 -0.2
v 0.3 0.7 -0.2
v 0.2 0.7 -0.3
v 0.3 0.7 -0.3
v 0.2 0.7 -0.4
v 0.3 0.7 -0.4
v 0.3 0.8 0.4
v 0.4 0.8 0.4
v 0.3 0.8 -0.4
v 0.4 0.8 -0.4

# faces
f 4/2/1 2/2/1 1/2/1
f 5/2/1 2/2/1 4/2/1
f 7/2/1 4/2/1 3/2/1
f 7/3/1 5/3/1 4/3/1
f 8/2/1 6/2/1 5/2/1
f 8/3/1 5/3/1 7/3/1
f 9/2/1 6/2/1 8/2/1
f 13/2/1 7/2/1 3/2/1
f 14/2/1 7/2/1 13/2/1
f 17/2/1 11/2/1 10/2/1
f 18/2/1 11/2/1 17/2/1
f 19/2/1 13/2/1 12/2/1
f 20/3/1 14/3/1 13/3/1
f 20/2/1 13/2/1 19/2/1
f 21/2/1 15/2/1 14/2/1
f 21/3/1 14/3/1 20/3/1
f 22/2/1 15/2/1 21/2/1
f 23/2/1 17/2/1 16/2/1
f 24/3/1 18/3/1 17/3/1
f 24/2/1 17/2/1 23/2/1
f 25/2/1 19/2/1 18/2/1
f 25/3/1 18/3/1 24/3/1
f 26/2/1 19/2/1 25/2/1
f 30/2/1 28/2/1 27/2/1
f 31/2/1 28/2/1 30/2/1
f 33/2/1 30/2/1 29/2/1
f 34/3/1 31/3/1 30/3/1
f 34/2/1 30/2/1 33/2/1
f 35/2/1 32/2/1 31/2/1
f 35/3/1 31/3/1 34/3/1
f 36/2/1 32/2/1 35/2/1
f 41/1/1 38/1/1 37/1/1
f 42/1/1 38/1/1 41/1/1
f 43/1/1 40/1/1 39/1/1
f 44/1/1 40/1/1 43/1/1
f 47/1/1 40/1/1 44/1/1
f 48/1/1 41/1/1 37/1/1
f 49/1/1 41/1/1 48/1/1
f 50/1/1 41/1/1 49/1/1
f 51/1/1 41/1/1 50/1/1
f 52/1/1 46/1/1 45/1/1
f 52/1/1 47/1/1 46/1/1
f 53/1/1 47/1/1 52/1/1
f 54/1/1 48/1/1 37/1/1
f 55/1/1 48/1/1 54/1/1
f 56/1/1 50/1/1 49/1/1
f 57/1/1 50/1/1 56/1/1
f 60/1/1 47/1/1 53/1/1
f 64/1/1 59/1/1 58/1/1
f 64/1/1 60/1/1 59/1/1
f 64/1/1 58/1/1 57/1/1
f 65/1/1 47/1/1 60/1/1
f 65/1/1 60/1/1 64/1/1
f 66/1/1 40/1/1 47/1/1
f 66/1/1 47/1/1 65/1/1
f 67/1/1 63/1/1 62/1/1
f 67/1/1 62/1/1 61/1/1
f 67/1/1 65/1/1 64/1/1
f 67/1/1 64/1/1 63/1/1
f 68/1/1 65/1/1 67/1/1
f 69/1/1 40/1/1 66/1/1
f 70/1/1 40/1/1 69/1/1
f 71/1/1 67/1/1 61/1/1
f 75/1/1 71/1/1 61/1/1
f 75/1/1 74/1/1 73/1/1
f 75/1/1 73/1/1 72/1/1
f 75/1/1 72/1/1 71/1/1
f 76/1/1 74/1/1 75/1/1
f 77/1/2 78/1/2 79/1/2
f 79/1/2 78/1/2 80/1/2
f 84/2/3 82/2/3 81/2/3
f 85/2/3 82/2/3 84/2/3
f 87/1/3 84/1/3 83/1/3
f 87/1/3 86/1/3 85/1/3
f 87/1/3 85/1/3 84/1/3
f 88/1/3 86/1/3 87/1/3
f 91/2/3 90/2/3 89/2/3
f 92/2/3 90/2/3 91/2/3
f 95/2/3 94/2/3 93/2/3
f 96/2/3 94/2/3 95/2/3
f 99/2/3 98/2/3 97/2/3
f 100/2/3 98/2/3 99/2/3
f 105/2/3 102/2/3 101/2/3
f 106/2/3 102/2/3 105/2/3
f 107/2/3 104/2/3 103/2/3
f 108/2/3 104/2/3 107/2/3
f 111/2/3 110/2/3 109/2/3
f 112/2/3 110/2/3 111/2/3
f 113/2/4 114/2/4 115/2/4
f 115/2/4 114/2/4 116/2/4
f 117/2/4 118/2/4 119/2/4
f 119/2/4 118/2/4 120/2/4
f 121/2/4 122/2/4 123/2/4
f 123/2/4 122/2/4 124/2/4
f 125/2/4 126/2/4 129/2/4
f 129/2/4 126/2/4 130/2/4
f 127/2/4 128/2/4 131/2/4
f 131/2/4 128/2/4 132/2/4
f 133/2/4 134/2/4 137/2/4
f 137/2/4 134/2/4 138/2/4
f 135/2/4 136/2/4 139/2/4
f 139/2/4 136/2/4 140/2/4
f 141/2/4 142/2/4 144/2/4
f 144/2/4 142/2/4 145/2/4
f 143/1/4 144/1/4 147/1/4
f 145/1/4 146/1/4 147/1/4
f 144/1/4 145/1/4 147/1/4
f 147/1/4 146/1/4 148/1/4
f 152/1/5 150/1/5 149/1/5
f 153/2/5 152/2/5 151/2/5
f 154/1/5 150/1/5 152/1/5
f 154/2/5 152/2/5 153/2/5
f 155/1/5 150/1/5 154/1/5
f 156/1/5 150/1/5 155/1/5
f 159/2/5 158/2/5 157/2/5
f 160/2/5 158/2/5 159/2/5
f 163/2/5 162/2/5 161/2/5
f 164/2/5 162/2/5 163/2/5
f 167/2/5 166/2/5 165/2/5
f 168/2/5 166/2/5 167/2/5
f 171/2/5 170/2/5 169/2/5
f 172/2/5 170/2/5 171/2/5
f 175/2/5 174/2/5 173/2/5
f 176/2/5 174/2/5 175/2/5
f 179/2/5 178/2/5 177/2/5
f 180/2/5 178/2/5 179/2/5
f 183/2/5 182/2/5 181/2/5
f 184/2/5 182/2/5 183/2/5
f 187/2/5 186/2/5 185/2/5
f 188/2/5 186/2/5 187/2/5
f 191/2/5 190/2/5 189/2/5
f 192/2/5 190/2/5 191/2/5
f 195/2/5 194/2/5 193/2/5
f 196/2/5 194/2/5 195/2/5
f 197/3/6 198/3/6 199/3/6
f 199/3/6 198/3/6 200/3/6
f 199/2/6 200/2/6 201/2/6
f 201/2/6 200/2/6 202/2/6
f 203/2/6 204/2/6 205/2/6
f 205/2/6 204/2/6 206/2/6
f 205/3/6 206/3/6 207/3/6
f 207/3/6 206/3/6 208/3/6
f 207/2/6 208/2/6 209/2/6
f 209/2/6 208/2/6 210/2/6
f 211/2/6 212/2/6 213/2/6
f 213/2/6 212/2/6 214/2/6
f 213/3/6 214/3/6 215/3/6
f 215/3/6 214/3/6 216/3/6
f 215/2/6 216/2/6 217/2/6
f 217/2/6 216/2/6 218/2/6
f 219/2/6 220/2/6 221/2/6
f 221/2/6 220/2/6 222/2/6
f 221/3/6 222/3/6 223/3/6
f 223/3/6 222/3/6 224/3/6
f 223/2/6 224/2/6 225/2/6
f 225/2/6 224/2/6 226/2/6
f 227/1/6 228/1/6 229/1/6
f 229/1/6 228/1/6 230/1/6
