# MagicaVoxel @ Ephtracy

# group
o 

# material
mtllib FairyWingHalf.mtl
usemtl palette

# normals
vn -1 0 0
vn 1 0 0
vn 0 0 1
vn 0 0 -1
vn 0 -1 0
vn 0 1 0

# texcoords
vt 0.400391 0.5
vt 0.404297 0.5
vt 0.525391 0.5
vt 0.685547 0.5
vt 0.701172 0.5

# verts
v -0.4 0.1 0.4
v -0.4 0.1 -0.4
v -0.4 0.2 0.4
v -0.4 0.2 -0.4
v -0.3 0 0.3
v -0.3 0 -0.3
v -0.3 0.1 0.3
v -0.3 0.1 -0.3
v -0.2 0.1 0.3
v -0.2 0.1 0.2
v -0.2 0.1 0.1
v -0.2 0.1 0
v -0.2 0.2 0.3
v -0.2 0.2 0.2
v -0.2 0.2 0.1
v -0.2 0.2 0
v -0.1 0.1 0
v -0.1 0.1 -0.3
v -0.1 0.2 0
v -0.1 0.2 -0.3
v 0.1 0.1 0.3
v 0.1 0.1 0.2
v 0.1 0.1 0.1
v 0.1 0.2 0.3
v 0.1 0.2 0.2
v 0.1 0.2 0.1
v 0.3 0.1 0
v 0.3 0.1 -0.3
v 0.3 0.2 0
v 0.3 0.2 -0.3
v -0.3 0.1 0.3
v -0.3 0.1 -0.3
v -0.3 0.2 0.3
v -0.3 0.2 -0.3
v -0.1 0.1 0.3
v -0.1 0.1 0.2
v -0.1 0.2 0.3
v -0.1 0.2 0.2
v 0.1 0.1 -0.1
v 0.1 0.1 -0.2
v 0.1 0.1 -0.3
v 0.1 0.2 -0.1
v 0.1 0.2 -0.2
v 0.1 0.2 -0.3
v 0.2 0.1 0
v 0.2 0.1 -0.1
v 0.2 0.2 0
v 0.2 0.2 -0.1
v 0.3 0 0.3
v 0.3 0 -0.3
v 0.3 0.1 0.3
v 0.3 0.1 -0.3
v 0.4 0.1 0.4
v 0.4 0.1 -0.4
v 0.4 0.2 0.4
v 0.4 0.2 -0.4
v -0.4 0.1 0.4
v -0.4 0.2 0.4
v 0.4 0.1 0.4
v 0.4 0.2 0.4
v -0.3 0 0.3
v -0.3 0.1 0.3
v 0.3 0 0.3
v 0.3 0.1 0.3
v -0.2 0.1 0.1
v -0.2 0.2 0.1
v -0.1 0.1 0.1
v -0.1 0.2 0.1
v 0 0.1 0.1
v 0 0.2 0.1
v 0.1 0.1 0.1
v 0.1 0.2 0.1
v -0.3 0.1 -0.3
v -0.3 0.2 -0.3
v -0.1 0.1 -0.3
v -0.1 0.2 -0.3
v 0.1 0.1 -0.3
v 0.1 0.2 -0.3
v 0.3 0.1 -0.3
v 0.3 0.2 -0.3
v -0.3 0.1 0.3
v -0.3 0.2 0.3
v -0.2 0.1 0.3
v -0.2 0.2 0.3
v -0.1 0.1 0.3
v -0.1 0.2 0.3
v 0.1 0.1 0.3
v 0.1 0.2 0.3
v -0.2 0.1 0.2
v -0.2 0.2 0.2
v -0.1 0.1 0.2
v -0.1 0.2 0.2
v -0.2 0.1 0
v -0.2 0.2 0
v -0.1 0.1 0
v -0.1 0.2 0
v 0.2 0.1 0
v 0.2 0.2 0
v 0.3 0.1 0
v 0.3 0.2 0
v 0.1 0.1 -0.1
v 0.1 0.2 -0.1
v 0.2 0.1 -0.1
v 0.2 0.2 -0.1
v -0.3 0 -0.3
v -0.3 0.1 -0.3
v 0.3 0 -0.3
v 0.3 0.1 -0.3
v -0.4 0.1 -0.4
v -0.4 0.2 -0.4
v 0.4 0.1 -0.4
v 0.4 0.2 -0.4
v -0.3 0 0.3
v 0.3 0 0.3
v -0.3 0 -0.3
v 0.3 0 -0.3
v -0.4 0.1 0.4
v 0.4 0.1 0.4
v -0.3 0.1 0.3
v 0.3 0.1 0.3
v -0.3 0.1 -0.3
v 0.3 0.1 -0.3
v -0.4 0.1 -0.4
v 0.4 0.1 -0.4
v -0.3 0.1 0.3
v -0.2 0.1 0.3
v -0.1 0.1 0.3
v 0.1 0.1 0.3
v -0.2 0.1 0.2
v -0.1 0.1 0.2
v 0.1 0.1 0.2
v -0.2 0.1 0.1
v -0.1 0.1 0.1
v 0 0.1 0.1
v 0.1 0.1 0.1
v -0.2 0.1 0
v -0.1 0.1 0
v 0.2 0.1 0
v 0.3 0.1 0
v 0.1 0.1 -0.1
v 0.2 0.1 -0.1
v 0.1 0.1 -0.2
v -0.3 0.1 -0.3
v -0.1 0.1 -0.3
v 0.1 0.1 -0.3
v 0.3 0.1 -0.3
v -0.4 0.2 0.4
v 0.4 0.2 0.4
v -0.3 0.2 0.3
v -0.2 0.2 0.3
v -0.1 0.2 0.3
v 0.1 0.2 0.3
v 0.2 0.2 0.3
v 0.3 0.2 0.3
v -0.2 0.2 0.2
v -0.1 0.2 0.2
v 0.1 0.2 0.2
v 0.2 0.2 0.2
v -0.2 0.2 0.1
v -0.1 0.2 0.1
v 0 0.2 0.1
v 0.1 0.2 0.1
v 0.2 0.2 0.1
v -0.2 0.2 0
v -0.1 0.2 0
v 0 0.2 0
v 0.1 0.2 0
v 0.2 0.2 0
v 0.3 0.2 0
v 0 0.2 -0.1
v 0.1 0.2 -0.1
v 0.2 0.2 -0.1
v 0 0.2 -0.2
v 0.1 0.2 -0.2
v -0.3 0.2 -0.3
v -0.1 0.2 -0.3
v 0.1 0.2 -0.3
v 0.3 0.2 -0.3
v -0.4 0.2 -0.4
v 0.4 0.2 -0.4

# faces
f 3/5/1 2/5/1 1/5/1
f 4/5/1 2/5/1 3/5/1
f 7/5/1 6/5/1 5/5/1
f 8/5/1 6/5/1 7/5/1
f 13/2/1 10/2/1 9/2/1
f 14/2/1 10/2/1 13/2/1
f 15/2/1 12/2/1 11/2/1
f 16/2/1 12/2/1 15/2/1
f 19/1/1 18/1/1 17/1/1
f 20/1/1 18/1/1 19/1/1
f 24/3/1 22/3/1 21/3/1
f 25/2/1 23/2/1 22/2/1
f 25/3/1 22/3/1 24/3/1
f 26/2/1 23/2/1 25/2/1
f 29/5/1 28/5/1 27/5/1
f 30/5/1 28/5/1 29/5/1
f 31/5/2 32/5/2 33/5/2
f 33/5/2 32/5/2 34/5/2
f 35/2/2 36/2/2 37/2/2
f 37/2/2 36/2/2 38/2/2
f 39/4/2 40/4/2 42/4/2
f 40/1/2 41/1/2 43/1/2
f 42/4/2 40/4/2 43/4/2
f 43/1/2 41/1/2 44/1/2
f 45/2/2 46/2/2 47/2/2
f 47/2/2 46/2/2 48/2/2
f 49/5/2 50/5/2 51/5/2
f 51/5/2 50/5/2 52/5/2
f 53/5/2 54/5/2 55/5/2
f 55/5/2 54/5/2 56/5/2
f 59/5/3 58/5/3 57/5/3
f 60/5/3 58/5/3 59/5/3
f 63/5/3 62/5/3 61/5/3
f 64/5/3 62/5/3 63/5/3
f 67/2/3 66/2/3 65/2/3
f 68/2/3 66/2/3 67/2/3
f 69/1/3 68/1/3 67/1/3
f 70/1/3 68/1/3 69/1/3
f 71/4/3 70/4/3 69/4/3
f 72/4/3 70/4/3 71/4/3
f 75/5/3 74/5/3 73/5/3
f 76/5/3 74/5/3 75/5/3
f 79/5/3 78/5/3 77/5/3
f 80/5/3 78/5/3 79/5/3
f 81/5/4 82/5/4 83/5/4
f 83/5/4 82/5/4 84/5/4
f 85/5/4 86/5/4 87/5/4
f 87/5/4 86/5/4 88/5/4
f 89/2/4 90/2/4 91/2/4
f 91/2/4 90/2/4 92/2/4
f 93/2/4 94/2/4 95/2/4
f 95/2/4 94/2/4 96/2/4
f 97/2/4 98/2/4 99/2/4
f 99/2/4 98/2/4 100/2/4
f 101/2/4 102/2/4 103/2/4
f 103/2/4 102/2/4 104/2/4
f 105/5/4 106/5/4 107/5/4
f 107/5/4 106/5/4 108/5/4
f 109/5/4 110/5/4 111/5/4
f 111/5/4 110/5/4 112/5/4
f 115/5/5 114/5/5 113/5/5
f 116/5/5 114/5/5 115/5/5
f 119/5/5 118/5/5 117/5/5
f 120/5/5 118/5/5 119/5/5
f 121/5/5 119/5/5 117/5/5
f 122/5/5 118/5/5 120/5/5
f 123/5/5 121/5/5 117/5/5
f 123/5/5 122/5/5 121/5/5
f 124/5/5 118/5/5 122/5/5
f 124/5/5 122/5/5 123/5/5
f 125/5/6 126/5/6 129/5/6
f 127/5/6 128/5/6 130/5/6
f 130/5/6 128/5/6 131/5/6
f 125/5/6 129/5/6 132/5/6
f 129/5/6 130/5/6 132/5/6
f 130/5/6 131/5/6 132/5/6
f 132/5/6 131/5/6 133/5/6
f 133/5/6 131/5/6 134/5/6
f 134/5/6 131/5/6 135/5/6
f 125/5/6 132/5/6 136/5/6
f 138/5/6 139/5/6 141/5/6
f 140/5/6 141/5/6 142/5/6
f 136/5/6 137/5/6 143/5/6
f 125/5/6 136/5/6 143/5/6
f 143/5/6 137/5/6 144/5/6
f 142/5/6 141/5/6 145/5/6
f 141/5/6 139/5/6 146/5/6
f 145/5/6 141/5/6 146/5/6
f 147/5/6 148/5/6 149/5/6
f 149/5/6 148/5/6 150/5/6
f 150/5/6 148/5/6 151/5/6
f 151/5/6 148/5/6 152/5/6
f 152/5/6 148/5/6 153/5/6
f 153/5/6 148/5/6 154/5/6
f 150/2/6 151/2/6 155/2/6
f 155/2/6 151/2/6 156/2/6
f 152/3/6 153/3/6 157/3/6
f 153/2/6 154/2/6 158/2/6
f 157/3/6 153/3/6 158/3/6
f 157/2/6 158/2/6 162/2/6
f 158/2/6 154/2/6 163/2/6
f 162/2/6 158/2/6 163/2/6
f 159/2/6 160/2/6 164/2/6
f 160/1/6 161/1/6 165/1/6
f 164/2/6 160/2/6 165/2/6
f 161/4/6 162/4/6 166/4/6
f 165/1/6 161/1/6 166/1/6
f 162/3/6 163/3/6 167/3/6
f 166/4/6 162/4/6 167/4/6
f 163/2/6 154/2/6 168/2/6
f 167/3/6 163/3/6 168/3/6
f 154/5/6 148/5/6 169/5/6
f 168/2/6 154/2/6 169/2/6
f 166/1/6 167/1/6 170/1/6
f 165/1/6 166/1/6 170/1/6
f 167/2/6 168/2/6 171/2/6
f 170/1/6 167/1/6 171/1/6
f 171/2/6 168/2/6 172/2/6
f 165/1/6 170/1/6 173/1/6
f 170/4/6 171/4/6 173/4/6
f 173/4/6 171/4/6 174/4/6
f 147/5/6 149/5/6 175/5/6
f 165/1/6 173/1/6 176/1/6
f 173/1/6 174/1/6 176/1/6
f 176/1/6 174/1/6 177/1/6
f 169/5/6 148/5/6 178/5/6
f 176/5/6 177/5/6 179/5/6
f 177/5/6 178/5/6 179/5/6
f 175/5/6 176/5/6 179/5/6
f 147/5/6 175/5/6 179/5/6
f 178/5/6 148/5/6 180/5/6
f 179/5/6 178/5/6 180/5/6
