# MagicaVoxel @ Ephtracy

# group
o 

# material
mtllib FairyWing.mtl
usemtl palette

# normals
vn -1 0 0
vn 1 0 0
vn 0 0 1
vn 0 0 -1
vn 0 -1 0
vn 0 1 0

# texcoords
vt 0.255859 0.5
vt 0.400391 0.5
vt 0.404297 0.5
vt 0.525391 0.5
vt 0.685547 0.5
vt 0.701172 0.5

# verts
v -0.4 0.1 0.4
v -0.4 0.1 -0.4
v -0.4 0.2 0.4
v -0.4 0.2 -0.4
v -0.3 0 0.3
v -0.3 0 -0.3
v -0.3 0.1 0.3
v -0.3 0.1 -0.3
v -0.2 0.1 0.3
v -0.2 0.1 0.2
v -0.2 0.1 0.1
v -0.2 0.1 0
v -0.2 0.1 -0.2
v -0.2 0.2 0.3
v -0.2 0.2 0.2
v -0.2 0.2 0.1
v -0.2 0.2 0
v -0.2 0.2 -0.2
v -0.2 0.3 0.1
v -0.2 0.3 0
v -0.1 0.1 -0.2
v -0.1 0.1 -0.3
v -0.1 0.2 0.3
v -0.1 0.2 0.2
v -0.1 0.2 0.1
v -0.1 0.2 0
v -0.1 0.2 -0.1
v -0.1 0.2 -0.2
v -0.1 0.2 -0.3
v -0.1 0.3 0.3
v -0.1 0.3 0.1
v -0.1 0.3 0
v -0.1 0.3 -0.1
v 0.1 0.1 0.3
v 0.1 0.1 0.2
v 0.1 0.1 0.1
v 0.1 0.2 0.3
v 0.1 0.2 0.2
v 0.1 0.2 0.1
v 0.3 0.1 0
v 0.3 0.1 -0.3
v 0.3 0.2 0
v 0.3 0.2 -0.3
v -0.3 0.1 0.3
v -0.3 0.1 0.2
v -0.3 0.1 0.1
v -0.3 0.1 -0.3
v -0.3 0.2 0.3
v -0.3 0.2 0.2
v -0.3 0.2 0.1
v -0.3 0.2 -0.3
v -0.1 0.1 0.3
v -0.1 0.1 0.2
v -0.1 0.1 0.1
v -0.1 0.2 0.3
v -0.1 0.2 0.2
v -0.1 0.2 0.1
v 0 0.2 0.3
v 0 0.2 0.2
v 0 0.2 0
v 0 0.2 -0.1
v 0 0.3 0.3
v 0 0.3 0.2
v 0 0.3 0
v 0 0.3 -0.1
v 0.1 0.1 -0.1
v 0.1 0.1 -0.2
v 0.1 0.1 -0.3
v 0.1 0.2 0.2
v 0.1 0.2 0.1
v 0.1 0.2 0
v 0.1 0.2 -0.1
v 0.1 0.2 -0.2
v 0.1 0.2 -0.3
v 0.1 0.3 0.2
v 0.1 0.3 0
v 0.2 0.1 0
v 0.2 0.1 -0.1
v 0.2 0.2 0
v 0.2 0.2 -0.1
v 0.3 0 0.3
v 0.3 0 -0.3
v 0.3 0.1 0.3
v 0.3 0.1 -0.3
v 0.4 0.1 0.4
v 0.4 0.1 -0.4
v 0.4 0.2 0.4
v 0.4 0.2 -0.4
v -0.4 0.1 0.4
v -0.4 0.2 0.4
v 0.4 0.1 0.4
v 0.4 0.2 0.4
v -0.3 0 0.3
v -0.3 0.1 0.3
v -0.1 0.2 0.3
v -0.1 0.3 0.3
v 0 0.2 0.3
v 0 0.3 0.3
v 0.3 0 0.3
v 0.3 0.1 0.3
v -0.3 0.1 0.2
v -0.3 0.2 0.2
v -0.2 0.1 0.2
v -0.2 0.2 0.2
v 0 0.2 0.2
v 0 0.3 0.2
v 0.1 0.2 0.2
v 0.1 0.3 0.2
v -0.2 0.2 0.1
v -0.2 0.3 0.1
v -0.1 0.1 0.1
v -0.1 0.2 0.1
v -0.1 0.3 0.1
v 0 0.1 0.1
v 0 0.2 0.1
v 0.1 0.1 0.1
v 0.1 0.2 0.1
v -0.3 0.1 -0.3
v -0.3 0.2 -0.3
v -0.1 0.1 -0.3
v -0.1 0.2 -0.3
v 0.1 0.1 -0.3
v 0.1 0.2 -0.3
v 0.3 0.1 -0.3
v 0.3 0.2 -0.3
v -0.3 0.1 0.3
v -0.3 0.2 0.3
v -0.2 0.1 0.3
v -0.2 0.2 0.3
v -0.1 0.1 0.3
v -0.1 0.2 0.3
v 0 0.2 0.3
v 0.1 0.1 0.3
v 0.1 0.2 0.3
v -0.3 0.1 0.1
v -0.3 0.2 0.1
v -0.2 0.1 0.1
v -0.2 0.2 0.1
v -0.2 0.2 0
v -0.2 0.3 0
v -0.1 0.2 0
v -0.1 0.3 0
v 0 0.2 0
v 0 0.3 0
v 0.1 0.2 0
v 0.1 0.3 0
v 0.2 0.1 0
v 0.2 0.2 0
v 0.3 0.1 0
v 0.3 0.2 0
v -0.1 0.2 -0.1
v -0.1 0.3 -0.1
v 0 0.2 -0.1
v 0 0.3 -0.1
v 0.1 0.1 -0.1
v 0.1 0.2 -0.1
v 0.2 0.1 -0.1
v 0.2 0.2 -0.1
v -0.2 0.1 -0.2
v -0.2 0.2 -0.2
v -0.1 0.1 -0.2
v -0.1 0.2 -0.2
v -0.3 0 -0.3
v -0.3 0.1 -0.3
v 0.3 0 -0.3
v 0.3 0.1 -0.3
v -0.4 0.1 -0.4
v -0.4 0.2 -0.4
v 0.4 0.1 -0.4
v 0.4 0.2 -0.4
v -0.3 0 0.3
v 0.3 0 0.3
v -0.3 0 -0.3
v 0.3 0 -0.3
v -0.4 0.1 0.4
v 0.4 0.1 0.4
v -0.3 0.1 0.3
v 0.3 0.1 0.3
v -0.3 0.1 -0.3
v 0.3 0.1 -0.3
v -0.4 0.1 -0.4
v 0.4 0.1 -0.4
v -0.1 0.2 0.3
v 0 0.2 0.3
v -0.1 0.2 0.2
v 0 0.2 0.2
v 0.1 0.2 0.2
v -0.1 0.2 0.1
v 0 0.2 0.1
v 0.1 0.2 0.1
v -0.3 0.1 0.3
v -0.2 0.1 0.3
v -0.1 0.1 0.3
v 0.1 0.1 0.3
v -0.3 0.1 0.2
v -0.2 0.1 0.2
v -0.1 0.1 0.2
v 0.1 0.1 0.2
v -0.3 0.1 0.1
v -0.2 0.1 0.1
v -0.1 0.1 0.1
v 0 0.1 0.1
v 0.1 0.1 0.1
v -0.2 0.1 0
v 0.2 0.1 0
v 0.3 0.1 0
v 0.1 0.1 -0.1
v 0.2 0.1 -0.1
v -0.2 0.1 -0.2
v -0.1 0.1 -0.2
v 0.1 0.1 -0.2
v -0.3 0.1 -0.3
v -0.1 0.1 -0.3
v 0.1 0.1 -0.3
v 0.3 0.1 -0.3
v -0.4 0.2 0.4
v 0.4 0.2 0.4
v -0.3 0.2 0.3
v -0.2 0.2 0.3
v -0.1 0.2 0.3
v 0 0.2 0.3
v 0.1 0.2 0.3
v 0.2 0.2 0.3
v 0.3 0.2 0.3
v -0.3 0.2 0.2
v -0.2 0.2 0.2
v -0.1 0.2 0.2
v 0.1 0.2 0.2
v 0.2 0.2 0.2
v -0.3 0.2 0.1
v -0.2 0.2 0.1
v -0.1 0.2 0.1
v 0.1 0.2 0.1
v 0.2 0.2 0.1
v -0.2 0.2 0
v -0.1 0.2 0
v 0 0.2 0
v 0.1 0.2 0
v 0.2 0.2 0
v 0.3 0.2 0
v -0.1 0.2 -0.1
v 0 0.2 -0.1
v 0.1 0.2 -0.1
v 0.2 0.2 -0.1
v -0.2 0.2 -0.2
v -0.1 0.2 -0.2
v 0 0.2 -0.2
v 0.1 0.2 -0.2
v -0.3 0.2 -0.3
v -0.1 0.2 -0.3
v 0.1 0.2 -0.3
v 0.3 0.2 -0.3
v -0.4 0.2 -0.4
v 0.4 0.2 -0.4
v -0.1 0.3 0.3
v 0 0.3 0.3
v 0 0.3 0.2
v 0.1 0.3 0.2
v -0.2 0.3 0.1
v -0.1 0.3 0.1
v 0 0.3 0.1
v -0.2 0.3 0
v -0.1 0.3 0
v 0 0.3 0
v 0.1 0.3 0
v -0.1 0.3 -0.1
v 0 0.3 -0.1

# faces
f 3/6/1 2/6/1 1/6/1
f 4/6/1 2/6/1 3/6/1
f 7/6/1 6/6/1 5/6/1
f 8/6/1 6/6/1 7/6/1
f 14/3/1 10/3/1 9/3/1
f 15/3/1 10/3/1 14/3/1
f 16/3/1 12/3/1 11/3/1
f 17/2/1 13/2/1 12/2/1
f 17/3/1 12/3/1 16/3/1
f 18/2/1 13/2/1 17/2/1
f 19/3/1 17/3/1 16/3/1
f 20/3/1 17/3/1 19/3/1
f 28/2/1 22/2/1 21/2/1
f 29/2/1 22/2/1 28/2/1
f 30/3/1 24/3/1 23/3/1
f 30/3/1 25/3/1 24/3/1
f 31/3/1 25/3/1 30/3/1
f 32/3/1 27/3/1 26/3/1
f 33/3/1 27/3/1 32/3/1
f 37/4/1 35/4/1 34/4/1
f 38/3/1 36/3/1 35/3/1
f 38/4/1 35/4/1 37/4/1
f 39/3/1 36/3/1 38/3/1
f 42/6/1 41/6/1 40/6/1
f 43/6/1 41/6/1 42/6/1
f 44/6/2 45/6/2 48/6/2
f 48/6/2 45/6/2 49/6/2
f 46/6/2 47/6/2 50/6/2
f 50/6/2 47/6/2 51/6/2
f 52/3/2 53/3/2 55/3/2
f 53/1/2 54/1/2 56/1/2
f 55/3/2 53/3/2 56/3/2
f 56/1/2 54/1/2 57/1/2
f 58/3/2 59/3/2 62/3/2
f 62/3/2 59/3/2 63/3/2
f 60/3/2 61/3/2 64/3/2
f 64/3/2 61/3/2 65/3/2
f 66/5/2 67/5/2 72/5/2
f 67/2/2 68/2/2 73/2/2
f 72/5/2 67/5/2 73/5/2
f 73/2/2 68/2/2 74/2/2
f 70/3/2 71/3/2 75/3/2
f 69/3/2 70/3/2 75/3/2
f 75/3/2 71/3/2 76/3/2
f 77/3/2 78/3/2 79/3/2
f 79/3/2 78/3/2 80/3/2
f 81/6/2 82/6/2 83/6/2
f 83/6/2 82/6/2 84/6/2
f 85/6/2 86/6/2 87/6/2
f 87/6/2 86/6/2 88/6/2
f 91/6/3 90/6/3 89/6/3
f 92/6/3 90/6/3 91/6/3
f 97/3/3 96/3/3 95/3/3
f 98/3/3 96/3/3 97/3/3
f 99/6/3 94/6/3 93/6/3
f 100/6/3 94/6/3 99/6/3
f 103/3/3 102/3/3 101/3/3
f 104/3/3 102/3/3 103/3/3
f 107/3/3 106/3/3 105/3/3
f 108/3/3 106/3/3 107/3/3
f 112/3/3 110/3/3 109/3/3
f 113/3/3 110/3/3 112/3/3
f 114/2/3 112/2/3 111/2/3
f 115/2/3 112/2/3 114/2/3
f 116/5/3 115/5/3 114/5/3
f 117/5/3 115/5/3 116/5/3
f 120/6/3 119/6/3 118/6/3
f 121/6/3 119/6/3 120/6/3
f 124/6/3 123/6/3 122/6/3
f 125/6/3 123/6/3 124/6/3
f 126/6/4 127/6/4 128/6/4
f 128/6/4 127/6/4 129/6/4
f 130/6/4 131/6/4 132/6/4
f 130/6/4 132/6/4 133/6/4
f 133/6/4 132/6/4 134/6/4
f 135/3/4 136/3/4 137/3/4
f 137/3/4 136/3/4 138/3/4
f 139/3/4 140/3/4 141/3/4
f 141/3/4 140/3/4 142/3/4
f 143/3/4 144/3/4 145/3/4
f 145/3/4 144/3/4 146/3/4
f 147/3/4 148/3/4 149/3/4
f 149/3/4 148/3/4 150/3/4
f 151/3/4 152/3/4 153/3/4
f 153/3/4 152/3/4 154/3/4
f 155/3/4 156/3/4 157/3/4
f 157/3/4 156/3/4 158/3/4
f 159/2/4 160/2/4 161/2/4
f 161/2/4 160/2/4 162/2/4
f 163/6/4 164/6/4 165/6/4
f 165/6/4 164/6/4 166/6/4
f 167/6/4 168/6/4 169/6/4
f 169/6/4 168/6/4 170/6/4
f 173/6/5 172/6/5 171/6/5
f 174/6/5 172/6/5 173/6/5
f 177/6/5 176/6/5 175/6/5
f 178/6/5 176/6/5 177/6/5
f 179/6/5 177/6/5 175/6/5
f 180/6/5 176/6/5 178/6/5
f 181/6/5 179/6/5 175/6/5
f 181/6/5 180/6/5 179/6/5
f 182/6/5 176/6/5 180/6/5
f 182/6/5 180/6/5 181/6/5
f 185/3/5 184/3/5 183/3/5
f 186/3/5 184/3/5 185/3/5
f 188/3/5 186/3/5 185/3/5
f 188/3/5 187/3/5 186/3/5
f 189/3/5 187/3/5 188/3/5
f 190/3/5 187/3/5 189/3/5
f 191/6/6 192/6/6 195/6/6
f 195/6/6 192/6/6 196/6/6
f 193/6/6 194/6/6 197/6/6
f 197/6/6 194/6/6 198/6/6
f 197/6/6 198/6/6 201/6/6
f 201/6/6 198/6/6 202/6/6
f 202/6/6 198/6/6 203/6/6
f 199/6/6 200/6/6 204/6/6
f 205/6/6 206/6/6 208/6/6
f 199/6/6 204/6/6 209/6/6
f 207/6/6 208/6/6 211/6/6
f 209/6/6 210/6/6 212/6/6
f 199/6/6 209/6/6 212/6/6
f 212/6/6 210/6/6 213/6/6
f 211/6/6 208/6/6 214/6/6
f 208/6/6 206/6/6 215/6/6
f 214/6/6 208/6/6 215/6/6
f 216/6/6 217/6/6 218/6/6
f 218/6/6 217/6/6 219/6/6
f 219/6/6 217/6/6 220/6/6
f 220/6/6 217/6/6 221/6/6
f 221/6/6 217/6/6 222/6/6
f 222/6/6 217/6/6 223/6/6
f 223/6/6 217/6/6 224/6/6
f 216/6/6 218/6/6 225/6/6
f 219/3/6 220/3/6 226/3/6
f 226/3/6 220/3/6 227/3/6
f 222/4/6 223/4/6 228/4/6
f 223/3/6 224/3/6 229/3/6
f 228/4/6 223/4/6 229/4/6
f 216/6/6 225/6/6 230/6/6
f 225/3/6 226/3/6 230/3/6
f 226/1/6 227/1/6 231/1/6
f 230/3/6 226/3/6 231/3/6
f 231/1/6 227/1/6 232/1/6
f 228/3/6 229/3/6 233/3/6
f 229/3/6 224/3/6 234/3/6
f 233/3/6 229/3/6 234/3/6
f 233/4/6 234/4/6 238/4/6
f 234/3/6 224/3/6 239/3/6
f 238/4/6 234/4/6 239/4/6
f 224/6/6 217/6/6 240/6/6
f 239/3/6 224/3/6 240/3/6
f 235/2/6 236/2/6 241/2/6
f 237/2/6 238/2/6 242/2/6
f 238/3/6 239/3/6 243/3/6
f 242/2/6 238/2/6 243/2/6
f 243/3/6 239/3/6 244/3/6
f 241/2/6 242/2/6 245/2/6
f 235/2/6 241/2/6 245/2/6
f 245/2/6 242/2/6 246/2/6
f 242/5/6 243/5/6 247/5/6
f 246/2/6 242/2/6 247/2/6
f 247/5/6 243/5/6 248/5/6
f 216/6/6 230/6/6 249/6/6
f 247/2/6 248/2/6 250/2/6
f 246/2/6 247/2/6 250/2/6
f 250/2/6 248/2/6 251/2/6
f 240/6/6 217/6/6 252/6/6
f 250/6/6 251/6/6 253/6/6
f 251/6/6 252/6/6 253/6/6
f 249/6/6 250/6/6 253/6/6
f 216/6/6 249/6/6 253/6/6
f 252/6/6 217/6/6 254/6/6
f 253/6/6 252/6/6 254/6/6
f 255/3/6 256/3/6 257/3/6
f 255/3/6 257/3/6 260/3/6
f 257/3/6 258/3/6 260/3/6
f 260/3/6 258/3/6 261/3/6
f 259/3/6 260/3/6 262/3/6
f 260/1/6 261/1/6 263/1/6
f 262/3/6 260/3/6 263/3/6
f 261/3/6 258/3/6 264/3/6
f 263/1/6 261/1/6 264/1/6
f 264/3/6 258/3/6 265/3/6
f 263/3/6 264/3/6 266/3/6
f 266/3/6 264/3/6 267/3/6
