# MagicaVoxel @ Ephtracy

# group
o 

# material
mtllib GorgonBloodHalf.mtl
usemtl palette

# normals
vn -1 0 0
vn 1 0 0
vn 0 0 1
vn 0 0 -1
vn 0 -1 0
vn 0 1 0

# texcoords
vt 0.0253906 0.5
vt 0.322266 0.5
vt 0.556641 0.5
vt 0.560547 0.5
vt 0.685547 0.5
vt 0.958984 0.5

# verts
v -0.2 0.1 0.2
v -0.2 0.1 -0.2
v -0.2 0.5 0.2
v -0.2 0.5 -0.2
v -0.1 0 0.1
v -0.1 0 -0.1
v -0.1 0.1 0.1
v -0.1 0.1 -0.1
v -0.1 0.5 0.1
v -0.1 0.5 -0.1
v -0.1 0.7 0.1
v -0.1 0.7 -0.1
v 0.1 0.4 0.1
v 0.1 0.4 -0.1
v 0.1 0.5 0.1
v 0.1 0.5 -0.1
v -0.1 0.4 0.1
v -0.1 0.4 -0.1
v -0.1 0.5 0.1
v -0.1 0.5 -0.1
v 0.1 0 0.1
v 0.1 0 -0.1
v 0.1 0.1 0.1
v 0.1 0.1 -0.1
v 0.1 0.5 0.1
v 0.1 0.5 -0.1
v 0.1 0.7 0.1
v 0.1 0.7 -0.1
v 0.2 0.1 0.2
v 0.2 0.1 -0.2
v 0.2 0.5 0.2
v 0.2 0.5 -0.2
v -0.2 0.1 0.2
v -0.2 0.5 0.2
v -0.1 0.2 0.2
v -0.1 0.3 0.2
v -0.1 0.4 0.2
v 0.1 0.2 0.2
v 0.1 0.3 0.2
v 0.1 0.4 0.2
v 0.2 0.1 0.2
v 0.2 0.5 0.2
v -0.1 0 0.1
v -0.1 0.1 0.1
v -0.1 0.5 0.1
v -0.1 0.7 0.1
v 0.1 0 0.1
v 0.1 0.1 0.1
v 0.1 0.5 0.1
v 0.1 0.7 0.1
v -0.1 0.4 -0.1
v -0.1 0.5 -0.1
v 0.1 0.4 -0.1
v 0.1 0.5 -0.1
v -0.1 0.4 0.1
v -0.1 0.5 0.1
v 0.1 0.4 0.1
v 0.1 0.5 0.1
v -0.1 0 -0.1
v -0.1 0.1 -0.1
v -0.1 0.5 -0.1
v -0.1 0.7 -0.1
v 0.1 0 -0.1
v 0.1 0.1 -0.1
v 0.1 0.5 -0.1
v 0.1 0.7 -0.1
v -0.2 0.1 -0.2
v -0.2 0.5 -0.2
v 0.2 0.1 -0.2
v 0.2 0.5 -0.2
v -0.1 0 0.1
v 0.1 0 0.1
v -0.1 0 -0.1
v 0.1 0 -0.1
v -0.2 0.1 0.2
v 0.2 0.1 0.2
v -0.1 0.1 0.1
v 0.1 0.1 0.1
v -0.1 0.1 -0.1
v 0.1 0.1 -0.1
v -0.2 0.1 -0.2
v 0.2 0.1 -0.2
v -0.1 0.5 0.1
v 0.1 0.5 0.1
v -0.1 0.5 -0.1
v 0.1 0.5 -0.1
v -0.1 0.4 0.1
v 0.1 0.4 0.1
v -0.1 0.4 -0.1
v 0.1 0.4 -0.1
v -0.2 0.5 0.2
v 0.2 0.5 0.2
v -0.1 0.5 0.1
v 0.1 0.5 0.1
v -0.1 0.5 -0.1
v 0.1 0.5 -0.1
v -0.2 0.5 -0.2
v 0.2 0.5 -0.2
v -0.1 0.7 0.1
v 0.1 0.7 0.1
v -0.1 0.7 -0.1
v 0.1 0.7 -0.1

# faces
f 3/4/1 2/4/1 1/4/1
f 4/4/1 2/4/1 3/4/1
f 7/4/1 6/4/1 5/4/1
f 8/4/1 6/4/1 7/4/1
f 11/2/1 10/2/1 9/2/1
f 12/2/1 10/2/1 11/2/1
f 15/4/1 14/4/1 13/4/1
f 16/4/1 14/4/1 15/4/1
f 17/4/2 18/4/2 19/4/2
f 19/4/2 18/4/2 20/4/2
f 21/4/2 22/4/2 23/4/2
f 23/4/2 22/4/2 24/4/2
f 25/2/2 26/2/2 27/2/2
f 27/2/2 26/2/2 28/2/2
f 29/4/2 30/4/2 31/4/2
f 31/4/2 30/4/2 32/4/2
f 35/4/3 34/4/3 33/4/3
f 36/4/3 34/4/3 35/4/3
f 37/4/3 34/4/3 36/4/3
f 38/4/3 35/4/3 33/4/3
f 38/1/3 36/1/3 35/1/3
f 39/3/3 37/3/3 36/3/3
f 39/1/3 36/1/3 38/1/3
f 40/4/3 34/4/3 37/4/3
f 40/3/3 37/3/3 39/3/3
f 41/4/3 39/4/3 38/4/3
f 41/4/3 38/4/3 33/4/3
f 41/4/3 40/4/3 39/4/3
f 42/4/3 34/4/3 40/4/3
f 42/4/3 40/4/3 41/4/3
f 47/4/3 44/4/3 43/4/3
f 48/4/3 44/4/3 47/4/3
f 49/2/3 46/2/3 45/2/3
f 50/2/3 46/2/3 49/2/3
f 53/4/3 52/4/3 51/4/3
f 54/4/3 52/4/3 53/4/3
f 55/4/4 56/4/4 57/4/4
f 57/4/4 56/4/4 58/4/4
f 59/4/4 60/4/4 63/4/4
f 63/4/4 60/4/4 64/4/4
f 61/2/4 62/2/4 65/2/4
f 65/2/4 62/2/4 66/2/4
f 67/4/4 68/4/4 69/4/4
f 69/4/4 68/4/4 70/4/4
f 73/4/5 72/4/5 71/4/5
f 74/4/5 72/4/5 73/4/5
f 77/4/5 76/4/5 75/4/5
f 78/4/5 76/4/5 77/4/5
f 79/4/5 77/4/5 75/4/5
f 80/4/5 76/4/5 78/4/5
f 81/4/5 79/4/5 75/4/5
f 81/4/5 80/4/5 79/4/5
f 82/4/5 76/4/5 80/4/5
f 82/4/5 80/4/5 81/4/5
f 85/2/5 84/2/5 83/2/5
f 86/2/5 84/2/5 85/2/5
f 87/5/6 88/5/6 89/5/6
f 89/5/6 88/5/6 90/5/6
f 91/4/6 92/4/6 93/4/6
f 93/4/6 92/4/6 94/4/6
f 91/4/6 93/4/6 95/4/6
f 94/4/6 92/4/6 96/4/6
f 91/4/6 95/4/6 97/4/6
f 95/4/6 96/4/6 97/4/6
f 96/4/6 92/4/6 98/4/6
f 97/4/6 96/4/6 98/4/6
f 99/2/6 100/2/6 101/2/6
f 101/2/6 100/2/6 102/2/6
