# MagicaVoxel @ Ephtracy

# group
o 

# material
mtllib GriffinFeatherHalf.mtl
usemtl palette

# normals
vn -1 0 0
vn 1 0 0
vn 0 0 1
vn 0 0 -1
vn 0 -1 0
vn 0 1 0

# texcoords
vt 0.916016 0.5
vt 0.935547 0.5
vt 0.955078 0.5
vt 0.962891 0.5
vt 0.966797 0.5

# verts
v 0.2 0.3 -0.1
v 0.2 0.3 -0.2
v 0.2 0.3 -0.3
v 0.2 0.4 0.1
v 0.2 0.4 0
v 0.2 0.4 -0.1
v 0.2 0.4 -0.2
v 0.2 0.4 -0.3
v 0.2 0.5 0.2
v 0.2 0.5 0.1
v 0.2 0.5 0
v 0.2 0.5 -0.1
v 0.2 0.5 -0.2
v 0.2 0.5 -0.3
v 0.2 0.6 0.2
v 0.2 0.6 0.1
v 0.2 0.6 -0.1
v 0.2 0.6 -0.2
v 0.3 0.1 0.3
v 0.3 0.1 -0.4
v 0.3 0.3 -0.1
v 0.3 0.3 -0.2
v 0.3 0.3 -0.3
v 0.3 0.4 0.1
v 0.3 0.4 0
v 0.3 0.4 -0.1
v 0.3 0.4 -0.3
v 0.3 0.5 0.2
v 0.3 0.5 0.1
v 0.3 0.5 0
v 0.3 0.5 -0.1
v 0.3 0.5 -0.2
v 0.3 0.5 -0.3
v 0.3 0.6 0.2
v 0.3 0.6 0.1
v 0.3 0.6 -0.1
v 0.3 0.6 -0.2
v 0.3 0.7 0.3
v 0.3 0.7 -0.4
v 0.4 0.1 0.3
v 0.4 0.1 -0.4
v 0.4 0.7 0.3
v 0.4 0.7 -0.4
v 0.3 0.1 0.3
v 0.3 0.7 0.3
v 0.4 0.1 0.3
v 0.4 0.7 0.3
v 0.2 0.5 0.2
v 0.2 0.6 0.2
v 0.3 0.5 0.2
v 0.3 0.6 0.2
v 0.2 0.4 0.1
v 0.2 0.5 0.1
v 0.3 0.4 0.1
v 0.3 0.5 0.1
v 0.2 0.3 -0.1
v 0.2 0.4 -0.1
v 0.2 0.5 -0.1
v 0.2 0.6 -0.1
v 0.3 0.3 -0.1
v 0.3 0.4 -0.1
v 0.3 0.5 -0.1
v 0.3 0.6 -0.1
v 0.2 0.5 0.1
v 0.2 0.6 0.1
v 0.3 0.5 0.1
v 0.3 0.6 0.1
v 0.2 0.4 0
v 0.2 0.5 0
v 0.3 0.4 0
v 0.3 0.5 0
v 0.2 0.5 -0.2
v 0.2 0.6 -0.2
v 0.3 0.5 -0.2
v 0.3 0.6 -0.2
v 0.2 0.3 -0.3
v 0.2 0.4 -0.3
v 0.2 0.5 -0.3
v 0.3 0.3 -0.3
v 0.3 0.4 -0.3
v 0.3 0.5 -0.3
v 0.3 0.1 -0.4
v 0.3 0.7 -0.4
v 0.4 0.1 -0.4
v 0.4 0.7 -0.4
v 0.3 0.1 0.3
v 0.4 0.1 0.3
v 0.3 0.1 -0.4
v 0.4 0.1 -0.4
v 0.2 0.3 -0.1
v 0.3 0.3 -0.1
v 0.2 0.3 -0.2
v 0.3 0.3 -0.2
v 0.2 0.3 -0.3
v 0.3 0.3 -0.3
v 0.2 0.4 0.1
v 0.3 0.4 0.1
v 0.2 0.4 0
v 0.3 0.4 0
v 0.2 0.5 0.2
v 0.3 0.5 0.2
v 0.2 0.5 0.1
v 0.3 0.5 0.1
v 0.2 0.5 0.1
v 0.3 0.5 0.1
v 0.2 0.5 0
v 0.3 0.5 0
v 0.2 0.5 -0.2
v 0.3 0.5 -0.2
v 0.2 0.5 -0.3
v 0.3 0.5 -0.3
v 0.2 0.6 0.2
v 0.3 0.6 0.2
v 0.2 0.6 0.1
v 0.3 0.6 0.1
v 0.2 0.6 -0.1
v 0.3 0.6 -0.1
v 0.2 0.6 -0.2
v 0.3 0.6 -0.2
v 0.3 0.7 0.3
v 0.4 0.7 0.3
v 0.3 0.7 -0.4
v 0.4 0.7 -0.4

# faces
f 6/4/1 2/4/1 1/4/1
f 7/1/1 3/1/1 2/1/1
f 7/4/1 2/4/1 6/4/1
f 8/1/1 3/1/1 7/1/1
f 10/2/1 5/2/1 4/2/1
f 11/2/1 5/2/1 10/2/1
f 12/1/1 7/1/1 6/1/1
f 13/4/1 8/4/1 7/4/1
f 13/1/1 7/1/1 12/1/1
f 14/4/1 8/4/1 13/4/1
f 15/5/1 10/5/1 9/5/1
f 16/5/1 10/5/1 15/5/1
f 17/4/1 13/4/1 12/4/1
f 18/4/1 13/4/1 17/4/1
f 21/3/1 20/3/1 19/3/1
f 22/3/1 20/3/1 21/3/1
f 23/3/1 20/3/1 22/3/1
f 24/3/1 21/3/1 19/3/1
f 25/3/1 21/3/1 24/3/1
f 26/3/1 21/3/1 25/3/1
f 27/3/1 20/3/1 23/3/1
f 28/3/1 24/3/1 19/3/1
f 29/3/1 24/3/1 28/3/1
f 30/3/1 26/3/1 25/3/1
f 31/3/1 26/3/1 30/3/1
f 33/3/1 20/3/1 27/3/1
f 34/3/1 28/3/1 19/3/1
f 35/3/1 31/3/1 30/3/1
f 35/3/1 30/3/1 29/3/1
f 36/3/1 31/3/1 35/3/1
f 37/3/1 33/3/1 32/3/1
f 38/3/1 36/3/1 35/3/1
f 38/3/1 37/3/1 36/3/1
f 38/3/1 34/3/1 19/3/1
f 38/3/1 35/3/1 34/3/1
f 39/3/1 33/3/1 37/3/1
f 39/3/1 37/3/1 38/3/1
f 39/3/1 20/3/1 33/3/1
f 40/3/2 41/3/2 42/3/2
f 42/3/2 41/3/2 43/3/2
f 46/3/3 45/3/3 44/3/3
f 47/3/3 45/3/3 46/3/3
f 50/5/3 49/5/3 48/5/3
f 51/5/3 49/5/3 50/5/3
f 54/2/3 53/2/3 52/2/3
f 55/2/3 53/2/3 54/2/3
f 60/4/3 57/4/3 56/4/3
f 61/1/3 58/1/3 57/1/3
f 61/4/3 57/4/3 60/4/3
f 62/4/3 59/4/3 58/4/3
f 62/1/3 58/1/3 61/1/3
f 63/4/3 59/4/3 62/4/3
f 64/5/4 65/5/4 66/5/4
f 66/5/4 65/5/4 67/5/4
f 68/2/4 69/2/4 70/2/4
f 70/2/4 69/2/4 71/2/4
f 72/4/4 73/4/4 74/4/4
f 74/4/4 73/4/4 75/4/4
f 76/1/4 77/1/4 79/1/4
f 77/4/4 78/4/4 80/4/4
f 79/1/4 77/1/4 80/1/4
f 80/4/4 78/4/4 81/4/4
f 82/3/4 83/3/4 84/3/4
f 84/3/4 83/3/4 85/3/4
f 88/3/5 87/3/5 86/3/5
f 89/3/5 87/3/5 88/3/5
f 92/4/5 91/4/5 90/4/5
f 93/4/5 91/4/5 92/4/5
f 94/1/5 93/1/5 92/1/5
f 95/1/5 93/1/5 94/1/5
f 98/2/5 97/2/5 96/2/5
f 99/2/5 97/2/5 98/2/5
f 102/5/5 101/5/5 100/5/5
f 103/5/5 101/5/5 102/5/5
f 104/2/6 105/2/6 106/2/6
f 106/2/6 105/2/6 107/2/6
f 108/4/6 109/4/6 110/4/6
f 110/4/6 109/4/6 111/4/6
f 112/5/6 113/5/6 114/5/6
f 114/5/6 113/5/6 115/5/6
f 116/4/6 117/4/6 118/4/6
f 118/4/6 117/4/6 119/4/6
f 120/3/6 121/3/6 122/3/6
f 122/3/6 121/3/6 123/3/6
