# Blender 3.4.1
# www.blender.org
mtllib GriffinFeather.mtl
o Untitled
v -0.100000 0.200000 0.250000
v -0.100000 0.200000 0.150000
v -0.100000 0.200000 0.050000
v -0.100000 0.200000 -0.050000
v -0.100000 0.200000 -0.150000
v -0.100000 0.200000 -0.250000
v -0.100000 0.300000 0.250000
v -0.100000 0.300000 0.150000
v -0.100000 0.300000 0.050000
v -0.100000 0.300000 -0.050000
v -0.100000 0.300000 -0.150000
v -0.100000 0.300000 -0.250000
v -0.100000 0.400000 0.150000
v -0.100000 0.400000 0.050000
v -0.100000 0.400000 -0.050000
v -0.100000 0.400000 -0.150000
v -0.100000 0.400000 -0.250000
v -0.100000 0.500000 0.250000
v -0.100000 0.500000 0.150000
v -0.100000 0.500000 -0.050000
v -0.100000 0.500000 -0.150000
v 0.000000 0.000000 0.350000
v 0.000000 0.000000 -0.350000
v 0.000000 0.200000 0.250000
v 0.000000 0.200000 0.150000
v 0.000000 0.200000 0.050000
v 0.000000 0.200000 -0.050000
v 0.000000 0.200000 -0.150000
v 0.000000 0.200000 -0.250000
v 0.000000 0.300000 0.250000
v 0.000000 0.300000 0.050000
v 0.000000 0.300000 -0.050000
v 0.000000 0.300000 -0.250000
v 0.000000 0.400000 0.150000
v 0.000000 0.400000 0.050000
v 0.000000 0.400000 -0.050000
v 0.000000 0.400000 -0.150000
v 0.000000 0.400000 -0.250000
v 0.000000 0.500000 0.250000
v 0.000000 0.500000 0.150000
v 0.000000 0.500000 -0.050000
v 0.000000 0.500000 -0.150000
v 0.000000 0.600000 0.350000
v 0.000000 0.600000 -0.350000
v 0.100000 0.000000 0.350000
v 0.100000 0.000000 -0.350000
v 0.100000 0.600000 0.350000
v 0.100000 0.600000 -0.350000
v 0.000000 0.000000 0.350000
v 0.000000 0.600000 0.350000
v 0.100000 0.000000 0.350000
v 0.100000 0.600000 0.350000
v -0.100000 0.200000 0.250000
v -0.100000 0.300000 0.250000
v -0.100000 0.500000 0.250000
v 0.000000 0.200000 0.250000
v 0.000000 0.300000 0.250000
v 0.000000 0.500000 0.250000
v -0.100000 0.200000 -0.050000
v -0.100000 0.300000 -0.050000
v -0.100000 0.400000 -0.050000
v -0.100000 0.500000 -0.050000
v 0.000000 0.200000 -0.050000
v 0.000000 0.300000 -0.050000
v 0.000000 0.400000 -0.050000
v 0.000000 0.500000 -0.050000
v -0.100000 0.400000 0.150000
v -0.100000 0.500000 0.150000
v 0.000000 0.400000 0.150000
v 0.000000 0.500000 0.150000
v -0.100000 0.200000 0.050000
v -0.100000 0.300000 0.050000
v -0.100000 0.400000 0.050000
v 0.000000 0.200000 0.050000
v 0.000000 0.300000 0.050000
v 0.000000 0.400000 0.050000
v -0.100000 0.400000 -0.150000
v -0.100000 0.500000 -0.150000
v 0.000000 0.400000 -0.150000
v 0.000000 0.500000 -0.150000
v -0.100000 0.200000 -0.250000
v -0.100000 0.300000 -0.250000
v -0.100000 0.400000 -0.250000
v 0.000000 0.200000 -0.250000
v 0.000000 0.300000 -0.250000
v 0.000000 0.400000 -0.250000
v 0.000000 0.000000 -0.350000
v 0.000000 0.600000 -0.350000
v 0.100000 0.000000 -0.350000
v 0.100000 0.600000 -0.350000
v 0.000000 0.000000 0.350000
v 0.100000 0.000000 0.350000
v 0.000000 0.000000 -0.350000
v 0.100000 0.000000 -0.350000
v -0.100000 0.200000 0.250000
v 0.000000 0.200000 0.250000
v -0.100000 0.200000 0.150000
v 0.000000 0.200000 0.150000
v -0.100000 0.200000 0.050000
v 0.000000 0.200000 0.050000
v -0.100000 0.200000 -0.050000
v 0.000000 0.200000 -0.050000
v -0.100000 0.200000 -0.150000
v 0.000000 0.200000 -0.150000
v -0.100000 0.200000 -0.250000
v 0.000000 0.200000 -0.250000
v -0.100000 0.400000 0.150000
v 0.000000 0.400000 0.150000
v -0.100000 0.400000 0.050000
v 0.000000 0.400000 0.050000
v -0.100000 0.400000 -0.150000
v 0.000000 0.400000 -0.150000
v -0.100000 0.400000 -0.250000
v 0.000000 0.400000 -0.250000
v -0.100000 0.500000 0.250000
v 0.000000 0.500000 0.250000
v -0.100000 0.500000 0.150000
v 0.000000 0.500000 0.150000
v -0.100000 0.500000 -0.050000
v 0.000000 0.500000 -0.050000
v -0.100000 0.500000 -0.150000
v 0.000000 0.500000 -0.150000
v 0.000000 0.600000 0.350000
v 0.100000 0.600000 0.350000
v 0.000000 0.600000 -0.350000
v 0.100000 0.600000 -0.350000
vn -1.0000 -0.0000 -0.0000
vn 1.0000 -0.0000 -0.0000
vn -0.0000 -0.0000 1.0000
vn -0.0000 -0.0000 -1.0000
vn -0.0000 -1.0000 -0.0000
vn -0.0000 1.0000 -0.0000
vt 0.935547 0.500000
vt 0.966797 0.500000
vt 0.935547 0.500000
vt 0.966797 0.500000
vt 0.962891 0.500000
vt 0.916016 0.500000
vt 0.962891 0.500000
vt 0.916016 0.500000
vt 0.935547 0.500000
vt 0.966797 0.500000
vt 0.935547 0.500000
vt 0.966797 0.500000
vt 0.966797 0.500000
vt 0.935547 0.500000
vt 0.962891 0.500000
vt 0.916016 0.500000
vt 0.962891 0.500000
vt 0.916016 0.500000
vt 0.916016 0.500000
vt 0.962891 0.500000
vt 0.935547 0.500000
vt 0.966797 0.500000
vt 0.935547 0.500000
vt 0.916016 0.500000
vt 0.962891 0.500000
vt 0.916016 0.500000
vt 0.962891 0.500000
vt 0.962891 0.500000
vt 0.966797 0.500000
vt 0.966797 0.500000
vt 0.962891 0.500000
vt 0.962891 0.500000
vt 0.955078 0.500000
vt 0.955078 0.500000
vt 0.955078 0.500000
vt 0.955078 0.500000
vt 0.955078 0.500000
vt 0.955078 0.500000
vt 0.955078 0.500000
vt 0.955078 0.500000
vt 0.955078 0.500000
vt 0.955078 0.500000
vt 0.955078 0.500000
vt 0.955078 0.500000
vt 0.955078 0.500000
vt 0.955078 0.500000
vt 0.955078 0.500000
vt 0.955078 0.500000
vt 0.955078 0.500000
vt 0.955078 0.500000
vt 0.955078 0.500000
vt 0.955078 0.500000
vt 0.955078 0.500000
vt 0.955078 0.500000
vt 0.955078 0.500000
vt 0.955078 0.500000
vt 0.955078 0.500000
vt 0.955078 0.500000
vt 0.955078 0.500000
vt 0.955078 0.500000
vt 0.955078 0.500000
vt 0.955078 0.500000
vt 0.955078 0.500000
vt 0.935547 0.500000
vt 0.966797 0.500000
vt 0.935547 0.500000
vt 0.966797 0.500000
vt 0.935547 0.500000
vt 0.935547 0.500000
vt 0.966797 0.500000
vt 0.966797 0.500000
vt 0.962891 0.500000
vt 0.916016 0.500000
vt 0.962891 0.500000
vt 0.962891 0.500000
vt 0.916016 0.500000
vt 0.962891 0.500000
vt 0.962891 0.500000
vt 0.962891 0.500000
vt 0.916016 0.500000
vt 0.916016 0.500000
vt 0.962891 0.500000
vt 0.962891 0.500000
vt 0.966797 0.500000
vt 0.966797 0.500000
vt 0.966797 0.500000
vt 0.966797 0.500000
vt 0.966797 0.500000
vt 0.935547 0.500000
vt 0.966797 0.500000
vt 0.935547 0.500000
vt 0.966797 0.500000
vt 0.966797 0.500000
vt 0.935547 0.500000
vt 0.935547 0.500000
vt 0.962891 0.500000
vt 0.962891 0.500000
vt 0.962891 0.500000
vt 0.962891 0.500000
vt 0.916016 0.500000
vt 0.962891 0.500000
vt 0.916016 0.500000
vt 0.962891 0.500000
vt 0.916016 0.500000
vt 0.916016 0.500000
vt 0.962891 0.500000
vt 0.962891 0.500000
vt 0.955078 0.500000
vt 0.955078 0.500000
vt 0.955078 0.500000
vt 0.955078 0.500000
vt 0.955078 0.500000
vt 0.955078 0.500000
vt 0.955078 0.500000
vt 0.955078 0.500000
vt 0.935547 0.500000
vt 0.935547 0.500000
vt 0.935547 0.500000
vt 0.966797 0.500000
vt 0.935547 0.500000
vt 0.966797 0.500000
vt 0.966797 0.500000
vt 0.966797 0.500000
vt 0.962891 0.500000
vt 0.962891 0.500000
vt 0.962891 0.500000
vt 0.916016 0.500000
vt 0.962891 0.500000
vt 0.916016 0.500000
vt 0.916016 0.500000
vt 0.916016 0.500000
vt 0.935547 0.500000
vt 0.935547 0.500000
vt 0.935547 0.500000
vt 0.935547 0.500000
vt 0.962891 0.500000
vt 0.962891 0.500000
vt 0.962891 0.500000
vt 0.962891 0.500000
vt 0.966797 0.500000
vt 0.966797 0.500000
vt 0.966797 0.500000
vt 0.966797 0.500000
vt 0.962891 0.500000
vt 0.962891 0.500000
vt 0.962891 0.500000
vt 0.962891 0.500000
vt 0.955078 0.500000
vt 0.955078 0.500000
vt 0.955078 0.500000
vt 0.955078 0.500000
s 0
usemtl palette.005
f 7/9/1 2/3/1 1/1/1
f 8/12/1 3/4/1 2/2/1
f 8/11/1 2/3/1 7/9/1
f 9/13/1 3/4/1 8/12/1
f 10/15/1 5/7/1 4/5/1
f 11/18/1 6/8/1 5/6/1
f 11/17/1 5/7/1 10/15/1
f 12/19/1 6/8/1 11/18/1
f 13/21/1 9/14/1 8/11/1
f 13/22/1 8/12/1 7/10/1
f 14/23/1 9/14/1 13/21/1
f 15/24/1 11/18/1 10/16/1
f 16/27/1 12/20/1 11/17/1
f 16/26/1 11/18/1 15/24/1
f 17/28/1 12/20/1 16/27/1
f 18/29/1 13/22/1 7/10/1
f 19/30/1 13/22/1 18/29/1
f 20/31/1 16/27/1 15/25/1
f 21/32/1 16/27/1 20/31/1
f 24/35/1 23/34/1 22/33/1
f 25/36/1 23/34/1 24/35/1
f 26/37/1 23/34/1 25/36/1
f 27/38/1 23/34/1 26/37/1
f 28/39/1 23/34/1 27/38/1
f 29/40/1 23/34/1 28/39/1
f 30/41/1 24/35/1 22/33/1
f 31/42/1 27/38/1 26/37/1
f 32/43/1 27/38/1 31/42/1
f 33/44/1 23/34/1 29/40/1
f 35/46/1 32/43/1 31/42/1
f 36/47/1 32/43/1 35/46/1
f 38/49/1 23/34/1 33/44/1
f 39/50/1 30/41/1 22/33/1
f 40/51/1 36/47/1 35/46/1
f 40/51/1 35/46/1 34/45/1
f 41/52/1 36/47/1 40/51/1
f 42/53/1 38/49/1 37/48/1
f 43/54/1 39/50/1 22/33/1
f 43/54/1 42/53/1 41/52/1
f 43/54/1 41/52/1 40/51/1
f 43/54/1 40/51/1 39/50/1
f 44/55/1 38/49/1 42/53/1
f 44/55/1 42/53/1 43/54/1
f 44/55/1 23/34/1 38/49/1
f 45/56/2 46/57/2 47/58/2
f 47/58/2 46/57/2 48/59/2
f 51/62/3 50/61/3 49/60/3
f 52/63/3 50/61/3 51/62/3
f 56/68/3 54/66/3 53/64/3
f 57/70/3 55/67/3 54/65/3
f 57/69/3 54/66/3 56/68/3
f 58/71/3 55/67/3 57/70/3
f 63/78/3 60/74/3 59/72/3
f 64/80/3 61/76/3 60/73/3
f 64/79/3 60/74/3 63/78/3
f 65/82/3 62/77/3 61/75/3
f 65/81/3 61/76/3 64/80/3
f 66/83/3 62/77/3 65/82/3
f 67/84/4 68/85/4 69/86/4
f 69/86/4 68/85/4 70/87/4
f 71/88/4 72/90/4 74/92/4
f 72/89/4 73/91/4 75/94/4
f 74/92/4 72/90/4 75/93/4
f 75/94/4 73/91/4 76/95/4
f 77/96/4 78/97/4 79/98/4
f 79/98/4 78/97/4 80/99/4
f 81/100/4 82/102/4 84/104/4
f 82/101/4 83/103/4 85/106/4
f 84/104/4 82/102/4 85/105/4
f 85/106/4 83/103/4 86/107/4
f 87/108/4 88/109/4 89/110/4
f 89/110/4 88/109/4 90/111/4
f 93/114/5 92/113/5 91/112/5
f 94/115/5 92/113/5 93/114/5
f 97/118/5 96/117/5 95/116/5
f 98/120/5 96/117/5 97/118/5
f 99/122/5 98/121/5 97/119/5
f 100/123/5 98/121/5 99/122/5
f 103/126/5 102/125/5 101/124/5
f 104/128/5 102/125/5 103/126/5
f 105/130/5 104/129/5 103/127/5
f 106/131/5 104/129/5 105/130/5
f 107/132/6 108/133/6 109/134/6
f 109/134/6 108/133/6 110/135/6
f 111/136/6 112/137/6 113/138/6
f 113/138/6 112/137/6 114/139/6
f 115/140/6 116/141/6 117/142/6
f 117/142/6 116/141/6 118/143/6
f 119/144/6 120/145/6 121/146/6
f 121/146/6 120/145/6 122/147/6
f 123/148/6 124/149/6 125/150/6
f 125/150/6 124/149/6 126/151/6
