# MagicaVoxel @ Ephtracy

# group
o 

# material
mtllib HippogriffTalonHalf.mtl
usemtl palette

# normals
vn -1 0 0
vn 1 0 0
vn 0 0 1
vn 0 0 -1
vn 0 -1 0
vn 0 1 0

# texcoords
vt 0.962891 0.5
vt 0.970703 0.5
vt 0.994141 0.5

# verts
v -0.4 0 -0.3
v -0.4 0 -0.4
v -0.4 0.8 -0.3
v -0.4 0.8 -0.4
v -0.3 0.5 -0.2
v -0.3 0.5 -0.3
v -0.3 0.7 -0.2
v -0.3 0.7 -0.3
v -0.2 0.1 -0.2
v -0.2 0.1 -0.3
v -0.2 0.3 -0.2
v -0.2 0.3 -0.3
v 0 0.2 -0.2
v 0 0.2 -0.3
v 0 0.3 -0.2
v 0 0.3 -0.3
v 0.1 0.5 -0.2
v 0.1 0.5 -0.3
v 0.1 0.7 -0.2
v 0.1 0.7 -0.3
v 0.2 0.1 -0.2
v 0.2 0.1 -0.3
v 0.2 0.3 -0.2
v 0.2 0.3 -0.3
v -0.2 0.5 -0.2
v -0.2 0.5 -0.3
v -0.2 0.7 -0.2
v -0.2 0.7 -0.3
v -0.1 0.1 -0.2
v -0.1 0.1 -0.3
v -0.1 0.3 -0.2
v -0.1 0.3 -0.3
v 0.1 0.2 -0.2
v 0.1 0.2 -0.3
v 0.1 0.3 -0.2
v 0.1 0.3 -0.3
v 0.2 0.5 -0.2
v 0.2 0.5 -0.3
v 0.2 0.7 -0.2
v 0.2 0.7 -0.3
v 0.3 0.1 -0.2
v 0.3 0.1 -0.3
v 0.3 0.3 -0.2
v 0.3 0.3 -0.3
v 0.4 0 -0.3
v 0.4 0 -0.4
v 0.4 0.8 -0.3
v 0.4 0.8 -0.4
v -0.3 0.5 -0.2
v -0.3 0.7 -0.2
v -0.2 0.1 -0.2
v -0.2 0.3 -0.2
v -0.2 0.5 -0.2
v -0.2 0.7 -0.2
v -0.1 0.1 -0.2
v -0.1 0.3 -0.2
v 0 0.2 -0.2
v 0 0.3 -0.2
v 0.1 0.2 -0.2
v 0.1 0.3 -0.2
v 0.1 0.5 -0.2
v 0.1 0.7 -0.2
v 0.2 0.1 -0.2
v 0.2 0.3 -0.2
v 0.2 0.5 -0.2
v 0.2 0.7 -0.2
v 0.3 0.1 -0.2
v 0.3 0.3 -0.2
v -0.4 0 -0.3
v -0.4 0.8 -0.3
v -0.3 0.5 -0.3
v -0.3 0.7 -0.3
v -0.3 0.8 -0.3
v -0.2 0.1 -0.3
v -0.2 0.3 -0.3
v -0.2 0.4 -0.3
v -0.2 0.5 -0.3
v -0.2 0.7 -0.3
v -0.2 0.8 -0.3
v -0.1 0.1 -0.3
v -0.1 0.3 -0.3
v -0.1 0.4 -0.3
v 0 0.2 -0.3
v 0 0.3 -0.3
v 0 0.4 -0.3
v 0.1 0.2 -0.3
v 0.1 0.3 -0.3
v 0.1 0.4 -0.3
v 0.1 0.5 -0.3
v 0.1 0.7 -0.3
v 0.1 0.8 -0.3
v 0.2 0.1 -0.3
v 0.2 0.3 -0.3
v 0.2 0.4 -0.3
v 0.2 0.5 -0.3
v 0.2 0.7 -0.3
v 0.2 0.8 -0.3
v 0.3 0.1 -0.3
v 0.3 0.3 -0.3
v 0.3 0.4 -0.3
v 0.4 0 -0.3
v 0.4 0.8 -0.3
v -0.4 0 -0.4
v -0.4 0.8 -0.4
v -0.3 0.7 -0.4
v -0.3 0.8 -0.4
v -0.2 0.3 -0.4
v -0.2 0.4 -0.4
v -0.2 0.7 -0.4
v -0.2 0.8 -0.4
v -0.1 0.3 -0.4
v -0.1 0.4 -0.4
v 0 0.3 -0.4
v 0 0.4 -0.4
v 0.1 0.3 -0.4
v 0.1 0.4 -0.4
v 0.1 0.7 -0.4
v 0.1 0.8 -0.4
v 0.2 0.3 -0.4
v 0.2 0.4 -0.4
v 0.2 0.7 -0.4
v 0.2 0.8 -0.4
v 0.3 0.3 -0.4
v 0.3 0.4 -0.4
v 0.4 0 -0.4
v 0.4 0.8 -0.4
v -0.4 0 -0.3
v 0.4 0 -0.3
v -0.4 0 -0.4
v 0.4 0 -0.4
v -0.2 0.1 -0.2
v -0.1 0.1 -0.2
v 0.2 0.1 -0.2
v 0.3 0.1 -0.2
v -0.2 0.1 -0.3
v -0.1 0.1 -0.3
v 0.2 0.1 -0.3
v 0.3 0.1 -0.3
v 0 0.2 -0.2
v 0.1 0.2 -0.2
v 0 0.2 -0.3
v 0.1 0.2 -0.3
v -0.3 0.5 -0.2
v -0.2 0.5 -0.2
v 0.1 0.5 -0.2
v 0.2 0.5 -0.2
v -0.3 0.5 -0.3
v -0.2 0.5 -0.3
v 0.1 0.5 -0.3
v 0.2 0.5 -0.3
v -0.2 0.3 -0.2
v -0.1 0.3 -0.2
v 0 0.3 -0.2
v 0.1 0.3 -0.2
v 0.2 0.3 -0.2
v 0.3 0.3 -0.2
v -0.2 0.3 -0.3
v -0.1 0.3 -0.3
v 0 0.3 -0.3
v 0.1 0.3 -0.3
v 0.2 0.3 -0.3
v 0.3 0.3 -0.3
v -0.3 0.7 -0.2
v -0.2 0.7 -0.2
v 0.1 0.7 -0.2
v 0.2 0.7 -0.2
v -0.3 0.7 -0.3
v -0.2 0.7 -0.3
v 0.1 0.7 -0.3
v 0.2 0.7 -0.3
v -0.4 0.8 -0.3
v -0.3 0.8 -0.3
v -0.2 0.8 -0.3
v 0.1 0.8 -0.3
v 0.2 0.8 -0.3
v 0.4 0.8 -0.3
v -0.4 0.8 -0.4
v -0.3 0.8 -0.4
v -0.2 0.8 -0.4
v 0.1 0.8 -0.4
v 0.2 0.8 -0.4
v 0.4 0.8 -0.4

# faces
f 3/2/1 2/2/1 1/2/1
f 4/2/1 2/2/1 3/2/1
f 7/1/1 6/1/1 5/1/1
f 8/1/1 6/1/1 7/1/1
f 11/1/1 10/1/1 9/1/1
f 12/1/1 10/1/1 11/1/1
f 15/1/1 14/1/1 13/1/1
f 16/1/1 14/1/1 15/1/1
f 19/1/1 18/1/1 17/1/1
f 20/1/1 18/1/1 19/1/1
f 23/1/1 22/1/1 21/1/1
f 24/1/1 22/1/1 23/1/1
f 25/1/2 26/1/2 27/1/2
f 27/1/2 26/1/2 28/1/2
f 29/1/2 30/1/2 31/1/2
f 31/1/2 30/1/2 32/1/2
f 33/1/2 34/1/2 35/1/2
f 35/1/2 34/1/2 36/1/2
f 37/1/2 38/1/2 39/1/2
f 39/1/2 38/1/2 40/1/2
f 41/1/2 42/1/2 43/1/2
f 43/1/2 42/1/2 44/1/2
f 45/2/2 46/2/2 47/2/2
f 47/2/2 46/2/2 48/2/2
f 53/1/3 50/1/3 49/1/3
f 54/1/3 50/1/3 53/1/3
f 55/1/3 52/1/3 51/1/3
f 56/1/3 52/1/3 55/1/3
f 59/1/3 58/1/3 57/1/3
f 60/1/3 58/1/3 59/1/3
f 65/1/3 62/1/3 61/1/3
f 66/1/3 62/1/3 65/1/3
f 67/1/3 64/1/3 63/1/3
f 68/1/3 64/1/3 67/1/3
f 71/2/3 70/2/3 69/2/3
f 72/2/3 70/2/3 71/2/3
f 73/2/3 70/2/3 72/2/3
f 74/2/3 71/2/3 69/2/3
f 75/2/3 71/2/3 74/2/3
f 76/2/3 71/2/3 75/2/3
f 77/2/3 71/2/3 76/2/3
f 78/3/3 73/3/3 72/3/3
f 79/3/3 73/3/3 78/3/3
f 80/2/3 74/2/3 69/2/3
f 81/3/3 76/3/3 75/3/3
f 82/2/3 77/2/3 76/2/3
f 82/2/3 79/2/3 78/2/3
f 82/3/3 76/3/3 81/3/3
f 82/2/3 78/2/3 77/2/3
f 83/2/3 81/2/3 80/2/3
f 83/2/3 82/2/3 81/2/3
f 84/2/3 82/2/3 83/2/3
f 85/2/3 79/2/3 82/2/3
f 85/2/3 82/2/3 84/2/3
f 86/2/3 83/2/3 80/2/3
f 87/3/3 85/3/3 84/3/3
f 88/2/3 79/2/3 85/2/3
f 88/3/3 85/3/3 87/3/3
f 89/2/3 79/2/3 88/2/3
f 90/2/3 79/2/3 89/2/3
f 91/2/3 79/2/3 90/2/3
f 92/2/3 87/2/3 86/2/3
f 92/2/3 80/2/3 69/2/3
f 92/2/3 86/2/3 80/2/3
f 92/2/3 89/2/3 88/2/3
f 92/2/3 88/2/3 87/2/3
f 93/2/3 89/2/3 92/2/3
f 94/2/3 89/2/3 93/2/3
f 95/2/3 89/2/3 94/2/3
f 96/3/3 91/3/3 90/3/3
f 97/3/3 91/3/3 96/3/3
f 98/2/3 92/2/3 69/2/3
f 99/3/3 94/3/3 93/3/3
f 100/2/3 95/2/3 94/2/3
f 100/2/3 97/2/3 96/2/3
f 100/3/3 94/3/3 99/3/3
f 100/2/3 96/2/3 95/2/3
f 101/2/3 99/2/3 98/2/3
f 101/2/3 98/2/3 69/2/3
f 101/2/3 100/2/3 99/2/3
f 102/2/3 97/2/3 100/2/3
f 102/2/3 100/2/3 101/2/3
f 103/2/4 104/2/4 105/2/4
f 105/2/4 104/2/4 106/2/4
f 103/2/4 105/2/4 107/2/4
f 107/2/4 105/2/4 108/2/4
f 105/3/4 106/3/4 109/3/4
f 108/2/4 105/2/4 109/2/4
f 109/3/4 106/3/4 110/3/4
f 107/3/4 108/3/4 111/3/4
f 103/2/4 107/2/4 111/2/4
f 109/2/4 110/2/4 112/2/4
f 111/3/4 108/3/4 112/3/4
f 108/2/4 109/2/4 112/2/4
f 103/2/4 111/2/4 113/2/4
f 111/2/4 112/2/4 113/2/4
f 112/2/4 110/2/4 114/2/4
f 113/2/4 112/2/4 114/2/4
f 103/2/4 113/2/4 115/2/4
f 113/3/4 114/3/4 115/3/4
f 114/2/4 110/2/4 116/2/4
f 115/3/4 114/3/4 116/3/4
f 116/2/4 110/2/4 117/2/4
f 117/2/4 110/2/4 118/2/4
f 103/2/4 115/2/4 119/2/4
f 115/2/4 116/2/4 119/2/4
f 116/2/4 117/2/4 119/2/4
f 119/2/4 117/2/4 120/2/4
f 117/3/4 118/3/4 121/3/4
f 120/2/4 117/2/4 121/2/4
f 121/3/4 118/3/4 122/3/4
f 119/3/4 120/3/4 123/3/4
f 103/2/4 119/2/4 123/2/4
f 121/2/4 122/2/4 124/2/4
f 123/3/4 120/3/4 124/3/4
f 120/2/4 121/2/4 124/2/4
f 103/2/4 123/2/4 125/2/4
f 123/2/4 124/2/4 125/2/4
f 124/2/4 122/2/4 126/2/4
f 125/2/4 124/2/4 126/2/4
f 129/2/5 128/2/5 127/2/5
f 130/2/5 128/2/5 129/2/5
f 135/1/5 132/1/5 131/1/5
f 136/1/5 132/1/5 135/1/5
f 137/1/5 134/1/5 133/1/5
f 138/1/5 134/1/5 137/1/5
f 141/1/5 140/1/5 139/1/5
f 142/1/5 140/1/5 141/1/5
f 147/1/5 144/1/5 143/1/5
f 148/1/5 144/1/5 147/1/5
f 149/1/5 146/1/5 145/1/5
f 150/1/5 146/1/5 149/1/5
f 151/1/6 152/1/6 157/1/6
f 157/1/6 152/1/6 158/1/6
f 153/1/6 154/1/6 159/1/6
f 159/1/6 154/1/6 160/1/6
f 155/1/6 156/1/6 161/1/6
f 161/1/6 156/1/6 162/1/6
f 163/1/6 164/1/6 167/1/6
f 167/1/6 164/1/6 168/1/6
f 165/1/6 166/1/6 169/1/6
f 169/1/6 166/1/6 170/1/6
f 171/2/6 172/2/6 177/2/6
f 172/3/6 173/3/6 178/3/6
f 177/2/6 172/2/6 178/2/6
f 173/2/6 174/2/6 179/2/6
f 178/3/6 173/3/6 179/3/6
f 174/3/6 175/3/6 180/3/6
f 179/2/6 174/2/6 180/2/6
f 175/2/6 176/2/6 181/2/6
f 180/3/6 175/3/6 181/3/6
f 181/2/6 176/2/6 182/2/6
