# MagicaVoxel @ Ephtracy

# group
o 

# material
mtllib HippogriffTalon.mtl
usemtl palette

# normals
vn -1 0 0
vn 1 0 0
vn 0 0 1
vn 0 0 -1
vn 0 -1 0
vn 0 1 0

# texcoords
vt 0.962891 0.5
vt 0.970703 0.5
vt 0.994141 0.5

# verts
v -0.4 0 -0.3
v -0.4 0 -0.4
v -0.4 0.1 -0.2
v -0.4 0.1 -0.3
v -0.4 0.3 -0.2
v -0.4 0.3 -0.3
v -0.4 0.3 -0.4
v -0.4 0.4 -0.3
v -0.4 0.4 -0.4
v -0.4 0.8 -0.3
v -0.4 0.8 -0.4
v -0.3 0.5 -0.2
v -0.3 0.5 -0.3
v -0.3 0.7 -0.2
v -0.3 0.7 -0.3
v -0.2 0.1 -0.2
v -0.2 0.1 -0.3
v -0.2 0.3 -0.2
v -0.2 0.3 -0.3
v -0.1 0.5 -0.2
v -0.1 0.5 -0.3
v -0.1 0.7 -0.2
v -0.1 0.7 -0.3
v 0 0.1 -0.2
v 0 0.1 -0.3
v 0 0.3 -0.2
v 0 0.3 -0.3
v 0.1 0.5 -0.2
v 0.1 0.5 -0.3
v 0.1 0.7 -0.2
v 0.1 0.7 -0.3
v 0.2 0.1 -0.2
v 0.2 0.1 -0.3
v 0.2 0.3 -0.2
v 0.2 0.3 -0.3
v 0.3 0.5 -0.2
v 0.3 0.5 -0.3
v 0.3 0.7 -0.2
v 0.3 0.7 -0.3
v -0.3 0.1 -0.2
v -0.3 0.1 -0.3
v -0.3 0.3 -0.2
v -0.3 0.3 -0.3
v -0.2 0.5 -0.2
v -0.2 0.5 -0.3
v -0.2 0.7 -0.2
v -0.2 0.7 -0.3
v -0.1 0.1 -0.2
v -0.1 0.1 -0.3
v -0.1 0.3 -0.2
v -0.1 0.3 -0.3
v 0 0.5 -0.2
v 0 0.5 -0.3
v 0 0.7 -0.2
v 0 0.7 -0.3
v 0.1 0.1 -0.2
v 0.1 0.1 -0.3
v 0.1 0.3 -0.2
v 0.1 0.3 -0.3
v 0.2 0.5 -0.2
v 0.2 0.5 -0.3
v 0.2 0.7 -0.2
v 0.2 0.7 -0.3
v 0.3 0.1 -0.2
v 0.3 0.1 -0.3
v 0.3 0.3 -0.2
v 0.3 0.3 -0.3
v 0.4 0 -0.3
v 0.4 0 -0.4
v 0.4 0.5 -0.2
v 0.4 0.5 -0.3
v 0.4 0.7 -0.2
v 0.4 0.7 -0.3
v 0.4 0.7 -0.4
v 0.4 0.8 -0.3
v 0.4 0.8 -0.4
v -0.4 0.1 -0.2
v -0.4 0.3 -0.2
v -0.3 0.1 -0.2
v -0.3 0.3 -0.2
v -0.3 0.5 -0.2
v -0.3 0.7 -0.2
v -0.2 0.1 -0.2
v -0.2 0.3 -0.2
v -0.2 0.5 -0.2
v -0.2 0.7 -0.2
v -0.1 0.1 -0.2
v -0.1 0.3 -0.2
v -0.1 0.5 -0.2
v -0.1 0.7 -0.2
v 0 0.1 -0.2
v 0 0.3 -0.2
v 0 0.5 -0.2
v 0 0.7 -0.2
v 0.1 0.1 -0.2
v 0.1 0.3 -0.2
v 0.1 0.5 -0.2
v 0.1 0.7 -0.2
v 0.2 0.1 -0.2
v 0.2 0.3 -0.2
v 0.2 0.5 -0.2
v 0.2 0.7 -0.2
v 0.3 0.1 -0.2
v 0.3 0.3 -0.2
v 0.3 0.5 -0.2
v 0.3 0.7 -0.2
v 0.4 0.5 -0.2
v 0.4 0.7 -0.2
v -0.4 0 -0.3
v -0.4 0.1 -0.3
v -0.4 0.3 -0.3
v -0.4 0.4 -0.3
v -0.4 0.8 -0.3
v -0.3 0.1 -0.3
v -0.3 0.3 -0.3
v -0.3 0.4 -0.3
v -0.3 0.5 -0.3
v -0.3 0.7 -0.3
v -0.3 0.8 -0.3
v -0.2 0.1 -0.3
v -0.2 0.3 -0.3
v -0.2 0.4 -0.3
v -0.2 0.5 -0.3
v -0.2 0.7 -0.3
v -0.2 0.8 -0.3
v -0.1 0.1 -0.3
v -0.1 0.3 -0.3
v -0.1 0.4 -0.3
v -0.1 0.5 -0.3
v -0.1 0.7 -0.3
v -0.1 0.8 -0.3
v 0 0.1 -0.3
v 0 0.3 -0.3
v 0 0.4 -0.3
v 0 0.5 -0.3
v 0 0.7 -0.3
v 0 0.8 -0.3
v 0.1 0.1 -0.3
v 0.1 0.3 -0.3
v 0.1 0.4 -0.3
v 0.1 0.5 -0.3
v 0.1 0.7 -0.3
v 0.1 0.8 -0.3
v 0.2 0.1 -0.3
v 0.2 0.3 -0.3
v 0.2 0.4 -0.3
v 0.2 0.5 -0.3
v 0.2 0.7 -0.3
v 0.2 0.8 -0.3
v 0.3 0.1 -0.3
v 0.3 0.3 -0.3
v 0.3 0.4 -0.3
v 0.3 0.5 -0.3
v 0.3 0.7 -0.3
v 0.3 0.8 -0.3
v 0.4 0 -0.3
v 0.4 0.5 -0.3
v 0.4 0.7 -0.3
v 0.4 0.8 -0.3
v -0.4 0 -0.4
v -0.4 0.3 -0.4
v -0.4 0.4 -0.4
v -0.4 0.8 -0.4
v -0.3 0.3 -0.4
v -0.3 0.4 -0.4
v -0.3 0.7 -0.4
v -0.3 0.8 -0.4
v -0.2 0.3 -0.4
v -0.2 0.4 -0.4
v -0.2 0.7 -0.4
v -0.2 0.8 -0.4
v -0.1 0.3 -0.4
v -0.1 0.4 -0.4
v -0.1 0.7 -0.4
v -0.1 0.8 -0.4
v 0 0.3 -0.4
v 0 0.4 -0.4
v 0 0.7 -0.4
v 0 0.8 -0.4
v 0.1 0.3 -0.4
v 0.1 0.4 -0.4
v 0.1 0.7 -0.4
v 0.1 0.8 -0.4
v 0.2 0.3 -0.4
v 0.2 0.4 -0.4
v 0.2 0.7 -0.4
v 0.2 0.8 -0.4
v 0.3 0.3 -0.4
v 0.3 0.4 -0.4
v 0.3 0.7 -0.4
v 0.3 0.8 -0.4
v 0.4 0 -0.4
v 0.4 0.7 -0.4
v 0.4 0.8 -0.4
v -0.4 0 -0.3
v 0.4 0 -0.3
v -0.4 0 -0.4
v 0.4 0 -0.4
v -0.4 0.1 -0.2
v -0.3 0.1 -0.2
v -0.2 0.1 -0.2
v -0.1 0.1 -0.2
v 0 0.1 -0.2
v 0.1 0.1 -0.2
v 0.2 0.1 -0.2
v 0.3 0.1 -0.2
v -0.4 0.1 -0.3
v -0.3 0.1 -0.3
v -0.2 0.1 -0.3
v -0.1 0.1 -0.3
v 0 0.1 -0.3
v 0.1 0.1 -0.3
v 0.2 0.1 -0.3
v 0.3 0.1 -0.3
v -0.3 0.5 -0.2
v -0.2 0.5 -0.2
v -0.1 0.5 -0.2
v 0 0.5 -0.2
v 0.1 0.5 -0.2
v 0.2 0.5 -0.2
v 0.3 0.5 -0.2
v 0.4 0.5 -0.2
v -0.3 0.5 -0.3
v -0.2 0.5 -0.3
v -0.1 0.5 -0.3
v 0 0.5 -0.3
v 0.1 0.5 -0.3
v 0.2 0.5 -0.3
v 0.3 0.5 -0.3
v 0.4 0.5 -0.3
v -0.4 0.3 -0.2
v -0.3 0.3 -0.2
v -0.2 0.3 -0.2
v -0.1 0.3 -0.2
v 0 0.3 -0.2
v 0.1 0.3 -0.2
v 0.2 0.3 -0.2
v 0.3 0.3 -0.2
v -0.4 0.3 -0.3
v -0.3 0.3 -0.3
v -0.2 0.3 -0.3
v -0.1 0.3 -0.3
v 0 0.3 -0.3
v 0.1 0.3 -0.3
v 0.2 0.3 -0.3
v 0.3 0.3 -0.3
v -0.3 0.7 -0.2
v -0.2 0.7 -0.2
v -0.1 0.7 -0.2
v 0 0.7 -0.2
v 0.1 0.7 -0.2
v 0.2 0.7 -0.2
v 0.3 0.7 -0.2
v 0.4 0.7 -0.2
v -0.3 0.7 -0.3
v -0.2 0.7 -0.3
v -0.1 0.7 -0.3
v 0 0.7 -0.3
v 0.1 0.7 -0.3
v 0.2 0.7 -0.3
v 0.3 0.7 -0.3
v 0.4 0.7 -0.3
v -0.4 0.8 -0.3
v -0.3 0.8 -0.3
v -0.2 0.8 -0.3
v -0.1 0.8 -0.3
v 0 0.8 -0.3
v 0.1 0.8 -0.3
v 0.2 0.8 -0.3
v 0.3 0.8 -0.3
v 0.4 0.8 -0.3
v -0.4 0.8 -0.4
v -0.3 0.8 -0.4
v -0.2 0.8 -0.4
v -0.1 0.8 -0.4
v 0 0.8 -0.4
v 0.1 0.8 -0.4
v 0.2 0.8 -0.4
v 0.3 0.8 -0.4
v 0.4 0.8 -0.4

# faces
f 4/2/1 2/2/1 1/2/1
f 5/1/1 4/1/1 3/1/1
f 6/2/1 2/2/1 4/2/1
f 6/1/1 4/1/1 5/1/1
f 7/2/1 2/2/1 6/2/1
f 8/3/1 7/3/1 6/3/1
f 9/3/1 7/3/1 8/3/1
f 10/2/1 9/2/1 8/2/1
f 11/2/1 9/2/1 10/2/1
f 14/1/1 13/1/1 12/1/1
f 15/1/1 13/1/1 14/1/1
f 18/1/1 17/1/1 16/1/1
f 19/1/1 17/1/1 18/1/1
f 22/1/1 21/1/1 20/1/1
f 23/1/1 21/1/1 22/1/1
f 26/1/1 25/1/1 24/1/1
f 27/1/1 25/1/1 26/1/1
f 30/1/1 29/1/1 28/1/1
f 31/1/1 29/1/1 30/1/1
f 34/1/1 33/1/1 32/1/1
f 35/1/1 33/1/1 34/1/1
f 38/1/1 37/1/1 36/1/1
f 39/1/1 37/1/1 38/1/1
f 40/1/2 41/1/2 42/1/2
f 42/1/2 41/1/2 43/1/2
f 44/1/2 45/1/2 46/1/2
f 46/1/2 45/1/2 47/1/2
f 48/1/2 49/1/2 50/1/2
f 50/1/2 49/1/2 51/1/2
f 52/1/2 53/1/2 54/1/2
f 54/1/2 53/1/2 55/1/2
f 56/1/2 57/1/2 58/1/2
f 58/1/2 57/1/2 59/1/2
f 60/1/2 61/1/2 62/1/2
f 62/1/2 61/1/2 63/1/2
f 64/1/2 65/1/2 66/1/2
f 66/1/2 65/1/2 67/1/2
f 68/2/2 69/2/2 71/2/2
f 70/1/2 71/1/2 72/1/2
f 71/2/2 69/2/2 73/2/2
f 72/1/2 71/1/2 73/1/2
f 73/2/2 69/2/2 74/2/2
f 73/3/2 74/3/2 75/3/2
f 75/3/2 74/3/2 76/3/2
f 79/1/3 78/1/3 77/1/3
f 80/1/3 78/1/3 79/1/3
f 85/1/3 82/1/3 81/1/3
f 86/1/3 82/1/3 85/1/3
f 87/1/3 84/1/3 83/1/3
f 88/1/3 84/1/3 87/1/3
f 93/1/3 90/1/3 89/1/3
f 94/1/3 90/1/3 93/1/3
f 95/1/3 92/1/3 91/1/3
f 96/1/3 92/1/3 95/1/3
f 101/1/3 98/1/3 97/1/3
f 102/1/3 98/1/3 101/1/3
f 103/1/3 100/1/3 99/1/3
f 104/1/3 100/1/3 103/1/3
f 107/1/3 106/1/3 105/1/3
f 108/1/3 106/1/3 107/1/3
f 114/2/3 110/2/3 109/2/3
f 115/3/3 112/3/3 111/3/3
f 116/2/3 113/2/3 112/2/3
f 116/3/3 112/3/3 115/3/3
f 117/2/3 113/2/3 116/2/3
f 118/2/3 113/2/3 117/2/3
f 119/2/3 113/2/3 118/2/3
f 120/2/3 115/2/3 114/2/3
f 120/2/3 114/2/3 109/2/3
f 120/2/3 116/2/3 115/2/3
f 120/2/3 117/2/3 116/2/3
f 121/2/3 117/2/3 120/2/3
f 122/2/3 117/2/3 121/2/3
f 123/2/3 117/2/3 122/2/3
f 124/3/3 119/3/3 118/3/3
f 125/3/3 119/3/3 124/3/3
f 126/2/3 120/2/3 109/2/3
f 127/3/3 122/3/3 121/3/3
f 128/2/3 123/2/3 122/2/3
f 128/2/3 125/2/3 124/2/3
f 128/3/3 122/3/3 127/3/3
f 128/2/3 124/2/3 123/2/3
f 129/2/3 125/2/3 128/2/3
f 130/2/3 125/2/3 129/2/3
f 131/2/3 125/2/3 130/2/3
f 132/2/3 127/2/3 126/2/3
f 132/2/3 126/2/3 109/2/3
f 132/2/3 128/2/3 127/2/3
f 132/2/3 129/2/3 128/2/3
f 133/2/3 129/2/3 132/2/3
f 134/2/3 129/2/3 133/2/3
f 135/2/3 129/2/3 134/2/3
f 136/3/3 131/3/3 130/3/3
f 137/3/3 131/3/3 136/3/3
f 138/2/3 132/2/3 109/2/3
f 139/3/3 134/3/3 133/3/3
f 140/2/3 135/2/3 134/2/3
f 140/2/3 137/2/3 136/2/3
f 140/3/3 134/3/3 139/3/3
f 140/2/3 136/2/3 135/2/3
f 141/2/3 137/2/3 140/2/3
f 142/2/3 137/2/3 141/2/3
f 143/2/3 137/2/3 142/2/3
f 144/2/3 139/2/3 138/2/3
f 144/2/3 138/2/3 109/2/3
f 144/2/3 140/2/3 139/2/3
f 144/2/3 141/2/3 140/2/3
f 145/2/3 141/2/3 144/2/3
f 146/2/3 141/2/3 145/2/3
f 147/2/3 141/2/3 146/2/3
f 148/3/3 143/3/3 142/3/3
f 149/3/3 143/3/3 148/3/3
f 150/2/3 144/2/3 109/2/3
f 151/3/3 146/3/3 145/3/3
f 152/2/3 147/2/3 146/2/3
f 152/2/3 149/2/3 148/2/3
f 152/3/3 146/3/3 151/3/3
f 152/2/3 148/2/3 147/2/3
f 153/2/3 149/2/3 152/2/3
f 154/2/3 149/2/3 153/2/3
f 155/2/3 149/2/3 154/2/3
f 156/2/3 151/2/3 150/2/3
f 156/2/3 150/2/3 109/2/3
f 156/2/3 152/2/3 151/2/3
f 156/2/3 153/2/3 152/2/3
f 157/2/3 153/2/3 156/2/3
f 158/3/3 155/3/3 154/3/3
f 159/3/3 155/3/3 158/3/3
f 160/2/4 161/2/4 164/2/4
f 161/3/4 162/3/4 164/3/4
f 162/2/4 163/2/4 165/2/4
f 164/3/4 162/3/4 165/3/4
f 165/2/4 163/2/4 166/2/4
f 166/2/4 163/2/4 167/2/4
f 160/2/4 164/2/4 168/2/4
f 164/2/4 165/2/4 168/2/4
f 165/2/4 166/2/4 168/2/4
f 168/2/4 166/2/4 169/2/4
f 166/3/4 167/3/4 170/3/4
f 169/2/4 166/2/4 170/2/4
f 170/3/4 167/3/4 171/3/4
f 168/3/4 169/3/4 172/3/4
f 160/2/4 168/2/4 172/2/4
f 170/2/4 171/2/4 173/2/4
f 172/3/4 169/3/4 173/3/4
f 169/2/4 170/2/4 173/2/4
f 173/2/4 171/2/4 174/2/4
f 174/2/4 171/2/4 175/2/4
f 160/2/4 172/2/4 176/2/4
f 172/2/4 173/2/4 176/2/4
f 173/2/4 174/2/4 176/2/4
f 176/2/4 174/2/4 177/2/4
f 174/3/4 175/3/4 178/3/4
f 177/2/4 174/2/4 178/2/4
f 178/3/4 175/3/4 179/3/4
f 176/3/4 177/3/4 180/3/4
f 160/2/4 176/2/4 180/2/4
f 178/2/4 179/2/4 181/2/4
f 180/3/4 177/3/4 181/3/4
f 177/2/4 178/2/4 181/2/4
f 181/2/4 179/2/4 182/2/4
f 182/2/4 179/2/4 183/2/4
f 160/2/4 180/2/4 184/2/4
f 180/2/4 181/2/4 184/2/4
f 181/2/4 182/2/4 184/2/4
f 184/2/4 182/2/4 185/2/4
f 182/3/4 183/3/4 186/3/4
f 185/2/4 182/2/4 186/2/4
f 186/3/4 183/3/4 187/3/4
f 184/3/4 185/3/4 188/3/4
f 160/2/4 184/2/4 188/2/4
f 186/2/4 187/2/4 189/2/4
f 188/3/4 185/3/4 189/3/4
f 185/2/4 186/2/4 189/2/4
f 189/2/4 187/2/4 190/2/4
f 190/2/4 187/2/4 191/2/4
f 160/2/4 188/2/4 192/2/4
f 188/2/4 189/2/4 192/2/4
f 189/2/4 190/2/4 192/2/4
f 190/3/4 191/3/4 193/3/4
f 192/2/4 190/2/4 193/2/4
f 193/3/4 191/3/4 194/3/4
f 197/2/5 196/2/5 195/2/5
f 198/2/5 196/2/5 197/2/5
f 207/1/5 200/1/5 199/1/5
f 208/1/5 200/1/5 207/1/5
f 209/1/5 202/1/5 201/1/5
f 210/1/5 202/1/5 209/1/5
f 211/1/5 204/1/5 203/1/5
f 212/1/5 204/1/5 211/1/5
f 213/1/5 206/1/5 205/1/5
f 214/1/5 206/1/5 213/1/5
f 223/1/5 216/1/5 215/1/5
f 224/1/5 216/1/5 223/1/5
f 225/1/5 218/1/5 217/1/5
f 226/1/5 218/1/5 225/1/5
f 227/1/5 220/1/5 219/1/5
f 228/1/5 220/1/5 227/1/5
f 229/1/5 222/1/5 221/1/5
f 230/1/5 222/1/5 229/1/5
f 231/1/6 232/1/6 239/1/6
f 239/1/6 232/1/6 240/1/6
f 233/1/6 234/1/6 241/1/6
f 241/1/6 234/1/6 242/1/6
f 235/1/6 236/1/6 243/1/6
f 243/1/6 236/1/6 244/1/6
f 237/1/6 238/1/6 245/1/6
f 245/1/6 238/1/6 246/1/6
f 247/1/6 248/1/6 255/1/6
f 255/1/6 248/1/6 256/1/6
f 249/1/6 250/1/6 257/1/6
f 257/1/6 250/1/6 258/1/6
f 251/1/6 252/1/6 259/1/6
f 259/1/6 252/1/6 260/1/6
f 253/1/6 254/1/6 261/1/6
f 261/1/6 254/1/6 262/1/6
f 263/2/6 264/2/6 272/2/6
f 264/3/6 265/3/6 273/3/6
f 272/2/6 264/2/6 273/2/6
f 265/2/6 266/2/6 274/2/6
f 273/3/6 265/3/6 274/3/6
f 266/3/6 267/3/6 275/3/6
f 274/2/6 266/2/6 275/2/6
f 267/2/6 268/2/6 276/2/6
f 275/3/6 267/3/6 276/3/6
f 268/3/6 269/3/6 277/3/6
f 276/2/6 268/2/6 277/2/6
f 269/2/6 270/2/6 278/2/6
f 277/3/6 269/3/6 278/3/6
f 270/3/6 271/3/6 279/3/6
f 278/2/6 270/2/6 279/2/6
f 279/3/6 271/3/6 280/3/6
