# MagicaVoxel @ Ephtracy

# group
o 

# material
mtllib MandrakeRoot.mtl
usemtl palette

# normals
vn -1 0 0
vn 1 0 0
vn 0 0 1
vn 0 0 -1
vn 0 -1 0
vn 0 1 0

# texcoords
vt 0.654297 0.5
vt 0.869141 0.5
vt 0.873047 0.5

# verts
v -0.3 0.1 0.3
v -0.3 0.1 -0.3
v -0.3 0.5 0.3
v -0.3 0.5 -0.3
v -0.2 0 0.2
v -0.2 0 -0.2
v -0.2 0.1 0.2
v -0.2 0.1 -0.2
v -0.2 0.6 0
v -0.2 0.6 -0.1
v -0.2 0.8 0
v -0.2 0.8 -0.1
v -0.1 0.4 0
v -0.1 0.4 -0.1
v -0.1 0.5 -0.1
v -0.1 0.6 0.1
v -0.1 0.6 0
v -0.1 0.6 -0.1
v -0.1 0.6 -0.2
v -0.1 0.7 0.1
v -0.1 0.7 0
v -0.1 0.8 -0.1
v -0.1 0.8 -0.2
v 0 0.5 0.4
v 0 0.5 0.3
v 0 0.5 0.2
v 0 0.6 0.4
v 0 0.6 0.2
v 0.1 0.4 0.4
v 0.1 0.4 0.3
v 0.1 0.4 0.2
v 0.1 0.4 0.1
v 0.1 0.4 0
v 0.1 0.4 -0.1
v 0.1 0.5 0.4
v 0.1 0.5 0.3
v 0.1 0.5 0.2
v 0.1 0.5 0
v 0.1 0.5 -0.1
v 0.1 0.6 0.3
v 0.1 0.6 0.2
v 0.1 0.7 0.3
v 0.1 0.7 0.1
v 0.2 0.4 0.1
v 0.2 0.4 0
v 0.2 0.4 -0.1
v 0.2 0.4 -0.2
v 0.2 0.5 0.1
v 0.2 0.5 0
v 0.2 0.5 -0.1
v 0.2 0.5 -0.2
v 0.2 0.6 0
v 0.2 0.6 -0.1
v -0.2 0.4 0.2
v -0.2 0.4 -0.1
v -0.2 0.5 0.2
v -0.2 0.5 -0.1
v -0.1 0.4 -0.1
v -0.1 0.4 -0.2
v -0.1 0.5 -0.1
v -0.1 0.5 -0.2
v 0 0.4 0
v 0 0.4 -0.1
v 0 0.5 0
v 0 0.5 -0.1
v 0 0.6 0.1
v 0 0.6 0
v 0 0.6 -0.1
v 0 0.6 -0.2
v 0 0.7 0.1
v 0 0.7 0
v 0 0.7 -0.2
v 0.1 0.5 0
v 0.1 0.5 -0.1
v 0.1 0.6 0
v 0.1 0.6 -0.1
v 0.1 0.7 0
v 0.1 0.7 -0.2
v 0.1 0.8 0
v 0.1 0.8 -0.2
v 0.2 0 0.2
v 0.2 0 -0.2
v 0.2 0.1 0.2
v 0.2 0.1 -0.2
v 0.2 0.4 0.4
v 0.2 0.4 0.3
v 0.2 0.5 0.4
v 0.2 0.5 0.3
v 0.2 0.5 0.2
v 0.2 0.5 0.1
v 0.2 0.6 0.3
v 0.2 0.6 0.2
v 0.2 0.7 0.3
v 0.2 0.7 0.1
v 0.3 0.1 0.3
v 0.3 0.1 -0.3
v 0.3 0.3 0
v 0.3 0.3 -0.1
v 0.3 0.4 -0.1
v 0.3 0.4 -0.2
v 0.3 0.5 0.4
v 0.3 0.5 0.3
v 0.3 0.5 0.2
v 0.3 0.5 0
v 0.3 0.5 -0.1
v 0.3 0.5 -0.2
v 0.3 0.5 -0.3
v 0.3 0.6 0.4
v 0.3 0.6 0.2
v 0.3 0.6 0
v 0.3 0.6 -0.1
v 0.4 0.3 0
v 0.4 0.3 -0.1
v 0.4 0.4 -0.1
v 0.4 0.4 -0.2
v 0.4 0.5 0
v 0.4 0.5 -0.2
v 0 0.5 0.4
v 0 0.6 0.4
v 0.1 0.4 0.4
v 0.1 0.5 0.4
v 0.2 0.4 0.4
v 0.2 0.5 0.4
v 0.3 0.5 0.4
v 0.3 0.6 0.4
v -0.3 0.1 0.3
v -0.3 0.5 0.3
v 0 0.5 0.3
v 0.1 0.4 0.3
v 0.1 0.5 0.3
v 0.1 0.6 0.3
v 0.1 0.7 0.3
v 0.2 0.4 0.3
v 0.2 0.5 0.3
v 0.2 0.6 0.3
v 0.2 0.7 0.3
v 0.3 0.1 0.3
v 0.3 0.5 0.3
v -0.2 0 0.2
v -0.2 0.1 0.2
v 0.2 0 0.2
v 0.2 0.1 0.2
v -0.1 0.6 0.1
v -0.1 0.7 0.1
v 0 0.6 0.1
v 0 0.7 0.1
v -0.2 0.6 0
v -0.2 0.8 0
v -0.1 0.4 0
v -0.1 0.6 0
v -0.1 0.7 0
v 0 0.4 0
v 0 0.5 0
v 0 0.6 0
v 0 0.7 0
v 0.1 0.4 0
v 0.1 0.5 0
v 0.1 0.6 0
v 0.1 0.7 0
v 0.1 0.8 0
v 0.2 0.4 0
v 0.2 0.5 0
v 0.2 0.6 0
v 0.3 0.3 0
v 0.3 0.5 0
v 0.3 0.6 0
v 0.4 0.3 0
v 0.4 0.5 0
v -0.2 0.4 -0.1
v -0.2 0.5 -0.1
v -0.1 0.4 -0.1
v -0.1 0.5 -0.1
v -0.1 0.4 -0.2
v -0.1 0.5 -0.2
v 0.2 0.4 -0.2
v 0.2 0.5 -0.2
v -0.2 0.4 0.2
v -0.2 0.5 0.2
v 0 0.5 0.2
v 0 0.6 0.2
v 0.1 0.4 0.2
v 0.1 0.5 0.2
v 0.1 0.6 0.2
v 0.2 0.5 0.2
v 0.2 0.6 0.2
v 0.3 0.5 0.2
v 0.3 0.6 0.2
v 0.1 0.4 0.1
v 0.1 0.7 0.1
v 0.2 0.4 0.1
v 0.2 0.5 0.1
v 0.2 0.7 0.1
v -0.2 0.6 -0.1
v -0.2 0.8 -0.1
v -0.1 0.4 -0.1
v -0.1 0.5 -0.1
v -0.1 0.6 -0.1
v -0.1 0.8 -0.1
v 0 0.4 -0.1
v 0 0.5 -0.1
v 0 0.6 -0.1
v 0.1 0.4 -0.1
v 0.1 0.5 -0.1
v 0.1 0.6 -0.1
v 0.2 0.4 -0.1
v 0.2 0.5 -0.1
v 0.2 0.6 -0.1
v 0.3 0.3 -0.1
v 0.3 0.4 -0.1
v 0.3 0.5 -0.1
v 0.3 0.6 -0.1
v 0.4 0.3 -0.1
v 0.4 0.4 -0.1
v -0.2 0 -0.2
v -0.2 0.1 -0.2
v -0.1 0.6 -0.2
v -0.1 0.8 -0.2
v 0 0.6 -0.2
v 0 0.7 -0.2
v 0.1 0.7 -0.2
v 0.1 0.8 -0.2
v 0.2 0 -0.2
v 0.2 0.1 -0.2
v 0.3 0.4 -0.2
v 0.3 0.5 -0.2
v 0.4 0.4 -0.2
v 0.4 0.5 -0.2
v -0.3 0.1 -0.3
v -0.3 0.5 -0.3
v 0.3 0.1 -0.3
v 0.3 0.5 -0.3
v -0.2 0 0.2
v 0.2 0 0.2
v -0.2 0 -0.2
v 0.2 0 -0.2
v -0.3 0.1 0.3
v 0.3 0.1 0.3
v -0.2 0.1 0.2
v 0.2 0.1 0.2
v -0.2 0.1 -0.2
v 0.2 0.1 -0.2
v -0.3 0.1 -0.3
v 0.3 0.1 -0.3
v 0.3 0.3 0
v 0.4 0.3 0
v 0.3 0.3 -0.1
v 0.4 0.3 -0.1
v 0.1 0.4 0.4
v 0.2 0.4 0.4
v 0.1 0.4 0.3
v 0.2 0.4 0.3
v 0.3 0.4 -0.1
v 0.4 0.4 -0.1
v 0.3 0.4 -0.2
v 0.4 0.4 -0.2
v 0 0.5 0.4
v 0.1 0.5 0.4
v 0.2 0.5 0.4
v 0.3 0.5 0.4
v 0 0.5 0.3
v 0.1 0.5 0.3
v 0.2 0.5 0.3
v 0.3 0.5 0.3
v 0 0.5 0
v 0.1 0.5 0
v 0 0.5 -0.1
v 0.1 0.5 -0.1
v -0.1 0.6 0.1
v 0 0.6 0.1
v -0.2 0.6 0
v -0.1 0.6 0
v 0 0.6 0
v -0.2 0.6 -0.1
v -0.1 0.6 -0.1
v 0 0.6 -0.1
v -0.1 0.6 -0.2
v 0 0.6 -0.2
v 0 0.7 0
v 0.1 0.7 0
v 0 0.7 -0.2
v 0.1 0.7 -0.2
v -0.2 0.4 0.2
v 0.1 0.4 0.2
v 0.1 0.4 0.1
v 0.2 0.4 0.1
v -0.1 0.4 0
v 0 0.4 0
v 0.1 0.4 0
v 0.2 0.4 0
v -0.2 0.4 -0.1
v -0.1 0.4 -0.1
v 0 0.4 -0.1
v 0.1 0.4 -0.1
v 0.2 0.4 -0.1
v -0.1 0.4 -0.2
v 0.2 0.4 -0.2
v -0.3 0.5 0.3
v 0 0.5 0.3
v -0.2 0.5 0.2
v 0 0.5 0.2
v 0.2 0.5 0.2
v 0.3 0.5 0.2
v 0.2 0.5 0.1
v 0.1 0.5 0
v 0.2 0.5 0
v 0.3 0.5 0
v 0.4 0.5 0
v -0.2 0.5 -0.1
v -0.1 0.5 -0.1
v 0.1 0.5 -0.1
v 0.2 0.5 -0.1
v 0.3 0.5 -0.1
v -0.2 0.5 -0.2
v -0.1 0.5 -0.2
v 0.2 0.5 -0.2
v 0.3 0.5 -0.2
v 0.4 0.5 -0.2
v -0.3 0.5 -0.3
v 0.3 0.5 -0.3
v 0 0.6 0.4
v 0.3 0.6 0.4
v 0.1 0.6 0.3
v 0.2 0.6 0.3
v 0 0.6 0.2
v 0.1 0.6 0.2
v 0.2 0.6 0.2
v 0.3 0.6 0.2
v 0 0.6 0
v 0.1 0.6 0
v 0.2 0.6 0
v 0.3 0.6 0
v 0 0.6 -0.1
v 0.1 0.6 -0.1
v 0.2 0.6 -0.1
v 0.3 0.6 -0.1
v 0.1 0.7 0.3
v 0.2 0.7 0.3
v -0.1 0.7 0.1
v 0 0.7 0.1
v 0.1 0.7 0.1
v 0.2 0.7 0.1
v -0.1 0.7 0
v 0 0.7 0
v -0.2 0.8 0
v 0.1 0.8 0
v -0.2 0.8 -0.1
v -0.1 0.8 -0.1
v -0.1 0.8 -0.2
v 0.1 0.8 -0.2

# faces
f 3/2/1 2/2/1 1/2/1
f 4/2/1 2/2/1 3/2/1
f 7/2/1 6/2/1 5/2/1
f 8/2/1 6/2/1 7/2/1
f 11/1/1 10/1/1 9/1/1
f 12/1/1 10/1/1 11/1/1
f 15/1/1 14/1/1 13/1/1
f 17/1/1 15/1/1 13/1/1
f 18/1/1 15/1/1 17/1/1
f 20/1/1 17/1/1 16/1/1
f 21/1/1 17/1/1 20/1/1
f 22/1/1 19/1/1 18/1/1
f 23/1/1 19/1/1 22/1/1
f 27/1/1 25/1/1 24/1/1
f 27/1/1 26/1/1 25/1/1
f 28/1/1 26/1/1 27/1/1
f 35/1/1 30/1/1 29/1/1
f 36/1/1 30/1/1 35/1/1
f 37/1/1 32/1/1 31/1/1
f 38/1/1 34/1/1 33/1/1
f 39/1/1 34/1/1 38/1/1
f 41/1/1 32/1/1 37/1/1
f 42/1/1 41/1/1 40/1/1
f 43/1/1 32/1/1 41/1/1
f 43/1/1 41/1/1 42/1/1
f 48/2/1 45/2/1 44/2/1
f 49/2/1 45/2/1 48/2/1
f 50/2/1 47/2/1 46/2/1
f 51/2/1 47/2/1 50/2/1
f 52/1/1 50/1/1 49/1/1
f 53/1/1 50/1/1 52/1/1
f 54/2/2 55/2/2 56/2/2
f 56/2/2 55/2/2 57/2/2
f 58/1/2 59/1/2 60/1/2
f 60/1/2 59/1/2 61/1/2
f 62/1/2 63/1/2 64/1/2
f 64/1/2 63/1/2 65/1/2
f 67/1/2 68/1/2 70/1/2
f 68/1/2 69/1/2 70/1/2
f 66/1/2 67/1/2 70/1/2
f 70/1/2 69/1/2 71/1/2
f 71/1/2 69/1/2 72/1/2
f 73/1/2 74/1/2 75/1/2
f 75/1/2 74/1/2 76/1/2
f 77/1/2 78/1/2 79/1/2
f 79/1/2 78/1/2 80/1/2
f 81/2/2 82/2/2 83/2/2
f 83/2/2 82/2/2 84/2/2
f 85/1/2 86/1/2 87/1/2
f 87/1/2 86/1/2 88/1/2
f 89/1/2 90/1/2 92/1/2
f 91/1/2 92/1/2 93/1/2
f 92/1/2 90/1/2 94/1/2
f 93/1/2 92/1/2 94/1/2
f 95/2/2 96/2/2 97/2/2
f 97/2/2 96/2/2 98/2/2
f 98/2/2 96/2/2 99/2/2
f 99/2/2 96/2/2 100/2/2
f 95/2/2 97/2/2 102/2/2
f 102/2/2 97/2/2 103/2/2
f 103/2/2 97/2/2 104/2/2
f 100/2/2 96/2/2 106/2/2
f 106/2/2 96/2/2 107/2/2
f 101/1/2 102/1/2 108/1/2
f 102/1/2 103/1/2 108/1/2
f 108/1/2 103/1/2 109/1/2
f 104/1/2 105/1/2 110/1/2
f 110/1/2 105/1/2 111/1/2
f 112/1/2 113/1/2 114/1/2
f 112/1/2 114/1/2 116/1/2
f 114/1/2 115/1/2 116/1/2
f 116/1/2 115/1/2 117/1/2
f 121/1/3 119/1/3 118/1/3
f 122/1/3 121/1/3 120/1/3
f 123/1/3 119/1/3 121/1/3
f 123/1/3 121/1/3 122/1/3
f 124/1/3 119/1/3 123/1/3
f 125/1/3 119/1/3 124/1/3
f 128/2/3 127/2/3 126/2/3
f 129/2/3 128/2/3 126/2/3
f 130/2/3 128/2/3 129/2/3
f 133/2/3 129/2/3 126/2/3
f 135/1/3 132/1/3 131/1/3
f 136/1/3 132/1/3 135/1/3
f 137/2/3 134/2/3 133/2/3
f 137/2/3 133/2/3 126/2/3
f 138/2/3 134/2/3 137/2/3
f 141/2/3 140/2/3 139/2/3
f 142/2/3 140/2/3 141/2/3
f 145/1/3 144/1/3 143/1/3
f 146/1/3 144/1/3 145/1/3
f 150/1/3 148/1/3 147/1/3
f 151/1/3 148/1/3 150/1/3
f 152/1/3 150/1/3 149/1/3
f 153/1/3 150/1/3 152/1/3
f 154/1/3 150/1/3 153/1/3
f 155/1/3 148/1/3 151/1/3
f 157/1/3 154/1/3 153/1/3
f 158/1/3 154/1/3 157/1/3
f 159/1/3 148/1/3 155/1/3
f 160/1/3 148/1/3 159/1/3
f 161/1/3 157/1/3 156/1/3
f 162/1/3 157/1/3 161/1/3
f 165/1/3 163/1/3 162/1/3
f 166/1/3 163/1/3 165/1/3
f 167/1/3 165/1/3 164/1/3
f 168/1/3 165/1/3 167/1/3
f 171/1/3 170/1/3 169/1/3
f 172/1/3 170/1/3 171/1/3
f 175/2/3 174/2/3 173/2/3
f 176/2/3 174/2/3 175/2/3
f 177/2/4 178/2/4 179/2/4
f 177/2/4 179/2/4 181/2/4
f 179/1/4 180/1/4 182/1/4
f 181/2/4 179/2/4 182/2/4
f 182/1/4 180/1/4 183/1/4
f 184/1/4 185/1/4 186/1/4
f 186/1/4 185/1/4 187/1/4
f 188/1/4 189/1/4 190/1/4
f 190/1/4 189/1/4 191/1/4
f 191/1/4 189/1/4 192/1/4
f 193/1/4 194/1/4 197/1/4
f 197/1/4 194/1/4 198/1/4
f 195/1/4 196/1/4 199/1/4
f 196/1/4 197/1/4 199/1/4
f 199/1/4 197/1/4 200/1/4
f 200/1/4 197/1/4 201/1/4
f 200/1/4 201/1/4 203/1/4
f 203/1/4 201/1/4 204/1/4
f 202/1/4 203/1/4 205/1/4
f 205/1/4 203/1/4 206/1/4
f 206/1/4 207/1/4 210/1/4
f 210/1/4 207/1/4 211/1/4
f 208/1/4 209/1/4 212/1/4
f 212/1/4 209/1/4 213/1/4
f 216/1/4 217/1/4 218/1/4
f 218/1/4 217/1/4 219/1/4
f 219/1/4 217/1/4 220/1/4
f 220/1/4 217/1/4 221/1/4
f 214/2/4 215/2/4 222/2/4
f 222/2/4 215/2/4 223/2/4
f 224/1/4 225/1/4 226/1/4
f 226/1/4 225/1/4 227/1/4
f 228/2/4 229/2/4 230/2/4
f 230/2/4 229/2/4 231/2/4
f 234/2/5 233/2/5 232/2/5
f 235/2/5 233/2/5 234/2/5
f 238/2/5 237/2/5 236/2/5
f 239/2/5 237/2/5 238/2/5
f 240/2/5 238/2/5 236/2/5
f 241/2/5 237/2/5 239/2/5
f 242/2/5 240/2/5 236/2/5
f 242/2/5 241/2/5 240/2/5
f 243/2/5 237/2/5 241/2/5
f 243/2/5 241/2/5 242/2/5
f 246/1/5 245/1/5 244/1/5
f 247/1/5 245/1/5 246/1/5
f 250/1/5 249/1/5 248/1/5
f 251/1/5 249/1/5 250/1/5
f 254/1/5 253/1/5 252/1/5
f 255/1/5 253/1/5 254/1/5
f 260/1/5 257/1/5 256/1/5
f 261/1/5 257/1/5 260/1/5
f 262/1/5 259/1/5 258/1/5
f 263/1/5 259/1/5 262/1/5
f 266/1/5 265/1/5 264/1/5
f 267/1/5 265/1/5 266/1/5
f 271/1/5 269/1/5 268/1/5
f 272/1/5 269/1/5 271/1/5
f 273/1/5 271/1/5 270/1/5
f 274/1/5 271/1/5 273/1/5
f 276/1/5 275/1/5 274/1/5
f 277/1/5 275/1/5 276/1/5
f 280/1/5 279/1/5 278/1/5
f 281/1/5 279/1/5 280/1/5
f 282/3/6 283/3/6 284/3/6
f 282/3/6 284/3/6 286/3/6
f 284/3/6 285/3/6 286/3/6
f 286/3/6 285/3/6 287/3/6
f 287/3/6 285/3/6 288/3/6
f 288/3/6 285/3/6 289/3/6
f 282/3/6 286/3/6 290/3/6
f 290/3/6 286/3/6 291/3/6
f 287/3/6 288/3/6 292/3/6
f 292/3/6 288/3/6 293/3/6
f 293/3/6 294/3/6 295/3/6
f 292/3/6 293/3/6 295/3/6
f 291/3/6 292/3/6 295/3/6
f 295/3/6 294/3/6 296/3/6
f 297/2/6 298/2/6 299/2/6
f 299/2/6 298/2/6 300/2/6
f 301/2/6 302/2/6 303/2/6
f 303/2/6 302/2/6 305/2/6
f 305/2/6 302/2/6 306/2/6
f 297/2/6 299/2/6 308/2/6
f 304/1/6 305/1/6 310/1/6
f 310/1/6 305/1/6 311/1/6
f 306/1/6 307/1/6 312/1/6
f 308/1/6 309/1/6 313/1/6
f 297/2/6 308/2/6 313/2/6
f 313/1/6 309/1/6 314/1/6
f 311/2/6 312/2/6 315/2/6
f 312/1/6 307/1/6 316/1/6
f 315/2/6 312/2/6 316/2/6
f 316/1/6 307/1/6 317/1/6
f 313/2/6 314/2/6 318/2/6
f 314/2/6 315/2/6 318/2/6
f 315/2/6 316/2/6 318/2/6
f 297/2/6 313/2/6 318/2/6
f 318/2/6 316/2/6 319/2/6
f 320/1/6 321/1/6 322/1/6
f 322/1/6 321/1/6 323/1/6
f 320/1/6 322/1/6 324/1/6
f 324/1/6 322/1/6 325/1/6
f 323/1/6 321/1/6 326/1/6
f 326/1/6 321/1/6 327/1/6
f 328/1/6 329/1/6 332/1/6
f 332/1/6 329/1/6 333/1/6
f 330/1/6 331/1/6 334/1/6
f 334/1/6 331/1/6 335/1/6
f 336/1/6 337/1/6 340/1/6
f 340/1/6 337/1/6 341/1/6
f 338/1/6 339/1/6 342/1/6
f 342/1/6 339/1/6 343/1/6
f 344/1/6 345/1/6 346/1/6
f 346/1/6 345/1/6 347/1/6
f 347/1/6 345/1/6 348/1/6
f 348/1/6 345/1/6 349/1/6
