# MagicaVoxel @ Ephtracy

# group
o 

# material
mtllib SalamanderTailHalf.mtl
usemtl palette

# normals
vn -1 0 0
vn 1 0 0
vn 0 0 1
vn 0 0 -1
vn 0 -1 0
vn 0 1 0

# texcoords
vt 0.0917969 0.5
vt 0.369141 0.5
vt 0.994141 0.5

# verts
v -0.4 0 -0.3
v -0.4 0 -0.4
v -0.4 0.4 -0.2
v -0.4 0.4 -0.3
v -0.4 0.5 -0.2
v -0.4 0.5 -0.3
v -0.4 0.8 -0.3
v -0.4 0.8 -0.4
v -0.3 0.5 -0.2
v -0.3 0.5 -0.3
v -0.3 0.6 -0.2
v -0.3 0.6 -0.3
v -0.3 0.7 -0.2
v -0.3 0.7 -0.3
v -0.1 0 -0.2
v -0.1 0 -0.3
v -0.1 0.1 -0.2
v -0.1 0.1 -0.3
v 0 0.1 -0.2
v 0 0.1 -0.3
v 0 0.2 -0.2
v 0 0.2 -0.3
v 0 0.3 -0.2
v 0 0.3 -0.3
v 0.2 0 -0.2
v 0.2 0 -0.3
v 0.2 0.1 -0.2
v 0.2 0.1 -0.3
v 0.3 0.1 -0.2
v 0.3 0.1 -0.3
v 0.3 0.2 -0.2
v 0.3 0.2 -0.3
v 0.3 0.3 -0.2
v 0.3 0.3 -0.3
v -0.3 0.4 -0.2
v -0.3 0.4 -0.3
v -0.3 0.5 -0.2
v -0.3 0.5 -0.3
v -0.2 0.5 -0.2
v -0.2 0.5 -0.3
v -0.2 0.6 -0.2
v -0.2 0.6 -0.3
v -0.2 0.7 -0.2
v -0.2 0.7 -0.3
v 0 0 -0.2
v 0 0 -0.3
v 0 0.1 -0.2
v 0 0.1 -0.3
v 0.1 0.1 -0.2
v 0.1 0.1 -0.3
v 0.1 0.2 -0.2
v 0.1 0.2 -0.3
v 0.1 0.3 -0.2
v 0.1 0.3 -0.3
v 0.3 0 -0.2
v 0.3 0 -0.3
v 0.3 0.1 -0.2
v 0.3 0.1 -0.3
v 0.4 0 -0.3
v 0.4 0 -0.4
v 0.4 0.1 -0.2
v 0.4 0.1 -0.3
v 0.4 0.2 -0.2
v 0.4 0.2 -0.3
v 0.4 0.3 -0.2
v 0.4 0.3 -0.3
v 0.4 0.8 -0.3
v 0.4 0.8 -0.4
v -0.4 0.4 -0.2
v -0.4 0.5 -0.2
v -0.3 0.4 -0.2
v -0.3 0.5 -0.2
v -0.3 0.6 -0.2
v -0.3 0.7 -0.2
v -0.2 0.5 -0.2
v -0.2 0.6 -0.2
v -0.2 0.7 -0.2
v -0.1 0 -0.2
v -0.1 0.1 -0.2
v 0 0 -0.2
v 0 0.1 -0.2
v 0 0.2 -0.2
v 0 0.3 -0.2
v 0.1 0.1 -0.2
v 0.1 0.2 -0.2
v 0.1 0.3 -0.2
v 0.2 0 -0.2
v 0.2 0.1 -0.2
v 0.3 0 -0.2
v 0.3 0.1 -0.2
v 0.3 0.2 -0.2
v 0.3 0.3 -0.2
v 0.4 0.1 -0.2
v 0.4 0.2 -0.2
v 0.4 0.3 -0.2
v -0.4 0 -0.3
v -0.4 0.4 -0.3
v -0.4 0.5 -0.3
v -0.4 0.8 -0.3
v -0.3 0.4 -0.3
v -0.3 0.5 -0.3
v -0.3 0.6 -0.3
v -0.3 0.7 -0.3
v -0.2 0.5 -0.3
v -0.2 0.6 -0.3
v -0.2 0.7 -0.3
v -0.1 0 -0.3
v -0.1 0.1 -0.3
v 0 0 -0.3
v 0 0.1 -0.3
v 0 0.2 -0.3
v 0 0.3 -0.3
v 0.1 0.1 -0.3
v 0.1 0.2 -0.3
v 0.1 0.3 -0.3
v 0.2 0 -0.3
v 0.2 0.1 -0.3
v 0.3 0 -0.3
v 0.3 0.1 -0.3
v 0.3 0.2 -0.3
v 0.3 0.3 -0.3
v 0.4 0 -0.3
v 0.4 0.1 -0.3
v 0.4 0.3 -0.3
v 0.4 0.8 -0.3
v -0.4 0 -0.4
v -0.4 0.8 -0.4
v 0.4 0 -0.4
v 0.4 0.8 -0.4
v -0.1 0 -0.2
v 0 0 -0.2
v 0.2 0 -0.2
v 0.3 0 -0.2
v -0.4 0 -0.3
v -0.1 0 -0.3
v 0 0 -0.3
v 0.2 0 -0.3
v 0.3 0 -0.3
v 0.4 0 -0.3
v -0.4 0 -0.4
v 0.4 0 -0.4
v 0 0.1 -0.2
v 0.1 0.1 -0.2
v 0.3 0.1 -0.2
v 0.4 0.1 -0.2
v 0 0.1 -0.3
v 0.1 0.1 -0.3
v 0.3 0.1 -0.3
v 0.4 0.1 -0.3
v -0.4 0.4 -0.2
v -0.3 0.4 -0.2
v -0.4 0.4 -0.3
v -0.3 0.4 -0.3
v -0.3 0.5 -0.2
v -0.2 0.5 -0.2
v -0.3 0.5 -0.3
v -0.2 0.5 -0.3
v -0.1 0.1 -0.2
v 0 0.1 -0.2
v 0.2 0.1 -0.2
v 0.3 0.1 -0.2
v -0.1 0.1 -0.3
v 0 0.1 -0.3
v 0.2 0.1 -0.3
v 0.3 0.1 -0.3
v 0 0.3 -0.2
v 0.1 0.3 -0.2
v 0.3 0.3 -0.2
v 0.4 0.3 -0.2
v 0 0.3 -0.3
v 0.1 0.3 -0.3
v 0.3 0.3 -0.3
v 0.4 0.3 -0.3
v -0.4 0.5 -0.2
v -0.3 0.5 -0.2
v -0.4 0.5 -0.3
v -0.3 0.5 -0.3
v -0.3 0.7 -0.2
v -0.2 0.7 -0.2
v -0.3 0.7 -0.3
v -0.2 0.7 -0.3
v -0.4 0.8 -0.3
v 0.4 0.8 -0.3
v -0.4 0.8 -0.4
v 0.4 0.8 -0.4

# faces
f 4/2/1 2/2/1 1/2/1
f 5/1/1 4/1/1 3/1/1
f 6/2/1 2/2/1 4/2/1
f 6/1/1 4/1/1 5/1/1
f 7/2/1 2/2/1 6/2/1
f 8/2/1 2/2/1 7/2/1
f 11/1/1 10/1/1 9/1/1
f 12/1/1 10/1/1 11/1/1
f 13/3/1 12/3/1 11/3/1
f 14/3/1 12/3/1 13/3/1
f 17/1/1 16/1/1 15/1/1
f 18/1/1 16/1/1 17/1/1
f 21/1/1 20/1/1 19/1/1
f 22/1/1 20/1/1 21/1/1
f 23/3/1 22/3/1 21/3/1
f 24/3/1 22/3/1 23/3/1
f 27/1/1 26/1/1 25/1/1
f 28/1/1 26/1/1 27/1/1
f 31/1/1 30/1/1 29/1/1
f 32/1/1 30/1/1 31/1/1
f 33/3/1 32/3/1 31/3/1
f 34/3/1 32/3/1 33/3/1
f 35/1/2 36/1/2 37/1/2
f 37/1/2 36/1/2 38/1/2
f 39/1/2 40/1/2 41/1/2
f 41/1/2 40/1/2 42/1/2
f 41/3/2 42/3/2 43/3/2
f 43/3/2 42/3/2 44/3/2
f 45/1/2 46/1/2 47/1/2
f 47/1/2 46/1/2 48/1/2
f 49/1/2 50/1/2 51/1/2
f 51/1/2 50/1/2 52/1/2
f 51/3/2 52/3/2 53/3/2
f 53/3/2 52/3/2 54/3/2
f 55/1/2 56/1/2 57/1/2
f 57/1/2 56/1/2 58/1/2
f 59/2/2 60/2/2 62/2/2
f 61/1/2 62/1/2 63/1/2
f 62/2/2 60/2/2 64/2/2
f 63/1/2 62/1/2 64/1/2
f 63/3/2 64/3/2 65/3/2
f 64/2/2 60/2/2 66/2/2
f 65/3/2 64/3/2 66/3/2
f 66/2/2 60/2/2 67/2/2
f 67/2/2 60/2/2 68/2/2
f 71/1/3 70/1/3 69/1/3
f 72/1/3 70/1/3 71/1/3
f 75/1/3 73/1/3 72/1/3
f 76/3/3 74/3/3 73/3/3
f 76/1/3 73/1/3 75/1/3
f 77/3/3 74/3/3 76/3/3
f 80/1/3 79/1/3 78/1/3
f 81/1/3 79/1/3 80/1/3
f 84/1/3 82/1/3 81/1/3
f 85/3/3 83/3/3 82/3/3
f 85/1/3 82/1/3 84/1/3
f 86/3/3 83/3/3 85/3/3
f 89/1/3 88/1/3 87/1/3
f 90/1/3 88/1/3 89/1/3
f 93/1/3 91/1/3 90/1/3
f 94/3/3 92/3/3 91/3/3
f 94/1/3 91/1/3 93/1/3
f 95/3/3 92/3/3 94/3/3
f 100/2/3 97/2/3 96/2/3
f 101/2/3 99/2/3 98/2/3
f 102/2/3 99/2/3 101/2/3
f 103/2/3 99/2/3 102/2/3
f 104/2/3 101/2/3 100/2/3
f 106/2/3 99/2/3 103/2/3
f 107/2/3 100/2/3 96/2/3
f 107/2/3 106/2/3 105/2/3
f 107/2/3 105/2/3 104/2/3
f 107/2/3 104/2/3 100/2/3
f 108/2/3 106/2/3 107/2/3
f 110/2/3 106/2/3 108/2/3
f 111/2/3 106/2/3 110/2/3
f 112/2/3 106/2/3 111/2/3
f 113/2/3 110/2/3 109/2/3
f 115/2/3 106/2/3 112/2/3
f 116/2/3 114/2/3 113/2/3
f 116/2/3 115/2/3 114/2/3
f 116/2/3 113/2/3 109/2/3
f 117/2/3 115/2/3 116/2/3
f 119/2/3 115/2/3 117/2/3
f 120/2/3 115/2/3 119/2/3
f 121/2/3 106/2/3 115/2/3
f 121/2/3 115/2/3 120/2/3
f 122/2/3 119/2/3 118/2/3
f 123/2/3 119/2/3 122/2/3
f 124/2/3 106/2/3 121/2/3
f 125/2/3 99/2/3 106/2/3
f 125/2/3 106/2/3 124/2/3
f 126/2/4 127/2/4 128/2/4
f 128/2/4 127/2/4 129/2/4
f 135/1/5 131/1/5 130/1/5
f 136/1/5 131/1/5 135/1/5
f 137/1/5 133/1/5 132/1/5
f 138/1/5 133/1/5 137/1/5
f 140/2/5 136/2/5 135/2/5
f 140/2/5 139/2/5 138/2/5
f 140/2/5 138/2/5 137/2/5
f 140/2/5 137/2/5 136/2/5
f 140/2/5 135/2/5 134/2/5
f 141/2/5 139/2/5 140/2/5
f 146/1/5 143/1/5 142/1/5
f 147/1/5 143/1/5 146/1/5
f 148/1/5 145/1/5 144/1/5
f 149/1/5 145/1/5 148/1/5
f 152/1/5 151/1/5 150/1/5
f 153/1/5 151/1/5 152/1/5
f 156/1/5 155/1/5 154/1/5
f 157/1/5 155/1/5 156/1/5
f 158/1/6 159/1/6 162/1/6
f 162/1/6 159/1/6 163/1/6
f 160/1/6 161/1/6 164/1/6
f 164/1/6 161/1/6 165/1/6
f 166/3/6 167/3/6 170/3/6
f 170/3/6 167/3/6 171/3/6
f 168/3/6 169/3/6 172/3/6
f 172/3/6 169/3/6 173/3/6
f 174/1/6 175/1/6 176/1/6
f 176/1/6 175/1/6 177/1/6
f 178/3/6 179/3/6 180/3/6
f 180/3/6 179/3/6 181/3/6
f 182/2/6 183/2/6 184/2/6
f 184/2/6 183/2/6 185/2/6
