# MagicaVoxel @ Ephtracy

# group
o 

# material
mtllib SpiderSilk.mtl
usemtl palette

# normals
vn -1 0 0
vn 1 0 0
vn 0 0 1
vn 0 0 -1
vn 0 -1 0
vn 0 1 0

# texcoords
vt 0.962891 0.5
vt 0.966797 0.5
vt 0.990234 0.5

# verts
v -0.4 0.1 0.4
v -0.4 0.1 -0.4
v -0.4 0.2 0.4
v -0.4 0.2 -0.4
v -0.3 0 0.3
v -0.3 0 -0.3
v -0.3 0.1 0.3
v -0.3 0.1 -0.3
v -0.3 0.2 0.2
v -0.3 0.2 -0.2
v -0.3 0.3 0.2
v -0.3 0.3 -0.2
v -0.3 0.4 0.2
v -0.3 0.4 -0.2
v -0.3 0.5 0.2
v -0.3 0.5 -0.2
v -0.3 0.6 0.2
v -0.3 0.6 -0.2
v -0.2 0.2 0.3
v -0.2 0.2 0.2
v -0.2 0.2 -0.2
v -0.2 0.2 -0.3
v -0.2 0.3 0.3
v -0.2 0.3 0.2
v -0.2 0.3 -0.2
v -0.2 0.3 -0.3
v -0.2 0.4 0.3
v -0.2 0.4 0.2
v -0.2 0.4 -0.2
v -0.2 0.4 -0.3
v -0.2 0.5 0.3
v -0.2 0.5 0.2
v -0.2 0.5 -0.2
v -0.2 0.5 -0.3
v -0.2 0.6 0.3
v -0.2 0.6 0.2
v -0.2 0.6 -0.2
v -0.2 0.6 -0.3
v -0.2 0.7 0.2
v -0.2 0.7 -0.2
v 0.1 0.2 0.2
v 0.1 0.2 0.1
v 0.1 0.3 0.2
v 0.1 0.3 0.1
v 0.1 0.4 0.2
v 0.1 0.4 0.1
v 0.1 0.5 0.2
v 0.1 0.5 0.1
v 0.1 0.6 0.2
v 0.1 0.6 0.1
v 0.2 0.2 0.4
v 0.2 0.2 0.3
v 0.2 0.2 0.1
v 0.2 0.2 -0.2
v 0.2 0.3 0.4
v 0.2 0.3 0.3
v 0.2 0.3 0.1
v 0.2 0.3 -0.2
v 0.2 0.4 0.1
v 0.2 0.4 -0.2
v 0.2 0.5 0.1
v 0.2 0.5 -0.2
v 0.2 0.6 0.1
v 0.2 0.6 -0.2
v -0.2 0.2 0.2
v -0.2 0.2 -0.2
v -0.2 0.3 0.2
v -0.2 0.3 -0.2
v -0.2 0.4 0.2
v -0.2 0.4 -0.2
v -0.2 0.5 0.2
v -0.2 0.5 -0.1
v -0.2 0.5 -0.2
v -0.2 0.6 0.2
v -0.2 0.6 -0.1
v -0.1 0.5 -0.1
v -0.1 0.5 -0.2
v -0.1 0.6 -0.1
v -0.1 0.6 -0.2
v 0.1 0.6 0.2
v 0.1 0.6 0.1
v 0.1 0.7 0.2
v 0.1 0.7 0.1
v 0.2 0.2 0.3
v 0.2 0.2 0.1
v 0.2 0.2 -0.2
v 0.2 0.2 -0.3
v 0.2 0.3 0.3
v 0.2 0.3 0.2
v 0.2 0.3 0.1
v 0.2 0.3 -0.2
v 0.2 0.3 -0.3
v 0.2 0.4 0.3
v 0.2 0.4 0.2
v 0.2 0.4 0.1
v 0.2 0.4 -0.2
v 0.2 0.4 -0.3
v 0.2 0.5 0.3
v 0.2 0.5 0.1
v 0.2 0.5 -0.2
v 0.2 0.5 -0.3
v 0.2 0.6 0.3
v 0.2 0.6 0.1
v 0.2 0.6 -0.2
v 0.2 0.6 -0.3
v 0.2 0.7 0.1
v 0.2 0.7 -0.2
v 0.3 0 0.3
v 0.3 0 -0.3
v 0.3 0.1 0.3
v 0.3 0.1 -0.3
v 0.3 0.2 0.1
v 0.3 0.2 -0.2
v 0.3 0.3 0.3
v 0.3 0.3 0.2
v 0.3 0.3 0.1
v 0.3 0.3 -0.2
v 0.3 0.4 0.3
v 0.3 0.4 0.2
v 0.3 0.4 0.1
v 0.3 0.4 -0.2
v 0.3 0.5 0.1
v 0.3 0.5 -0.2
v 0.3 0.6 0.1
v 0.3 0.6 -0.2
v 0.4 0.1 0.4
v 0.4 0.1 -0.4
v 0.4 0.2 0.4
v 0.4 0.2 0.3
v 0.4 0.2 -0.4
v 0.4 0.3 0.4
v 0.4 0.3 0.3
v -0.4 0.1 0.4
v -0.4 0.2 0.4
v 0.2 0.2 0.4
v 0.2 0.3 0.4
v 0.4 0.1 0.4
v 0.4 0.2 0.4
v 0.4 0.3 0.4
v -0.3 0 0.3
v -0.3 0.1 0.3
v -0.2 0.2 0.3
v -0.2 0.3 0.3
v -0.2 0.4 0.3
v -0.2 0.5 0.3
v -0.2 0.6 0.3
v 0.2 0.2 0.3
v 0.2 0.3 0.3
v 0.2 0.4 0.3
v 0.2 0.5 0.3
v 0.2 0.6 0.3
v 0.3 0 0.3
v 0.3 0.1 0.3
v 0.3 0.3 0.3
v 0.3 0.4 0.3
v -0.3 0.2 0.2
v -0.3 0.3 0.2
v -0.3 0.4 0.2
v -0.3 0.5 0.2
v -0.3 0.6 0.2
v -0.2 0.2 0.2
v -0.2 0.3 0.2
v -0.2 0.4 0.2
v -0.2 0.5 0.2
v -0.2 0.6 0.2
v -0.2 0.7 0.2
v 0.1 0.6 0.2
v 0.1 0.7 0.2
v 0.1 0.6 0.1
v 0.1 0.7 0.1
v 0.2 0.2 0.1
v 0.2 0.3 0.1
v 0.2 0.4 0.1
v 0.2 0.5 0.1
v 0.2 0.6 0.1
v 0.2 0.7 0.1
v 0.3 0.2 0.1
v 0.3 0.3 0.1
v 0.3 0.4 0.1
v 0.3 0.5 0.1
v 0.3 0.6 0.1
v -0.2 0.5 -0.1
v -0.2 0.6 -0.1
v -0.1 0.5 -0.1
v -0.1 0.6 -0.1
v -0.2 0.2 -0.2
v -0.2 0.3 -0.2
v -0.2 0.4 -0.2
v -0.2 0.5 -0.2
v -0.1 0.5 -0.2
v -0.1 0.6 -0.2
v 0.2 0.2 -0.2
v 0.2 0.3 -0.2
v 0.2 0.4 -0.2
v 0.2 0.5 -0.2
v 0.2 0.6 -0.2
v 0.2 0.2 0.3
v 0.2 0.3 0.3
v 0.3 0.3 0.3
v 0.4 0.2 0.3
v 0.4 0.3 0.3
v -0.2 0.2 0.2
v -0.2 0.3 0.2
v -0.2 0.4 0.2
v -0.2 0.5 0.2
v -0.2 0.6 0.2
v 0.1 0.2 0.2
v 0.1 0.3 0.2
v 0.1 0.4 0.2
v 0.1 0.5 0.2
v 0.1 0.6 0.2
v 0.2 0.3 0.2
v 0.2 0.4 0.2
v 0.3 0.3 0.2
v 0.3 0.4 0.2
v 0.1 0.2 0.1
v 0.1 0.3 0.1
v 0.1 0.4 0.1
v 0.1 0.5 0.1
v 0.1 0.6 0.1
v 0.2 0.2 0.1
v 0.2 0.3 0.1
v 0.2 0.4 0.1
v 0.2 0.5 0.1
v 0.2 0.6 0.1
v -0.3 0.2 -0.2
v -0.3 0.3 -0.2
v -0.3 0.4 -0.2
v -0.3 0.5 -0.2
v -0.3 0.6 -0.2
v -0.2 0.2 -0.2
v -0.2 0.3 -0.2
v -0.2 0.4 -0.2
v -0.2 0.5 -0.2
v -0.2 0.6 -0.2
v -0.2 0.7 -0.2
v 0.2 0.2 -0.2
v 0.2 0.3 -0.2
v 0.2 0.4 -0.2
v 0.2 0.5 -0.2
v 0.2 0.6 -0.2
v 0.2 0.7 -0.2
v 0.3 0.2 -0.2
v 0.3 0.3 -0.2
v 0.3 0.4 -0.2
v 0.3 0.5 -0.2
v 0.3 0.6 -0.2
v -0.3 0 -0.3
v -0.3 0.1 -0.3
v -0.2 0.2 -0.3
v -0.2 0.3 -0.3
v -0.2 0.4 -0.3
v -0.2 0.5 -0.3
v -0.2 0.6 -0.3
v 0.2 0.2 -0.3
v 0.2 0.3 -0.3
v 0.2 0.4 -0.3
v 0.2 0.5 -0.3
v 0.2 0.6 -0.3
v 0.3 0 -0.3
v 0.3 0.1 -0.3
v -0.4 0.1 -0.4
v -0.4 0.2 -0.4
v 0.4 0.1 -0.4
v 0.4 0.2 -0.4
v -0.3 0 0.3
v 0.3 0 0.3
v -0.3 0 -0.3
v 0.3 0 -0.3
v -0.4 0.1 0.4
v 0.4 0.1 0.4
v -0.3 0.1 0.3
v 0.3 0.1 0.3
v -0.3 0.1 -0.3
v 0.3 0.1 -0.3
v -0.4 0.1 -0.4
v 0.4 0.1 -0.4
v 0.2 0.3 0.3
v 0.3 0.3 0.3
v 0.2 0.3 0.2
v 0.3 0.3 0.2
v -0.2 0.5 -0.1
v -0.1 0.5 -0.1
v -0.2 0.5 -0.2
v -0.1 0.5 -0.2
v -0.2 0.6 0.2
v 0.1 0.6 0.2
v -0.1 0.6 0.1
v 0.1 0.6 0.1
v 0.2 0.6 0.1
v -0.2 0.6 -0.1
v -0.1 0.6 -0.1
v 0.1 0.6 -0.1
v -0.1 0.6 -0.2
v 0.2 0.6 -0.2
v -0.4 0.2 0.4
v 0.2 0.2 0.4
v -0.2 0.2 0.3
v 0.2 0.2 0.3
v 0.4 0.2 0.3
v -0.3 0.2 0.2
v -0.2 0.2 0.2
v 0.1 0.2 0.2
v 0.1 0.2 0.1
v 0.2 0.2 0.1
v 0.3 0.2 0.1
v -0.3 0.2 -0.2
v -0.2 0.2 -0.2
v 0.2 0.2 -0.2
v 0.3 0.2 -0.2
v -0.2 0.2 -0.3
v 0.2 0.2 -0.3
v -0.4 0.2 -0.4
v 0.4 0.2 -0.4
v 0.2 0.3 0.4
v 0.4 0.3 0.4
v 0.2 0.3 0.3
v 0.3 0.3 0.3
v 0.4 0.3 0.3
v 0.2 0.4 0.3
v 0.3 0.4 0.3
v 0.2 0.4 0.2
v 0.3 0.4 0.2
v -0.2 0.6 0.3
v 0.2 0.6 0.3
v -0.3 0.6 0.2
v -0.2 0.6 0.2
v 0.1 0.6 0.2
v 0.1 0.6 0.1
v 0.2 0.6 0.1
v 0.3 0.6 0.1
v -0.3 0.6 -0.2
v -0.2 0.6 -0.2
v 0.2 0.6 -0.2
v 0.3 0.6 -0.2
v -0.2 0.6 -0.3
v 0.2 0.6 -0.3
v -0.2 0.7 0.2
v 0.1 0.7 0.2
v -0.1 0.7 0.1
v 0.1 0.7 0.1
v 0.2 0.7 0.1
v -0.1 0.7 -0.1
v 0.1 0.7 -0.1
v -0.2 0.7 -0.2
v 0.2 0.7 -0.2

# faces
f 3/3/1 2/3/1 1/3/1
f 4/3/1 2/3/1 3/3/1
f 7/3/1 6/3/1 5/3/1
f 8/3/1 6/3/1 7/3/1
f 11/1/1 10/1/1 9/1/1
f 12/1/1 10/1/1 11/1/1
f 13/2/1 12/2/1 11/2/1
f 14/2/1 12/2/1 13/2/1
f 15/1/1 14/1/1 13/1/1
f 16/1/1 14/1/1 15/1/1
f 17/2/1 16/2/1 15/2/1
f 18/2/1 16/2/1 17/2/1
f 23/1/1 20/1/1 19/1/1
f 24/1/1 20/1/1 23/1/1
f 25/1/1 22/1/1 21/1/1
f 26/1/1 22/1/1 25/1/1
f 27/2/1 24/2/1 23/2/1
f 28/2/1 24/2/1 27/2/1
f 29/2/1 26/2/1 25/2/1
f 30/2/1 26/2/1 29/2/1
f 31/1/1 28/1/1 27/1/1
f 32/1/1 28/1/1 31/1/1
f 33/1/1 30/1/1 29/1/1
f 34/1/1 30/1/1 33/1/1
f 35/2/1 32/2/1 31/2/1
f 36/2/1 32/2/1 35/2/1
f 37/2/1 34/2/1 33/2/1
f 38/2/1 34/2/1 37/2/1
f 39/1/1 37/1/1 36/1/1
f 40/1/1 37/1/1 39/1/1
f 43/1/1 42/1/1 41/1/1
f 44/1/1 42/1/1 43/1/1
f 45/2/1 44/2/1 43/2/1
f 46/2/1 44/2/1 45/2/1
f 47/1/1 46/1/1 45/1/1
f 48/1/1 46/1/1 47/1/1
f 49/2/1 48/2/1 47/2/1
f 50/2/1 48/2/1 49/2/1
f 55/2/1 52/2/1 51/2/1
f 56/2/1 52/2/1 55/2/1
f 57/1/1 54/1/1 53/1/1
f 58/1/1 54/1/1 57/1/1
f 59/2/1 58/2/1 57/2/1
f 60/2/1 58/2/1 59/2/1
f 61/1/1 60/1/1 59/1/1
f 62/1/1 60/1/1 61/1/1
f 63/2/1 62/2/1 61/2/1
f 64/2/1 62/2/1 63/2/1
f 65/1/2 66/1/2 67/1/2
f 67/1/2 66/1/2 68/1/2
f 67/2/2 68/2/2 69/2/2
f 69/2/2 68/2/2 70/2/2
f 69/1/2 70/1/2 71/1/2
f 71/1/2 70/1/2 72/1/2
f 72/1/2 70/1/2 73/1/2
f 71/2/2 72/2/2 74/2/2
f 74/2/2 72/2/2 75/2/2
f 76/1/2 77/1/2 78/1/2
f 78/1/2 77/1/2 79/1/2
f 80/1/2 81/1/2 82/1/2
f 82/1/2 81/1/2 83/1/2
f 84/1/2 85/1/2 88/1/2
f 88/1/2 85/1/2 89/1/2
f 89/1/2 85/1/2 90/1/2
f 86/1/2 87/1/2 91/1/2
f 91/1/2 87/1/2 92/1/2
f 89/2/2 90/2/2 94/2/2
f 94/2/2 90/2/2 95/2/2
f 91/2/2 92/2/2 96/2/2
f 96/2/2 92/2/2 97/2/2
f 94/1/2 95/1/2 98/1/2
f 93/1/2 94/1/2 98/1/2
f 98/1/2 95/1/2 99/1/2
f 96/1/2 97/1/2 100/1/2
f 100/1/2 97/1/2 101/1/2
f 98/2/2 99/2/2 102/2/2
f 102/2/2 99/2/2 103/2/2
f 100/2/2 101/2/2 104/2/2
f 104/2/2 101/2/2 105/2/2
f 103/1/2 104/1/2 106/1/2
f 106/1/2 104/1/2 107/1/2
f 108/3/2 109/3/2 110/3/2
f 110/3/2 109/3/2 111/3/2
f 112/1/2 113/1/2 116/1/2
f 116/1/2 113/1/2 117/1/2
f 114/2/2 115/2/2 118/2/2
f 118/2/2 115/2/2 119/2/2
f 116/2/2 117/2/2 120/2/2
f 120/2/2 117/2/2 121/2/2
f 120/1/2 121/1/2 122/1/2
f 122/1/2 121/1/2 123/1/2
f 122/2/2 123/2/2 124/2/2
f 124/2/2 123/2/2 125/2/2
f 126/3/2 127/3/2 128/3/2
f 128/3/2 127/3/2 129/3/2
f 129/3/2 127/3/2 130/3/2
f 128/2/2 129/2/2 131/2/2
f 131/2/2 129/2/2 132/2/2
f 135/3/3 134/3/3 133/3/3
f 137/3/3 135/3/3 133/3/3
f 138/2/3 136/2/3 135/2/3
f 138/3/3 135/3/3 137/3/3
f 139/2/3 136/2/3 138/2/3
f 147/1/3 143/1/3 142/1/3
f 148/2/3 144/2/3 143/2/3
f 148/1/3 143/1/3 147/1/3
f 149/1/3 145/1/3 144/1/3
f 149/2/3 144/2/3 148/2/3
f 150/2/3 146/2/3 145/2/3
f 150/1/3 145/1/3 149/1/3
f 151/2/3 146/2/3 150/2/3
f 152/3/3 141/3/3 140/3/3
f 153/3/3 141/3/3 152/3/3
f 154/2/3 149/2/3 148/2/3
f 155/2/3 149/2/3 154/2/3
f 161/1/3 157/1/3 156/1/3
f 162/2/3 158/2/3 157/2/3
f 162/1/3 157/1/3 161/1/3
f 163/1/3 159/1/3 158/1/3
f 163/2/3 158/2/3 162/2/3
f 164/2/3 160/2/3 159/2/3
f 164/1/3 159/1/3 163/1/3
f 165/2/3 160/2/3 164/2/3
f 167/1/3 166/1/3 165/1/3
f 168/1/3 166/1/3 167/1/3
f 175/1/3 170/1/3 169/1/3
f 176/1/3 170/1/3 175/1/3
f 177/1/3 172/1/3 171/1/3
f 178/2/3 173/2/3 172/2/3
f 178/1/3 172/1/3 177/1/3
f 179/1/3 174/1/3 173/1/3
f 179/2/3 173/2/3 178/2/3
f 180/2/3 175/2/3 174/2/3
f 180/1/3 174/1/3 179/1/3
f 181/2/3 175/2/3 180/2/3
f 184/1/3 183/1/3 182/1/3
f 185/1/3 183/1/3 184/1/3
f 190/1/3 189/1/3 188/1/3
f 192/1/3 187/1/3 186/1/3
f 193/2/3 188/2/3 187/2/3
f 193/1/3 187/1/3 192/1/3
f 194/1/3 190/1/3 188/1/3
f 194/2/3 188/2/3 193/2/3
f 195/2/3 191/2/3 190/2/3
f 195/1/3 190/1/3 194/1/3
f 196/2/3 191/2/3 195/2/3
f 197/2/4 198/2/4 199/2/4
f 197/2/4 199/2/4 200/2/4
f 200/2/4 199/2/4 201/2/4
f 202/1/4 203/1/4 207/1/4
f 203/2/4 204/2/4 208/2/4
f 207/1/4 203/1/4 208/1/4
f 204/1/4 205/1/4 209/1/4
f 208/2/4 204/2/4 209/2/4
f 205/2/4 206/2/4 210/2/4
f 209/1/4 205/1/4 210/1/4
f 210/2/4 206/2/4 211/2/4
f 212/2/4 213/2/4 214/2/4
f 214/2/4 213/2/4 215/2/4
f 216/1/4 217/1/4 221/1/4
f 217/2/4 218/2/4 222/2/4
f 221/1/4 217/1/4 222/1/4
f 218/1/4 219/1/4 223/1/4
f 222/2/4 218/2/4 223/2/4
f 219/2/4 220/2/4 224/2/4
f 223/1/4 219/1/4 224/1/4
f 224/2/4 220/2/4 225/2/4
f 226/1/4 227/1/4 231/1/4
f 227/2/4 228/2/4 232/2/4
f 231/1/4 227/1/4 232/1/4
f 228/1/4 229/1/4 233/1/4
f 232/2/4 228/2/4 233/2/4
f 229/2/4 230/2/4 234/2/4
f 233/1/4 229/1/4 234/1/4
f 234/2/4 230/2/4 235/2/4
f 235/1/4 236/1/4 241/1/4
f 241/1/4 236/1/4 242/1/4
f 237/1/4 238/1/4 243/1/4
f 238/2/4 239/2/4 244/2/4
f 243/1/4 238/1/4 244/1/4
f 239/1/4 240/1/4 245/1/4
f 244/2/4 239/2/4 245/2/4
f 240/2/4 241/2/4 246/2/4
f 245/1/4 240/1/4 246/1/4
f 246/2/4 241/2/4 247/2/4
f 250/1/4 251/1/4 255/1/4
f 251/2/4 252/2/4 256/2/4
f 255/1/4 251/1/4 256/1/4
f 252/1/4 253/1/4 257/1/4
f 256/2/4 252/2/4 257/2/4
f 253/2/4 254/2/4 258/2/4
f 257/1/4 253/1/4 258/1/4
f 258/2/4 254/2/4 259/2/4
f 248/3/4 249/3/4 260/3/4
f 260/3/4 249/3/4 261/3/4
f 262/3/4 263/3/4 264/3/4
f 264/3/4 263/3/4 265/3/4
f 268/3/5 267/3/5 266/3/5
f 269/3/5 267/3/5 268/3/5
f 272/3/5 271/3/5 270/3/5
f 273/3/5 271/3/5 272/3/5
f 274/3/5 272/3/5 270/3/5
f 275/3/5 271/3/5 273/3/5
f 276/3/5 274/3/5 270/3/5
f 276/3/5 275/3/5 274/3/5
f 277/3/5 271/3/5 275/3/5
f 277/3/5 275/3/5 276/3/5
f 280/2/5 279/2/5 278/2/5
f 281/2/5 279/2/5 280/2/5
f 284/1/5 283/1/5 282/1/5
f 285/1/5 283/1/5 284/1/5
f 288/1/5 287/1/5 286/1/5
f 289/1/5 287/1/5 288/1/5
f 291/1/5 288/1/5 286/1/5
f 292/2/5 289/2/5 288/2/5
f 292/1/5 288/1/5 291/1/5
f 293/1/5 290/1/5 289/1/5
f 293/2/5 289/2/5 292/2/5
f 294/1/5 293/1/5 292/1/5
f 295/1/5 290/1/5 293/1/5
f 295/1/5 293/1/5 294/1/5
f 296/3/6 297/3/6 298/3/6
f 298/3/6 297/3/6 299/3/6
f 296/3/6 298/3/6 301/3/6
f 301/3/6 298/3/6 302/3/6
f 302/3/6 303/3/6 304/3/6
f 299/3/6 300/3/6 305/3/6
f 305/3/6 300/3/6 306/3/6
f 296/3/6 301/3/6 307/3/6
f 302/3/6 304/3/6 308/3/6
f 304/3/6 305/3/6 308/3/6
f 308/3/6 305/3/6 309/3/6
f 306/3/6 300/3/6 310/3/6
f 307/3/6 308/3/6 311/3/6
f 309/3/6 310/3/6 312/3/6
f 296/3/6 307/3/6 313/3/6
f 311/3/6 312/3/6 313/3/6
f 307/3/6 311/3/6 313/3/6
f 312/3/6 310/3/6 314/3/6
f 313/3/6 312/3/6 314/3/6
f 310/3/6 300/3/6 314/3/6
f 315/2/6 316/2/6 317/2/6
f 317/2/6 316/2/6 318/2/6
f 318/2/6 316/2/6 319/2/6
f 320/2/6 321/2/6 322/2/6
f 322/2/6 321/2/6 323/2/6
f 324/2/6 325/2/6 327/2/6
f 327/2/6 325/2/6 328/2/6
f 328/2/6 325/2/6 329/2/6
f 329/2/6 325/2/6 330/2/6
f 326/2/6 327/2/6 332/2/6
f 332/2/6 327/2/6 333/2/6
f 330/2/6 331/2/6 334/2/6
f 334/2/6 331/2/6 335/2/6
f 333/2/6 334/2/6 336/2/6
f 336/2/6 334/2/6 337/2/6
f 338/1/6 339/1/6 340/1/6
f 340/1/6 339/1/6 341/1/6
f 338/1/6 340/1/6 343/1/6
f 340/2/6 341/2/6 343/2/6
f 341/1/6 342/1/6 344/1/6
f 343/2/6 341/2/6 344/2/6
f 338/1/6 343/1/6 345/1/6
f 343/1/6 344/1/6 345/1/6
f 344/1/6 342/1/6 346/1/6
f 345/1/6 344/1/6 346/1/6
