# MagicaVoxel @ Ephtracy

# group
o 

# material
mtllib TrollBlood.mtl
usemtl palette

# normals
vn -1 0 0
vn 1 0 0
vn 0 0 1
vn 0 0 -1
vn 0 -1 0
vn 0 1 0

# texcoords
vt 0.869141 0.5
vt 0.958984 0.5

# verts
v -0.4 0.1 0.4
v -0.4 0.1 -0.4
v -0.4 0.3 0.4
v -0.4 0.3 -0.4
v -0.3 0 0.3
v -0.3 0 -0.3
v -0.3 0.1 0.3
v -0.3 0.1 -0.3
v 0.3 0.2 0.3
v 0.3 0.2 -0.3
v 0.3 0.3 0.3
v 0.3 0.3 -0.3
v -0.3 0.2 0.3
v -0.3 0.2 -0.3
v -0.3 0.3 0.3
v -0.3 0.3 -0.3
v 0.3 0 0.3
v 0.3 0 -0.3
v 0.3 0.1 0.3
v 0.3 0.1 -0.3
v 0.4 0.1 0.4
v 0.4 0.1 -0.4
v 0.4 0.3 0.4
v 0.4 0.3 -0.4
v -0.4 0.1 0.4
v -0.4 0.3 0.4
v 0.4 0.1 0.4
v 0.4 0.3 0.4
v -0.3 0 0.3
v -0.3 0.1 0.3
v 0.3 0 0.3
v 0.3 0.1 0.3
v -0.3 0.2 -0.3
v -0.3 0.3 -0.3
v 0.3 0.2 -0.3
v 0.3 0.3 -0.3
v -0.3 0.2 0.3
v -0.3 0.3 0.3
v 0.3 0.2 0.3
v 0.3 0.3 0.3
v -0.3 0 -0.3
v -0.3 0.1 -0.3
v 0.3 0 -0.3
v 0.3 0.1 -0.3
v -0.4 0.1 -0.4
v -0.4 0.3 -0.4
v 0.4 0.1 -0.4
v 0.4 0.3 -0.4
v -0.3 0 0.3
v 0.3 0 0.3
v -0.3 0 -0.3
v 0.3 0 -0.3
v -0.4 0.1 0.4
v 0.4 0.1 0.4
v -0.3 0.1 0.3
v 0.3 0.1 0.3
v -0.3 0.1 -0.3
v 0.3 0.1 -0.3
v -0.4 0.1 -0.4
v 0.4 0.1 -0.4
v -0.3 0.2 0.3
v 0.3 0.2 0.3
v -0.3 0.2 -0.3
v 0.3 0.2 -0.3
v -0.4 0.3 0.4
v 0.4 0.3 0.4
v -0.3 0.3 0.3
v 0.3 0.3 0.3
v -0.3 0.3 -0.3
v 0.3 0.3 -0.3
v -0.4 0.3 -0.4
v 0.4 0.3 -0.4

# faces
f 3/2/1 2/2/1 1/2/1
f 4/2/1 2/2/1 3/2/1
f 7/2/1 6/2/1 5/2/1
f 8/2/1 6/2/1 7/2/1
f 11/2/1 10/2/1 9/2/1
f 12/2/1 10/2/1 11/2/1
f 13/2/2 14/2/2 15/2/2
f 15/2/2 14/2/2 16/2/2
f 17/2/2 18/2/2 19/2/2
f 19/2/2 18/2/2 20/2/2
f 21/2/2 22/2/2 23/2/2
f 23/2/2 22/2/2 24/2/2
f 27/2/3 26/2/3 25/2/3
f 28/2/3 26/2/3 27/2/3
f 31/2/3 30/2/3 29/2/3
f 32/2/3 30/2/3 31/2/3
f 35/2/3 34/2/3 33/2/3
f 36/2/3 34/2/3 35/2/3
f 37/2/4 38/2/4 39/2/4
f 39/2/4 38/2/4 40/2/4
f 41/2/4 42/2/4 43/2/4
f 43/2/4 42/2/4 44/2/4
f 45/2/4 46/2/4 47/2/4
f 47/2/4 46/2/4 48/2/4
f 51/2/5 50/2/5 49/2/5
f 52/2/5 50/2/5 51/2/5
f 55/2/5 54/2/5 53/2/5
f 56/2/5 54/2/5 55/2/5
f 57/2/5 55/2/5 53/2/5
f 58/2/5 54/2/5 56/2/5
f 59/2/5 57/2/5 53/2/5
f 59/2/5 58/2/5 57/2/5
f 60/2/5 54/2/5 58/2/5
f 60/2/5 58/2/5 59/2/5
f 61/1/6 62/1/6 63/1/6
f 63/1/6 62/1/6 64/1/6
f 65/2/6 66/2/6 67/2/6
f 67/2/6 66/2/6 68/2/6
f 65/2/6 67/2/6 69/2/6
f 68/2/6 66/2/6 70/2/6
f 65/2/6 69/2/6 71/2/6
f 69/2/6 70/2/6 71/2/6
f 70/2/6 66/2/6 72/2/6
f 71/2/6 70/2/6 72/2/6
